%TF.GenerationSoftware,KiCad,Pcbnew,10.0.4*%
%TF.CreationDate,2026-08-24T19:58:11-05:00*%
%TF.ProjectId,LSR_FLCM0001_A03,4c53525f-464c-4434-9d30-3030315f4130,rev?*%
%TF.SameCoordinates,Original*%
%TF.FileFunction,Copper,L1,Top*%
%TF.FilePolarity,Positive*%
%FSLAX46Y46*%
G04 Gerber Fmt 4.6, Leading zero omitted, Abs format (unit mm)*
G04 Created by KiCad (PCBNEW 10.0.4) date 2026-08-24 19:58:11*
%MOMM*%
%LPD*%
G01*
G04 APERTURE LIST*
G04 Aperture macros list*
%AMRoundRect*
0 Rectangle with rounded corners*
0 $1 Rounding radius*
0 $2 $3 $4 $5 $6 $7 $8 $9 X,Y pos of 4 corners*
0 Add a 4 corners polygon primitive as box body*
4,1,4,$2,$3,$4,$5,$6,$7,$8,$9,$2,$3,0*
0 Add four circle primitives for the rounded corners*
1,1,$1+$1,$2,$3*
1,1,$1+$1,$4,$5*
1,1,$1+$1,$6,$7*
1,1,$1+$1,$8,$9*
0 Add four rect primitives between the rounded corners*
20,1,$1+$1,$2,$3,$4,$5,0*
20,1,$1+$1,$4,$5,$6,$7,0*
20,1,$1+$1,$6,$7,$8,$9,0*
20,1,$1+$1,$8,$9,$2,$3,0*%
%AMFreePoly0*
4,1,23,0.500000,-0.750000,0.000000,-0.750000,0.000000,-0.745722,-0.065263,-0.745722,-0.191342,-0.711940,-0.304381,-0.646677,-0.396677,-0.554381,-0.461940,-0.441342,-0.495722,-0.315263,-0.495722,-0.250000,-0.500000,-0.250000,-0.500000,0.250000,-0.495722,0.250000,-0.495722,0.315263,-0.461940,0.441342,-0.396677,0.554381,-0.304381,0.646677,-0.191342,0.711940,-0.065263,0.745722,0.000000,0.745722,
0.000000,0.750000,0.500000,0.750000,0.500000,-0.750000,0.500000,-0.750000,$1*%
%AMFreePoly1*
4,1,23,0.000000,0.745722,0.065263,0.745722,0.191342,0.711940,0.304381,0.646677,0.396677,0.554381,0.461940,0.441342,0.495722,0.315263,0.495722,0.250000,0.500000,0.250000,0.500000,-0.250000,0.495722,-0.250000,0.495722,-0.315263,0.461940,-0.441342,0.396677,-0.554381,0.304381,-0.646677,0.191342,-0.711940,0.065263,-0.745722,0.000000,-0.745722,0.000000,-0.750000,-0.500000,-0.750000,
-0.500000,0.750000,0.000000,0.750000,0.000000,0.745722,0.000000,0.745722,$1*%
G04 Aperture macros list end*
%TA.AperFunction,Conductor*%
%ADD10C,0.200000*%
%TD*%
%TA.AperFunction,ComponentPad*%
%ADD11C,1.524000*%
%TD*%
%TA.AperFunction,SMDPad,CuDef*%
%ADD12RoundRect,0.140000X0.170000X-0.140000X0.170000X0.140000X-0.170000X0.140000X-0.170000X-0.140000X0*%
%TD*%
%TA.AperFunction,SMDPad,CuDef*%
%ADD13R,1.500000X4.000000*%
%TD*%
%TA.AperFunction,SMDPad,CuDef*%
%ADD14C,0.500000*%
%TD*%
%TA.AperFunction,ComponentPad*%
%ADD15C,0.700000*%
%TD*%
%TA.AperFunction,ComponentPad*%
%ADD16C,4.400000*%
%TD*%
%TA.AperFunction,SMDPad,CuDef*%
%ADD17RoundRect,0.140000X-0.140000X-0.170000X0.140000X-0.170000X0.140000X0.170000X-0.140000X0.170000X0*%
%TD*%
%TA.AperFunction,SMDPad,CuDef*%
%ADD18RoundRect,0.135000X-0.185000X0.135000X-0.185000X-0.135000X0.185000X-0.135000X0.185000X0.135000X0*%
%TD*%
%TA.AperFunction,SMDPad,CuDef*%
%ADD19RoundRect,0.147500X0.147500X0.172500X-0.147500X0.172500X-0.147500X-0.172500X0.147500X-0.172500X0*%
%TD*%
%TA.AperFunction,SMDPad,CuDef*%
%ADD20R,0.254000X0.279400*%
%TD*%
%TA.AperFunction,SMDPad,CuDef*%
%ADD21R,0.279400X0.254000*%
%TD*%
%TA.AperFunction,SMDPad,CuDef*%
%ADD22RoundRect,0.218750X0.218750X0.256250X-0.218750X0.256250X-0.218750X-0.256250X0.218750X-0.256250X0*%
%TD*%
%TA.AperFunction,SMDPad,CuDef*%
%ADD23RoundRect,0.218750X-0.256250X0.218750X-0.256250X-0.218750X0.256250X-0.218750X0.256250X0.218750X0*%
%TD*%
%TA.AperFunction,SMDPad,CuDef*%
%ADD24RoundRect,0.135000X-0.135000X-0.185000X0.135000X-0.185000X0.135000X0.185000X-0.135000X0.185000X0*%
%TD*%
%TA.AperFunction,SMDPad,CuDef*%
%ADD25R,1.727200X1.625600*%
%TD*%
%TA.AperFunction,SMDPad,CuDef*%
%ADD26RoundRect,0.140000X-0.170000X0.140000X-0.170000X-0.140000X0.170000X-0.140000X0.170000X0.140000X0*%
%TD*%
%TA.AperFunction,SMDPad,CuDef*%
%ADD27RoundRect,0.062500X-0.350000X-0.062500X0.350000X-0.062500X0.350000X0.062500X-0.350000X0.062500X0*%
%TD*%
%TA.AperFunction,SMDPad,CuDef*%
%ADD28RoundRect,0.062500X-0.062500X-0.350000X0.062500X-0.350000X0.062500X0.350000X-0.062500X0.350000X0*%
%TD*%
%TA.AperFunction,HeatsinkPad*%
%ADD29C,0.500000*%
%TD*%
%TA.AperFunction,HeatsinkPad*%
%ADD30R,1.680000X1.680000*%
%TD*%
%TA.AperFunction,SMDPad,CuDef*%
%ADD31RoundRect,0.135000X0.135000X0.185000X-0.135000X0.185000X-0.135000X-0.185000X0.135000X-0.185000X0*%
%TD*%
%TA.AperFunction,SMDPad,CuDef*%
%ADD32RoundRect,0.140000X0.140000X0.170000X-0.140000X0.170000X-0.140000X-0.170000X0.140000X-0.170000X0*%
%TD*%
%TA.AperFunction,SMDPad,CuDef*%
%ADD33RoundRect,0.150000X0.500000X-0.150000X0.500000X0.150000X-0.500000X0.150000X-0.500000X-0.150000X0*%
%TD*%
%TA.AperFunction,SMDPad,CuDef*%
%ADD34RoundRect,0.075000X0.575000X-0.075000X0.575000X0.075000X-0.575000X0.075000X-0.575000X-0.075000X0*%
%TD*%
%TA.AperFunction,ComponentPad*%
%ADD35O,2.100000X1.000000*%
%TD*%
%TA.AperFunction,ComponentPad*%
%ADD36O,1.600000X1.000000*%
%TD*%
%TA.AperFunction,SMDPad,CuDef*%
%ADD37R,1.397000X3.403600*%
%TD*%
%TA.AperFunction,SMDPad,CuDef*%
%ADD38R,2.311400X5.588000*%
%TD*%
%TA.AperFunction,SMDPad,CuDef*%
%ADD39R,0.399999X1.050000*%
%TD*%
%TA.AperFunction,SMDPad,CuDef*%
%ADD40R,0.599999X0.200000*%
%TD*%
%TA.AperFunction,SMDPad,CuDef*%
%ADD41R,1.193800X1.803400*%
%TD*%
%TA.AperFunction,SMDPad,CuDef*%
%ADD42RoundRect,0.250000X-0.650000X0.325000X-0.650000X-0.325000X0.650000X-0.325000X0.650000X0.325000X0*%
%TD*%
%TA.AperFunction,SMDPad,CuDef*%
%ADD43R,0.980000X3.400000*%
%TD*%
%TA.AperFunction,SMDPad,CuDef*%
%ADD44FreePoly0,180.000000*%
%TD*%
%TA.AperFunction,SMDPad,CuDef*%
%ADD45FreePoly1,180.000000*%
%TD*%
%TA.AperFunction,ComponentPad*%
%ADD46R,1.400000X1.400000*%
%TD*%
%TA.AperFunction,ComponentPad*%
%ADD47C,1.400000*%
%TD*%
%TA.AperFunction,SMDPad,CuDef*%
%ADD48R,1.092200X0.609600*%
%TD*%
%TA.AperFunction,SMDPad,CuDef*%
%ADD49RoundRect,0.218750X-0.218750X-0.256250X0.218750X-0.256250X0.218750X0.256250X-0.218750X0.256250X0*%
%TD*%
%TA.AperFunction,ConnectorPad*%
%ADD50C,0.787400*%
%TD*%
%TA.AperFunction,ComponentPad*%
%ADD51R,1.000000X1.000000*%
%TD*%
%TA.AperFunction,ComponentPad*%
%ADD52C,1.000000*%
%TD*%
%TA.AperFunction,SMDPad,CuDef*%
%ADD53R,1.066800X0.762000*%
%TD*%
%TA.AperFunction,SMDPad,CuDef*%
%ADD54R,0.762000X1.066800*%
%TD*%
%TA.AperFunction,SMDPad,CuDef*%
%ADD55RoundRect,0.087500X-0.225000X-0.087500X0.225000X-0.087500X0.225000X0.087500X-0.225000X0.087500X0*%
%TD*%
%TA.AperFunction,SMDPad,CuDef*%
%ADD56RoundRect,0.087500X-0.087500X-0.225000X0.087500X-0.225000X0.087500X0.225000X-0.087500X0.225000X0*%
%TD*%
%TA.AperFunction,SMDPad,CuDef*%
%ADD57RoundRect,0.087500X0.087500X-0.225000X0.087500X0.225000X-0.087500X0.225000X-0.087500X-0.225000X0*%
%TD*%
%TA.AperFunction,SMDPad,CuDef*%
%ADD58RoundRect,0.087500X0.225000X-0.087500X0.225000X0.087500X-0.225000X0.087500X-0.225000X-0.087500X0*%
%TD*%
%TA.AperFunction,BGAPad,CuDef*%
%ADD59C,0.400000*%
%TD*%
%TA.AperFunction,SMDPad,CuDef*%
%ADD60R,0.350000X0.375000*%
%TD*%
%TA.AperFunction,SMDPad,CuDef*%
%ADD61R,0.375000X0.350000*%
%TD*%
%TA.AperFunction,SMDPad,CuDef*%
%ADD62RoundRect,0.175000X0.175000X-0.725000X0.175000X0.725000X-0.175000X0.725000X-0.175000X-0.725000X0*%
%TD*%
%TA.AperFunction,SMDPad,CuDef*%
%ADD63RoundRect,0.200000X0.200000X-0.700000X0.200000X0.700000X-0.200000X0.700000X-0.200000X-0.700000X0*%
%TD*%
%TA.AperFunction,ViaPad*%
%ADD64C,0.406400*%
%TD*%
%TA.AperFunction,ViaPad*%
%ADD65C,0.600000*%
%TD*%
%TA.AperFunction,Conductor*%
%ADD66C,0.127000*%
%TD*%
%TA.AperFunction,Conductor*%
%ADD67C,0.300000*%
%TD*%
%TA.AperFunction,Conductor*%
%ADD68C,0.400000*%
%TD*%
%TA.AperFunction,Conductor*%
%ADD69C,0.600000*%
%TD*%
%TA.AperFunction,Conductor*%
%ADD70C,0.762000*%
%TD*%
%TA.AperFunction,Conductor*%
%ADD71C,0.500000*%
%TD*%
%TA.AperFunction,Conductor*%
%ADD72C,1.400000*%
%TD*%
%TA.AperFunction,Conductor*%
%ADD73C,0.254000*%
%TD*%
G04 APERTURE END LIST*
D10*
%TO.N,/USB_OTG_HS_DP*%
X162200000Y-92200000D02*
X164200000Y-92200000D01*
X164200000Y-93100000D01*
X162200000Y-93100000D01*
X162200000Y-92200000D01*
%TA.AperFunction,Conductor*%
G36*
X164200000Y-93100000D02*
G01*
X162200000Y-93100000D01*
X162200000Y-92200000D01*
X164200000Y-92200000D01*
X164200000Y-93100000D01*
G37*
%TD.AperFunction*%
%TO.N,/USB_OTG_HS_DM*%
X162200000Y-93600000D02*
X164200000Y-93600000D01*
X164200000Y-94500000D01*
X162200000Y-94500000D01*
X162200000Y-93600000D01*
%TA.AperFunction,Conductor*%
G36*
X164200000Y-94500000D02*
G01*
X162200000Y-94500000D01*
X162200000Y-93600000D01*
X164200000Y-93600000D01*
X164200000Y-94500000D01*
G37*
%TD.AperFunction*%
%TO.N,GND*%
X141300000Y-120100000D02*
X141300000Y-121900000D01*
X138400000Y-121900000D01*
X138400000Y-127000000D01*
X135900000Y-127000000D01*
X135900000Y-120100000D01*
X141300000Y-120100000D01*
%TA.AperFunction,Conductor*%
G36*
X141300000Y-121900000D02*
G01*
X138400000Y-121900000D01*
X138400000Y-127000000D01*
X135900000Y-127000000D01*
X135900000Y-120100000D01*
X141300000Y-120100000D01*
X141300000Y-121900000D01*
G37*
%TD.AperFunction*%
%TO.N,+3V3*%
X144700000Y-112800000D02*
X143900000Y-112800000D01*
X142800000Y-112600000D01*
X141200000Y-112600000D01*
X141200000Y-116200000D01*
X142800000Y-116200000D01*
X143900000Y-116000000D01*
X144700000Y-116000000D01*
X144700000Y-112800000D01*
%TA.AperFunction,Conductor*%
G36*
X143900000Y-112800000D02*
G01*
X144700000Y-112800000D01*
X144700000Y-116000000D01*
X143900000Y-116000000D01*
X142800000Y-116200000D01*
X141200000Y-116200000D01*
X141200000Y-112600000D01*
X142800000Y-112600000D01*
X143900000Y-112800000D01*
G37*
%TD.AperFunction*%
%TO.N,/Power/TPS2121.SW*%
X149600000Y-113500000D02*
X147800000Y-113500000D01*
X147100000Y-112800000D01*
X146300000Y-112800000D01*
X146300000Y-116000000D01*
X147100000Y-116000000D01*
X148400000Y-114700000D01*
X149600000Y-114700000D01*
X149600000Y-113500000D01*
%TA.AperFunction,Conductor*%
G36*
X147800000Y-113500000D02*
G01*
X149600000Y-113500000D01*
X149600000Y-114700000D01*
X148400000Y-114700000D01*
X147100000Y-116000000D01*
X146300000Y-116000000D01*
X146300000Y-112800000D01*
X147100000Y-112800000D01*
X147800000Y-113500000D01*
G37*
%TD.AperFunction*%
%TD*%
D11*
%TO.P,J6,1,1_1*%
%TO.N,VBATT*%
X162300000Y-114600000D03*
%TO.P,J6,2,2_2*%
%TO.N,GND*%
X162300000Y-111600001D03*
%TD*%
D12*
%TO.P,C25,1*%
%TO.N,/Sensors/Megnetometer/C1*%
X140900000Y-91180000D03*
%TO.P,C25,2*%
%TO.N,GND*%
X140900000Y-90220000D03*
%TD*%
D13*
%TO.P,J10,1,In_1*%
%TO.N,/Sensors/RF/RF_IN*%
X154600000Y-72500000D03*
%TO.P,J10,2,Ext_2*%
%TO.N,GND*%
X152060000Y-72500000D03*
X157140000Y-72500000D03*
%TD*%
D14*
%TO.P,TP2,1,1_1*%
%TO.N,/Connectors/D-*%
X155400000Y-105200000D03*
%TD*%
D15*
%TO.P,H1,1*%
%TO.N,GND*%
X136250000Y-73000000D03*
X136733274Y-71833274D03*
X136733274Y-74166726D03*
X137900000Y-71350000D03*
D16*
X137900000Y-73000000D03*
D15*
X137900000Y-74650000D03*
X139066726Y-71833274D03*
X139066726Y-74166726D03*
X139550000Y-73000000D03*
%TD*%
D17*
%TO.P,C32,1*%
%TO.N,+3V3*%
X162720000Y-91300000D03*
%TO.P,C32,2*%
%TO.N,GND*%
X163680000Y-91300000D03*
%TD*%
D18*
%TO.P,R19,1*%
%TO.N,GND*%
X149100000Y-111090000D03*
%TO.P,R19,2*%
%TO.N,/Power/Power_LED_3V3*%
X149100000Y-112110000D03*
%TD*%
D19*
%TO.P,D10,1,A1_1*%
%TO.N,/Sensors/RF/RF_IN*%
X159085000Y-76000000D03*
%TO.P,D10,2,A2_2*%
%TO.N,GND*%
X158115000Y-76000000D03*
%TD*%
D20*
%TO.P,U10,1,VDDIO_1*%
%TO.N,+3V3*%
X145850000Y-90512600D03*
%TO.P,U10,2,SCK_2*%
%TO.N,/SPI2_SCK*%
X145350000Y-90512600D03*
D21*
%TO.P,U10,3,VSS_3*%
%TO.N,GND*%
X144812600Y-90800001D03*
%TO.P,U10,4,SDI_4*%
%TO.N,/SPI2_MOSI*%
X144812600Y-91300000D03*
%TO.P,U10,5,SDO_5*%
%TO.N,/SPI2_MISO*%
X144812600Y-91799999D03*
D20*
%TO.P,U10,6,CSB_6*%
%TO.N,/~{BMP_{1}.CS}*%
X145350000Y-92087400D03*
%TO.P,U10,7,INT_7*%
%TO.N,/BMP_{1}.INT*%
X145850000Y-92087400D03*
D21*
%TO.P,U10,8,VSS_8*%
%TO.N,GND*%
X146387400Y-91799999D03*
%TO.P,U10,9,VSS_9*%
X146387400Y-91300000D03*
%TO.P,U10,10,VDD_10*%
%TO.N,+3V3*%
X146387400Y-90800001D03*
%TD*%
D22*
%TO.P,D2,1,K_1*%
%TO.N,/Power/USB_LED*%
X163687500Y-97900000D03*
%TO.P,D2,2,A_2*%
%TO.N,VUSB*%
X162112500Y-97900000D03*
%TD*%
D14*
%TO.P,TP19,1,1_1*%
%TO.N,+3V3*%
X142000000Y-113400000D03*
%TD*%
D18*
%TO.P,R37,1*%
%TO.N,GND*%
X163800000Y-82690000D03*
%TO.P,R37,2*%
%TO.N,/Sensors/RF/Timepulse_LED*%
X163800000Y-83710000D03*
%TD*%
D23*
%TO.P,D1,1,K_1*%
%TO.N,/Power/BATT_LED*%
X159200000Y-112612500D03*
%TO.P,D1,2,A_2*%
%TO.N,VBATT*%
X159200000Y-114187500D03*
%TD*%
D22*
%TO.P,D4,1,K_1*%
%TO.N,/Power/Power_LED_VIN*%
X157787500Y-128500000D03*
%TO.P,D4,2,A_2*%
%TO.N,VIN*%
X156212500Y-128500000D03*
%TD*%
D24*
%TO.P,R22,1*%
%TO.N,GND*%
X150690000Y-109500000D03*
%TO.P,R22,2*%
%TO.N,/Power/ILM*%
X151710000Y-109500000D03*
%TD*%
D25*
%TO.P,CR1,1*%
%TO.N,VIN*%
X154366400Y-116700000D03*
%TO.P,CR1,2*%
%TO.N,VBATT*%
X158633600Y-116700000D03*
%TD*%
D18*
%TO.P,R4,1*%
%TO.N,GND*%
X150800000Y-90490000D03*
%TO.P,R4,2*%
%TO.N,/MCU/BOOT0*%
X150800000Y-91510000D03*
%TD*%
D26*
%TO.P,C34,1*%
%TO.N,+3V3*%
X149000000Y-86020000D03*
%TO.P,C34,2*%
%TO.N,GND*%
X149000000Y-86980000D03*
%TD*%
D27*
%TO.P,U4,1,SW_1*%
%TO.N,/Power/TPS2121.SW*%
X149275000Y-113600000D03*
%TO.P,U4,2,SW_2*%
X149275000Y-114100000D03*
%TO.P,U4,3,SW_3*%
X149275000Y-114600000D03*
%TO.P,U4,4,PG_4*%
%TO.N,/Power/PG*%
X149275000Y-115100000D03*
D28*
%TO.P,U4,5,FB_5*%
%TO.N,/Power/FB*%
X149987500Y-115812500D03*
%TO.P,U4,6,GND_6*%
%TO.N,GND*%
X150487500Y-115812500D03*
%TO.P,U4,7,FSW_7*%
X150987500Y-115812500D03*
%TO.P,U4,8,DEF_8*%
X151487500Y-115812500D03*
D27*
%TO.P,U4,9,SS/TR_9*%
%TO.N,/Power/SS{slash}TR*%
X152200000Y-115100000D03*
%TO.P,U4,10,VIN_10*%
%TO.N,VSW*%
X152200000Y-114600000D03*
%TO.P,U4,11,VIN_11*%
X152200000Y-114100000D03*
%TO.P,U4,12,VIN_12*%
X152200000Y-113600000D03*
D28*
%TO.P,U4,13,EN_13*%
X151487500Y-112887500D03*
%TO.P,U4,14,VOS_14*%
%TO.N,+3V3*%
X150987500Y-112887500D03*
%TO.P,U4,15,GND_15*%
%TO.N,GND*%
X150487500Y-112887500D03*
%TO.P,U4,16,GND_16*%
X149987500Y-112887500D03*
D29*
%TO.P,U4,17,GND_17*%
X150147500Y-113760000D03*
X150147500Y-114940000D03*
D30*
X150737500Y-114350000D03*
D29*
X151327500Y-113760000D03*
X151327500Y-114940000D03*
%TD*%
D17*
%TO.P,C11,1*%
%TO.N,/MCU/RCC_OSC32_IN*%
X142220000Y-93000000D03*
%TO.P,C11,2*%
%TO.N,GND*%
X143180000Y-93000000D03*
%TD*%
D26*
%TO.P,C10,1*%
%TO.N,/MCU/RCC_OSC_OUT*%
X141330200Y-100120000D03*
%TO.P,C10,2*%
%TO.N,GND*%
X141330200Y-101080000D03*
%TD*%
D23*
%TO.P,D9,1,K_1*%
%TO.N,/Sensors/RF/Timepulse_LED*%
X163800000Y-85012500D03*
%TO.P,D9,2,A_2*%
%TO.N,/Sensors/RF/GPS.TIMEPULSE*%
X163800000Y-86587500D03*
%TD*%
D14*
%TO.P,TP5,1,1_1*%
%TO.N,/USART2_TX*%
X151500000Y-86400000D03*
%TD*%
D31*
%TO.P,R3,1*%
%TO.N,/MCU/NRST*%
X137510000Y-102700000D03*
%TO.P,R3,2*%
%TO.N,+3V3*%
X136490000Y-102700000D03*
%TD*%
%TO.P,R21,1*%
%TO.N,GND*%
X151110000Y-117200000D03*
%TO.P,R21,2*%
%TO.N,/Power/FB*%
X150090000Y-117200000D03*
%TD*%
D13*
%TO.P,J9,1,In_1*%
%TO.N,/Sensors/RF/EBYTE.ANT*%
X145400000Y-72500000D03*
%TO.P,J9,2,Ext_2*%
%TO.N,GND*%
X142860000Y-72500000D03*
X147940000Y-72500000D03*
%TD*%
D26*
%TO.P,C24,1*%
%TO.N,+3V3*%
X136500000Y-89820000D03*
%TO.P,C24,2*%
%TO.N,GND*%
X136500000Y-90780000D03*
%TD*%
%TO.P,C20,1*%
%TO.N,+3V3*%
X149100000Y-109120000D03*
%TO.P,C20,2*%
%TO.N,GND*%
X149100000Y-110080000D03*
%TD*%
D14*
%TO.P,TP16,1,1_1*%
%TO.N,VIN*%
X152800000Y-118000000D03*
%TD*%
D32*
%TO.P,C17,1*%
%TO.N,/Power/SS*%
X151680000Y-110700000D03*
%TO.P,C17,2*%
%TO.N,GND*%
X150720000Y-110700000D03*
%TD*%
D14*
%TO.P,TP6,1,1_1*%
%TO.N,/USART2_RX*%
X151800000Y-87400000D03*
%TD*%
D33*
%TO.P,J1,A1,GND_A1*%
%TO.N,GND*%
X157055000Y-107700000D03*
%TO.P,J1,A4,VBUS_A4*%
%TO.N,VUSB*%
X157055000Y-106900000D03*
D34*
%TO.P,J1,A5,CC1_A5*%
%TO.N,/Connectors/CC1*%
X157055000Y-105750000D03*
%TO.P,J1,A6,D+_A6*%
%TO.N,/Connectors/D+*%
X157055000Y-104750000D03*
%TO.P,J1,A7,D-_A7*%
%TO.N,/Connectors/D-*%
X157055000Y-104250000D03*
%TO.P,J1,A8,SBU1_A8*%
%TO.N,unconnected-(J1-SBU1-PadA8)*%
X157055000Y-103250000D03*
D33*
%TO.P,J1,A9,VBUS_A9*%
%TO.N,VUSB*%
X157055000Y-102100000D03*
%TO.P,J1,A12,GND_A12*%
%TO.N,GND*%
X157055000Y-101300000D03*
%TO.P,J1,B1,GND_B1*%
X157055000Y-101300000D03*
%TO.P,J1,B4,VBUS_B4*%
%TO.N,VUSB*%
X157055000Y-102100000D03*
D34*
%TO.P,J1,B5,CC2_B5*%
%TO.N,/Connectors/CC2*%
X157055000Y-102750000D03*
%TO.P,J1,B6,D+_B6*%
%TO.N,/Connectors/D+*%
X157055000Y-103750000D03*
%TO.P,J1,B7,D-_B7*%
%TO.N,/Connectors/D-*%
X157055000Y-105250000D03*
%TO.P,J1,B8,SBU2_B8*%
%TO.N,unconnected-(J1-SBU2-PadB8)*%
X157055000Y-106250000D03*
D33*
%TO.P,J1,B9,VBUS_B9*%
%TO.N,VUSB*%
X157055000Y-106900000D03*
%TO.P,J1,B12,GND_B12*%
%TO.N,GND*%
X157055000Y-107700000D03*
D35*
%TO.P,J1,SH,SHIELD_SH*%
X157695000Y-108820000D03*
D36*
X161875000Y-108820000D03*
D35*
X157695000Y-100180000D03*
D36*
X161875000Y-100180000D03*
%TD*%
D31*
%TO.P,R24,1*%
%TO.N,/ST*%
X153910000Y-108600000D03*
%TO.P,R24,2*%
%TO.N,+3V3*%
X152890000Y-108600000D03*
%TD*%
%TO.P,R14,1*%
%TO.N,/Power/CP2*%
X157710000Y-111600000D03*
%TO.P,R14,2*%
%TO.N,VIN*%
X156690000Y-111600000D03*
%TD*%
%TO.P,R15,1*%
%TO.N,GND*%
X157710000Y-110500000D03*
%TO.P,R15,2*%
%TO.N,/Power/CP2*%
X156690000Y-110500000D03*
%TD*%
D14*
%TO.P,TP18,1,1_1*%
%TO.N,VSW*%
X153200000Y-112600000D03*
%TD*%
D37*
%TO.P,J7,1,1_1*%
%TO.N,/Pyro/Pyro_{1}_Charge*%
X147250000Y-125468599D03*
%TO.P,J7,2,2_2*%
%TO.N,/Pyro/Pyro_{2}_Charge*%
X149750000Y-125468599D03*
%TO.P,J7,3,3_3*%
%TO.N,/Pyro/Pyro_{3}_Charge*%
X152250000Y-125468599D03*
%TO.P,J7,4,4_4*%
%TO.N,VIN*%
X154750000Y-125468599D03*
D38*
%TO.P,J7,5*%
%TO.N,N/C*%
X144300000Y-122318600D03*
%TO.P,J7,6*%
X157700000Y-122318600D03*
%TD*%
D39*
%TO.P,U5,1,OUT_1*%
%TO.N,VSW*%
X153875002Y-111375000D03*
%TO.P,U5,2,IN2_2*%
%TO.N,VIN*%
X154575001Y-111375000D03*
D40*
%TO.P,U5,3,CP2_3*%
%TO.N,/Power/CP2*%
X155350000Y-111450001D03*
%TO.P,U5,4,OV2_4*%
%TO.N,unconnected-(U5-OV2-Pad4)*%
X155350000Y-110950000D03*
%TO.P,U5,5,OV1_5*%
%TO.N,unconnected-(U5-OV1-Pad5)*%
X155350000Y-110450000D03*
%TO.P,U5,6,PR1_6*%
%TO.N,VUSB*%
X155350000Y-109949999D03*
D39*
%TO.P,U5,7,IN1_7*%
X154575001Y-110025000D03*
%TO.P,U5,8,OUT_8*%
%TO.N,VSW*%
X153875002Y-110025000D03*
D40*
%TO.P,U5,9,ST_9*%
%TO.N,/ST*%
X153050002Y-109949999D03*
%TO.P,U5,10,ILM_10*%
%TO.N,/Power/ILM*%
X153050002Y-110450000D03*
%TO.P,U5,11,SS_11*%
%TO.N,/Power/SS*%
X153050002Y-110950000D03*
%TO.P,U5,12,GND_12*%
%TO.N,GND*%
X153050002Y-111450001D03*
%TD*%
D41*
%TO.P,Y1,1,1_1*%
%TO.N,/MCU/RCC_OSC_IN*%
X137136400Y-96668000D03*
%TO.P,Y1,2,2_2*%
%TO.N,GND*%
X137136400Y-100732000D03*
%TO.P,Y1,3,3_3*%
%TO.N,/MCU/RCC_OSC_OUT*%
X139524000Y-100732000D03*
%TO.P,Y1,4,4_4*%
%TO.N,GND*%
X139524000Y-96668000D03*
%TD*%
D22*
%TO.P,D3,1,K_1*%
%TO.N,/Power/Power_LED_3V3*%
X147487500Y-111100000D03*
%TO.P,D3,2,A_2*%
%TO.N,+3V3*%
X145912500Y-111100000D03*
%TD*%
D14*
%TO.P,TP3,1,1_1*%
%TO.N,/Connectors/D+*%
X155600000Y-103600000D03*
%TD*%
D31*
%TO.P,R7,1*%
%TO.N,GND*%
X138110000Y-93900000D03*
%TO.P,R7,2*%
%TO.N,/MCU/RCC_OSC_IN*%
X137090000Y-93900000D03*
%TD*%
D17*
%TO.P,C26,1*%
%TO.N,+3V3*%
X137820000Y-88900000D03*
%TO.P,C26,2*%
%TO.N,GND*%
X138780000Y-88900000D03*
%TD*%
D15*
%TO.P,H4,1*%
%TO.N,GND*%
X160350000Y-127000000D03*
X160833274Y-125833274D03*
X160833274Y-128166726D03*
X162000000Y-125350000D03*
D16*
X162000000Y-127000000D03*
D15*
X162000000Y-128650000D03*
X163166726Y-125833274D03*
X163166726Y-128166726D03*
X163650000Y-127000000D03*
%TD*%
D26*
%TO.P,C21,1*%
%TO.N,+3V3*%
X148100000Y-108720000D03*
%TO.P,C21,2*%
%TO.N,GND*%
X148100000Y-109680000D03*
%TD*%
D24*
%TO.P,R17,1*%
%TO.N,GND*%
X162790000Y-96500000D03*
%TO.P,R17,2*%
%TO.N,/Power/USB_LED*%
X163810000Y-96500000D03*
%TD*%
D42*
%TO.P,C18,1*%
%TO.N,+3V3*%
X138000000Y-117725000D03*
%TO.P,C18,2*%
%TO.N,GND*%
X138000000Y-120675000D03*
%TD*%
D43*
%TO.P,L1,1,1_1*%
%TO.N,/Power/TPS2121.SW*%
X146685000Y-114400000D03*
%TO.P,L1,2,2_2*%
%TO.N,+3V3*%
X144315000Y-114400000D03*
%TD*%
D15*
%TO.P,H3,1*%
%TO.N,GND*%
X136350000Y-127000000D03*
X136833274Y-125833274D03*
X136833274Y-128166726D03*
X138000000Y-125350000D03*
D16*
X138000000Y-127000000D03*
D15*
X138000000Y-128650000D03*
X139166726Y-125833274D03*
X139166726Y-128166726D03*
X139650000Y-127000000D03*
%TD*%
D44*
%TO.P,JP1,1,A_1*%
%TO.N,VBATT*%
X157150000Y-113700000D03*
D45*
%TO.P,JP1,2,B_2*%
%TO.N,VIN*%
X155850000Y-113700000D03*
%TD*%
D17*
%TO.P,C31,1*%
%TO.N,+3V3*%
X162720000Y-90300000D03*
%TO.P,C31,2*%
%TO.N,GND*%
X163680000Y-90300000D03*
%TD*%
D46*
%TO.P,J8,1,1_1*%
%TO.N,/TIM2_CH1*%
X137000000Y-104990000D03*
D47*
%TO.P,J8,2,2_2*%
%TO.N,/TIM2_CH2*%
X137000000Y-107530000D03*
%TO.P,J8,3,3_3*%
%TO.N,/TIM2_CH3*%
X137000000Y-110070000D03*
%TO.P,J8,4,4_4*%
%TO.N,/TIM2_CH4*%
X137000000Y-112610010D03*
%TD*%
D48*
%TO.P,XTAL1,1,1_1*%
%TO.N,/MCU/RCC_OSC32_IN*%
X142430200Y-94401500D03*
%TO.P,XTAL1,2,2_2*%
%TO.N,/MCU/RCC_OSC32_OUT*%
X142430200Y-95798500D03*
%TD*%
D49*
%TO.P,D5,1,K_1*%
%TO.N,/Pyro/Pyro_{2}_LED*%
X147212500Y-128500000D03*
%TO.P,D5,2,A_2*%
%TO.N,/Pyro/Pyro_{2}_Charge*%
X148787500Y-128500000D03*
%TD*%
D50*
%TO.P,J4,1,VCC_1*%
%TO.N,+3V3*%
X159900000Y-91730000D03*
%TO.P,J4,2,SWDIO_2*%
%TO.N,/MCU/SWDIO*%
X159900000Y-93000000D03*
%TO.P,J4,3,~{RESET}_3*%
%TO.N,/MCU/NRST*%
X158630000Y-91730000D03*
%TO.P,J4,4,SWCLK_4*%
%TO.N,/MCU/SWCLK*%
X158630000Y-93000000D03*
%TO.P,J4,5,GND_5*%
%TO.N,GND*%
X157360000Y-91730000D03*
%TO.P,J4,6,SWO_6*%
%TO.N,/MCU/SWO*%
X157360000Y-93000000D03*
%TD*%
D26*
%TO.P,C28,1*%
%TO.N,+3V3*%
X147600000Y-90220000D03*
%TO.P,C28,2*%
%TO.N,GND*%
X147600000Y-91180000D03*
%TD*%
D51*
%TO.P,J3,1,Pin_1_1*%
%TO.N,+3V3*%
X153200000Y-90800000D03*
D52*
%TO.P,J3,2,Pin_2_2*%
%TO.N,/MCU/BOOT0*%
X153200000Y-92070000D03*
%TD*%
D42*
%TO.P,C19,1*%
%TO.N,+3V3*%
X140300000Y-117725000D03*
%TO.P,C19,2*%
%TO.N,GND*%
X140300000Y-120675000D03*
%TD*%
D15*
%TO.P,H2,1*%
%TO.N,GND*%
X160350000Y-73000000D03*
X160833274Y-71833274D03*
X160833274Y-74166726D03*
X162000000Y-71350000D03*
D16*
X162000000Y-73000000D03*
D15*
X162000000Y-74650000D03*
X163166726Y-71833274D03*
X163166726Y-74166726D03*
X163650000Y-73000000D03*
%TD*%
D49*
%TO.P,D6,1,K_1*%
%TO.N,/Pyro/Pyro_{3}_LED*%
X151512500Y-128500000D03*
%TO.P,D6,2,A_2*%
%TO.N,/Pyro/Pyro_{3}_Charge*%
X153087500Y-128500000D03*
%TD*%
D19*
%TO.P,D8,1,A1_1*%
%TO.N,/Sensors/RF/EBYTE.ANT*%
X145385000Y-75800000D03*
%TO.P,D8,2,A2_2*%
%TO.N,GND*%
X144415000Y-75800000D03*
%TD*%
D14*
%TO.P,TP17,1,1_1*%
%TO.N,/Power/FB*%
X149200000Y-118600000D03*
%TD*%
D53*
%TO.P,U12,1,VCC_1*%
%TO.N,+3V3*%
X147575200Y-84640000D03*
%TO.P,U12,2,GND_2*%
%TO.N,GND*%
X147575200Y-83370000D03*
%TO.P,U12,3,NRST_3*%
%TO.N,/EBYTE.NRST*%
X147575200Y-82100000D03*
%TO.P,U12,4,NC_4*%
%TO.N,unconnected-(U12-NC-Pad4)*%
X147575200Y-80830000D03*
%TO.P,U12,5,NC_5*%
%TO.N,unconnected-(U12-NC-Pad5)*%
X147575200Y-79560000D03*
D54*
%TO.P,U12,6,ANT_6*%
%TO.N,/Sensors/RF/EBYTE.ANT*%
X145340000Y-77324800D03*
%TO.P,U12,7,GND_7*%
%TO.N,GND*%
X144070000Y-77324800D03*
%TO.P,U12,8,NC_8*%
%TO.N,unconnected-(U12-NC-Pad8)*%
X142800000Y-77324800D03*
%TO.P,U12,9,TXEN_9*%
%TO.N,/EBYTE.TXEN*%
X141530000Y-77324800D03*
%TO.P,U12,10,RXEN_10*%
%TO.N,/EBYTE.RXEN*%
X140260000Y-77324800D03*
D53*
%TO.P,U12,11,BUSY_11*%
%TO.N,/EBYTE.BUSY*%
X138024800Y-79560000D03*
%TO.P,U12,12,MISO_12*%
%TO.N,/SPI2_MISO*%
X138024800Y-80830000D03*
%TO.P,U12,13,MOSI_13*%
%TO.N,/SPI2_MOSI*%
X138024800Y-82100000D03*
%TO.P,U12,14,NSS_14*%
%TO.N,/EBYTE.CS*%
X138024800Y-83370000D03*
%TO.P,U12,15,SCK_15*%
%TO.N,/SPI2_SCK*%
X138024800Y-84640000D03*
D54*
%TO.P,U12,16,GND_16*%
%TO.N,GND*%
X140260000Y-86875200D03*
%TO.P,U12,17,NC_17*%
%TO.N,unconnected-(U12-NC-Pad17)*%
X141530000Y-86875200D03*
%TO.P,U12,18,DIO3_18*%
%TO.N,/EBYTE.DIO3*%
X142800000Y-86875200D03*
%TO.P,U12,19,DIO2_19*%
%TO.N,/EBYTE.DIO2*%
X144070000Y-86875200D03*
%TO.P,U12,20,DIO1_20*%
%TO.N,/EBYTE.DIO1*%
X145340000Y-86875200D03*
%TD*%
D17*
%TO.P,C9,1*%
%TO.N,/MCU/RCC_OSC_IN*%
X137120000Y-94900000D03*
%TO.P,C9,2*%
%TO.N,GND*%
X138080000Y-94900000D03*
%TD*%
D55*
%TO.P,U7,1,SDO/SA0_1*%
%TO.N,/SPI1_MISO*%
X145537500Y-105750000D03*
%TO.P,U7,2,SDX_2*%
%TO.N,unconnected-(U7-SDX-Pad2)*%
X145537500Y-106250000D03*
%TO.P,U7,3,SCX_3*%
%TO.N,unconnected-(U7-SCX-Pad3)*%
X145537500Y-106750000D03*
%TO.P,U7,4,INT1_4*%
%TO.N,/LSM6DSV320XTR.INT1*%
X145537500Y-107250000D03*
D56*
%TO.P,U7,5,VDDIO_5*%
%TO.N,+3V3*%
X146200000Y-107412500D03*
%TO.P,U7,6,GND_6*%
%TO.N,GND*%
X146700000Y-107412500D03*
%TO.P,U7,7,GND_7*%
X147200000Y-107412500D03*
D55*
%TO.P,U7,8,VDD_8*%
%TO.N,+3V3*%
X147862500Y-107250000D03*
%TO.P,U7,9,INT2_9*%
%TO.N,/LSM6DSV320XTR.INT2*%
X147862500Y-106750000D03*
%TO.P,U7,10,NC_10*%
%TO.N,unconnected-(U7-NC-Pad10)*%
X147862500Y-106250000D03*
%TO.P,U7,11,NC_11*%
%TO.N,unconnected-(U7-NC-Pad11)*%
X147862500Y-105750000D03*
D56*
%TO.P,U7,12,CS_12*%
%TO.N,/LSM6DSV320XTR.CS*%
X147200000Y-105587500D03*
%TO.P,U7,13,SCL_13*%
%TO.N,/SPI1_SCK*%
X146700000Y-105587500D03*
%TO.P,U7,14,SDA_14*%
%TO.N,/SPI1_MOSI*%
X146200000Y-105587500D03*
%TD*%
D57*
%TO.P,U6,1,SDO/SA0_1*%
%TO.N,/SPI1_MISO*%
X150050000Y-108062500D03*
%TO.P,U6,2,SDX_2*%
%TO.N,unconnected-(U6-SDX-Pad2)*%
X150550000Y-108062500D03*
%TO.P,U6,3,SCX_3*%
%TO.N,unconnected-(U6-SCX-Pad3)*%
X151050000Y-108062500D03*
%TO.P,U6,4,INT1_4*%
%TO.N,/LSM6DSM.INT1*%
X151550000Y-108062500D03*
D58*
%TO.P,U6,5,VDDIO_5*%
%TO.N,+3V3*%
X151712500Y-107400000D03*
%TO.P,U6,6,GND_6*%
%TO.N,GND*%
X151712500Y-106900000D03*
%TO.P,U6,7,GND_7*%
X151712500Y-106400000D03*
D57*
%TO.P,U6,8,VDD_8*%
%TO.N,+3V3*%
X151550000Y-105737500D03*
%TO.P,U6,9,INT2_9*%
%TO.N,/LSM6DSM.INT2*%
X151050000Y-105737500D03*
%TO.P,U6,10,OCS_Aux_10*%
%TO.N,unconnected-(U6-OCS_Aux-Pad10)*%
X150550000Y-105737500D03*
%TO.P,U6,11,SDO_Aux_11*%
%TO.N,unconnected-(U6-SDO_Aux-Pad11)*%
X150050000Y-105737500D03*
D58*
%TO.P,U6,12,CS_12*%
%TO.N,/LSM6DSM.CS*%
X149887500Y-106400000D03*
%TO.P,U6,13,SCL_13*%
%TO.N,/SPI1_SCK*%
X149887500Y-106900000D03*
%TO.P,U6,14,SDA_14*%
%TO.N,/SPI1_MOSI*%
X149887500Y-107400000D03*
%TD*%
D49*
%TO.P,D7,1,K_1*%
%TO.N,/Pyro/Pyro_{1}_LED*%
X142912500Y-128500000D03*
%TO.P,D7,2,A_2*%
%TO.N,/Pyro/Pyro_{1}_Charge*%
X144487500Y-128500000D03*
%TD*%
D18*
%TO.P,R18,1*%
%TO.N,/Power/PG*%
X148500000Y-116690000D03*
%TO.P,R18,2*%
%TO.N,+3V3*%
X148500000Y-117710000D03*
%TD*%
D59*
%TO.P,U2,A1,RCC_OSC32_IN_A1*%
%TO.N,/MCU/RCC_OSC32_IN*%
X145000000Y-95000000D03*
%TO.P,U2,A2,PC13_A2*%
%TO.N,/EBYTE.CS*%
X145800000Y-95000000D03*
%TO.P,U2,A3,QUADSPI_BK1_IO2_A3*%
%TO.N,/QUADSPI_BK1_IO2*%
X146600000Y-95000000D03*
%TO.P,U2,A4,PB9_A4*%
%TO.N,/~{BMP_{2}.CS}*%
X147400000Y-95000000D03*
%TO.P,U2,A5,TIM4_CH2_A5*%
%TO.N,/MCU/Buzzer_PWM*%
X148200000Y-95000000D03*
%TO.P,U2,A6,PB4_A6*%
%TO.N,/GPS.~{RESET}*%
X149000000Y-95000000D03*
%TO.P,U2,A7,DEBUG_JTDO-SWO_A7*%
%TO.N,/MCU/SWO*%
X149800000Y-95000000D03*
%TO.P,U2,A8,PA15_A8*%
%TO.N,/GPS.EXTINT*%
X150600000Y-95000000D03*
%TO.P,U2,A9,DEBUG_JTCK-SWCLK_A9*%
%TO.N,/MCU/SWCLK*%
X151400000Y-95000000D03*
%TO.P,U2,A10,DEBUG_JTMS-SWDIO_A10*%
%TO.N,/MCU/SWDIO*%
X152200000Y-95000000D03*
%TO.P,U2,B1,RCC_OSC32_OUT_B1*%
%TO.N,/MCU/RCC_OSC32_OUT*%
X145000000Y-95800000D03*
%TO.P,U2,B2,VBAT_B2*%
%TO.N,+3V3*%
X145800000Y-95800000D03*
%TO.P,U2,B3,PE3_B3*%
%TO.N,/EBYTE.DIO2*%
X146600000Y-95800000D03*
%TO.P,U2,B4,PB8_B4*%
%TO.N,/EBYTE.BUSY*%
X147400000Y-95800000D03*
%TO.P,U2,B5,PB6_B5*%
%TO.N,/~{BMP_{1}.CS}*%
X148200000Y-95800000D03*
%TO.P,U2,B6,USART2_TX_B6*%
%TO.N,/USART2_TX*%
X149000000Y-95800000D03*
%TO.P,U2,B7,SDMMC1_CMD_B7*%
%TO.N,/SDMMC1_CMD*%
X149800000Y-95800000D03*
%TO.P,U2,B8,SDMMC1_D3_B8*%
%TO.N,/SDMMC1_D3*%
X150600000Y-95800000D03*
%TO.P,U2,B9,SDMMC1_D2_B9*%
%TO.N,/SDMMC1_D2*%
X151400000Y-95800000D03*
%TO.P,U2,B10,USB_OTG_FS_DP_B10*%
%TO.N,/USB_OTG_FS_DP*%
X152200000Y-95800000D03*
%TO.P,U2,C1,RCC_OSC_IN_C1*%
%TO.N,/MCU/RCC_OSC_IN*%
X145000000Y-96600000D03*
%TO.P,U2,C2,VSS_C2*%
%TO.N,GND*%
X145800000Y-96600000D03*
%TO.P,U2,C3,PE4_C3*%
%TO.N,/EBYTE.DIO3*%
X146600000Y-96600000D03*
%TO.P,U2,C4,PE1_C4*%
%TO.N,/EBYTE.RXEN*%
X147400000Y-96600000D03*
%TO.P,U2,C5,PB5_C5*%
%TO.N,/EBYTE.DIO1*%
X148200000Y-96600000D03*
%TO.P,U2,C6,USART2_RX_C6*%
%TO.N,/USART2_RX*%
X149000000Y-96600000D03*
%TO.P,U2,C7,SPI2_SCK_C7*%
%TO.N,/SPI2_SCK*%
X149800000Y-96600000D03*
%TO.P,U2,C8,SDMMC1_CK_C8*%
%TO.N,/SDMMC1_CK*%
X150600000Y-96600000D03*
%TO.P,U2,C9,USART1_TX_C9*%
%TO.N,/USART1_TX*%
X151400000Y-96600000D03*
%TO.P,U2,C10,USB_OTG_FS_DM_C10*%
%TO.N,/USB_OTG_FS_DM*%
X152200000Y-96600000D03*
%TO.P,U2,D1,RCC_OSC_OUT_D1*%
%TO.N,/MCU/RCC_OSC_OUT*%
X145000000Y-97400000D03*
%TO.P,U2,D2,VDD_D2*%
%TO.N,+3V3*%
X145800000Y-97400000D03*
%TO.P,U2,D3,PE5_D3*%
%TO.N,/EBYTE.NRST*%
X146600000Y-97400000D03*
%TO.P,U2,D4,PE0_D4*%
%TO.N,/EBYTE.TXEN*%
X147400000Y-97400000D03*
%TO.P,U2,D5,BOOT0_D5*%
%TO.N,/MCU/BOOT0*%
X148200000Y-97400000D03*
%TO.P,U2,D6,PD7_D6*%
%TO.N,/BMP_{1}.INT*%
X149000000Y-97400000D03*
%TO.P,U2,D7,PD4_D7*%
%TO.N,/BMP_{2}.INT*%
X149800000Y-97400000D03*
%TO.P,U2,D8,PD0_D8*%
%TO.N,/MCU/PD0*%
X150600000Y-97400000D03*
%TO.P,U2,D9,PA8_D9*%
%TO.N,/SD_DET*%
X151400000Y-97400000D03*
%TO.P,U2,D10,USART1_RX_D10*%
%TO.N,/USART1_RX*%
X152200000Y-97400000D03*
%TO.P,U2,E1,NRST_E1*%
%TO.N,/MCU/NRST*%
X145000000Y-98200000D03*
%TO.P,U2,E2,SPI2_MISO_E2*%
%TO.N,/SPI2_MISO*%
X145800000Y-98200000D03*
%TO.P,U2,E3,PE6_E3*%
%TO.N,/MCU/PE6*%
X146600000Y-98200000D03*
%TO.P,U2,E4,VSS_E4*%
%TO.N,GND*%
X147400000Y-98200000D03*
%TO.P,U2,E5,VSS_E5*%
X148200000Y-98200000D03*
%TO.P,U2,E6,VSS_E6*%
X149000000Y-98200000D03*
%TO.P,U2,E7,VCAP_E7*%
%TO.N,/MCU/VCAP1*%
X149800000Y-98200000D03*
%TO.P,U2,E8,PD1_E8*%
%TO.N,/MCU/PD1*%
X150600000Y-98200000D03*
%TO.P,U2,E9,SDMMC1_D1_E9*%
%TO.N,/SDMMC1_D1*%
X151400000Y-98200000D03*
%TO.P,U2,E10,PC7_E10*%
%TO.N,/MCU/PC7*%
X152200000Y-98200000D03*
%TO.P,U2,F1,PC0_F1*%
%TO.N,/~{FRAM.CS}*%
X145000000Y-99000000D03*
%TO.P,U2,F2,SPI2_MOSI_F2*%
%TO.N,/SPI2_MOSI*%
X145800000Y-99000000D03*
%TO.P,U2,F3,PC3_C_F3*%
%TO.N,/LSM6DSV320XTR.INT1*%
X146600000Y-99000000D03*
%TO.P,U2,F4,VDDLDO_F4*%
%TO.N,+3V3*%
X147400000Y-99000000D03*
%TO.P,U2,F5,VDD_F5*%
X148200000Y-99000000D03*
%TO.P,U2,F6,VDD33_USB_F6*%
X149000000Y-99000000D03*
%TO.P,U2,F7,PDR_ON_F7*%
X149800000Y-99000000D03*
%TO.P,U2,F8,VCAP_F8*%
%TO.N,/MCU/VCAP2*%
X150600000Y-99000000D03*
%TO.P,U2,F9,SDMMC1_D0_F9*%
%TO.N,/SDMMC1_D0*%
X151400000Y-99000000D03*
%TO.P,U2,F10,PC6_F10*%
%TO.N,/MCU/PC6*%
X152200000Y-99000000D03*
%TO.P,U2,G1,VSSA_G1*%
%TO.N,GND*%
X145000000Y-99800000D03*
%TO.P,U2,G2,TIM2_CH1_G2*%
%TO.N,/TIM2_CH1*%
X145800000Y-99800000D03*
%TO.P,U2,G3,PA4_G3*%
%TO.N,/LIS2MDL.CS*%
X146600000Y-99800000D03*
%TO.P,U2,G4,ADC1_INP4_G4*%
%TO.N,/ADC1_INP4*%
X147400000Y-99800000D03*
%TO.P,U2,G5,QUADSPI_CLK_G5*%
%TO.N,/QUADSPI_CLK*%
X148200000Y-99800000D03*
%TO.P,U2,G6,PE10_G6*%
%TO.N,/LSM6DSV320XTR.CS*%
X149000000Y-99800000D03*
%TO.P,U2,G7,PE14_G7*%
%TO.N,/MCU/PE14*%
X149800000Y-99800000D03*
%TO.P,U2,G8,PD15_G8*%
%TO.N,/MCU/PD15*%
X150600000Y-99800000D03*
%TO.P,U2,G9,QUADSPI_BK1_IO0_G9*%
%TO.N,/QUADSPI_BK1_IO0*%
X151400000Y-99800000D03*
%TO.P,U2,G10,USB_OTG_HS_DP_G10*%
%TO.N,/USB_OTG_HS_DP*%
X152200000Y-99800000D03*
%TO.P,U2,H1,VDDA_H1*%
%TO.N,+3V3*%
X145000000Y-100600000D03*
%TO.P,U2,H2,TIM2_CH2_H2*%
%TO.N,/TIM2_CH2*%
X145800000Y-100600000D03*
%TO.P,U2,H3,SPI1_SCK_H3*%
%TO.N,/SPI1_SCK*%
X146600000Y-100600000D03*
%TO.P,U2,H4,ADC1_INP8_H4*%
%TO.N,/ADC1_INP8*%
X147400000Y-100600000D03*
%TO.P,U2,H5,PE7_H5*%
%TO.N,/MCU/PE7*%
X148200000Y-100600000D03*
%TO.P,U2,H6,PE11_H6*%
%TO.N,/LSM6DSV320XTR.INT2*%
X149000000Y-100600000D03*
%TO.P,U2,H7,PE15_H7*%
%TO.N,/MCU/PE15*%
X149800000Y-100600000D03*
%TO.P,U2,H8,PD14_H8*%
%TO.N,/MCU/PD14*%
X150600000Y-100600000D03*
%TO.P,U2,H9,PD10_H9*%
%TO.N,/Pyro_{3}_Gate*%
X151400000Y-100600000D03*
%TO.P,U2,H10,USB_OTG_HS_DM_H10*%
%TO.N,/USB_OTG_HS_DM*%
X152200000Y-100600000D03*
%TO.P,U2,J1,VSS_J1*%
%TO.N,GND*%
X145000000Y-101400000D03*
%TO.P,U2,J2,TIM2_CH3_J2*%
%TO.N,/TIM2_CH3*%
X145800000Y-101400000D03*
%TO.P,U2,J3,SPI1_MISO_J3*%
%TO.N,/SPI1_MISO*%
X146600000Y-101400000D03*
%TO.P,U2,J4,ADC1_INP9_J4*%
%TO.N,/ADC1_INP9*%
X147400000Y-101400000D03*
%TO.P,U2,J5,PE8_J5*%
%TO.N,/MCU/PE8*%
X148200000Y-101400000D03*
%TO.P,U2,J6,PE12_J6*%
%TO.N,/LSM6DSM.INT1*%
X149000000Y-101400000D03*
%TO.P,U2,J7,QUADSPI_BK1_NCS_J7*%
%TO.N,/QUADSPI_BK1_NCS*%
X149800000Y-101400000D03*
%TO.P,U2,J8,PB13_J8*%
%TO.N,/MCU/PB13*%
X150600000Y-101400000D03*
%TO.P,U2,J9,PD9_J9*%
%TO.N,/Pyro_{2}_Gate*%
X151400000Y-101400000D03*
%TO.P,U2,J10,QUADSPI_BK1_IO3_J10*%
%TO.N,/QUADSPI_BK1_IO3*%
X152200000Y-101400000D03*
%TO.P,U2,K1,VDD_K1*%
%TO.N,+3V3*%
X145000000Y-102200000D03*
%TO.P,U2,K2,TIM2_CH4_K2*%
%TO.N,/TIM2_CH4*%
X145800000Y-102200000D03*
%TO.P,U2,K3,SPI1_MOSI_K3*%
%TO.N,/SPI1_MOSI*%
X146600000Y-102200000D03*
%TO.P,U2,K4,ADC1_INP5_K4*%
%TO.N,/MCU/ADC_BATT*%
X147400000Y-102200000D03*
%TO.P,U2,K5,PE9_K5*%
%TO.N,/LSM6DSM.CS*%
X148200000Y-102200000D03*
%TO.P,U2,K6,PE13_K6*%
%TO.N,/LSM6DSM.INT2*%
X149000000Y-102200000D03*
%TO.P,U2,K7,PB11_K7*%
%TO.N,/MCU/PB11*%
X149800000Y-102200000D03*
%TO.P,U2,K8,PB12_K8*%
%TO.N,/ST*%
X150600000Y-102200000D03*
%TO.P,U2,K9,PD8_K9*%
%TO.N,/Pyro_{1}_Gate*%
X151400000Y-102200000D03*
%TO.P,U2,K10,QUADSPI_BK1_IO1_K10*%
%TO.N,/QUADSPI_BK1_IO1*%
X152200000Y-102200000D03*
%TD*%
D19*
%TO.P,FB1,1*%
%TO.N,/Sensors/RF/RF_IN*%
X159085000Y-77000000D03*
%TO.P,FB1,2*%
%TO.N,/Sensors/RF/GPS.RF_{Filter}*%
X158115000Y-77000000D03*
%TD*%
D51*
%TO.P,J2,1,Pin_1_1*%
%TO.N,/MCU/NRST*%
X140300000Y-103100000D03*
D52*
%TO.P,J2,2,Pin_2_2*%
%TO.N,GND*%
X140300000Y-104370000D03*
%TD*%
D24*
%TO.P,R20,1*%
%TO.N,/Power/FB*%
X150090000Y-118300000D03*
%TO.P,R20,2*%
%TO.N,+3V3*%
X151110000Y-118300000D03*
%TD*%
D12*
%TO.P,C16,1*%
%TO.N,/Power/SS{slash}TR*%
X153500000Y-114980000D03*
%TO.P,C16,2*%
%TO.N,GND*%
X153500000Y-114020000D03*
%TD*%
D24*
%TO.P,R38,1*%
%TO.N,/Sensors/RF/VCC_RF*%
X156090000Y-77000000D03*
%TO.P,R38,2*%
%TO.N,/Sensors/RF/GPS.RF_{Filter}*%
X157110000Y-77000000D03*
%TD*%
D32*
%TO.P,C22,1*%
%TO.N,+3V3*%
X146080000Y-108700000D03*
%TO.P,C22,2*%
%TO.N,GND*%
X145120000Y-108700000D03*
%TD*%
%TO.P,C33,1*%
%TO.N,/Sensors/RF/GPS.RF_{Filter}*%
X156480000Y-76000000D03*
%TO.P,C33,2*%
%TO.N,GND*%
X155520000Y-76000000D03*
%TD*%
%TO.P,C23,1*%
%TO.N,+3V3*%
X145680000Y-109700000D03*
%TO.P,C23,2*%
%TO.N,GND*%
X144720000Y-109700000D03*
%TD*%
D24*
%TO.P,R36,1*%
%TO.N,GND*%
X138190000Y-123400000D03*
%TO.P,R36,2*%
%TO.N,/Pyro/Pyro_{1}_LED*%
X139210000Y-123400000D03*
%TD*%
D17*
%TO.P,C27,1*%
%TO.N,+3V3*%
X146720000Y-89000000D03*
%TO.P,C27,2*%
%TO.N,GND*%
X147680000Y-89000000D03*
%TD*%
D60*
%TO.P,U8,1,SCL/SPC_1*%
%TO.N,/SPI2_SCK*%
X137750000Y-91662500D03*
%TO.P,U8,2,NC_2*%
%TO.N,unconnected-(U8-NC-Pad2)*%
X138250000Y-91662500D03*
%TO.P,U8,3,~{CS}_3*%
%TO.N,/LIS2MDL.CS*%
X138750000Y-91662500D03*
%TO.P,U8,4,SDA/SDI/SDO_4*%
%TO.N,/SPI2_MOSI*%
X139250000Y-91662500D03*
D61*
%TO.P,U8,5,C1_5*%
%TO.N,/Sensors/Megnetometer/C1*%
X139262500Y-91150000D03*
%TO.P,U8,6,GND_6*%
%TO.N,GND*%
X139262500Y-90650000D03*
D60*
%TO.P,U8,7,DRDY_7*%
%TO.N,/SPI2_MISO*%
X139250000Y-90137500D03*
%TO.P,U8,8,GND_8*%
%TO.N,GND*%
X138750000Y-90137500D03*
%TO.P,U8,9,Vdd_9*%
%TO.N,+3V3*%
X138250000Y-90137500D03*
%TO.P,U8,10,Vdd_IO_10*%
X137750000Y-90137500D03*
D61*
%TO.P,U8,11,NC_11*%
%TO.N,unconnected-(U8-NC-Pad11)*%
X137737500Y-90650000D03*
%TO.P,U8,12,NC_12*%
%TO.N,unconnected-(U8-NC-Pad12)*%
X137737500Y-91150000D03*
%TD*%
D62*
%TO.P,U11,1,GND_1*%
%TO.N,GND*%
X153300000Y-88450000D03*
D63*
%TO.P,U11,2,TXD_2*%
%TO.N,/USART2_RX*%
X154400000Y-88450000D03*
%TO.P,U11,3,RXD_3*%
%TO.N,/USART2_TX*%
X155500000Y-88450000D03*
%TO.P,U11,4,TIMEPULSE_4*%
%TO.N,/Sensors/RF/GPS.TIMEPULSE*%
X156600000Y-88450000D03*
%TO.P,U11,5,EXTINT_5*%
%TO.N,/GPS.EXTINT*%
X157700000Y-88450000D03*
%TO.P,U11,6,V_BCKP_6*%
%TO.N,+3V3*%
X158800000Y-88450000D03*
%TO.P,U11,7,VCC_IO_7*%
X159900000Y-88450000D03*
%TO.P,U11,8,VCC_8*%
X161000000Y-88450000D03*
D62*
%TO.P,U11,9,~{RESET}_9*%
%TO.N,/GPS.~{RESET}*%
X162100000Y-88450000D03*
%TO.P,U11,10,GND_10*%
%TO.N,GND*%
X162100000Y-78950000D03*
D63*
%TO.P,U11,11,RF_IN_11*%
%TO.N,/Sensors/RF/RF_IN*%
X161000000Y-78950000D03*
%TO.P,U11,12,GND_12*%
%TO.N,GND*%
X159900000Y-78950000D03*
%TO.P,U11,13,LNA_EN_13*%
%TO.N,unconnected-(U11-LNA_EN-Pad13)*%
X158800000Y-78950000D03*
%TO.P,U11,14,VCC_RF_14*%
%TO.N,/Sensors/RF/VCC_RF*%
X157700000Y-78950000D03*
%TO.P,U11,15,VIO_SEL_15*%
%TO.N,unconnected-(U11-VIO_SEL-Pad15)*%
X156600000Y-78950000D03*
%TO.P,U11,16,SDA_16*%
%TO.N,unconnected-(U11-SDA-Pad16)*%
X155500000Y-78950000D03*
%TO.P,U11,17,SCL_17*%
%TO.N,unconnected-(U11-SCL-Pad17)*%
X154400000Y-78950000D03*
D62*
%TO.P,U11,18,~{SAFEBOOT}_18*%
%TO.N,unconnected-(U11-~{SAFEBOOT}-Pad18)*%
X153300000Y-78950000D03*
%TD*%
D12*
%TO.P,C12,1*%
%TO.N,/MCU/RCC_OSC32_OUT*%
X140800000Y-95180000D03*
%TO.P,C12,2*%
%TO.N,GND*%
X140800000Y-94220000D03*
%TD*%
D14*
%TO.P,TP1,1,1_1*%
%TO.N,VUSB*%
X159200000Y-110500000D03*
%TD*%
D64*
%TO.N,GND*%
X150600000Y-72800000D03*
X139400000Y-109600000D03*
X153300000Y-71300000D03*
X156200000Y-74900000D03*
X163900000Y-89200000D03*
X146300000Y-75100000D03*
X149300000Y-73000000D03*
X149400000Y-97800000D03*
X144100000Y-74300000D03*
X150800000Y-89500000D03*
X156900000Y-74900000D03*
X141400000Y-74300000D03*
X146700000Y-72900000D03*
X142300000Y-75100000D03*
D65*
X151800000Y-121000000D03*
D64*
X155900000Y-73400000D03*
X138400000Y-95600000D03*
X164200000Y-102600000D03*
X150600000Y-73500000D03*
D65*
X148100000Y-121000000D03*
D64*
X138000000Y-99400000D03*
D65*
X144900000Y-117900000D03*
D64*
X155400000Y-115000000D03*
X146400000Y-110100000D03*
X155900000Y-72000000D03*
X155900000Y-71300000D03*
X152700000Y-117100000D03*
X153300000Y-72700000D03*
X144100000Y-101400000D03*
X148400000Y-75100000D03*
X149100000Y-75100000D03*
X149300000Y-72300000D03*
X150600000Y-74200000D03*
X154600000Y-75600000D03*
X155900000Y-74100000D03*
X144100000Y-72200000D03*
X157100000Y-91600000D03*
D65*
X153800000Y-113200000D03*
X145900000Y-117900000D03*
D64*
X141800000Y-90600000D03*
X146700000Y-74300000D03*
X144100000Y-99800000D03*
X152900000Y-74900000D03*
X162100000Y-96400000D03*
X158500000Y-72100000D03*
X146300000Y-106700000D03*
X153500000Y-84300000D03*
X143700000Y-93700000D03*
X144400000Y-75100000D03*
X138700000Y-90700000D03*
X158500000Y-74200000D03*
X161800000Y-80500000D03*
X144100000Y-73600000D03*
X147000000Y-97800000D03*
X143200000Y-75800000D03*
X146700000Y-73600000D03*
X149300000Y-71600000D03*
X153600000Y-74900000D03*
X144200000Y-88000000D03*
X157600000Y-74900000D03*
X141400000Y-73600000D03*
X150800000Y-74900000D03*
X141400000Y-72200000D03*
X150600000Y-72100000D03*
X141600000Y-75100000D03*
D65*
X151800000Y-120000000D03*
X152200000Y-111800000D03*
D64*
X147000000Y-75100000D03*
X153300000Y-74100000D03*
X136800000Y-91600000D03*
X145400000Y-96200000D03*
X146700000Y-72200000D03*
X158500000Y-111100000D03*
X148600000Y-97800000D03*
X141400000Y-71500000D03*
X152200000Y-74900000D03*
X155900000Y-72700000D03*
X153300000Y-73400000D03*
X146700000Y-71500000D03*
X144100000Y-72900000D03*
X158300000Y-74900000D03*
X149300000Y-74400000D03*
X143700000Y-75100000D03*
X150600000Y-71400000D03*
X150900000Y-106500000D03*
X141400000Y-72900000D03*
X147800000Y-97800000D03*
X147700000Y-75100000D03*
X158500000Y-71400000D03*
X151500000Y-74900000D03*
X158500000Y-72800000D03*
X143000000Y-75100000D03*
X151000000Y-78200000D03*
X142200000Y-101800000D03*
X149300000Y-73700000D03*
X155500000Y-74900000D03*
D65*
X148100000Y-120000000D03*
D64*
X144100000Y-71500000D03*
X153300000Y-72000000D03*
X157200000Y-75800000D03*
X158500000Y-73500000D03*
X136900000Y-81900000D03*
X140600000Y-88000000D03*
D65*
%TO.N,/Connectors/D-*%
X158600000Y-105200000D03*
D64*
%TO.N,/SPI2_SCK*%
X150200000Y-96200000D03*
X136900000Y-92600000D03*
X145700000Y-89500000D03*
%TO.N,/LIS2MDL.CS*%
X139500000Y-94100000D03*
X146200000Y-100200000D03*
%TO.N,/SPI2_MOSI*%
X140600000Y-92854100D03*
X143100000Y-99000000D03*
X136400000Y-86200000D03*
%TO.N,/SPI2_MISO*%
X145400000Y-91400000D03*
X140000000Y-92500000D03*
X142800000Y-97500000D03*
%TO.N,+3V3*%
X147800000Y-99400000D03*
D65*
X142500000Y-115900000D03*
D64*
X162000000Y-91500000D03*
D65*
X136900000Y-88900000D03*
X142500000Y-114900000D03*
X158900000Y-90000000D03*
D64*
X145400000Y-95400000D03*
D65*
X151000000Y-111900000D03*
D64*
X150200000Y-99400000D03*
D65*
X141500000Y-115900000D03*
D64*
X149400000Y-99400000D03*
D65*
X141500000Y-114900000D03*
X141500000Y-113900000D03*
X142900000Y-89000000D03*
X149000000Y-87900000D03*
X142500000Y-113900000D03*
X147300000Y-108400000D03*
X138100000Y-103700000D03*
X147100000Y-85700000D03*
D64*
X148600000Y-99400000D03*
D65*
X141500000Y-112900000D03*
X148100000Y-118500000D03*
D64*
X144100000Y-100600000D03*
D65*
X152400000Y-105300000D03*
X161500000Y-82600000D03*
D64*
X145400000Y-97000000D03*
D65*
X142500000Y-112900000D03*
D64*
X144200000Y-102900000D03*
X147000000Y-99400000D03*
%TO.N,/BMP_{1}.INT*%
X149400000Y-97000000D03*
X147700000Y-92200000D03*
D65*
%TO.N,VUSB*%
X155500000Y-102100000D03*
X161200000Y-101800000D03*
X159200000Y-110500000D03*
X155500000Y-106900000D03*
%TO.N,/Power/BATT_LED*%
X159200000Y-111500000D03*
D64*
%TO.N,/Power/Power_LED_VIN*%
X157800000Y-128500000D03*
%TO.N,/MCU/BOOT0*%
X147800000Y-97000000D03*
%TO.N,/Sensors/RF/GPS.TIMEPULSE*%
X158200000Y-87100000D03*
X164200000Y-87800000D03*
%TO.N,/MCU/NRST*%
X158700000Y-90900000D03*
X143000000Y-98400000D03*
%TO.N,/USART2_RX*%
X149400000Y-96200000D03*
X151800000Y-88300000D03*
D65*
%TO.N,/Connectors/CC1*%
X158600000Y-106400000D03*
%TO.N,/Connectors/D+*%
X162800000Y-106400000D03*
%TO.N,/Connectors/CC2*%
X159200000Y-101700000D03*
%TO.N,/Pyro/Pyro_{1}_Charge*%
X147300000Y-125450000D03*
X147300000Y-126450000D03*
X147300000Y-124450000D03*
%TO.N,/Pyro/Pyro_{2}_Charge*%
X149750000Y-125468599D03*
X149750000Y-124468599D03*
X149750000Y-126468599D03*
%TO.N,/Pyro/Pyro_{3}_Charge*%
X152250000Y-126500000D03*
X152250000Y-124500000D03*
X152250000Y-125500000D03*
D64*
%TO.N,/Pyro/Pyro_{2}_LED*%
X147200000Y-128500000D03*
%TO.N,/MCU/SWO*%
X156600000Y-92400000D03*
X151000000Y-92400000D03*
%TO.N,/Pyro/Pyro_{3}_LED*%
X151500000Y-128500000D03*
%TO.N,/EBYTE.NRST*%
X142400000Y-85400000D03*
X146200000Y-97000000D03*
%TO.N,/EBYTE.TXEN*%
X141100000Y-80300000D03*
X147000000Y-97000000D03*
%TO.N,/EBYTE.RXEN*%
X140400000Y-78400000D03*
X147000000Y-96200000D03*
%TO.N,/EBYTE.BUSY*%
X146100000Y-93600000D03*
X139000000Y-79700000D03*
%TO.N,/EBYTE.CS*%
X144600000Y-93600000D03*
X139700000Y-83700000D03*
%TO.N,/EBYTE.DIO3*%
X146200000Y-96200000D03*
X142800000Y-88200000D03*
%TO.N,/EBYTE.DIO2*%
X145400000Y-93800000D03*
X144100000Y-85400000D03*
%TO.N,/EBYTE.DIO1*%
X147800000Y-96200000D03*
X145600000Y-83400000D03*
%TO.N,/SPI1_MISO*%
X149100000Y-108000000D03*
X145537500Y-104862500D03*
%TO.N,/LSM6DSV320XTR.INT1*%
X146200000Y-99400000D03*
X144400000Y-105600000D03*
%TO.N,/LSM6DSV320XTR.INT2*%
X148028388Y-104771612D03*
X149400000Y-101000000D03*
%TO.N,/LSM6DSV320XTR.CS*%
X146900000Y-106300000D03*
X149400000Y-100200000D03*
%TO.N,/SPI1_SCK*%
X147400000Y-104800000D03*
X146200000Y-101000000D03*
X148950000Y-106250000D03*
%TO.N,/SPI1_MOSI*%
X149000000Y-107100000D03*
X146200000Y-104900000D03*
%TO.N,/LSM6DSM.INT1*%
X149500000Y-104700000D03*
X152100000Y-108700000D03*
%TO.N,/QUADSPI_BK1_IO2*%
X156000000Y-95300000D03*
X146500000Y-94200000D03*
%TO.N,/~{BMP_{2}.CS}*%
X138800000Y-93000000D03*
%TO.N,/MCU/Buzzer_PWM*%
X149800000Y-84400000D03*
%TO.N,/SDMMC1_CMD*%
X158800000Y-83700000D03*
X154400000Y-90700000D03*
X156900000Y-82900000D03*
%TO.N,/SDMMC1_D3*%
X156700000Y-83900000D03*
X158800000Y-84700000D03*
X154700000Y-93300000D03*
%TO.N,/SDMMC1_D2*%
X154800000Y-94400000D03*
X156000000Y-84300000D03*
X158500000Y-85800000D03*
D65*
%TO.N,/USB_OTG_FS_DP*%
X162300000Y-101700000D03*
D64*
%TO.N,/SDMMC1_CK*%
X151000000Y-96200000D03*
D65*
%TO.N,/USB_OTG_FS_DM*%
X160200000Y-101700000D03*
D64*
%TO.N,/BMP_{2}.INT*%
X140100000Y-89100000D03*
X150200000Y-97000000D03*
X143800000Y-90600000D03*
%TO.N,/MCU/PD0*%
X151000000Y-97000000D03*
%TO.N,/SD_DET*%
X154700000Y-97100000D03*
%TO.N,/MCU/PE6*%
X146200000Y-97800000D03*
%TO.N,/MCU/VCAP1*%
X150200000Y-97800000D03*
%TO.N,/MCU/PD1*%
X151000000Y-97800000D03*
%TO.N,/SDMMC1_D1*%
X159700000Y-80700000D03*
X155600000Y-97100000D03*
%TO.N,/~{FRAM.CS}*%
X143900000Y-99100000D03*
%TO.N,/MCU/VCAP2*%
X151000000Y-99400000D03*
%TO.N,/SDMMC1_D0*%
X156300000Y-96600000D03*
X160700000Y-80800000D03*
%TO.N,/ADC1_INP4*%
X147000000Y-100200000D03*
X142200000Y-123500000D03*
%TO.N,/QUADSPI_CLK*%
X154100000Y-103500000D03*
X163500000Y-95200000D03*
X163200000Y-100900000D03*
X147800000Y-100200000D03*
X148000000Y-103100000D03*
%TO.N,/MCU/PE14*%
X150200000Y-100200000D03*
%TO.N,/MCU/PD15*%
X151000000Y-100200000D03*
%TO.N,/QUADSPI_BK1_IO0*%
X157900000Y-97700000D03*
X162100000Y-95100000D03*
%TO.N,/USB_OTG_HS_DP*%
X157969798Y-96600000D03*
X160700000Y-93400000D03*
%TO.N,/ADC1_INP8*%
X142200000Y-125400000D03*
X147000000Y-101000000D03*
%TO.N,/MCU/PE7*%
X147800000Y-101000000D03*
%TO.N,/MCU/PE15*%
X150200000Y-101000000D03*
%TO.N,/MCU/PD14*%
X151000000Y-101000000D03*
%TO.N,/Pyro_{3}_Gate*%
X154700000Y-107500000D03*
%TO.N,/USB_OTG_HS_DM*%
X154000000Y-100600000D03*
X161300000Y-93700000D03*
%TO.N,/ADC1_INP9*%
X142200000Y-127500000D03*
X147100000Y-104100000D03*
%TO.N,/QUADSPI_BK1_NCS*%
X151300000Y-104800000D03*
%TO.N,/Pyro_{2}_Gate*%
X154100000Y-107500000D03*
%TO.N,/QUADSPI_BK1_IO3*%
X154300000Y-102400000D03*
%TO.N,/MCU/ADC_BATT*%
X147800000Y-104200000D03*
X155500000Y-108800000D03*
%TO.N,/Pyro_{1}_Gate*%
X153500000Y-107500000D03*
%TO.N,/QUADSPI_BK1_IO1*%
X153300000Y-102600000D03*
%TD*%
%TO.N,GND*%
D10*
X151900000Y-111500000D02*
X152200000Y-111800000D01*
X162100000Y-96400000D02*
X162200000Y-96500000D01*
D66*
X145000000Y-101400000D02*
X144100000Y-101400000D01*
D10*
X161800000Y-80500000D02*
X161800000Y-81000000D01*
D67*
X147800000Y-97800000D02*
X148200000Y-98200000D01*
D10*
X149180000Y-110080000D02*
X149800000Y-110700000D01*
X151487500Y-115812500D02*
X151487500Y-115100000D01*
X138400000Y-95600000D02*
X138456000Y-95600000D01*
X145000000Y-110300000D02*
X144720000Y-110020000D01*
X157400000Y-76000000D02*
X157200000Y-75800000D01*
X153300000Y-88450000D02*
X152250000Y-89500000D01*
X151512500Y-115812500D02*
X152700000Y-117000000D01*
X152600000Y-117200000D02*
X152700000Y-117100000D01*
X146300000Y-106700000D02*
X146700000Y-107100000D01*
X157055000Y-108180000D02*
X157695000Y-108820000D01*
X150487500Y-115812500D02*
X150487500Y-114600000D01*
X146700000Y-107100000D02*
X146700000Y-107412500D01*
D68*
X147400000Y-98200000D02*
X149000000Y-98200000D01*
D10*
X150800000Y-89500000D02*
X150800000Y-90490000D01*
X146387400Y-91300000D02*
X146387400Y-91799999D01*
X150900000Y-106500000D02*
X151612500Y-106500000D01*
X154600000Y-75600000D02*
X155000000Y-76000000D01*
X146000000Y-86100000D02*
X146000000Y-84000000D01*
X161800000Y-80500000D02*
X161500000Y-80200000D01*
X149000000Y-86980000D02*
X146880000Y-86980000D01*
X150987500Y-115812500D02*
X150987500Y-114600000D01*
X151487500Y-115100000D02*
X150737500Y-114350000D01*
X138080000Y-95280000D02*
X138400000Y-95600000D01*
X147575200Y-83370000D02*
X152570000Y-83370000D01*
X146000000Y-91300000D02*
X146387400Y-91300000D01*
X145120000Y-109300000D02*
X144720000Y-109700000D01*
X150487500Y-114600000D02*
X150737500Y-114350000D01*
X146000000Y-84000000D02*
X146630000Y-83370000D01*
X141330200Y-101080000D02*
X141480000Y-101080000D01*
X143200000Y-75800000D02*
X144415000Y-75800000D01*
X143180000Y-93180000D02*
X143700000Y-93700000D01*
X138750000Y-90650000D02*
X138700000Y-90700000D01*
X141480000Y-101080000D02*
X142200000Y-101800000D01*
X138400000Y-95600000D02*
X139000000Y-95600000D01*
X148700000Y-109680000D02*
X149100000Y-110080000D01*
X157055000Y-107700000D02*
X157055000Y-108180000D01*
X146700000Y-107412500D02*
X147200000Y-107412500D01*
X139000000Y-95600000D02*
X140380000Y-94220000D01*
X138080000Y-94900000D02*
X138080000Y-95280000D01*
X144070000Y-76530000D02*
X144070000Y-77324800D01*
X150987500Y-114600000D02*
X150737500Y-114350000D01*
X146400000Y-110100000D02*
X146200000Y-110300000D01*
X147120000Y-91180000D02*
X147000000Y-91300000D01*
X138456000Y-95600000D02*
X139524000Y-96668000D01*
X144720000Y-110020000D02*
X144720000Y-109700000D01*
X148600000Y-89400000D02*
X148600000Y-91000000D01*
X146880000Y-86980000D02*
X146000000Y-86100000D01*
X152250000Y-89500000D02*
X150800000Y-89500000D01*
X145120000Y-108700000D02*
X145120000Y-109300000D01*
X150720000Y-110700000D02*
X150720000Y-110720000D01*
X139262500Y-90650000D02*
X138750000Y-90650000D01*
X157695000Y-100180000D02*
X157695000Y-100660000D01*
X151712500Y-106900000D02*
X151712500Y-106400000D01*
D66*
X149100000Y-110080000D02*
X149180000Y-110080000D01*
D67*
X148600000Y-97800000D02*
X148200000Y-98200000D01*
D10*
X144812600Y-90800001D02*
X144891899Y-90879300D01*
X141800000Y-90600000D02*
X141420000Y-90220000D01*
X140260000Y-87660000D02*
X140260000Y-86875200D01*
X137136400Y-100263600D02*
X138000000Y-99400000D01*
X136500000Y-90780000D02*
X136500000Y-91300000D01*
X157900000Y-110500000D02*
X158500000Y-111100000D01*
X152700000Y-117000000D02*
X152700000Y-117100000D01*
X151110000Y-117200000D02*
X152600000Y-117200000D01*
X140380000Y-94220000D02*
X140800000Y-94220000D01*
X150690000Y-110670000D02*
X150720000Y-110700000D01*
X151612500Y-106500000D02*
X151712500Y-106400000D01*
X140600000Y-88000000D02*
X140260000Y-87660000D01*
X157710000Y-110500000D02*
X157900000Y-110500000D01*
X146630000Y-83370000D02*
X147575200Y-83370000D01*
X146200000Y-110300000D02*
X145000000Y-110300000D01*
X138110000Y-93900000D02*
X138110000Y-94870000D01*
X162100000Y-80200000D02*
X161800000Y-80500000D01*
X136500000Y-91300000D02*
X136800000Y-91600000D01*
X158115000Y-76000000D02*
X157400000Y-76000000D01*
X149100000Y-111090000D02*
X149100000Y-110080000D01*
X153500000Y-113500000D02*
X153800000Y-113200000D01*
X147600000Y-91180000D02*
X147120000Y-91180000D01*
X144415000Y-76185000D02*
X144070000Y-76530000D01*
X150690000Y-109500000D02*
X150690000Y-110670000D01*
X150487500Y-112887500D02*
X150487500Y-114100000D01*
X163680000Y-90300000D02*
X163680000Y-89420000D01*
X148420000Y-91180000D02*
X147600000Y-91180000D01*
X149800000Y-110700000D02*
X150720000Y-110700000D01*
X159900000Y-79600000D02*
X159900000Y-78950000D01*
D66*
X145400000Y-96200000D02*
X145800000Y-96600000D01*
D10*
X163680000Y-90300000D02*
X163680000Y-91300000D01*
X151487500Y-115812500D02*
X150487500Y-115812500D01*
X144891899Y-90879300D02*
X145579300Y-90879300D01*
X148100000Y-109680000D02*
X148700000Y-109680000D01*
X138110000Y-94870000D02*
X138080000Y-94900000D01*
X153500000Y-114020000D02*
X153500000Y-113500000D01*
X143180000Y-93000000D02*
X143180000Y-93180000D01*
X144415000Y-75800000D02*
X144415000Y-76185000D01*
D67*
X147000000Y-97800000D02*
X147400000Y-98200000D01*
D10*
X162100000Y-78950000D02*
X162100000Y-80200000D01*
X157695000Y-100660000D02*
X157055000Y-101300000D01*
X144200000Y-88000000D02*
X144812600Y-88612600D01*
X147680000Y-89000000D02*
X148200000Y-89000000D01*
X145579300Y-90879300D02*
X146000000Y-91300000D01*
X141420000Y-90220000D02*
X140800000Y-90220000D01*
X152200000Y-111800000D02*
X152549999Y-111450001D01*
X160500000Y-80200000D02*
X159900000Y-79600000D01*
X163490000Y-82690000D02*
X163800000Y-82690000D01*
X149987500Y-112887500D02*
X149987500Y-113600000D01*
X161800000Y-81000000D02*
X163490000Y-82690000D01*
X155000000Y-76000000D02*
X155520000Y-76000000D01*
X152549999Y-111450001D02*
X153050002Y-111450001D01*
X137136400Y-100732000D02*
X137136400Y-100263600D01*
D66*
X145000000Y-99800000D02*
X144100000Y-99800000D01*
D67*
X149400000Y-97800000D02*
X149000000Y-98200000D01*
D10*
X149987500Y-113600000D02*
X150147500Y-113760000D01*
X150720000Y-110720000D02*
X151500000Y-111500000D01*
X147000000Y-91300000D02*
X146387400Y-91300000D01*
X151487500Y-115812500D02*
X151512500Y-115812500D01*
X144812600Y-88612600D02*
X144812600Y-90800001D01*
X148600000Y-91000000D02*
X148420000Y-91180000D01*
X163680000Y-89420000D02*
X163900000Y-89200000D01*
X152570000Y-83370000D02*
X153500000Y-84300000D01*
X161500000Y-80200000D02*
X160500000Y-80200000D01*
X162200000Y-96500000D02*
X162790000Y-96500000D01*
X138700000Y-90700000D02*
X138700000Y-88800000D01*
X150487500Y-114100000D02*
X150737500Y-114350000D01*
X151500000Y-111500000D02*
X151900000Y-111500000D01*
X148200000Y-89000000D02*
X148600000Y-89400000D01*
%TO.N,/Sensors/RF/RF_IN*%
D66*
X160300000Y-77000000D02*
X159085000Y-77000000D01*
X154600000Y-74700000D02*
X155300000Y-75400000D01*
X154600000Y-72500000D02*
X154600000Y-74700000D01*
X159085000Y-75585000D02*
X159085000Y-77000000D01*
X161000000Y-78950000D02*
X161000000Y-77700000D01*
X158900000Y-75400000D02*
X159085000Y-75585000D01*
X154540000Y-72360000D02*
X154600000Y-72300000D01*
X155300000Y-75400000D02*
X158900000Y-75400000D01*
X161000000Y-77700000D02*
X160300000Y-77000000D01*
%TO.N,/Connectors/D-*%
D67*
X156000000Y-105050000D02*
X156200000Y-105250000D01*
D10*
X155400000Y-105200000D02*
X155850000Y-105200000D01*
D67*
X157055000Y-104250000D02*
X156150000Y-104250000D01*
D10*
X155850000Y-105200000D02*
X156000000Y-105050000D01*
D67*
X158550000Y-105250000D02*
X158600000Y-105200000D01*
X156000000Y-104400000D02*
X156000000Y-105050000D01*
X156200000Y-105250000D02*
X157055000Y-105250000D01*
X156150000Y-104250000D02*
X156000000Y-104400000D01*
X157055000Y-105250000D02*
X158550000Y-105250000D01*
%TO.N,/SPI2_SCK*%
D66*
X138024800Y-84640000D02*
X138024800Y-85875200D01*
X135600000Y-88300000D02*
X135600000Y-91300000D01*
X145350000Y-90512600D02*
X145350000Y-89850000D01*
X136900000Y-92512500D02*
X137750000Y-91662500D01*
X145350000Y-89850000D02*
X145700000Y-89500000D01*
X138024800Y-85875200D02*
X135600000Y-88300000D01*
X136900000Y-92600000D02*
X136900000Y-92512500D01*
X150200000Y-96200000D02*
X149800000Y-96600000D01*
X135600000Y-91300000D02*
X136900000Y-92600000D01*
%TO.N,/LIS2MDL.CS*%
X138300000Y-93200000D02*
X138300000Y-92700000D01*
X138750000Y-92250000D02*
X138750000Y-91662500D01*
X139500000Y-94100000D02*
X139200000Y-94100000D01*
X139200000Y-94100000D02*
X138300000Y-93200000D01*
X146200000Y-100200000D02*
X146600000Y-99800000D01*
X138300000Y-92700000D02*
X138750000Y-92250000D01*
%TO.N,/SPI2_MOSI*%
X140354100Y-93100000D02*
X139600000Y-93100000D01*
X145800000Y-99000000D02*
X145390500Y-98590500D01*
X138024800Y-82100000D02*
X136400000Y-83724800D01*
X136400000Y-83724800D02*
X136400000Y-86200000D01*
X140895900Y-92854100D02*
X142450000Y-91300000D01*
X145390500Y-98590500D02*
X143509500Y-98590500D01*
X140600000Y-92854100D02*
X140354100Y-93100000D01*
X143509500Y-98590500D02*
X143100000Y-99000000D01*
X139250000Y-92750000D02*
X139250000Y-91662500D01*
X139600000Y-93100000D02*
X139250000Y-92750000D01*
X142450000Y-91300000D02*
X144812600Y-91300000D01*
X140600000Y-92854100D02*
X140895900Y-92854100D01*
%TO.N,/Sensors/Megnetometer/C1*%
X140770000Y-91150000D02*
X140800000Y-91180000D01*
X139262500Y-91150000D02*
X140770000Y-91150000D01*
%TO.N,/SPI2_MISO*%
X145400000Y-97800000D02*
X145800000Y-98200000D01*
X145000001Y-91799999D02*
X145400000Y-91400000D01*
X139437500Y-90137500D02*
X140009500Y-90709500D01*
X143600000Y-97800000D02*
X145400000Y-97800000D01*
X141209500Y-90709500D02*
X141700000Y-91200000D01*
X142800000Y-97500000D02*
X143000000Y-97700000D01*
X141700000Y-91500000D02*
X141100000Y-92100000D01*
X140009500Y-90709500D02*
X141209500Y-90709500D01*
X141700000Y-91200000D02*
X141700000Y-91500000D01*
X138024800Y-80830000D02*
X140500000Y-83305200D01*
X140500000Y-83305200D02*
X140500000Y-84600000D01*
X141100000Y-92100000D02*
X140400000Y-92100000D01*
X140500000Y-84600000D02*
X139500000Y-85600000D01*
X143500000Y-97700000D02*
X143600000Y-97800000D01*
X143000000Y-97700000D02*
X143500000Y-97700000D01*
X139250000Y-90137500D02*
X139437500Y-90137500D01*
X140400000Y-92100000D02*
X140000000Y-92500000D01*
X139500000Y-89400000D02*
X139250000Y-89650000D01*
X139500000Y-85600000D02*
X139500000Y-89400000D01*
X144812600Y-91799999D02*
X145000001Y-91799999D01*
X139250000Y-89650000D02*
X139250000Y-90137500D01*
%TO.N,+3V3*%
D10*
X145912500Y-111437500D02*
X142950000Y-114400000D01*
D66*
X145400000Y-97000000D02*
X145800000Y-97400000D01*
D67*
X158900000Y-90000000D02*
X159600000Y-90000000D01*
D10*
X148600000Y-108800000D02*
X148180000Y-108800000D01*
D68*
X149400000Y-99000000D02*
X149800000Y-99000000D01*
D67*
X147000000Y-108700000D02*
X147300000Y-108400000D01*
X147620000Y-108720000D02*
X147300000Y-108400000D01*
D10*
X148180000Y-108800000D02*
X148100000Y-108720000D01*
D67*
X147220000Y-90220000D02*
X147600000Y-90220000D01*
X147800000Y-99400000D02*
X147800000Y-99000000D01*
X146200000Y-108000000D02*
X146200000Y-107412500D01*
X148600000Y-119500000D02*
X150600000Y-119500000D01*
D10*
X145912500Y-111100000D02*
X145912500Y-111437500D01*
D66*
X146099999Y-90512600D02*
X146387400Y-90800001D01*
X144900000Y-102200000D02*
X144200000Y-102900000D01*
D67*
X148200000Y-108620000D02*
X148200000Y-108100000D01*
D66*
X145000000Y-102200000D02*
X144900000Y-102200000D01*
D10*
X152400000Y-107800000D02*
X152890000Y-108290000D01*
D67*
X149000000Y-87900000D02*
X148900000Y-88000000D01*
X137640000Y-88900000D02*
X137740000Y-88800000D01*
X159400000Y-90000000D02*
X159700000Y-90300000D01*
X149400000Y-99400000D02*
X149400000Y-99000000D01*
X148100000Y-119000000D02*
X148600000Y-119500000D01*
X148900000Y-88000000D02*
X146900000Y-88000000D01*
X146720000Y-88180000D02*
X146720000Y-89000000D01*
X162720000Y-91300000D02*
X162720000Y-90300000D01*
D66*
X151000000Y-111900000D02*
X151000000Y-112875000D01*
D10*
X149100000Y-109120000D02*
X148920000Y-109120000D01*
D66*
X145400000Y-95400000D02*
X145800000Y-95800000D01*
D67*
X146720000Y-89720000D02*
X147220000Y-90220000D01*
D66*
X137750000Y-90137500D02*
X137750000Y-88810000D01*
D67*
X146080000Y-108120000D02*
X146200000Y-108000000D01*
D66*
X151962500Y-105737500D02*
X152400000Y-105300000D01*
D67*
X150600000Y-119500000D02*
X151110000Y-118990000D01*
D10*
X152400000Y-105300000D02*
X152500000Y-105400000D01*
X152400000Y-107400000D02*
X152400000Y-107800000D01*
X146080000Y-109300000D02*
X145680000Y-109700000D01*
X162520000Y-91500000D02*
X162720000Y-91300000D01*
D67*
X150200000Y-99400000D02*
X149800000Y-99000000D01*
X136500000Y-89820000D02*
X136500000Y-89300000D01*
X159900000Y-90500000D02*
X159900000Y-91730000D01*
D10*
X152890000Y-108290000D02*
X152890000Y-108600000D01*
X151712500Y-107400000D02*
X152400000Y-107400000D01*
D67*
X159700000Y-90300000D02*
X162720000Y-90300000D01*
X147000000Y-99400000D02*
X147400000Y-99000000D01*
X147862500Y-107762500D02*
X147862500Y-107250000D01*
X159400000Y-90000000D02*
X159900000Y-90500000D01*
D69*
X141500000Y-115900000D02*
X141500000Y-116525000D01*
D67*
X159600000Y-90000000D02*
X159900000Y-89700000D01*
D69*
X141500000Y-116525000D02*
X140300000Y-117725000D01*
D67*
X146080000Y-108700000D02*
X147000000Y-108700000D01*
X147100000Y-85700000D02*
X148680000Y-85700000D01*
D10*
X162000000Y-91500000D02*
X162520000Y-91500000D01*
D67*
X136490000Y-102700000D02*
X136490000Y-103090000D01*
X146720000Y-89000000D02*
X146720000Y-89720000D01*
D66*
X151550000Y-105737500D02*
X151962500Y-105737500D01*
D67*
X146080000Y-108700000D02*
X146080000Y-108120000D01*
X148100000Y-108720000D02*
X148200000Y-108620000D01*
X136900000Y-88900000D02*
X137640000Y-88900000D01*
D66*
X151000000Y-112875000D02*
X150987500Y-112887500D01*
X146720000Y-89720000D02*
X146720000Y-89892599D01*
D67*
X148100000Y-108720000D02*
X147620000Y-108720000D01*
D66*
X138250000Y-90137500D02*
X137750000Y-90137500D01*
D10*
X148920000Y-109120000D02*
X148600000Y-108800000D01*
D66*
X137750000Y-88810000D02*
X137740000Y-88800000D01*
D10*
X152500000Y-105400000D02*
X152500000Y-107300000D01*
D67*
X148100000Y-118500000D02*
X148500000Y-118100000D01*
D68*
X148600000Y-99000000D02*
X149400000Y-99000000D01*
D67*
X137100000Y-103700000D02*
X138100000Y-103700000D01*
X148200000Y-108100000D02*
X147862500Y-107762500D01*
X151110000Y-118990000D02*
X151110000Y-118300000D01*
D68*
X147800000Y-99000000D02*
X148600000Y-99000000D01*
D67*
X159900000Y-89700000D02*
X159900000Y-88450000D01*
X148500000Y-118100000D02*
X148500000Y-117710000D01*
X148680000Y-85700000D02*
X149000000Y-86020000D01*
D69*
X138000000Y-117725000D02*
X140300000Y-117725000D01*
D67*
X158900000Y-90000000D02*
X159400000Y-90000000D01*
D68*
X147400000Y-99000000D02*
X147800000Y-99000000D01*
D10*
X146080000Y-108700000D02*
X146080000Y-109300000D01*
X152500000Y-107300000D02*
X152400000Y-107400000D01*
D67*
X148100000Y-118500000D02*
X148100000Y-119000000D01*
X148600000Y-99400000D02*
X148600000Y-99000000D01*
X147100000Y-85115200D02*
X147575200Y-84640000D01*
X158800000Y-88450000D02*
X161000000Y-88450000D01*
D66*
X146720000Y-89892599D02*
X146099999Y-90512600D01*
D67*
X146900000Y-88000000D02*
X146720000Y-88180000D01*
X147100000Y-85700000D02*
X147100000Y-85115200D01*
D66*
X145000000Y-100600000D02*
X144100000Y-100600000D01*
D67*
X136490000Y-103090000D02*
X137100000Y-103700000D01*
X136500000Y-89300000D02*
X136900000Y-88900000D01*
D66*
X145850000Y-90512600D02*
X146099999Y-90512600D01*
%TO.N,/Power/Power_LED_3V3*%
D10*
X147487500Y-111100000D02*
X147800000Y-111100000D01*
X147800000Y-111100000D02*
X148610000Y-111910000D01*
X148610000Y-111910000D02*
X148900000Y-111910000D01*
X148900000Y-111910000D02*
X149100000Y-112110000D01*
D70*
X147487500Y-111100000D02*
X147487500Y-111187500D01*
%TO.N,/~{BMP_{1}.CS}*%
D66*
X147800000Y-95400000D02*
X147800000Y-93500000D01*
X148200000Y-95800000D02*
X147800000Y-95400000D01*
X147000000Y-92700000D02*
X145695900Y-92700000D01*
X145695900Y-92700000D02*
X145350000Y-92354100D01*
X145350000Y-92354100D02*
X145350000Y-92087400D01*
X147800000Y-93500000D02*
X147000000Y-92700000D01*
%TO.N,/BMP_{1}.INT*%
X147700000Y-92200000D02*
X145962600Y-92200000D01*
X145962600Y-92200000D02*
X145850000Y-92087400D01*
X149400000Y-97000000D02*
X149000000Y-97400000D01*
%TO.N,/Power/USB_LED*%
D67*
X163687500Y-97232500D02*
X163810000Y-97110000D01*
X163687500Y-97900000D02*
X163687500Y-97232500D01*
X163810000Y-97110000D02*
X163810000Y-96500000D01*
%TO.N,VUSB*%
D68*
X155500000Y-106900000D02*
X155500000Y-107700000D01*
D67*
X162800000Y-102800000D02*
X164000000Y-101600000D01*
X161200000Y-101800000D02*
X162200000Y-102800000D01*
D68*
X154575001Y-108624999D02*
X154575001Y-110025000D01*
D69*
X157055000Y-106900000D02*
X155500000Y-106900000D01*
D67*
X164000000Y-99500000D02*
X163200000Y-98700000D01*
X162200000Y-102800000D02*
X162800000Y-102800000D01*
D68*
X155500000Y-107700000D02*
X154575001Y-108624999D01*
D67*
X162900000Y-98700000D02*
X162900000Y-98687500D01*
X162900000Y-98687500D02*
X162112500Y-97900000D01*
X163200000Y-98700000D02*
X162900000Y-98700000D01*
D10*
X155350000Y-109949999D02*
X154650002Y-109949999D01*
X154650002Y-109949999D02*
X154575001Y-110025000D01*
D67*
X164000000Y-101600000D02*
X164000000Y-99500000D01*
D69*
X157055000Y-102100000D02*
X155500000Y-102100000D01*
%TO.N,/Sensors/RF/Timepulse_LED*%
D10*
X163800000Y-85012500D02*
X163800000Y-83710000D01*
%TO.N,/Power/BATT_LED*%
D69*
X159200000Y-112612500D02*
X159200000Y-111500000D01*
%TO.N,VIN*%
D71*
X154750000Y-125468599D02*
X156212500Y-126931099D01*
D66*
X154100000Y-116700000D02*
X154366400Y-116700000D01*
D68*
X155850000Y-113700000D02*
X154575001Y-113700000D01*
D72*
X154400000Y-120600000D02*
X154750000Y-120950000D01*
D10*
X155850000Y-112550000D02*
X155850000Y-113700000D01*
D68*
X154575001Y-113700000D02*
X154575001Y-116491399D01*
D72*
X154400000Y-116967200D02*
X154400000Y-120600000D01*
D68*
X154575001Y-116491399D02*
X154366400Y-116700000D01*
D10*
X156690000Y-112160000D02*
X156450000Y-112400000D01*
D72*
X154750000Y-120950000D02*
X154750000Y-125468599D01*
X154366400Y-116933600D02*
X154400000Y-116967200D01*
D66*
X152800000Y-118000000D02*
X154100000Y-116700000D01*
D10*
X156450000Y-112400000D02*
X156000000Y-112400000D01*
D72*
X154366400Y-116700000D02*
X154366400Y-116933600D01*
D68*
X154575001Y-111375000D02*
X154575001Y-113700000D01*
D10*
X156000000Y-112400000D02*
X155850000Y-112550000D01*
X156690000Y-111600000D02*
X156690000Y-112160000D01*
D71*
X156212500Y-126931099D02*
X156212500Y-128500000D01*
%TO.N,/Power/ILM*%
D66*
X152550000Y-110450000D02*
X153050002Y-110450000D01*
X151710000Y-109500000D02*
X151710000Y-109610000D01*
X151710000Y-109610000D02*
X152550000Y-110450000D01*
%TO.N,/MCU/BOOT0*%
X151210000Y-91510000D02*
X151770000Y-92070000D01*
X151770000Y-92070000D02*
X153200000Y-92070000D01*
X150800000Y-91510000D02*
X151210000Y-91510000D01*
X147800000Y-97000000D02*
X148200000Y-97400000D01*
%TO.N,/Power/PG*%
X149275000Y-115825000D02*
X149275000Y-115100000D01*
X148500000Y-116600000D02*
X149275000Y-115825000D01*
X148500000Y-116690000D02*
X148500000Y-116600000D01*
%TO.N,/Power/FB*%
X149500000Y-118300000D02*
X149200000Y-118600000D01*
D73*
X149987500Y-115812500D02*
X149987500Y-118197500D01*
D66*
X150090000Y-118300000D02*
X149500000Y-118300000D01*
D73*
X149987500Y-118197500D02*
X150090000Y-118300000D01*
%TO.N,/Power/SS{slash}TR*%
X153380000Y-115100000D02*
X153500000Y-114980000D01*
X152200000Y-115100000D02*
X153380000Y-115100000D01*
%TO.N,VSW*%
D68*
X153875002Y-111924998D02*
X152200000Y-113600000D01*
X153875002Y-110025000D02*
X153875002Y-111924998D01*
%TO.N,/MCU/RCC_OSC32_IN*%
D66*
X144000000Y-95000000D02*
X143401500Y-94401500D01*
X143401500Y-94401500D02*
X142430200Y-94401500D01*
X142220000Y-93000000D02*
X142220000Y-94191300D01*
X145000000Y-95000000D02*
X144000000Y-95000000D01*
X142220000Y-94191300D02*
X142430200Y-94401500D01*
%TO.N,/MCU/RCC_OSC_OUT*%
X139524000Y-100732000D02*
X140068000Y-100732000D01*
X144400000Y-97400000D02*
X144100000Y-97100000D01*
X140068000Y-100732000D02*
X140680000Y-100120000D01*
X142300000Y-97100000D02*
X141330200Y-98069800D01*
X140680000Y-100120000D02*
X141330200Y-100120000D01*
X141330200Y-98069800D02*
X141330200Y-100120000D01*
X145000000Y-97400000D02*
X144400000Y-97400000D01*
X144100000Y-97100000D02*
X142300000Y-97100000D01*
%TO.N,/Sensors/RF/GPS.TIMEPULSE*%
X156600000Y-88450000D02*
X156600000Y-87550000D01*
X156600000Y-87550000D02*
X157050000Y-87100000D01*
X157050000Y-87100000D02*
X158200000Y-87100000D01*
D67*
X163700000Y-86487500D02*
X163700000Y-87300000D01*
X163700000Y-87300000D02*
X164200000Y-87800000D01*
%TO.N,/USART2_TX*%
D66*
X151500000Y-86400000D02*
X154400000Y-86400000D01*
X150200000Y-92700000D02*
X150200000Y-88800000D01*
X149000000Y-95800000D02*
X149400000Y-95400000D01*
X155500000Y-87500000D02*
X155500000Y-88450000D01*
X149400000Y-93500000D02*
X150200000Y-92700000D01*
X150200000Y-88800000D02*
X150900000Y-88100000D01*
X154400000Y-86400000D02*
X155500000Y-87500000D01*
X150900000Y-87000000D02*
X151500000Y-86400000D01*
X150900000Y-88100000D02*
X150900000Y-87000000D01*
X149400000Y-95400000D02*
X149400000Y-93500000D01*
%TO.N,/MCU/NRST*%
X139000000Y-103100000D02*
X140300000Y-103100000D01*
X145000000Y-98200000D02*
X143300000Y-98200000D01*
X143300000Y-98200000D02*
X143100000Y-98400000D01*
X158630000Y-91730000D02*
X158630000Y-90970000D01*
X137510000Y-102700000D02*
X138600000Y-102700000D01*
X138600000Y-102700000D02*
X139000000Y-103100000D01*
X158630000Y-90970000D02*
X158700000Y-90900000D01*
%TO.N,/Sensors/RF/EBYTE.ANT*%
X145340000Y-77324800D02*
X145340000Y-72560000D01*
X145340000Y-72560000D02*
X145400000Y-72500000D01*
%TO.N,/Power/SS*%
X152450000Y-110950000D02*
X153050002Y-110950000D01*
X152200000Y-110700000D02*
X152450000Y-110950000D01*
X151680000Y-110700000D02*
X152200000Y-110700000D01*
%TO.N,/USART2_RX*%
X154400000Y-87500000D02*
X154000000Y-87100000D01*
X154400000Y-88450000D02*
X154400000Y-87500000D01*
X152100000Y-87100000D02*
X151800000Y-87400000D01*
X151800000Y-88300000D02*
X151800000Y-87400000D01*
X154000000Y-87100000D02*
X152100000Y-87100000D01*
X149400000Y-96200000D02*
X149000000Y-96600000D01*
%TO.N,/Connectors/CC1*%
D67*
X157055000Y-105750000D02*
X157950000Y-105750000D01*
X157950000Y-105750000D02*
X158600000Y-106400000D01*
%TO.N,/Connectors/D+*%
D10*
X155600000Y-103600000D02*
X155750000Y-103750000D01*
D67*
X157055000Y-104750000D02*
X158050000Y-104750000D01*
X160900000Y-104500000D02*
X162800000Y-106400000D01*
X158300000Y-104200000D02*
X157850000Y-103750000D01*
X158300000Y-104500000D02*
X158300000Y-104200000D01*
X158050000Y-104750000D02*
X158100000Y-104700000D01*
X157850000Y-103750000D02*
X157055000Y-103750000D01*
D10*
X155750000Y-103750000D02*
X157055000Y-103750000D01*
D67*
X158300000Y-104500000D02*
X160900000Y-104500000D01*
X158100000Y-104700000D02*
X158300000Y-104500000D01*
%TO.N,/Connectors/CC2*%
X159200000Y-101700000D02*
X158150000Y-102750000D01*
X158150000Y-102750000D02*
X157055000Y-102750000D01*
%TO.N,/ST*%
D66*
X153050002Y-109949999D02*
X153050002Y-109549998D01*
X153900000Y-108600000D02*
X153910000Y-108600000D01*
X153910000Y-108690000D02*
X153910000Y-108600000D01*
X153050002Y-109549998D02*
X153910000Y-108690000D01*
X150600000Y-102500000D02*
X153500000Y-105400000D01*
X153500000Y-106300000D02*
X153000000Y-106800000D01*
X153000000Y-106800000D02*
X153000000Y-107700000D01*
X153500000Y-105400000D02*
X153500000Y-106300000D01*
X150600000Y-102200000D02*
X150600000Y-102500000D01*
X153000000Y-107700000D02*
X153900000Y-108600000D01*
%TO.N,/Power/CP2*%
D10*
X156300000Y-110500000D02*
X156690000Y-110500000D01*
X156690000Y-110580000D02*
X157710000Y-111600000D01*
D66*
X156690000Y-110500000D02*
X156690000Y-110580000D01*
D10*
X155849999Y-111450001D02*
X156000000Y-111300000D01*
X156000000Y-110800000D02*
X156300000Y-110500000D01*
X155350000Y-111450001D02*
X155849999Y-111450001D01*
X156000000Y-111300000D02*
X156000000Y-110800000D01*
%TO.N,/Pyro/Pyro_{1}_Charge*%
D71*
X147250000Y-125737500D02*
X147250000Y-125468599D01*
X144487500Y-128500000D02*
X147250000Y-125737500D01*
%TO.N,/Pyro/Pyro_{2}_Charge*%
X149750000Y-127550000D02*
X149750000Y-125468599D01*
X148800000Y-128500000D02*
X149750000Y-127550000D01*
%TO.N,/Pyro/Pyro_{3}_Charge*%
X153087500Y-128500000D02*
X152250000Y-127662500D01*
X152250000Y-127662500D02*
X152250000Y-125468599D01*
%TO.N,/MCU/RCC_OSC_IN*%
D66*
X145000000Y-96600000D02*
X142000000Y-96600000D01*
X137090000Y-94870000D02*
X137120000Y-94900000D01*
X142000000Y-96600000D02*
X140600000Y-98000000D01*
X137120200Y-96651800D02*
X137136400Y-96668000D01*
X137120200Y-94900000D02*
X137120200Y-96651800D01*
X137090000Y-93900000D02*
X137090000Y-94870000D01*
X137120000Y-93830000D02*
X137090000Y-93800000D01*
X138468400Y-98000000D02*
X137136400Y-96668000D01*
X140600000Y-98000000D02*
X138468400Y-98000000D01*
%TO.N,/TIM2_CH1*%
X143200000Y-104100000D02*
X143200000Y-100600000D01*
X137000000Y-104990000D02*
X137210000Y-105200000D01*
X145400000Y-100200000D02*
X145800000Y-99800000D01*
X143600000Y-100200000D02*
X145400000Y-100200000D01*
X143200000Y-100600000D02*
X143600000Y-100200000D01*
X142100000Y-105200000D02*
X143200000Y-104100000D01*
X137210000Y-105200000D02*
X142100000Y-105200000D01*
%TO.N,/TIM2_CH2*%
X142300000Y-105600000D02*
X138930000Y-105600000D01*
X145400000Y-101000000D02*
X143800000Y-101000000D01*
X138930000Y-105600000D02*
X137000000Y-107530000D01*
X143600000Y-104300000D02*
X142300000Y-105600000D01*
X143600000Y-101200000D02*
X143600000Y-104300000D01*
X143800000Y-101000000D02*
X143600000Y-101200000D01*
X145800000Y-100600000D02*
X145400000Y-101000000D01*
%TO.N,/TIM2_CH3*%
X145800000Y-101400000D02*
X145400000Y-101800000D01*
X145400000Y-101800000D02*
X145400000Y-103100000D01*
X145400000Y-103100000D02*
X142500000Y-106000000D01*
X140400000Y-106000000D02*
X137000000Y-109400000D01*
X137000000Y-109400000D02*
X137000000Y-110070000D01*
X142500000Y-106000000D02*
X140400000Y-106000000D01*
%TO.N,/TIM2_CH4*%
X141200000Y-106400000D02*
X138200000Y-109400000D01*
X142700000Y-106400000D02*
X141200000Y-106400000D01*
X145800000Y-103300000D02*
X142700000Y-106400000D01*
X138200000Y-111410010D02*
X137000000Y-112610010D01*
X145800000Y-102200000D02*
X145800000Y-103300000D01*
X138200000Y-109400000D02*
X138200000Y-111410010D01*
%TO.N,/MCU/RCC_OSC32_OUT*%
X145000000Y-95800000D02*
X144300000Y-95800000D01*
X140800000Y-95180000D02*
X140800000Y-95200000D01*
X141401500Y-95798500D02*
X142430200Y-95798500D01*
X144298500Y-95798500D02*
X142430200Y-95798500D01*
X144300000Y-95800000D02*
X144298500Y-95798500D01*
X141400000Y-95800000D02*
X141401500Y-95798500D01*
X140800000Y-95200000D02*
X141400000Y-95800000D01*
%TO.N,/MCU/SWDIO*%
X152200000Y-95000000D02*
X155000000Y-95000000D01*
X155000000Y-95000000D02*
X155300000Y-94700000D01*
X159900000Y-93100000D02*
X159900000Y-93000000D01*
X155300000Y-94700000D02*
X158300000Y-94700000D01*
X158300000Y-94700000D02*
X159900000Y-93100000D01*
%TO.N,/MCU/SWCLK*%
X158200000Y-94300000D02*
X158630000Y-93870000D01*
X155400000Y-94300000D02*
X158200000Y-94300000D01*
X151800000Y-94000000D02*
X154200000Y-94000000D01*
X154200000Y-94000000D02*
X154300000Y-93900000D01*
X151400000Y-95000000D02*
X151400000Y-94400000D01*
X158630000Y-93870000D02*
X158630000Y-93000000D01*
X155000000Y-93900000D02*
X155400000Y-94300000D01*
X154300000Y-93900000D02*
X155000000Y-93900000D01*
X151400000Y-94400000D02*
X151800000Y-94000000D01*
%TO.N,/MCU/SWO*%
X151000000Y-92400000D02*
X149800000Y-93600000D01*
X156760000Y-92400000D02*
X157360000Y-93000000D01*
X149800000Y-93600000D02*
X149800000Y-95000000D01*
X156600000Y-92400000D02*
X156760000Y-92400000D01*
%TO.N,/EBYTE.NRST*%
X145700000Y-82100000D02*
X147575200Y-82100000D01*
X146200000Y-97000000D02*
X146600000Y-97400000D01*
X142400000Y-85400000D02*
X145700000Y-82100000D01*
%TO.N,/EBYTE.TXEN*%
X141530000Y-79870000D02*
X141530000Y-77324800D01*
X141100000Y-80300000D02*
X141530000Y-79870000D01*
X147000000Y-97000000D02*
X147400000Y-97400000D01*
%TO.N,/EBYTE.RXEN*%
X140260000Y-77324800D02*
X140260000Y-78260000D01*
X140260000Y-78260000D02*
X140400000Y-78400000D01*
X147000000Y-96200000D02*
X147400000Y-96600000D01*
%TO.N,/EBYTE.BUSY*%
X147000000Y-95400000D02*
X147400000Y-95800000D01*
X138164800Y-79700000D02*
X138024800Y-79560000D01*
X146500000Y-93600000D02*
X147000000Y-94100000D01*
X139000000Y-79700000D02*
X138164800Y-79700000D01*
X146100000Y-93600000D02*
X146500000Y-93600000D01*
X147000000Y-94100000D02*
X147000000Y-95400000D01*
%TO.N,/EBYTE.CS*%
X138024800Y-83370000D02*
X139370000Y-83370000D01*
X144600000Y-93800000D02*
X144600000Y-93600000D01*
X139370000Y-83370000D02*
X139700000Y-83700000D01*
X145800000Y-95000000D02*
X144600000Y-93800000D01*
%TO.N,/EBYTE.DIO3*%
X146200000Y-96200000D02*
X146600000Y-96600000D01*
X142800000Y-88200000D02*
X142800000Y-86875200D01*
%TO.N,/EBYTE.DIO2*%
X145400000Y-93800000D02*
X146200000Y-94600000D01*
X144100000Y-85600000D02*
X144070000Y-85630000D01*
X144100000Y-85400000D02*
X144100000Y-85600000D01*
X146200000Y-95400000D02*
X146200000Y-94600000D01*
X146600000Y-95800000D02*
X146200000Y-95400000D01*
X144070000Y-85630000D02*
X144070000Y-86875200D01*
%TO.N,/EBYTE.DIO1*%
X145340000Y-83660000D02*
X145600000Y-83400000D01*
X145340000Y-86875200D02*
X145340000Y-83660000D01*
X147800000Y-96200000D02*
X148200000Y-96600000D01*
%TO.N,/SPI1_MISO*%
X149100000Y-108000000D02*
X149700000Y-108000000D01*
X146200000Y-103500000D02*
X145537500Y-104162500D01*
X146200000Y-101800000D02*
X146200000Y-103500000D01*
X145537500Y-104862500D02*
X145537500Y-105750000D01*
X146600000Y-101400000D02*
X146200000Y-101800000D01*
X149762500Y-108062500D02*
X150050000Y-108062500D01*
X145537500Y-104162500D02*
X145537500Y-104862500D01*
X149700000Y-108000000D02*
X149762500Y-108062500D01*
%TO.N,/LSM6DSV320XTR.INT1*%
X146200000Y-99400000D02*
X146600000Y-99000000D01*
X144400000Y-106320576D02*
X144400000Y-105600000D01*
X145537500Y-107250000D02*
X145329424Y-107250000D01*
X145329424Y-107250000D02*
X144400000Y-106320576D01*
%TO.N,/LSM6DSV320XTR.INT2*%
X148000000Y-105100000D02*
X148500000Y-105600000D01*
X148500000Y-105600000D02*
X148500000Y-106512500D01*
X148028388Y-104771612D02*
X148000000Y-104800000D01*
X148262500Y-106750000D02*
X147862500Y-106750000D01*
X148500000Y-106512500D02*
X148262500Y-106750000D01*
X148000000Y-104800000D02*
X148000000Y-105100000D01*
X149000000Y-100600000D02*
X149400000Y-101000000D01*
%TO.N,/LSM6DSV320XTR.CS*%
X149000000Y-99800000D02*
X149400000Y-100200000D01*
X147200000Y-106100000D02*
X147200000Y-105587500D01*
X147000000Y-106300000D02*
X147200000Y-106100000D01*
X146900000Y-106300000D02*
X147000000Y-106300000D01*
%TO.N,/SPI1_SCK*%
X147000000Y-104800000D02*
X147400000Y-104800000D01*
X148950000Y-106250000D02*
X149000000Y-106300000D01*
X146700000Y-105587500D02*
X146700000Y-105100000D01*
X149500000Y-106900000D02*
X149887500Y-106900000D01*
X146700000Y-105100000D02*
X147000000Y-104800000D01*
X146200000Y-101000000D02*
X146600000Y-100600000D01*
X149000000Y-106400000D02*
X149500000Y-106900000D01*
X149000000Y-106300000D02*
X149000000Y-106400000D01*
%TO.N,/SPI1_MOSI*%
X149500000Y-107400000D02*
X149887500Y-107400000D01*
X149300000Y-107200000D02*
X149500000Y-107400000D01*
X146200000Y-104000000D02*
X146600000Y-103600000D01*
X146200000Y-104900000D02*
X146200000Y-104000000D01*
X146600000Y-103600000D02*
X146600000Y-102200000D01*
X146200000Y-105587500D02*
X146200000Y-104900000D01*
X149000000Y-107100000D02*
X149100000Y-107200000D01*
X149100000Y-107200000D02*
X149300000Y-107200000D01*
%TO.N,/LSM6DSM.INT1*%
X149400000Y-104600000D02*
X149400000Y-101800000D01*
X149400000Y-101800000D02*
X149000000Y-101400000D01*
X152100000Y-108612500D02*
X151550000Y-108062500D01*
X152100000Y-108700000D02*
X152100000Y-108612500D01*
X149500000Y-104700000D02*
X149400000Y-104600000D01*
%TO.N,/LSM6DSM.INT2*%
X149000000Y-105000000D02*
X149200000Y-105200000D01*
X149000000Y-102200000D02*
X149000000Y-105000000D01*
X150824999Y-105200000D02*
X151050000Y-105425001D01*
X149200000Y-105200000D02*
X150824999Y-105200000D01*
X151050000Y-105425001D02*
X151050000Y-105737500D01*
%TO.N,/LSM6DSM.CS*%
X148200000Y-102500000D02*
X148600000Y-102900000D01*
X148600000Y-105112500D02*
X149887500Y-106400000D01*
X148600000Y-102900000D02*
X148600000Y-105112500D01*
X148200000Y-102200000D02*
X148200000Y-102500000D01*
%TO.N,/Pyro/Pyro_{1}_LED*%
D71*
X141500000Y-128500000D02*
X141200000Y-128200000D01*
X142912500Y-128500000D02*
X141500000Y-128500000D01*
X141200000Y-124600000D02*
X140000000Y-123400000D01*
X141200000Y-128200000D02*
X141200000Y-124600000D01*
X140000000Y-123400000D02*
X139210000Y-123400000D01*
%TO.N,/QUADSPI_BK1_IO2*%
D66*
X146600000Y-95000000D02*
X146600000Y-94300000D01*
X146600000Y-94300000D02*
X146500000Y-94200000D01*
%TO.N,/~{BMP_{2}.CS}*%
X141000000Y-93500000D02*
X139400000Y-93500000D01*
X147400000Y-93900000D02*
X146600000Y-93100000D01*
X138900000Y-93000000D02*
X138800000Y-93000000D01*
X141300000Y-93100000D02*
X141300000Y-93200000D01*
X142400000Y-92000000D02*
X141300000Y-93100000D01*
X147400000Y-95000000D02*
X147400000Y-93900000D01*
X145100000Y-93100000D02*
X144000000Y-92000000D01*
X144000000Y-92000000D02*
X142400000Y-92000000D01*
X146600000Y-93100000D02*
X145100000Y-93100000D01*
X139400000Y-93500000D02*
X138900000Y-93000000D01*
X141300000Y-93200000D02*
X141000000Y-93500000D01*
%TO.N,/MCU/Buzzer_PWM*%
X150000000Y-87900000D02*
X150000000Y-84600000D01*
X148200000Y-95000000D02*
X148200000Y-93400000D01*
X150000000Y-84600000D02*
X149800000Y-84400000D01*
X149400000Y-88500000D02*
X150000000Y-87900000D01*
X149400000Y-92200000D02*
X149400000Y-88500000D01*
X148200000Y-93400000D02*
X149400000Y-92200000D01*
%TO.N,/GPS.~{RESET}*%
X150500000Y-88000000D02*
X150500000Y-86100000D01*
X160700000Y-86500000D02*
X162100000Y-87900000D01*
X149800000Y-92600000D02*
X149800000Y-88700000D01*
X149800000Y-88700000D02*
X150500000Y-88000000D01*
X149000000Y-95000000D02*
X149000000Y-93400000D01*
X154500000Y-85700000D02*
X155300000Y-86500000D01*
X149000000Y-93400000D02*
X149800000Y-92600000D01*
X155300000Y-86500000D02*
X160700000Y-86500000D01*
X150900000Y-85700000D02*
X154500000Y-85700000D01*
X150500000Y-86100000D02*
X150900000Y-85700000D01*
X162100000Y-87900000D02*
X162100000Y-88450000D01*
%TO.N,/GPS.EXTINT*%
X157700000Y-90000000D02*
X157700000Y-88450000D01*
X151300000Y-93200000D02*
X153800000Y-93200000D01*
X154200000Y-92800000D02*
X154600000Y-92800000D01*
X150600000Y-93900000D02*
X151300000Y-93200000D01*
X154600000Y-92800000D02*
X155000000Y-92400000D01*
X153800000Y-93200000D02*
X154200000Y-92800000D01*
X155500000Y-90300000D02*
X157400000Y-90300000D01*
X155000000Y-92400000D02*
X155000000Y-90800000D01*
X150600000Y-95000000D02*
X150600000Y-93900000D01*
X157400000Y-90300000D02*
X157700000Y-90000000D01*
X155000000Y-90800000D02*
X155500000Y-90300000D01*
%TO.N,/SDMMC1_CMD*%
X150200000Y-95400000D02*
X149800000Y-95800000D01*
X154400000Y-92400000D02*
X154300000Y-92500000D01*
X154400000Y-90700000D02*
X154400000Y-92400000D01*
X154300000Y-92500000D02*
X154000000Y-92500000D01*
X156900000Y-82900000D02*
X158000000Y-82900000D01*
X150200000Y-93700000D02*
X150200000Y-95400000D01*
X154000000Y-92500000D02*
X153700000Y-92800000D01*
X158000000Y-82900000D02*
X158800000Y-83700000D01*
X151100000Y-92800000D02*
X150200000Y-93700000D01*
X153700000Y-92800000D02*
X151100000Y-92800000D01*
%TO.N,/SDMMC1_D3*%
X151000000Y-95400000D02*
X150600000Y-95800000D01*
X158000000Y-83900000D02*
X158800000Y-84700000D01*
X151600000Y-93600000D02*
X151000000Y-94200000D01*
X151000000Y-94200000D02*
X151000000Y-95400000D01*
X154700000Y-93300000D02*
X154700000Y-93343224D01*
X154100000Y-93400000D02*
X153900000Y-93600000D01*
X154643224Y-93400000D02*
X154100000Y-93400000D01*
X154700000Y-93343224D02*
X154643224Y-93400000D01*
X153900000Y-93600000D02*
X151600000Y-93600000D01*
X156700000Y-83900000D02*
X158000000Y-83900000D01*
%TO.N,/SDMMC1_D2*%
X151800000Y-95400000D02*
X151400000Y-95800000D01*
X156000000Y-84300000D02*
X156000000Y-84750000D01*
X157050000Y-85800000D02*
X158500000Y-85800000D01*
X151800000Y-94600000D02*
X151800000Y-95400000D01*
X154800000Y-94400000D02*
X152000000Y-94400000D01*
X156000000Y-84750000D02*
X157050000Y-85800000D01*
X152000000Y-94400000D02*
X151800000Y-94600000D01*
%TO.N,/USB_OTG_FS_DP*%
X160100000Y-100400000D02*
X160100000Y-97300000D01*
X158600000Y-95800000D02*
X152200000Y-95800000D01*
X162300000Y-101700000D02*
X161700000Y-101100000D01*
X160800000Y-101100000D02*
X160100000Y-100400000D01*
X161700000Y-101100000D02*
X160800000Y-101100000D01*
X160100000Y-97300000D02*
X158600000Y-95800000D01*
%TO.N,/SDMMC1_CK*%
X151000000Y-96200000D02*
X150600000Y-96600000D01*
%TO.N,/USB_OTG_FS_DM*%
X159800000Y-97400000D02*
X158500000Y-96100000D01*
X158500000Y-96100000D02*
X153400000Y-96100000D01*
X152900000Y-96600000D02*
X152200000Y-96600000D01*
X160200000Y-101700000D02*
X159800000Y-101300000D01*
X159800000Y-101300000D02*
X159800000Y-97400000D01*
X153400000Y-96100000D02*
X152900000Y-96600000D01*
%TO.N,/BMP_{2}.INT*%
X141500000Y-88800000D02*
X140400000Y-88800000D01*
X150200000Y-97000000D02*
X149800000Y-97400000D01*
X140400000Y-88800000D02*
X140100000Y-89100000D01*
X143800000Y-90600000D02*
X143300000Y-90600000D01*
X143300000Y-90600000D02*
X141500000Y-88800000D01*
%TO.N,/MCU/PD0*%
X151000000Y-97000000D02*
X150600000Y-97400000D01*
%TO.N,/SD_DET*%
X154500000Y-97100000D02*
X154400000Y-97000000D01*
X154400000Y-97000000D02*
X151800000Y-97000000D01*
X154700000Y-97100000D02*
X154500000Y-97100000D01*
X151800000Y-97000000D02*
X151400000Y-97400000D01*
%TO.N,/MCU/PE6*%
X146200000Y-97800000D02*
X146600000Y-98200000D01*
%TO.N,/MCU/VCAP1*%
X150200000Y-97800000D02*
X149800000Y-98200000D01*
%TO.N,/MCU/PD1*%
X151000000Y-97800000D02*
X150600000Y-98200000D01*
%TO.N,/SDMMC1_D1*%
X155500000Y-97100000D02*
X154800000Y-97800000D01*
X155600000Y-97100000D02*
X155500000Y-97100000D01*
X151800000Y-97800000D02*
X151400000Y-98200000D01*
X154800000Y-97800000D02*
X151800000Y-97800000D01*
%TO.N,/~{FRAM.CS}*%
X145000000Y-99000000D02*
X144000000Y-99000000D01*
X144000000Y-99000000D02*
X143900000Y-99100000D01*
%TO.N,/MCU/VCAP2*%
X150600000Y-99000000D02*
X151000000Y-99400000D01*
%TO.N,/SDMMC1_D0*%
X154000000Y-99400000D02*
X156200000Y-97200000D01*
X156200000Y-96700000D02*
X156300000Y-96600000D01*
X156200000Y-97200000D02*
X156200000Y-96700000D01*
X151400000Y-99000000D02*
X151800000Y-99400000D01*
X151800000Y-99400000D02*
X154000000Y-99400000D01*
%TO.N,/ADC1_INP4*%
X147000000Y-100200000D02*
X147400000Y-99800000D01*
%TO.N,/QUADSPI_CLK*%
X163300000Y-95400000D02*
X162700000Y-95400000D01*
X163300000Y-99700000D02*
X163300000Y-100800000D01*
X161500000Y-95700000D02*
X160700000Y-96500000D01*
X162700000Y-95400000D02*
X162400000Y-95700000D01*
X160700000Y-96500000D02*
X160700000Y-98700000D01*
X163300000Y-100800000D02*
X163200000Y-100900000D01*
X160700000Y-98700000D02*
X161200000Y-99200000D01*
X161200000Y-99200000D02*
X162800000Y-99200000D01*
X162800000Y-99200000D02*
X163300000Y-99700000D01*
X147800000Y-100200000D02*
X148200000Y-99800000D01*
X163500000Y-95200000D02*
X163300000Y-95400000D01*
X162400000Y-95700000D02*
X161500000Y-95700000D01*
%TO.N,/MCU/PE14*%
X149800000Y-99800000D02*
X150200000Y-100200000D01*
%TO.N,/MCU/PD15*%
X150600000Y-99800000D02*
X151000000Y-100200000D01*
%TO.N,/QUADSPI_BK1_IO0*%
X157300000Y-97700000D02*
X157900000Y-97700000D01*
X151800000Y-100200000D02*
X154800000Y-100200000D01*
X154800000Y-100200000D02*
X157300000Y-97700000D01*
X151400000Y-99800000D02*
X151800000Y-100200000D01*
%TO.N,/USB_OTG_HS_DP*%
X160700000Y-93400000D02*
X160800000Y-93300000D01*
X162150000Y-92650000D02*
X163200000Y-92650000D01*
X154500000Y-99800000D02*
X152200000Y-99800000D01*
X161500000Y-93300000D02*
X162150000Y-92650000D01*
X157969798Y-96600000D02*
X157700000Y-96600000D01*
X160800000Y-93300000D02*
X161500000Y-93300000D01*
X157700000Y-96600000D02*
X154500000Y-99800000D01*
%TO.N,/ADC1_INP8*%
X147000000Y-101000000D02*
X147400000Y-100600000D01*
%TO.N,/MCU/PE7*%
X147800000Y-101000000D02*
X148200000Y-100600000D01*
%TO.N,/MCU/PE15*%
X149800000Y-100600000D02*
X150200000Y-101000000D01*
%TO.N,/MCU/PD14*%
X150600000Y-100600000D02*
X151000000Y-101000000D01*
%TO.N,/Pyro_{3}_Gate*%
X151800000Y-101000000D02*
X153700000Y-101000000D01*
X154800000Y-104600000D02*
X154700000Y-104700000D01*
X154700000Y-104700000D02*
X154700000Y-107500000D01*
X154800000Y-102100000D02*
X154800000Y-104600000D01*
X151400000Y-100600000D02*
X151800000Y-101000000D01*
X153700000Y-101000000D02*
X154800000Y-102100000D01*
%TO.N,/USB_OTG_HS_DM*%
X163150000Y-94000000D02*
X163200000Y-94050000D01*
X152200000Y-100600000D02*
X154000000Y-100600000D01*
X161600000Y-94000000D02*
X163150000Y-94000000D01*
X161300000Y-93700000D02*
X161600000Y-94000000D01*
%TO.N,/ADC1_INP9*%
X147100000Y-103900000D02*
X147000000Y-103800000D01*
X147000000Y-101800000D02*
X147400000Y-101400000D01*
X147000000Y-103800000D02*
X147000000Y-101800000D01*
X147100000Y-104100000D02*
X147100000Y-103900000D01*
%TO.N,/QUADSPI_BK1_NCS*%
X150200000Y-101800000D02*
X150200000Y-103300000D01*
X149800000Y-101400000D02*
X150200000Y-101800000D01*
X150200000Y-103300000D02*
X151300000Y-104400000D01*
X151300000Y-104400000D02*
X151300000Y-104800000D01*
%TO.N,/Pyro_{2}_Gate*%
X151800000Y-102400000D02*
X154300000Y-104900000D01*
X154300000Y-104900000D02*
X154300000Y-107300000D01*
X154300000Y-107300000D02*
X154100000Y-107500000D01*
X151800000Y-101800000D02*
X151800000Y-102400000D01*
X151400000Y-101400000D02*
X151800000Y-101800000D01*
%TO.N,/QUADSPI_BK1_IO3*%
X154300000Y-102400000D02*
X154200000Y-102400000D01*
X154200000Y-102400000D02*
X153700000Y-101900000D01*
X152800000Y-101400000D02*
X152200000Y-101400000D01*
X153700000Y-101900000D02*
X153300000Y-101900000D01*
X153300000Y-101900000D02*
X152800000Y-101400000D01*
%TO.N,/MCU/ADC_BATT*%
X147800000Y-103900000D02*
X147400000Y-103500000D01*
X147800000Y-104200000D02*
X147800000Y-103900000D01*
X147400000Y-103500000D02*
X147400000Y-102200000D01*
%TO.N,/Pyro_{1}_Gate*%
X151400000Y-102200000D02*
X151400000Y-102600000D01*
X153900000Y-106500000D02*
X153500000Y-106900000D01*
X151400000Y-102600000D02*
X153900000Y-105100000D01*
X153500000Y-106900000D02*
X153500000Y-107500000D01*
X153900000Y-105100000D02*
X153900000Y-106500000D01*
%TO.N,/QUADSPI_BK1_IO1*%
X152800000Y-102200000D02*
X153200000Y-102600000D01*
X153200000Y-102600000D02*
X153300000Y-102600000D01*
X152200000Y-102200000D02*
X152800000Y-102200000D01*
%TO.N,/Sensors/RF/GPS.RF_{Filter}*%
X156480000Y-76000000D02*
X157080000Y-76600000D01*
X157080000Y-76600000D02*
X157080000Y-76970000D01*
X157110000Y-77000000D02*
X158115000Y-77000000D01*
X157080000Y-76970000D02*
X157110000Y-77000000D01*
%TO.N,/Sensors/RF/VCC_RF*%
X156090000Y-77190000D02*
X156600000Y-77700000D01*
X157700000Y-77900000D02*
X157700000Y-78950000D01*
X156600000Y-77700000D02*
X157500000Y-77700000D01*
X156090000Y-77000000D02*
X156090000Y-77190000D01*
X157500000Y-77700000D02*
X157700000Y-77900000D01*
%TD*%
%TA.AperFunction,Conductor*%
%TO.N,VBATT*%
G36*
X158186319Y-112919685D02*
G01*
X158232074Y-112972489D01*
X158236986Y-112984995D01*
X158287451Y-113137286D01*
X158287455Y-113137295D01*
X158375716Y-113280387D01*
X158375719Y-113280391D01*
X158494608Y-113399280D01*
X158494612Y-113399283D01*
X158637704Y-113487544D01*
X158637707Y-113487545D01*
X158637713Y-113487549D01*
X158797315Y-113540436D01*
X158895826Y-113550500D01*
X158895831Y-113550500D01*
X159504169Y-113550500D01*
X159504174Y-113550500D01*
X159602685Y-113540436D01*
X159762287Y-113487549D01*
X159905391Y-113399281D01*
X160024281Y-113280391D01*
X160112549Y-113137287D01*
X160163014Y-112984995D01*
X160202787Y-112927551D01*
X160267303Y-112900728D01*
X160280720Y-112900000D01*
X164475500Y-112900000D01*
X164542539Y-112919685D01*
X164588294Y-112972489D01*
X164599500Y-113024000D01*
X164599500Y-117476000D01*
X164579815Y-117543039D01*
X164527011Y-117588794D01*
X164475500Y-117600000D01*
X163360692Y-117600000D01*
X163293653Y-117580315D01*
X163287807Y-117576318D01*
X163165578Y-117487514D01*
X163165577Y-117487513D01*
X163165575Y-117487512D01*
X163093242Y-117450656D01*
X162933960Y-117369498D01*
X162686727Y-117289166D01*
X162429981Y-117248502D01*
X162429976Y-117248502D01*
X162170024Y-117248502D01*
X162170019Y-117248502D01*
X161913272Y-117289166D01*
X161666039Y-117369498D01*
X161434421Y-117487514D01*
X161312193Y-117576318D01*
X161246387Y-117599798D01*
X161239308Y-117600000D01*
X157843200Y-117600000D01*
X157776161Y-117580315D01*
X157730406Y-117527511D01*
X157719200Y-117476000D01*
X157719200Y-115442700D01*
X156824000Y-115442700D01*
X156756961Y-115423015D01*
X156711206Y-115370211D01*
X156700000Y-115318700D01*
X156700000Y-114856390D01*
X156719685Y-114789351D01*
X156730282Y-114775193D01*
X156775254Y-114723294D01*
X156835024Y-114592416D01*
X156848214Y-114500678D01*
X161038000Y-114500678D01*
X161038000Y-114699321D01*
X161069075Y-114895520D01*
X161069075Y-114895523D01*
X161130457Y-115084437D01*
X161220641Y-115261432D01*
X161247730Y-115298715D01*
X161247731Y-115298716D01*
X161810504Y-114735942D01*
X161826619Y-114796081D01*
X161893498Y-114911920D01*
X161988080Y-115006502D01*
X162103919Y-115073381D01*
X162164057Y-115089494D01*
X161601283Y-115652268D01*
X161601283Y-115652269D01*
X161638567Y-115679358D01*
X161815562Y-115769542D01*
X162004477Y-115830924D01*
X162200679Y-115862000D01*
X162399321Y-115862000D01*
X162595520Y-115830924D01*
X162595523Y-115830924D01*
X162784437Y-115769542D01*
X162961425Y-115679362D01*
X162998716Y-115652268D01*
X162435942Y-115089494D01*
X162496081Y-115073381D01*
X162611920Y-115006502D01*
X162706502Y-114911920D01*
X162773381Y-114796081D01*
X162789495Y-114735942D01*
X163352268Y-115298715D01*
X163379362Y-115261425D01*
X163469542Y-115084437D01*
X163530924Y-114895523D01*
X163530924Y-114895520D01*
X163562000Y-114699321D01*
X163562000Y-114500678D01*
X163530924Y-114304479D01*
X163530924Y-114304476D01*
X163469542Y-114115562D01*
X163379358Y-113938567D01*
X163352268Y-113901283D01*
X162789494Y-114464057D01*
X162773381Y-114403919D01*
X162706502Y-114288080D01*
X162611920Y-114193498D01*
X162496081Y-114126619D01*
X162435942Y-114110504D01*
X162998716Y-113547731D01*
X162998715Y-113547730D01*
X162961432Y-113520641D01*
X162784437Y-113430457D01*
X162595522Y-113369075D01*
X162399321Y-113338000D01*
X162200679Y-113338000D01*
X162004479Y-113369075D01*
X162004476Y-113369075D01*
X161815562Y-113430457D01*
X161638564Y-113520643D01*
X161601283Y-113547729D01*
X161601282Y-113547730D01*
X162164058Y-114110504D01*
X162103919Y-114126619D01*
X161988080Y-114193498D01*
X161893498Y-114288080D01*
X161826619Y-114403919D01*
X161810504Y-114464057D01*
X161247730Y-113901282D01*
X161247729Y-113901283D01*
X161220643Y-113938564D01*
X161130457Y-114115562D01*
X161069075Y-114304476D01*
X161069075Y-114304479D01*
X161038000Y-114500678D01*
X156848214Y-114500678D01*
X156855500Y-114450000D01*
X156855500Y-113024000D01*
X156875185Y-112956961D01*
X156927989Y-112911206D01*
X156979500Y-112900000D01*
X158119280Y-112900000D01*
X158186319Y-112919685D01*
G37*
%TD.AperFunction*%
%TD*%
%TA.AperFunction,Conductor*%
%TO.N,VSW*%
G36*
X152543039Y-112519685D02*
G01*
X152588794Y-112572489D01*
X152600000Y-112624000D01*
X152600000Y-114576000D01*
X152580315Y-114643039D01*
X152527511Y-114688794D01*
X152476000Y-114700000D01*
X151924000Y-114700000D01*
X151856961Y-114680315D01*
X151811206Y-114627511D01*
X151800000Y-114576000D01*
X151800000Y-113300000D01*
X151700000Y-113200000D01*
X151524000Y-113200000D01*
X151456961Y-113180315D01*
X151411206Y-113127511D01*
X151400000Y-113076000D01*
X151400000Y-112624000D01*
X151419685Y-112556961D01*
X151472489Y-112511206D01*
X151524000Y-112500000D01*
X152476000Y-112500000D01*
X152543039Y-112519685D01*
G37*
%TD.AperFunction*%
%TD*%
%TA.AperFunction,Conductor*%
%TO.N,GND*%
G36*
X144192539Y-71319685D02*
G01*
X144238294Y-71372489D01*
X144249500Y-71424000D01*
X144249500Y-74531517D01*
X144260292Y-74599657D01*
X144264354Y-74625304D01*
X144321950Y-74738342D01*
X144321952Y-74738344D01*
X144321954Y-74738347D01*
X144411652Y-74828045D01*
X144411654Y-74828046D01*
X144411658Y-74828050D01*
X144524694Y-74885645D01*
X144524698Y-74885647D01*
X144618475Y-74900499D01*
X144618481Y-74900500D01*
X144752000Y-74900499D01*
X144760685Y-74903049D01*
X144769647Y-74901761D01*
X144793684Y-74912738D01*
X144819039Y-74920183D01*
X144824967Y-74927025D01*
X144833203Y-74930786D01*
X144847489Y-74953017D01*
X144864794Y-74972987D01*
X144867081Y-74983502D01*
X144870977Y-74989564D01*
X144876000Y-75024499D01*
X144876000Y-75155579D01*
X144856315Y-75222618D01*
X144850804Y-75230504D01*
X144755340Y-75356392D01*
X144700075Y-75496534D01*
X144700075Y-75496535D01*
X144689500Y-75584598D01*
X144689500Y-76015393D01*
X144700075Y-76103465D01*
X144700076Y-76103467D01*
X144744216Y-76215400D01*
X144755340Y-76243607D01*
X144776301Y-76271248D01*
X144801124Y-76336559D01*
X144786696Y-76404923D01*
X144737598Y-76454634D01*
X144733794Y-76456657D01*
X144720657Y-76463350D01*
X144720652Y-76463354D01*
X144630954Y-76553052D01*
X144630951Y-76553057D01*
X144573352Y-76666098D01*
X144558500Y-76759875D01*
X144558500Y-76759880D01*
X144558500Y-76759881D01*
X144558500Y-77324376D01*
X144558501Y-77676000D01*
X144538817Y-77743039D01*
X144486013Y-77788794D01*
X144434501Y-77800000D01*
X143705500Y-77800000D01*
X143638461Y-77780315D01*
X143592706Y-77727511D01*
X143581500Y-77676000D01*
X143581499Y-76759882D01*
X143581498Y-76759875D01*
X143566646Y-76666096D01*
X143509050Y-76553058D01*
X143509046Y-76553054D01*
X143509045Y-76553052D01*
X143419347Y-76463354D01*
X143419344Y-76463352D01*
X143419342Y-76463350D01*
X143342517Y-76424205D01*
X143306301Y-76405752D01*
X143212524Y-76390900D01*
X142387482Y-76390900D01*
X142293695Y-76405754D01*
X142221294Y-76442644D01*
X142152624Y-76455540D01*
X142108706Y-76442644D01*
X142036304Y-76405753D01*
X142036301Y-76405752D01*
X141942524Y-76390900D01*
X141117482Y-76390900D01*
X141023695Y-76405754D01*
X140951294Y-76442644D01*
X140882624Y-76455540D01*
X140838706Y-76442644D01*
X140766304Y-76405753D01*
X140766301Y-76405752D01*
X140672524Y-76390900D01*
X139847482Y-76390900D01*
X139766519Y-76403723D01*
X139753696Y-76405754D01*
X139640658Y-76463350D01*
X139640657Y-76463351D01*
X139640652Y-76463354D01*
X139550954Y-76553052D01*
X139550951Y-76553057D01*
X139493352Y-76666098D01*
X139478500Y-76759875D01*
X139478500Y-76759880D01*
X139478500Y-76759881D01*
X139478500Y-77324376D01*
X139478501Y-77676000D01*
X139458817Y-77743039D01*
X139406013Y-77788794D01*
X139354501Y-77800000D01*
X138024000Y-77800000D01*
X137956961Y-77780315D01*
X137911206Y-77727511D01*
X137900000Y-77676000D01*
X137900000Y-71424000D01*
X137919685Y-71356961D01*
X137972489Y-71311206D01*
X138024000Y-71300000D01*
X144125500Y-71300000D01*
X144192539Y-71319685D01*
G37*
%TD.AperFunction*%
%TA.AperFunction,Conductor*%
G36*
X153392539Y-71319685D02*
G01*
X153438294Y-71372489D01*
X153449500Y-71424000D01*
X153449500Y-74531517D01*
X153460292Y-74599657D01*
X153464354Y-74625304D01*
X153521950Y-74738342D01*
X153521952Y-74738344D01*
X153521954Y-74738347D01*
X153611652Y-74828045D01*
X153611654Y-74828046D01*
X153611658Y-74828050D01*
X153724694Y-74885645D01*
X153724698Y-74885647D01*
X153818475Y-74900499D01*
X153818481Y-74900500D01*
X154108384Y-74900499D01*
X154175423Y-74920183D01*
X154215770Y-74962497D01*
X154228704Y-74984899D01*
X154228706Y-74984902D01*
X154228707Y-74984903D01*
X154578322Y-75334518D01*
X154924366Y-75680561D01*
X154924376Y-75680572D01*
X155015098Y-75771294D01*
X155038156Y-75784606D01*
X155120903Y-75832379D01*
X155238913Y-75864000D01*
X155675500Y-75864000D01*
X155684182Y-75866549D01*
X155693139Y-75865261D01*
X155717182Y-75876239D01*
X155742539Y-75883685D01*
X155748463Y-75890522D01*
X155756697Y-75894282D01*
X155770990Y-75916519D01*
X155788294Y-75936489D01*
X155790580Y-75946998D01*
X155794475Y-75953057D01*
X155799496Y-75987976D01*
X155799500Y-75987992D01*
X155799500Y-76212320D01*
X155799514Y-76212442D01*
X155799515Y-76216278D01*
X155790640Y-76246510D01*
X155783519Y-76277206D01*
X155780874Y-76279778D01*
X155779835Y-76283319D01*
X155756022Y-76303954D01*
X155733438Y-76325926D01*
X155727544Y-76328634D01*
X155727034Y-76329077D01*
X155726375Y-76329171D01*
X155721005Y-76331640D01*
X155690080Y-76343835D01*
X155690078Y-76343836D01*
X155572783Y-76432783D01*
X155483838Y-76550075D01*
X155429833Y-76687022D01*
X155419500Y-76773072D01*
X155419500Y-77226919D01*
X155429833Y-77312977D01*
X155483837Y-77449922D01*
X155483838Y-77449925D01*
X155484331Y-77450574D01*
X155484596Y-77451272D01*
X155487995Y-77457317D01*
X155487087Y-77457827D01*
X155509155Y-77515886D01*
X155494727Y-77584249D01*
X155445630Y-77633961D01*
X155385529Y-77649500D01*
X155260637Y-77649500D01*
X155143246Y-77664953D01*
X155143234Y-77664957D01*
X154997452Y-77725342D01*
X154927983Y-77732811D01*
X154902548Y-77725342D01*
X154756765Y-77664957D01*
X154756760Y-77664955D01*
X154639361Y-77649500D01*
X154160636Y-77649500D01*
X154043246Y-77664953D01*
X154043237Y-77664956D01*
X153897152Y-77725466D01*
X153895922Y-77726177D01*
X153894754Y-77726460D01*
X153889651Y-77728574D01*
X153889321Y-77727777D01*
X153828020Y-77742642D01*
X153771935Y-77726171D01*
X153765232Y-77722301D01*
X153654556Y-77676458D01*
X153625236Y-77664313D01*
X153611171Y-77662461D01*
X153512727Y-77649500D01*
X153512720Y-77649500D01*
X153087280Y-77649500D01*
X153087272Y-77649500D01*
X152974764Y-77664313D01*
X152974763Y-77664313D01*
X152834769Y-77722300D01*
X152834765Y-77722302D01*
X152766905Y-77774375D01*
X152701736Y-77799570D01*
X152691418Y-77800000D01*
X146245500Y-77800000D01*
X146178461Y-77780315D01*
X146132706Y-77727511D01*
X146121500Y-77676000D01*
X146121499Y-76759882D01*
X146121498Y-76759875D01*
X146106646Y-76666096D01*
X146049050Y-76553058D01*
X146049046Y-76553054D01*
X146049045Y-76553052D01*
X145972487Y-76476494D01*
X145939002Y-76415171D01*
X145943986Y-76345479D01*
X145961364Y-76313888D01*
X145969266Y-76303468D01*
X146014661Y-76243605D01*
X146069924Y-76103467D01*
X146080500Y-76015401D01*
X146080499Y-75584600D01*
X146069924Y-75496533D01*
X146014661Y-75356395D01*
X146005529Y-75344353D01*
X145923638Y-75236362D01*
X145923633Y-75236358D01*
X145853075Y-75182852D01*
X145850594Y-75179495D01*
X145846797Y-75177761D01*
X145830008Y-75151638D01*
X145811551Y-75126660D01*
X145810635Y-75121491D01*
X145809023Y-75118983D01*
X145804000Y-75084048D01*
X145804000Y-75024499D01*
X145823685Y-74957460D01*
X145876489Y-74911705D01*
X145928000Y-74900499D01*
X146181517Y-74900499D01*
X146181518Y-74900499D01*
X146275304Y-74885646D01*
X146388342Y-74828050D01*
X146478050Y-74738342D01*
X146535646Y-74625304D01*
X146535646Y-74625302D01*
X146535647Y-74625301D01*
X146550499Y-74531524D01*
X146550500Y-74531519D01*
X146550499Y-71423999D01*
X146570184Y-71356961D01*
X146622988Y-71311206D01*
X146674499Y-71300000D01*
X153325500Y-71300000D01*
X153392539Y-71319685D01*
G37*
%TD.AperFunction*%
%TA.AperFunction,Conductor*%
G36*
X161943039Y-71319685D02*
G01*
X161988794Y-71372489D01*
X162000000Y-71424000D01*
X162000000Y-77676000D01*
X161980315Y-77743039D01*
X161927511Y-77788794D01*
X161876000Y-77800000D01*
X161642071Y-77800000D01*
X161620138Y-77793559D01*
X161597358Y-77791658D01*
X161579492Y-77781624D01*
X161575032Y-77780315D01*
X161566585Y-77774376D01*
X161512514Y-77732886D01*
X161471311Y-77676458D01*
X161466147Y-77646829D01*
X161465061Y-77646973D01*
X161464000Y-77638916D01*
X161464000Y-77638913D01*
X161432379Y-77520903D01*
X161371293Y-77415097D01*
X161284903Y-77328707D01*
X161280572Y-77324376D01*
X161280561Y-77324366D01*
X160584904Y-76628708D01*
X160584902Y-76628706D01*
X160479097Y-76567621D01*
X160361087Y-76535999D01*
X160238913Y-76535999D01*
X160231317Y-76535999D01*
X160231301Y-76536000D01*
X159860418Y-76536000D01*
X159793379Y-76516315D01*
X159747624Y-76463511D01*
X159737680Y-76394353D01*
X159745063Y-76366511D01*
X159758814Y-76331640D01*
X159769924Y-76303467D01*
X159780500Y-76215401D01*
X159780499Y-75784600D01*
X159769924Y-75696533D01*
X159714661Y-75556395D01*
X159623638Y-75436362D01*
X159518181Y-75356392D01*
X159503607Y-75345340D01*
X159501851Y-75344353D01*
X159472977Y-75321938D01*
X159462684Y-75311168D01*
X159456293Y-75300097D01*
X159369903Y-75213707D01*
X159369901Y-75213706D01*
X159184903Y-75028707D01*
X159184902Y-75028706D01*
X159079097Y-74967621D01*
X158961087Y-74935999D01*
X158838913Y-74935999D01*
X158831317Y-74935999D01*
X158831301Y-74936000D01*
X155777807Y-74936000D01*
X155710768Y-74916315D01*
X155665013Y-74863511D01*
X155655069Y-74794353D01*
X155674160Y-74747312D01*
X155673619Y-74747037D01*
X155676827Y-74740739D01*
X155677485Y-74739120D01*
X155678047Y-74738345D01*
X155678050Y-74738342D01*
X155735646Y-74625304D01*
X155735646Y-74625302D01*
X155735647Y-74625301D01*
X155750499Y-74531524D01*
X155750500Y-74531519D01*
X155750499Y-71423999D01*
X155770184Y-71356961D01*
X155822988Y-71311206D01*
X155874499Y-71300000D01*
X161876000Y-71300000D01*
X161943039Y-71319685D01*
G37*
%TD.AperFunction*%
%TA.AperFunction,Conductor*%
G36*
X158332539Y-75883685D02*
G01*
X158378294Y-75936489D01*
X158389500Y-75988000D01*
X158389500Y-76155500D01*
X158369815Y-76222539D01*
X158317011Y-76268294D01*
X158265500Y-76279500D01*
X157924606Y-76279500D01*
X157836534Y-76290075D01*
X157700209Y-76343835D01*
X157696395Y-76345339D01*
X157679071Y-76358475D01*
X157661630Y-76365104D01*
X157646609Y-76376174D01*
X157629647Y-76377259D01*
X157613761Y-76383297D01*
X157595504Y-76379443D01*
X157576882Y-76380635D01*
X157556711Y-76371255D01*
X157545398Y-76368868D01*
X157543906Y-76368053D01*
X157536227Y-76363784D01*
X157509922Y-76343837D01*
X157476934Y-76330828D01*
X157469790Y-76326857D01*
X157462260Y-76319213D01*
X157442352Y-76306155D01*
X157360592Y-76224395D01*
X157360571Y-76224376D01*
X157211875Y-76075679D01*
X157178392Y-76014358D01*
X157183376Y-75944666D01*
X157225248Y-75888733D01*
X157290712Y-75864316D01*
X157299558Y-75864000D01*
X158265500Y-75864000D01*
X158332539Y-75883685D01*
G37*
%TD.AperFunction*%
%TD*%
M02*
