%TF.GenerationSoftware,KiCad,Pcbnew,10.0.4*%
%TF.CreationDate,2026-08-24T19:58:11-05:00*%
%TF.ProjectId,LSR_FLCM0001_A03,4c53525f-464c-4434-9d30-3030315f4130,rev?*%
%TF.SameCoordinates,Original*%
%TF.FileFunction,Copper,L4,Inr*%
%TF.FilePolarity,Positive*%
%FSLAX46Y46*%
G04 Gerber Fmt 4.6, Leading zero omitted, Abs format (unit mm)*
G04 Created by KiCad (PCBNEW 10.0.4) date 2026-08-24 19:58:11*
%MOMM*%
%LPD*%
G01*
G04 APERTURE LIST*
%TA.AperFunction,ComponentPad*%
%ADD10C,1.524000*%
%TD*%
%TA.AperFunction,ComponentPad*%
%ADD11C,0.700000*%
%TD*%
%TA.AperFunction,ComponentPad*%
%ADD12C,4.400000*%
%TD*%
%TA.AperFunction,HeatsinkPad*%
%ADD13C,0.500000*%
%TD*%
%TA.AperFunction,ComponentPad*%
%ADD14O,2.100000X1.000000*%
%TD*%
%TA.AperFunction,ComponentPad*%
%ADD15O,1.600000X1.000000*%
%TD*%
%TA.AperFunction,ComponentPad*%
%ADD16R,1.400000X1.400000*%
%TD*%
%TA.AperFunction,ComponentPad*%
%ADD17C,1.400000*%
%TD*%
%TA.AperFunction,ComponentPad*%
%ADD18R,1.000000X1.000000*%
%TD*%
%TA.AperFunction,ComponentPad*%
%ADD19C,1.000000*%
%TD*%
%TA.AperFunction,ViaPad*%
%ADD20C,0.406400*%
%TD*%
%TA.AperFunction,ViaPad*%
%ADD21C,0.600000*%
%TD*%
%TA.AperFunction,Conductor*%
%ADD22C,0.127000*%
%TD*%
G04 APERTURE END LIST*
D10*
%TO.N,VBATT*%
%TO.C,J6*%
X162300000Y-114600000D03*
%TO.N,GND*%
X162300000Y-111600001D03*
%TD*%
D11*
%TO.N,GND*%
%TO.C,H1*%
X136250000Y-73000000D03*
X136733274Y-71833274D03*
X136733274Y-74166726D03*
X137900000Y-71350000D03*
D12*
X137900000Y-73000000D03*
D11*
X137900000Y-74650000D03*
X139066726Y-71833274D03*
X139066726Y-74166726D03*
X139550000Y-73000000D03*
%TD*%
D13*
%TO.N,GND*%
%TO.C,U4*%
X150147500Y-113760000D03*
X150147500Y-114940000D03*
X151327500Y-113760000D03*
X151327500Y-114940000D03*
%TD*%
D14*
%TO.N,GND*%
%TO.C,J1*%
X157695000Y-108820000D03*
D15*
X161875000Y-108820000D03*
D14*
X157695000Y-100180000D03*
D15*
X161875000Y-100180000D03*
%TD*%
D11*
%TO.N,GND*%
%TO.C,H4*%
X160350000Y-127000000D03*
X160833274Y-125833274D03*
X160833274Y-128166726D03*
X162000000Y-125350000D03*
D12*
X162000000Y-127000000D03*
D11*
X162000000Y-128650000D03*
X163166726Y-125833274D03*
X163166726Y-128166726D03*
X163650000Y-127000000D03*
%TD*%
%TO.N,GND*%
%TO.C,H3*%
X136350000Y-127000000D03*
X136833274Y-125833274D03*
X136833274Y-128166726D03*
X138000000Y-125350000D03*
D12*
X138000000Y-127000000D03*
D11*
X138000000Y-128650000D03*
X139166726Y-125833274D03*
X139166726Y-128166726D03*
X139650000Y-127000000D03*
%TD*%
D16*
%TO.N,/TIM2_CH1*%
%TO.C,J8*%
X137000000Y-104990000D03*
D17*
%TO.N,/TIM2_CH2*%
X137000000Y-107530000D03*
%TO.N,/TIM2_CH3*%
X137000000Y-110070000D03*
%TO.N,/TIM2_CH4*%
X137000000Y-112610010D03*
%TD*%
D18*
%TO.N,+3V3*%
%TO.C,J3*%
X153200000Y-90800000D03*
D19*
%TO.N,/MCU/BOOT0*%
X153200000Y-92070000D03*
%TD*%
D11*
%TO.N,GND*%
%TO.C,H2*%
X160350000Y-73000000D03*
X160833274Y-71833274D03*
X160833274Y-74166726D03*
X162000000Y-71350000D03*
D12*
X162000000Y-73000000D03*
D11*
X162000000Y-74650000D03*
X163166726Y-71833274D03*
X163166726Y-74166726D03*
X163650000Y-73000000D03*
%TD*%
D18*
%TO.N,/MCU/NRST*%
%TO.C,J2*%
X140300000Y-103100000D03*
D19*
%TO.N,GND*%
X140300000Y-104370000D03*
%TD*%
D20*
%TO.N,GND*%
X150600000Y-72800000D03*
X139400000Y-109600000D03*
X153300000Y-71300000D03*
X156200000Y-74900000D03*
X163900000Y-89200000D03*
X146300000Y-75100000D03*
X149300000Y-73000000D03*
X149400000Y-97800000D03*
X144100000Y-74300000D03*
X150800000Y-89500000D03*
X156900000Y-74900000D03*
X141400000Y-74300000D03*
X146700000Y-72900000D03*
X142300000Y-75100000D03*
D21*
X151800000Y-121000000D03*
D20*
X155900000Y-73400000D03*
X138400000Y-95600000D03*
X164200000Y-102600000D03*
X150600000Y-73500000D03*
D21*
X148100000Y-121000000D03*
D20*
X138000000Y-99400000D03*
D21*
X144900000Y-117900000D03*
D20*
X155400000Y-115000000D03*
X146400000Y-110100000D03*
X155900000Y-72000000D03*
X155900000Y-71300000D03*
X152700000Y-117100000D03*
X153300000Y-72700000D03*
X144100000Y-101400000D03*
X148400000Y-75100000D03*
X149100000Y-75100000D03*
X149300000Y-72300000D03*
X150600000Y-74200000D03*
X154600000Y-75600000D03*
X155900000Y-74100000D03*
X144100000Y-72200000D03*
X157100000Y-91600000D03*
D21*
X153800000Y-113200000D03*
X145900000Y-117900000D03*
D20*
X141800000Y-90600000D03*
X146700000Y-74300000D03*
X144100000Y-99800000D03*
X152900000Y-74900000D03*
X162100000Y-96400000D03*
X158500000Y-72100000D03*
X146300000Y-106700000D03*
X153500000Y-84300000D03*
X143700000Y-93700000D03*
X144400000Y-75100000D03*
X138700000Y-90700000D03*
X158500000Y-74200000D03*
X161800000Y-80500000D03*
X144100000Y-73600000D03*
X147000000Y-97800000D03*
X143200000Y-75800000D03*
X146700000Y-73600000D03*
X149300000Y-71600000D03*
X153600000Y-74900000D03*
X144200000Y-88000000D03*
X157600000Y-74900000D03*
X141400000Y-73600000D03*
X150800000Y-74900000D03*
X141400000Y-72200000D03*
X150600000Y-72100000D03*
X141600000Y-75100000D03*
D21*
X151800000Y-120000000D03*
X152200000Y-111800000D03*
D20*
X147000000Y-75100000D03*
X153300000Y-74100000D03*
X136800000Y-91600000D03*
X145400000Y-96200000D03*
X146700000Y-72200000D03*
X158500000Y-111100000D03*
X148600000Y-97800000D03*
X141400000Y-71500000D03*
X152200000Y-74900000D03*
X155900000Y-72700000D03*
X153300000Y-73400000D03*
X146700000Y-71500000D03*
X144100000Y-72900000D03*
X158300000Y-74900000D03*
X149300000Y-74400000D03*
X143700000Y-75100000D03*
X150600000Y-71400000D03*
X150900000Y-106500000D03*
X141400000Y-72900000D03*
X147800000Y-97800000D03*
X147700000Y-75100000D03*
X158500000Y-71400000D03*
X151500000Y-74900000D03*
X158500000Y-72800000D03*
X143000000Y-75100000D03*
X151000000Y-78200000D03*
X142200000Y-101800000D03*
X149300000Y-73700000D03*
X155500000Y-74900000D03*
D21*
X148100000Y-120000000D03*
D20*
X144100000Y-71500000D03*
X153300000Y-72000000D03*
X157200000Y-75800000D03*
X158500000Y-73500000D03*
X136900000Y-81900000D03*
X140600000Y-88000000D03*
D21*
%TO.N,/Connectors/D-*%
X158600000Y-105200000D03*
D20*
%TO.N,/SPI2_SCK*%
X150200000Y-96200000D03*
X136900000Y-92600000D03*
X145700000Y-89500000D03*
%TO.N,/LIS2MDL.CS*%
X139500000Y-94100000D03*
X146200000Y-100200000D03*
%TO.N,/SPI2_MOSI*%
X140600000Y-92854100D03*
X143100000Y-99000000D03*
X136400000Y-86200000D03*
%TO.N,/SPI2_MISO*%
X145400000Y-91400000D03*
X140000000Y-92500000D03*
X142800000Y-97500000D03*
%TO.N,+3V3*%
X147800000Y-99400000D03*
D21*
X142500000Y-115900000D03*
D20*
X162000000Y-91500000D03*
D21*
X136900000Y-88900000D03*
X142500000Y-114900000D03*
X158900000Y-90000000D03*
D20*
X145400000Y-95400000D03*
D21*
X151000000Y-111900000D03*
D20*
X150200000Y-99400000D03*
D21*
X141500000Y-115900000D03*
D20*
X149400000Y-99400000D03*
D21*
X141500000Y-114900000D03*
X141500000Y-113900000D03*
X142900000Y-89000000D03*
X149000000Y-87900000D03*
X142500000Y-113900000D03*
X147300000Y-108400000D03*
X138100000Y-103700000D03*
X147100000Y-85700000D03*
D20*
X148600000Y-99400000D03*
D21*
X141500000Y-112900000D03*
X148100000Y-118500000D03*
D20*
X144100000Y-100600000D03*
D21*
X152400000Y-105300000D03*
X161500000Y-82600000D03*
D20*
X145400000Y-97000000D03*
D21*
X142500000Y-112900000D03*
D20*
X144200000Y-102900000D03*
X147000000Y-99400000D03*
%TO.N,/BMP_{1}.INT*%
X149400000Y-97000000D03*
X147700000Y-92200000D03*
D21*
%TO.N,VUSB*%
X155500000Y-102100000D03*
X161200000Y-101800000D03*
X159200000Y-110500000D03*
X155500000Y-106900000D03*
%TO.N,/Power/BATT_LED*%
X159200000Y-111500000D03*
D20*
%TO.N,/Power/Power_LED_VIN*%
X157800000Y-128500000D03*
%TO.N,/MCU/BOOT0*%
X147800000Y-97000000D03*
%TO.N,/Sensors/RF/GPS.TIMEPULSE*%
X158200000Y-87100000D03*
X164200000Y-87800000D03*
%TO.N,/MCU/NRST*%
X158700000Y-90900000D03*
X143000000Y-98400000D03*
%TO.N,/USART2_RX*%
X149400000Y-96200000D03*
X151800000Y-88300000D03*
D21*
%TO.N,/Connectors/CC1*%
X158600000Y-106400000D03*
%TO.N,/Connectors/D+*%
X162800000Y-106400000D03*
%TO.N,/Connectors/CC2*%
X159200000Y-101700000D03*
%TO.N,/Pyro/Pyro_{1}_Charge*%
X147300000Y-125450000D03*
X147300000Y-126450000D03*
X147300000Y-124450000D03*
%TO.N,/Pyro/Pyro_{2}_Charge*%
X149750000Y-125468599D03*
X149750000Y-124468599D03*
X149750000Y-126468599D03*
%TO.N,/Pyro/Pyro_{3}_Charge*%
X152250000Y-126500000D03*
X152250000Y-124500000D03*
X152250000Y-125500000D03*
D20*
%TO.N,/Pyro/Pyro_{2}_LED*%
X147200000Y-128500000D03*
%TO.N,/MCU/SWO*%
X156600000Y-92400000D03*
X151000000Y-92400000D03*
%TO.N,/Pyro/Pyro_{3}_LED*%
X151500000Y-128500000D03*
%TO.N,/EBYTE.NRST*%
X142400000Y-85400000D03*
X146200000Y-97000000D03*
%TO.N,/EBYTE.TXEN*%
X141100000Y-80300000D03*
X147000000Y-97000000D03*
%TO.N,/EBYTE.RXEN*%
X140400000Y-78400000D03*
X147000000Y-96200000D03*
%TO.N,/EBYTE.BUSY*%
X146100000Y-93600000D03*
X139000000Y-79700000D03*
%TO.N,/EBYTE.CS*%
X144600000Y-93600000D03*
X139700000Y-83700000D03*
%TO.N,/EBYTE.DIO3*%
X146200000Y-96200000D03*
X142800000Y-88200000D03*
%TO.N,/EBYTE.DIO2*%
X145400000Y-93800000D03*
X144100000Y-85400000D03*
%TO.N,/EBYTE.DIO1*%
X147800000Y-96200000D03*
X145600000Y-83400000D03*
%TO.N,/SPI1_MISO*%
X149100000Y-108000000D03*
X145537500Y-104862500D03*
%TO.N,/LSM6DSV320XTR.INT1*%
X146200000Y-99400000D03*
X144400000Y-105600000D03*
%TO.N,/LSM6DSV320XTR.INT2*%
X148028388Y-104771612D03*
X149400000Y-101000000D03*
%TO.N,/LSM6DSV320XTR.CS*%
X146900000Y-106300000D03*
X149400000Y-100200000D03*
%TO.N,/SPI1_SCK*%
X147400000Y-104800000D03*
X146200000Y-101000000D03*
X148950000Y-106250000D03*
%TO.N,/SPI1_MOSI*%
X149000000Y-107100000D03*
X146200000Y-104900000D03*
%TO.N,/LSM6DSM.INT1*%
X149500000Y-104700000D03*
X152100000Y-108700000D03*
%TO.N,/QUADSPI_BK1_IO2*%
X156000000Y-95300000D03*
X146500000Y-94200000D03*
%TO.N,/~{BMP_{2}.CS}*%
X138800000Y-93000000D03*
%TO.N,/MCU/Buzzer_PWM*%
X149800000Y-84400000D03*
%TO.N,/SDMMC1_CMD*%
X158800000Y-83700000D03*
X154400000Y-90700000D03*
X156900000Y-82900000D03*
%TO.N,/SDMMC1_D3*%
X156700000Y-83900000D03*
X158800000Y-84700000D03*
X154700000Y-93300000D03*
%TO.N,/SDMMC1_D2*%
X154800000Y-94400000D03*
X156000000Y-84300000D03*
X158500000Y-85800000D03*
D21*
%TO.N,/USB_OTG_FS_DP*%
X162300000Y-101700000D03*
D20*
%TO.N,/SDMMC1_CK*%
X151000000Y-96200000D03*
D21*
%TO.N,/USB_OTG_FS_DM*%
X160200000Y-101700000D03*
D20*
%TO.N,/BMP_{2}.INT*%
X140100000Y-89100000D03*
X150200000Y-97000000D03*
X143800000Y-90600000D03*
%TO.N,/MCU/PD0*%
X151000000Y-97000000D03*
%TO.N,/SD_DET*%
X154700000Y-97100000D03*
%TO.N,/MCU/PE6*%
X146200000Y-97800000D03*
%TO.N,/MCU/VCAP1*%
X150200000Y-97800000D03*
%TO.N,/MCU/PD1*%
X151000000Y-97800000D03*
%TO.N,/SDMMC1_D1*%
X159700000Y-80700000D03*
X155600000Y-97100000D03*
%TO.N,/~{FRAM.CS}*%
X143900000Y-99100000D03*
%TO.N,/MCU/VCAP2*%
X151000000Y-99400000D03*
%TO.N,/SDMMC1_D0*%
X156300000Y-96600000D03*
X160700000Y-80800000D03*
%TO.N,/ADC1_INP4*%
X147000000Y-100200000D03*
X142200000Y-123500000D03*
%TO.N,/QUADSPI_CLK*%
X154100000Y-103500000D03*
X163500000Y-95200000D03*
X163200000Y-100900000D03*
X147800000Y-100200000D03*
X148000000Y-103100000D03*
%TO.N,/MCU/PE14*%
X150200000Y-100200000D03*
%TO.N,/MCU/PD15*%
X151000000Y-100200000D03*
%TO.N,/QUADSPI_BK1_IO0*%
X157900000Y-97700000D03*
X162100000Y-95100000D03*
%TO.N,/USB_OTG_HS_DP*%
X157969798Y-96600000D03*
X160700000Y-93400000D03*
%TO.N,/ADC1_INP8*%
X142200000Y-125400000D03*
X147000000Y-101000000D03*
%TO.N,/MCU/PE7*%
X147800000Y-101000000D03*
%TO.N,/MCU/PE15*%
X150200000Y-101000000D03*
%TO.N,/MCU/PD14*%
X151000000Y-101000000D03*
%TO.N,/Pyro_{3}_Gate*%
X154700000Y-107500000D03*
%TO.N,/USB_OTG_HS_DM*%
X154000000Y-100600000D03*
X161300000Y-93700000D03*
%TO.N,/ADC1_INP9*%
X142200000Y-127500000D03*
X147100000Y-104100000D03*
%TO.N,/QUADSPI_BK1_NCS*%
X151300000Y-104800000D03*
%TO.N,/Pyro_{2}_Gate*%
X154100000Y-107500000D03*
%TO.N,/QUADSPI_BK1_IO3*%
X154300000Y-102400000D03*
%TO.N,/MCU/ADC_BATT*%
X147800000Y-104200000D03*
X155500000Y-108800000D03*
%TO.N,/Pyro_{1}_Gate*%
X153500000Y-107500000D03*
%TO.N,/QUADSPI_BK1_IO1*%
X153300000Y-102600000D03*
%TD*%
%TO.N,/SPI2_SCK*%
D22*
X139500000Y-92000000D02*
X142000000Y-89500000D01*
X142000000Y-89500000D02*
X145700000Y-89500000D01*
X137500000Y-92000000D02*
X139500000Y-92000000D01*
X136900000Y-92600000D02*
X137500000Y-92000000D01*
%TO.N,/LIS2MDL.CS*%
X141900000Y-96500000D02*
X139500000Y-94100000D01*
X141900000Y-99200000D02*
X141900000Y-96500000D01*
X142900000Y-100200000D02*
X141900000Y-99200000D01*
X146200000Y-100200000D02*
X142900000Y-100200000D01*
%TO.N,/SPI2_MISO*%
X145200000Y-91600000D02*
X140900000Y-91600000D01*
X140900000Y-91600000D02*
X140000000Y-92500000D01*
X145400000Y-91400000D02*
X145200000Y-91600000D01*
%TO.N,/MCU/BOOT0*%
X152470000Y-92070000D02*
X153200000Y-92070000D01*
X149500000Y-95100000D02*
X149500000Y-92300000D01*
X150100000Y-91700000D02*
X152100000Y-91700000D01*
X152100000Y-91700000D02*
X152470000Y-92070000D01*
X149500000Y-92300000D02*
X150100000Y-91700000D01*
X147800000Y-96800000D02*
X149500000Y-95100000D01*
X147800000Y-97000000D02*
X147800000Y-96800000D01*
%TO.N,/MCU/NRST*%
X143000000Y-98400000D02*
X145600000Y-98400000D01*
X145600000Y-98400000D02*
X145800000Y-98600000D01*
X145800000Y-98600000D02*
X152000000Y-98600000D01*
X152000000Y-98600000D02*
X156000000Y-94600000D01*
X156000000Y-94600000D02*
X156400000Y-94600000D01*
X158700000Y-92300000D02*
X158700000Y-90900000D01*
X156400000Y-94600000D02*
X158700000Y-92300000D01*
%TO.N,/USART2_RX*%
X150100000Y-95500000D02*
X150100000Y-92400000D01*
X155100000Y-91500000D02*
X155100000Y-90500000D01*
X151606300Y-92006300D02*
X152600000Y-93000000D01*
X152600000Y-93000000D02*
X153600000Y-93000000D01*
X153600000Y-93000000D02*
X155100000Y-91500000D01*
X150100000Y-92400000D02*
X150493700Y-92006300D01*
X149400000Y-96200000D02*
X150100000Y-95500000D01*
X155100000Y-90500000D02*
X153700000Y-89100000D01*
X152600000Y-89100000D02*
X151800000Y-88300000D01*
X153700000Y-89100000D02*
X152600000Y-89100000D01*
X150493700Y-92006300D02*
X151606300Y-92006300D01*
%TO.N,/MCU/SWO*%
X154900000Y-92400000D02*
X156500000Y-92400000D01*
X153587400Y-93712600D02*
X154900000Y-92400000D01*
X151000000Y-92500000D02*
X152212600Y-93712600D01*
X151000000Y-92400000D02*
X151000000Y-92500000D01*
X152212600Y-93712600D02*
X153587400Y-93712600D01*
%TO.N,/EBYTE.NRST*%
X142400000Y-85400000D02*
X140300000Y-87500000D01*
X142500000Y-96200000D02*
X143600000Y-96200000D01*
X135900000Y-92900000D02*
X136700000Y-93700000D01*
X140000000Y-93700000D02*
X142500000Y-96200000D01*
X143600000Y-96200000D02*
X144006300Y-96606300D01*
X144006300Y-96606300D02*
X145806300Y-96606300D01*
X135900000Y-87900000D02*
X135900000Y-92900000D01*
X140300000Y-87500000D02*
X136300000Y-87500000D01*
X136700000Y-93700000D02*
X140000000Y-93700000D01*
X136300000Y-87500000D02*
X135900000Y-87900000D01*
X145806300Y-96606300D02*
X146200000Y-97000000D01*
%TO.N,/EBYTE.TXEN*%
X141100000Y-81000000D02*
X141100000Y-80300000D01*
X148200000Y-88900000D02*
X145500000Y-86200000D01*
X147000000Y-97000000D02*
X146593700Y-96593700D01*
X145500000Y-86200000D02*
X145500000Y-85400000D01*
X146593700Y-95206300D02*
X148200000Y-93600000D01*
X145500000Y-85400000D02*
X141100000Y-81000000D01*
X146593700Y-96593700D02*
X146593700Y-95206300D01*
X148200000Y-93600000D02*
X148200000Y-88900000D01*
%TO.N,/EBYTE.RXEN*%
X141700000Y-80000000D02*
X140400000Y-78700000D01*
X148700000Y-88700000D02*
X145950000Y-85950000D01*
X141700000Y-81000000D02*
X141700000Y-80000000D01*
X147000000Y-96200000D02*
X148700000Y-94500000D01*
X148700000Y-94500000D02*
X148700000Y-88700000D01*
X145950000Y-85950000D02*
X145950000Y-85250000D01*
X140400000Y-78700000D02*
X140400000Y-78400000D01*
X147000000Y-96200000D02*
X147000000Y-96084014D01*
X145950000Y-85250000D02*
X141700000Y-81000000D01*
%TO.N,/EBYTE.BUSY*%
X146100000Y-93600000D02*
X146100000Y-93000000D01*
X147700000Y-89100000D02*
X145100000Y-86500000D01*
X147700000Y-91400000D02*
X147700000Y-89100000D01*
X139100000Y-79700000D02*
X139000000Y-79700000D01*
X145100000Y-86500000D02*
X145100000Y-85700000D01*
X146100000Y-93000000D02*
X147700000Y-91400000D01*
X145100000Y-85700000D02*
X139100000Y-79700000D01*
%TO.N,/EBYTE.CS*%
X139700000Y-83700000D02*
X141600000Y-83700000D01*
X146800000Y-89600000D02*
X146800000Y-91200000D01*
X144300000Y-87100000D02*
X146800000Y-89600000D01*
X144300000Y-86400000D02*
X144300000Y-87100000D01*
X144600000Y-93400000D02*
X144600000Y-93600000D01*
X146800000Y-91200000D02*
X144600000Y-93400000D01*
X141600000Y-83700000D02*
X144300000Y-86400000D01*
%TO.N,/EBYTE.DIO3*%
X140500000Y-93400000D02*
X137000000Y-93400000D01*
X140700000Y-89800000D02*
X142300000Y-88200000D01*
X137000000Y-93400000D02*
X136300000Y-92700000D01*
X142300000Y-88200000D02*
X142800000Y-88200000D01*
X145793700Y-95793700D02*
X142893700Y-95793700D01*
X137700000Y-89800000D02*
X140700000Y-89800000D01*
X136300000Y-92700000D02*
X136300000Y-91200000D01*
X146200000Y-96200000D02*
X145793700Y-95793700D01*
X142893700Y-95793700D02*
X140500000Y-93400000D01*
X136300000Y-91200000D02*
X137700000Y-89800000D01*
%TO.N,/EBYTE.DIO2*%
X147300000Y-89300000D02*
X144700000Y-86700000D01*
X145400000Y-93800000D02*
X145400000Y-93200000D01*
X144700000Y-86700000D02*
X144700000Y-86000000D01*
X147300000Y-91300000D02*
X147300000Y-89300000D01*
X145400000Y-93200000D02*
X147300000Y-91300000D01*
X144700000Y-86000000D02*
X144100000Y-85400000D01*
%TO.N,/EBYTE.DIO1*%
X146000000Y-83400000D02*
X145600000Y-83400000D01*
X147800000Y-96200000D02*
X149100000Y-94900000D01*
X149100000Y-94900000D02*
X149100000Y-89000000D01*
X149100000Y-89000000D02*
X149900000Y-88200000D01*
X149900000Y-87300000D02*
X146000000Y-83400000D01*
X149900000Y-88200000D02*
X149900000Y-87300000D01*
%TO.N,/LSM6DSV320XTR.CS*%
X147400000Y-102400000D02*
X148754000Y-101046000D01*
X148700000Y-105100000D02*
X148700000Y-104100000D01*
X146900000Y-106300000D02*
X147100000Y-106500000D01*
X147400000Y-103300000D02*
X147400000Y-102400000D01*
X148754000Y-101046000D02*
X148754000Y-100846000D01*
X148200000Y-103600000D02*
X147700000Y-103600000D01*
X147100000Y-106500000D02*
X147300000Y-106500000D01*
X148754000Y-100846000D02*
X149400000Y-100200000D01*
X148700000Y-104100000D02*
X148200000Y-103600000D01*
X147700000Y-103600000D02*
X147400000Y-103300000D01*
X147300000Y-106500000D02*
X148700000Y-105100000D01*
%TO.N,/SDMMC1_D1*%
X159700000Y-80700000D02*
X159700000Y-92500000D01*
X159700000Y-92500000D02*
X155600000Y-96600000D01*
X155600000Y-96600000D02*
X155600000Y-97100000D01*
%TO.N,/SDMMC1_D0*%
X160700000Y-81400000D02*
X160200000Y-81900000D01*
X160700000Y-80800000D02*
X160700000Y-81400000D01*
X160200000Y-81900000D02*
X160200000Y-92700000D01*
X160200000Y-92700000D02*
X156300000Y-96600000D01*
%TO.N,/ADC1_INP4*%
X142600000Y-105200000D02*
X142600000Y-108600000D01*
X143300000Y-122000000D02*
X142200000Y-123100000D01*
X142600000Y-108600000D02*
X143300000Y-109300000D01*
X146593700Y-100606300D02*
X146593700Y-101206300D01*
X143300000Y-109300000D02*
X143300000Y-122000000D01*
X146593700Y-101206300D02*
X142600000Y-105200000D01*
X147000000Y-100200000D02*
X146593700Y-100606300D01*
X142200000Y-123100000D02*
X142200000Y-123500000D01*
%TO.N,/QUADSPI_CLK*%
X148000000Y-103100000D02*
X152100000Y-103100000D01*
X152500000Y-103500000D02*
X154100000Y-103500000D01*
X152100000Y-103100000D02*
X152500000Y-103500000D01*
%TO.N,/QUADSPI_BK1_IO0*%
X157900000Y-97700000D02*
X159500000Y-97700000D01*
X159500000Y-97700000D02*
X162100000Y-95100000D01*
%TO.N,/USB_OTG_HS_DP*%
X160700000Y-93400000D02*
X157969798Y-96130202D01*
X157969798Y-96130202D02*
X157969798Y-96600000D01*
%TO.N,/ADC1_INP8*%
X143100000Y-108300000D02*
X143800000Y-109000000D01*
X147000000Y-101400000D02*
X143100000Y-105300000D01*
X143100000Y-124500000D02*
X142200000Y-125400000D01*
X147000000Y-101000000D02*
X147000000Y-101400000D01*
X143100000Y-122959210D02*
X143100000Y-124500000D01*
X143800000Y-109000000D02*
X143800000Y-122259210D01*
X143100000Y-105300000D02*
X143100000Y-108300000D01*
X143800000Y-122259210D02*
X143100000Y-122959210D01*
%TO.N,/USB_OTG_HS_DM*%
X158400000Y-97100000D02*
X157500000Y-97100000D01*
X157500000Y-97100000D02*
X154000000Y-100600000D01*
X158500000Y-96200000D02*
X158500000Y-97000000D01*
X158500000Y-97000000D02*
X158400000Y-97100000D01*
X161000000Y-93700000D02*
X158500000Y-96200000D01*
X161300000Y-93700000D02*
X161000000Y-93700000D01*
%TO.N,/ADC1_INP9*%
X143600000Y-107900000D02*
X144200000Y-108500000D01*
X144200000Y-108500000D02*
X144200000Y-125500000D01*
X144600000Y-104400000D02*
X143600000Y-105400000D01*
X144200000Y-125500000D02*
X142200000Y-127500000D01*
X143600000Y-105400000D02*
X143600000Y-107900000D01*
X146800000Y-104400000D02*
X144600000Y-104400000D01*
X147100000Y-104100000D02*
X146800000Y-104400000D01*
%TD*%
M02*
