%TF.GenerationSoftware,KiCad,Pcbnew,10.0.4*%
%TF.CreationDate,2026-08-24T19:58:11-05:00*%
%TF.ProjectId,LSR_FLCM0001_A03,4c53525f-464c-4434-9d30-3030315f4130,rev?*%
%TF.SameCoordinates,Original*%
%TF.FileFunction,Soldermask,Bot*%
%TF.FilePolarity,Negative*%
%FSLAX46Y46*%
G04 Gerber Fmt 4.6, Leading zero omitted, Abs format (unit mm)*
G04 Created by KiCad (PCBNEW 10.0.4) date 2026-08-24 19:58:11*
%MOMM*%
%LPD*%
G01*
G04 APERTURE LIST*
G04 Aperture macros list*
%AMRoundRect*
0 Rectangle with rounded corners*
0 $1 Rounding radius*
0 $2 $3 $4 $5 $6 $7 $8 $9 X,Y pos of 4 corners*
0 Add a 4 corners polygon primitive as box body*
4,1,4,$2,$3,$4,$5,$6,$7,$8,$9,$2,$3,0*
0 Add four circle primitives for the rounded corners*
1,1,$1+$1,$2,$3*
1,1,$1+$1,$4,$5*
1,1,$1+$1,$6,$7*
1,1,$1+$1,$8,$9*
0 Add four rect primitives between the rounded corners*
20,1,$1+$1,$2,$3,$4,$5,0*
20,1,$1+$1,$4,$5,$6,$7,0*
20,1,$1+$1,$6,$7,$8,$9,0*
20,1,$1+$1,$8,$9,$2,$3,0*%
G04 Aperture macros list end*
%ADD10C,0.000000*%
%ADD11C,1.524000*%
%ADD12R,1.500000X4.000000*%
%ADD13C,0.700000*%
%ADD14C,4.400000*%
%ADD15C,0.650000*%
%ADD16O,2.100000X1.000000*%
%ADD17O,1.600000X1.000000*%
%ADD18R,1.400000X1.400000*%
%ADD19C,1.400000*%
%ADD20C,0.990600*%
%ADD21R,1.000000X1.000000*%
%ADD22C,1.000000*%
%ADD23RoundRect,0.140000X-0.170000X0.140000X-0.170000X-0.140000X0.170000X-0.140000X0.170000X0.140000X0*%
%ADD24RoundRect,0.135000X-0.185000X0.135000X-0.185000X-0.135000X0.185000X-0.135000X0.185000X0.135000X0*%
%ADD25C,0.500000*%
%ADD26RoundRect,0.140000X0.170000X-0.140000X0.170000X0.140000X-0.170000X0.140000X-0.170000X-0.140000X0*%
%ADD27RoundRect,0.135000X0.185000X-0.135000X0.185000X0.135000X-0.185000X0.135000X-0.185000X-0.135000X0*%
%ADD28RoundRect,0.135000X-0.135000X-0.185000X0.135000X-0.185000X0.135000X0.185000X-0.135000X0.185000X0*%
%ADD29RoundRect,0.135000X0.135000X0.185000X-0.135000X0.185000X-0.135000X-0.185000X0.135000X-0.185000X0*%
%ADD30RoundRect,0.140000X-0.140000X-0.170000X0.140000X-0.170000X0.140000X0.170000X-0.140000X0.170000X0*%
%ADD31R,0.304800X0.812800*%
%ADD32R,2.438400X2.057400*%
%ADD33R,0.750000X0.450000*%
%ADD34R,2.700000X3.700000*%
%ADD35RoundRect,0.225000X-0.225000X-0.250000X0.225000X-0.250000X0.225000X0.250000X-0.225000X0.250000X0*%
%ADD36R,1.295400X3.149600*%
%ADD37R,1.100000X0.850000*%
%ADD38R,1.100000X0.750000*%
%ADD39R,1.000000X1.200000*%
%ADD40R,1.350000X1.550000*%
%ADD41R,1.350000X1.900000*%
%ADD42R,1.800000X1.170000*%
%ADD43RoundRect,0.140000X0.140000X0.170000X-0.140000X0.170000X-0.140000X-0.170000X0.140000X-0.170000X0*%
%ADD44R,0.279400X0.254000*%
%ADD45R,0.254000X0.279400*%
%ADD46RoundRect,0.150000X0.150000X-0.512500X0.150000X0.512500X-0.150000X0.512500X-0.150000X-0.512500X0*%
%ADD47RoundRect,0.125000X-0.250000X-0.125000X0.250000X-0.125000X0.250000X0.125000X-0.250000X0.125000X0*%
%ADD48R,3.400000X4.300000*%
G04 APERTURE END LIST*
D10*
%TO.C,Q1*%
G36*
X151119200Y-122120800D02*
G01*
X148680800Y-122120800D01*
X148680800Y-120063400D01*
X151119200Y-120063400D01*
X151119200Y-122120800D01*
G37*
%TO.C,Q3*%
G36*
X147419200Y-122020800D02*
G01*
X144980800Y-122020800D01*
X144980800Y-119963400D01*
X147419200Y-119963400D01*
X147419200Y-122020800D01*
G37*
%TO.C,Q2*%
G36*
X154919200Y-122120800D02*
G01*
X152480800Y-122120800D01*
X152480800Y-120063400D01*
X154919200Y-120063400D01*
X154919200Y-122120800D01*
G37*
%TD*%
D11*
%TO.C,J6*%
X162300000Y-114600000D03*
X162300000Y-111600001D03*
%TD*%
D12*
%TO.C,J10*%
X152060000Y-72500000D03*
X157140000Y-72500000D03*
%TD*%
D13*
%TO.C,H1*%
X136250000Y-73000000D03*
X136733274Y-71833274D03*
X136733274Y-74166726D03*
X137900000Y-71350000D03*
D14*
X137900000Y-73000000D03*
D13*
X137900000Y-74650000D03*
X139066726Y-71833274D03*
X139066726Y-74166726D03*
X139550000Y-73000000D03*
%TD*%
D12*
%TO.C,J9*%
X142860000Y-72500000D03*
X147940000Y-72500000D03*
%TD*%
D15*
%TO.C,J1*%
X158195000Y-107390000D03*
X158195000Y-101610000D03*
D16*
X157695000Y-108820000D03*
D17*
X161875000Y-108820000D03*
D16*
X157695000Y-100180000D03*
D17*
X161875000Y-100180000D03*
%TD*%
D13*
%TO.C,H4*%
X160350000Y-127000000D03*
X160833274Y-125833274D03*
X160833274Y-128166726D03*
X162000000Y-125350000D03*
D14*
X162000000Y-127000000D03*
D13*
X162000000Y-128650000D03*
X163166726Y-125833274D03*
X163166726Y-128166726D03*
X163650000Y-127000000D03*
%TD*%
%TO.C,H3*%
X136350000Y-127000000D03*
X136833274Y-125833274D03*
X136833274Y-128166726D03*
X138000000Y-125350000D03*
D14*
X138000000Y-127000000D03*
D13*
X138000000Y-128650000D03*
X139166726Y-125833274D03*
X139166726Y-128166726D03*
X139650000Y-127000000D03*
%TD*%
D18*
%TO.C,J8*%
X137000000Y-104990000D03*
D19*
X137000000Y-107530000D03*
X137000000Y-110070000D03*
X137000000Y-112610010D03*
%TD*%
D20*
%TO.C,J4*%
X161170000Y-92365000D03*
X156090000Y-93381000D03*
X156090000Y-91349000D03*
%TD*%
D21*
%TO.C,J3*%
X153200000Y-90800000D03*
D22*
X153200000Y-92070000D03*
%TD*%
D13*
%TO.C,H2*%
X160350000Y-73000000D03*
X160833274Y-71833274D03*
X160833274Y-74166726D03*
X162000000Y-71350000D03*
D14*
X162000000Y-73000000D03*
D13*
X162000000Y-74650000D03*
X163166726Y-71833274D03*
X163166726Y-74166726D03*
X163650000Y-73000000D03*
%TD*%
D21*
%TO.C,J2*%
X140300000Y-103100000D03*
D22*
X140300000Y-104370000D03*
%TD*%
D23*
%TO.C,C13*%
X164000000Y-97520000D03*
X164000000Y-98480000D03*
%TD*%
D24*
%TO.C,R1*%
X159600000Y-99690000D03*
X159600000Y-100710000D03*
%TD*%
D25*
%TO.C,TP9*%
X163800000Y-96500000D03*
%TD*%
D26*
%TO.C,C5*%
X144400000Y-97080000D03*
X144400000Y-96120000D03*
%TD*%
D27*
%TO.C,R32*%
X144500000Y-124910000D03*
X144500000Y-123890000D03*
%TD*%
D28*
%TO.C,R13*%
X156690000Y-90100000D03*
X157710000Y-90100000D03*
%TD*%
D25*
%TO.C,TP10*%
X140300000Y-110600000D03*
%TD*%
D29*
%TO.C,R6*%
X159510000Y-116200000D03*
X158490000Y-116200000D03*
%TD*%
D25*
%TO.C,TP11*%
X146600000Y-109100000D03*
%TD*%
D30*
%TO.C,C15*%
X160720000Y-90200000D03*
X161680000Y-90200000D03*
%TD*%
D31*
%TO.C,Q1*%
X148925001Y-119250600D03*
X149574999Y-119250600D03*
X150225001Y-119250600D03*
X150874999Y-119250600D03*
X150874999Y-122349400D03*
X150225001Y-122349400D03*
X149574999Y-122349400D03*
X148925001Y-122349400D03*
D32*
X149900000Y-121092100D03*
%TD*%
D33*
%TO.C,IC1*%
X145387500Y-107075000D03*
X145387500Y-108025000D03*
X145387500Y-108975000D03*
X145387500Y-109925000D03*
X141387500Y-109925000D03*
X141387500Y-108975000D03*
X141387500Y-108025000D03*
X141387500Y-107075000D03*
D34*
X143387500Y-108500000D03*
%TD*%
D27*
%TO.C,R31*%
X143400000Y-128900000D03*
X143400000Y-127880000D03*
%TD*%
%TO.C,R27*%
X147100000Y-117310000D03*
X147100000Y-116290000D03*
%TD*%
%TO.C,R26*%
X150800000Y-117310000D03*
X150800000Y-116290000D03*
%TD*%
%TO.C,R25*%
X154600000Y-117310000D03*
X154600000Y-116290000D03*
%TD*%
D28*
%TO.C,R11*%
X149100000Y-81100000D03*
X150120000Y-81100000D03*
%TD*%
D35*
%TO.C,C1*%
X152225000Y-98000000D03*
X153775000Y-98000000D03*
%TD*%
D36*
%TO.C,LS1*%
X147054500Y-82100000D03*
X138545500Y-82100000D03*
%TD*%
D28*
%TO.C,R12*%
X149100000Y-82100000D03*
X150120000Y-82100000D03*
%TD*%
%TO.C,R5*%
X158490000Y-117200000D03*
X159510000Y-117200000D03*
%TD*%
D37*
%TO.C,J5*%
X162950000Y-85805000D03*
X162950000Y-84705000D03*
X162950000Y-83605000D03*
X162950000Y-82505000D03*
X162950000Y-81405000D03*
X162950000Y-80305000D03*
X162950000Y-79205000D03*
D38*
X162950000Y-78155000D03*
D39*
X156800000Y-88440000D03*
X153100000Y-88440000D03*
D40*
X162825000Y-88265000D03*
D41*
X152125000Y-84940000D03*
X152125000Y-78970000D03*
D42*
X162600000Y-76945000D03*
%TD*%
D27*
%TO.C,R30*%
X144500000Y-128910000D03*
X144500000Y-127890000D03*
%TD*%
D26*
%TO.C,C7*%
X143000000Y-100680000D03*
X143000000Y-99720000D03*
%TD*%
D31*
%TO.C,Q3*%
X145225001Y-119150600D03*
X145874999Y-119150600D03*
X146525001Y-119150600D03*
X147174999Y-119150600D03*
X147174999Y-122249400D03*
X146525001Y-122249400D03*
X145874999Y-122249400D03*
X145225001Y-122249400D03*
D32*
X146200000Y-120992100D03*
%TD*%
D27*
%TO.C,R16*%
X159200000Y-114420000D03*
X159200000Y-113400000D03*
%TD*%
D43*
%TO.C,C6*%
X147380000Y-98600000D03*
X146420000Y-98600000D03*
%TD*%
D24*
%TO.C,R35*%
X156600000Y-125690000D03*
X156600000Y-126710000D03*
%TD*%
D44*
%TO.C,U9*%
X142487400Y-90450000D03*
X142487400Y-90950000D03*
D45*
X142199999Y-91487400D03*
X141700000Y-91487400D03*
X141200001Y-91487400D03*
D44*
X140912600Y-90950000D03*
X140912600Y-90450000D03*
D45*
X141200001Y-89912600D03*
X141700000Y-89912600D03*
X142199999Y-89912600D03*
%TD*%
D27*
%TO.C,R2*%
X159900000Y-108410000D03*
X159900000Y-107390000D03*
%TD*%
D31*
%TO.C,Q2*%
X152725001Y-119250600D03*
X153374999Y-119250600D03*
X154025001Y-119250600D03*
X154674999Y-119250600D03*
X154674999Y-122349400D03*
X154025001Y-122349400D03*
X153374999Y-122349400D03*
X152725001Y-122349400D03*
D32*
X153700000Y-121092100D03*
%TD*%
D26*
%TO.C,C8*%
X143000000Y-102580000D03*
X143000000Y-101620000D03*
%TD*%
D23*
%TO.C,C14*%
X139787500Y-107020000D03*
X139787500Y-107980000D03*
%TD*%
D25*
%TO.C,TP15*%
X138000000Y-94200000D03*
%TD*%
D30*
%TO.C,C3*%
X148320000Y-98600000D03*
X149280000Y-98600000D03*
%TD*%
D25*
%TO.C,TP12*%
X147100000Y-111000000D03*
%TD*%
%TO.C,TP14*%
X140000000Y-95000000D03*
%TD*%
D30*
%TO.C,C29*%
X143720000Y-88700000D03*
X144680000Y-88700000D03*
%TD*%
D28*
%TO.C,R8*%
X148990000Y-76300000D03*
X150010000Y-76300000D03*
%TD*%
D46*
%TO.C,U1*%
X161750000Y-105337500D03*
X160800000Y-105337500D03*
X159850000Y-105337500D03*
X159850000Y-103062500D03*
X160800000Y-103062500D03*
X161750000Y-103062500D03*
%TD*%
D25*
%TO.C,TP13*%
X136900000Y-92600000D03*
%TD*%
%TO.C,TP7*%
X163900000Y-94300000D03*
%TD*%
D27*
%TO.C,R29*%
X143400000Y-126910000D03*
X143400000Y-125890000D03*
%TD*%
D28*
%TO.C,R9*%
X148990000Y-77300000D03*
X150010000Y-77300000D03*
%TD*%
D35*
%TO.C,C2*%
X152225000Y-99500000D03*
X153775000Y-99500000D03*
%TD*%
D28*
%TO.C,R10*%
X148990000Y-78300000D03*
X150010000Y-78300000D03*
%TD*%
D25*
%TO.C,TP8*%
X155500000Y-98200000D03*
%TD*%
D27*
%TO.C,R33*%
X143400000Y-124910000D03*
X143400000Y-123890000D03*
%TD*%
D43*
%TO.C,C4*%
X145380000Y-94500000D03*
X144420000Y-94500000D03*
%TD*%
D47*
%TO.C,U3*%
X157300000Y-98270000D03*
X157300000Y-97000000D03*
X157300000Y-95730000D03*
X157300000Y-94460000D03*
X162700000Y-94460000D03*
X162700000Y-95730000D03*
X162700000Y-97000000D03*
X162700000Y-98270000D03*
D48*
X160000000Y-96365000D03*
%TD*%
D27*
%TO.C,R28*%
X144500000Y-126910000D03*
X144500000Y-125890000D03*
%TD*%
D25*
%TO.C,TP4*%
X156000000Y-95300000D03*
%TD*%
D43*
%TO.C,C30*%
X141980000Y-88800000D03*
X141020000Y-88800000D03*
%TD*%
D24*
%TO.C,R34*%
X155300000Y-125690000D03*
X155300000Y-126710000D03*
%TD*%
%TO.C,R23*%
X157900000Y-125690000D03*
X157900000Y-126710000D03*
%TD*%
M02*
