%TF.GenerationSoftware,KiCad,Pcbnew,10.0.4*%
%TF.CreationDate,2026-08-24T19:58:11-05:00*%
%TF.ProjectId,LSR_FLCM0001_A03,4c53525f-464c-4434-9d30-3030315f4130,rev?*%
%TF.SameCoordinates,Original*%
%TF.FileFunction,Legend,Bot*%
%TF.FilePolarity,Positive*%
%FSLAX46Y46*%
G04 Gerber Fmt 4.6, Leading zero omitted, Abs format (unit mm)*
G04 Created by KiCad (PCBNEW 10.0.4) date 2026-08-24 19:58:11*
%MOMM*%
%LPD*%
G01*
G04 APERTURE LIST*
%ADD10C,0.150000*%
%ADD11C,0.203200*%
%ADD12C,0.250000*%
%ADD13C,0.120000*%
%ADD14C,0.152400*%
%ADD15C,0.100000*%
%ADD16C,0.200000*%
G04 APERTURE END LIST*
D10*
X163959580Y-100157142D02*
X164007200Y-100109523D01*
X164007200Y-100109523D02*
X164054819Y-99966666D01*
X164054819Y-99966666D02*
X164054819Y-99871428D01*
X164054819Y-99871428D02*
X164007200Y-99728571D01*
X164007200Y-99728571D02*
X163911961Y-99633333D01*
X163911961Y-99633333D02*
X163816723Y-99585714D01*
X163816723Y-99585714D02*
X163626247Y-99538095D01*
X163626247Y-99538095D02*
X163483390Y-99538095D01*
X163483390Y-99538095D02*
X163292914Y-99585714D01*
X163292914Y-99585714D02*
X163197676Y-99633333D01*
X163197676Y-99633333D02*
X163102438Y-99728571D01*
X163102438Y-99728571D02*
X163054819Y-99871428D01*
X163054819Y-99871428D02*
X163054819Y-99966666D01*
X163054819Y-99966666D02*
X163102438Y-100109523D01*
X163102438Y-100109523D02*
X163150057Y-100157142D01*
X164054819Y-101109523D02*
X164054819Y-100538095D01*
X164054819Y-100823809D02*
X163054819Y-100823809D01*
X163054819Y-100823809D02*
X163197676Y-100728571D01*
X163197676Y-100728571D02*
X163292914Y-100633333D01*
X163292914Y-100633333D02*
X163340533Y-100538095D01*
X163054819Y-101442857D02*
X163054819Y-102061904D01*
X163054819Y-102061904D02*
X163435771Y-101728571D01*
X163435771Y-101728571D02*
X163435771Y-101871428D01*
X163435771Y-101871428D02*
X163483390Y-101966666D01*
X163483390Y-101966666D02*
X163531009Y-102014285D01*
X163531009Y-102014285D02*
X163626247Y-102061904D01*
X163626247Y-102061904D02*
X163864342Y-102061904D01*
X163864342Y-102061904D02*
X163959580Y-102014285D01*
X163959580Y-102014285D02*
X164007200Y-101966666D01*
X164007200Y-101966666D02*
X164054819Y-101871428D01*
X164054819Y-101871428D02*
X164054819Y-101585714D01*
X164054819Y-101585714D02*
X164007200Y-101490476D01*
X164007200Y-101490476D02*
X163959580Y-101442857D01*
X157554819Y-101633333D02*
X157078628Y-101300000D01*
X157554819Y-101061905D02*
X156554819Y-101061905D01*
X156554819Y-101061905D02*
X156554819Y-101442857D01*
X156554819Y-101442857D02*
X156602438Y-101538095D01*
X156602438Y-101538095D02*
X156650057Y-101585714D01*
X156650057Y-101585714D02*
X156745295Y-101633333D01*
X156745295Y-101633333D02*
X156888152Y-101633333D01*
X156888152Y-101633333D02*
X156983390Y-101585714D01*
X156983390Y-101585714D02*
X157031009Y-101538095D01*
X157031009Y-101538095D02*
X157078628Y-101442857D01*
X157078628Y-101442857D02*
X157078628Y-101061905D01*
X157554819Y-102585714D02*
X157554819Y-102014286D01*
X157554819Y-102300000D02*
X156554819Y-102300000D01*
X156554819Y-102300000D02*
X156697676Y-102204762D01*
X156697676Y-102204762D02*
X156792914Y-102109524D01*
X156792914Y-102109524D02*
X156840533Y-102014286D01*
X143459580Y-96133333D02*
X143507200Y-96085714D01*
X143507200Y-96085714D02*
X143554819Y-95942857D01*
X143554819Y-95942857D02*
X143554819Y-95847619D01*
X143554819Y-95847619D02*
X143507200Y-95704762D01*
X143507200Y-95704762D02*
X143411961Y-95609524D01*
X143411961Y-95609524D02*
X143316723Y-95561905D01*
X143316723Y-95561905D02*
X143126247Y-95514286D01*
X143126247Y-95514286D02*
X142983390Y-95514286D01*
X142983390Y-95514286D02*
X142792914Y-95561905D01*
X142792914Y-95561905D02*
X142697676Y-95609524D01*
X142697676Y-95609524D02*
X142602438Y-95704762D01*
X142602438Y-95704762D02*
X142554819Y-95847619D01*
X142554819Y-95847619D02*
X142554819Y-95942857D01*
X142554819Y-95942857D02*
X142602438Y-96085714D01*
X142602438Y-96085714D02*
X142650057Y-96133333D01*
X142554819Y-97038095D02*
X142554819Y-96561905D01*
X142554819Y-96561905D02*
X143031009Y-96514286D01*
X143031009Y-96514286D02*
X142983390Y-96561905D01*
X142983390Y-96561905D02*
X142935771Y-96657143D01*
X142935771Y-96657143D02*
X142935771Y-96895238D01*
X142935771Y-96895238D02*
X142983390Y-96990476D01*
X142983390Y-96990476D02*
X143031009Y-97038095D01*
X143031009Y-97038095D02*
X143126247Y-97085714D01*
X143126247Y-97085714D02*
X143364342Y-97085714D01*
X143364342Y-97085714D02*
X143459580Y-97038095D01*
X143459580Y-97038095D02*
X143507200Y-96990476D01*
X143507200Y-96990476D02*
X143554819Y-96895238D01*
X143554819Y-96895238D02*
X143554819Y-96657143D01*
X143554819Y-96657143D02*
X143507200Y-96561905D01*
X143507200Y-96561905D02*
X143459580Y-96514286D01*
X147842857Y-124854819D02*
X148176190Y-124378628D01*
X148414285Y-124854819D02*
X148414285Y-123854819D01*
X148414285Y-123854819D02*
X148033333Y-123854819D01*
X148033333Y-123854819D02*
X147938095Y-123902438D01*
X147938095Y-123902438D02*
X147890476Y-123950057D01*
X147890476Y-123950057D02*
X147842857Y-124045295D01*
X147842857Y-124045295D02*
X147842857Y-124188152D01*
X147842857Y-124188152D02*
X147890476Y-124283390D01*
X147890476Y-124283390D02*
X147938095Y-124331009D01*
X147938095Y-124331009D02*
X148033333Y-124378628D01*
X148033333Y-124378628D02*
X148414285Y-124378628D01*
X147509523Y-123854819D02*
X146890476Y-123854819D01*
X146890476Y-123854819D02*
X147223809Y-124235771D01*
X147223809Y-124235771D02*
X147080952Y-124235771D01*
X147080952Y-124235771D02*
X146985714Y-124283390D01*
X146985714Y-124283390D02*
X146938095Y-124331009D01*
X146938095Y-124331009D02*
X146890476Y-124426247D01*
X146890476Y-124426247D02*
X146890476Y-124664342D01*
X146890476Y-124664342D02*
X146938095Y-124759580D01*
X146938095Y-124759580D02*
X146985714Y-124807200D01*
X146985714Y-124807200D02*
X147080952Y-124854819D01*
X147080952Y-124854819D02*
X147366666Y-124854819D01*
X147366666Y-124854819D02*
X147461904Y-124807200D01*
X147461904Y-124807200D02*
X147509523Y-124759580D01*
X146509523Y-123950057D02*
X146461904Y-123902438D01*
X146461904Y-123902438D02*
X146366666Y-123854819D01*
X146366666Y-123854819D02*
X146128571Y-123854819D01*
X146128571Y-123854819D02*
X146033333Y-123902438D01*
X146033333Y-123902438D02*
X145985714Y-123950057D01*
X145985714Y-123950057D02*
X145938095Y-124045295D01*
X145938095Y-124045295D02*
X145938095Y-124140533D01*
X145938095Y-124140533D02*
X145985714Y-124283390D01*
X145985714Y-124283390D02*
X146557142Y-124854819D01*
X146557142Y-124854819D02*
X145938095Y-124854819D01*
X157842857Y-91724819D02*
X158176190Y-91248628D01*
X158414285Y-91724819D02*
X158414285Y-90724819D01*
X158414285Y-90724819D02*
X158033333Y-90724819D01*
X158033333Y-90724819D02*
X157938095Y-90772438D01*
X157938095Y-90772438D02*
X157890476Y-90820057D01*
X157890476Y-90820057D02*
X157842857Y-90915295D01*
X157842857Y-90915295D02*
X157842857Y-91058152D01*
X157842857Y-91058152D02*
X157890476Y-91153390D01*
X157890476Y-91153390D02*
X157938095Y-91201009D01*
X157938095Y-91201009D02*
X158033333Y-91248628D01*
X158033333Y-91248628D02*
X158414285Y-91248628D01*
X156890476Y-91724819D02*
X157461904Y-91724819D01*
X157176190Y-91724819D02*
X157176190Y-90724819D01*
X157176190Y-90724819D02*
X157271428Y-90867676D01*
X157271428Y-90867676D02*
X157366666Y-90962914D01*
X157366666Y-90962914D02*
X157461904Y-91010533D01*
X156557142Y-90724819D02*
X155938095Y-90724819D01*
X155938095Y-90724819D02*
X156271428Y-91105771D01*
X156271428Y-91105771D02*
X156128571Y-91105771D01*
X156128571Y-91105771D02*
X156033333Y-91153390D01*
X156033333Y-91153390D02*
X155985714Y-91201009D01*
X155985714Y-91201009D02*
X155938095Y-91296247D01*
X155938095Y-91296247D02*
X155938095Y-91534342D01*
X155938095Y-91534342D02*
X155985714Y-91629580D01*
X155985714Y-91629580D02*
X156033333Y-91677200D01*
X156033333Y-91677200D02*
X156128571Y-91724819D01*
X156128571Y-91724819D02*
X156414285Y-91724819D01*
X156414285Y-91724819D02*
X156509523Y-91677200D01*
X156509523Y-91677200D02*
X156557142Y-91629580D01*
G36*
X159818518Y-118915000D02*
G01*
X159818518Y-117934975D01*
X159415334Y-117934975D01*
X159329254Y-117940054D01*
X159255424Y-117954394D01*
X159192035Y-117976985D01*
X159133746Y-118009696D01*
X159086349Y-118049712D01*
X159048542Y-118097397D01*
X159021000Y-118151683D01*
X159004020Y-118213208D01*
X158998106Y-118283571D01*
X159004033Y-118353967D01*
X159021025Y-118415272D01*
X159048542Y-118469134D01*
X159086322Y-118516314D01*
X159133710Y-118555869D01*
X159192035Y-118588142D01*
X159255382Y-118610328D01*
X159329215Y-118624423D01*
X159415334Y-118629419D01*
X159717706Y-118629419D01*
X159636496Y-118546803D01*
X159636496Y-118915000D01*
X159818518Y-118915000D01*
G37*
G36*
X159177319Y-118915000D02*
G01*
X159425104Y-118559382D01*
X159230503Y-118559382D01*
X158981314Y-118915000D01*
X159177319Y-118915000D01*
G37*
G36*
X159636496Y-118566404D02*
G01*
X159717706Y-118479576D01*
X159423699Y-118479576D01*
X159344917Y-118472902D01*
X159286022Y-118454989D01*
X159242410Y-118427796D01*
X159216155Y-118399877D01*
X159197342Y-118367231D01*
X159185652Y-118328916D01*
X159181532Y-118283571D01*
X159185697Y-118237480D01*
X159197451Y-118199004D01*
X159216265Y-118166655D01*
X159242410Y-118139406D01*
X159285910Y-118112967D01*
X159344799Y-118095492D01*
X159423699Y-118088970D01*
X159717706Y-118088970D01*
X159636496Y-117999394D01*
X159636496Y-118566404D01*
G37*
G36*
X158478130Y-117928007D02*
G01*
X158560886Y-117948269D01*
X158635344Y-117981198D01*
X158686342Y-118014605D01*
X158731319Y-118054786D01*
X158770719Y-118102205D01*
X158804727Y-118157602D01*
X158830363Y-118216144D01*
X158849410Y-118282278D01*
X158861402Y-118357084D01*
X158865604Y-118441779D01*
X158859424Y-118546426D01*
X158842151Y-118634225D01*
X158815229Y-118707821D01*
X158775974Y-118774907D01*
X158727629Y-118829251D01*
X158669599Y-118872318D01*
X158603941Y-118903090D01*
X158528547Y-118922260D01*
X158441415Y-118928982D01*
X158375119Y-118924448D01*
X158314771Y-118911270D01*
X158259455Y-118889781D01*
X158208545Y-118859715D01*
X158165880Y-118822985D01*
X158130616Y-118779200D01*
X158104509Y-118729692D01*
X158088526Y-118674166D01*
X158083725Y-118619588D01*
X158259393Y-118619588D01*
X158265704Y-118667484D01*
X158283940Y-118707821D01*
X158312894Y-118741026D01*
X158351839Y-118765950D01*
X158397382Y-118780954D01*
X158451185Y-118786222D01*
X158512542Y-118780274D01*
X158561094Y-118763813D01*
X158601713Y-118737080D01*
X158630398Y-118703607D01*
X158648254Y-118664072D01*
X158654212Y-118620992D01*
X158647631Y-118574454D01*
X158628322Y-118534225D01*
X158598185Y-118500715D01*
X158558347Y-118474752D01*
X158511683Y-118458694D01*
X158455398Y-118453014D01*
X158397243Y-118458486D01*
X158350451Y-118473716D01*
X158312638Y-118497833D01*
X158283309Y-118530862D01*
X158265609Y-118570737D01*
X158259393Y-118619588D01*
X158083725Y-118619588D01*
X158082989Y-118611222D01*
X158088189Y-118551887D01*
X158103220Y-118499333D01*
X158127808Y-118452281D01*
X158160993Y-118410559D01*
X158200888Y-118375712D01*
X158248219Y-118347318D01*
X158299807Y-118327037D01*
X158356878Y-118314524D01*
X158420411Y-118310193D01*
X158490066Y-118315225D01*
X158552729Y-118329794D01*
X158609986Y-118354438D01*
X158657754Y-118387923D01*
X158682156Y-118414659D01*
X158682239Y-118411004D01*
X158676345Y-118327118D01*
X158660036Y-118258964D01*
X158634753Y-118203683D01*
X158601028Y-118159007D01*
X158557840Y-118122311D01*
X158507787Y-118095852D01*
X158449527Y-118079379D01*
X158381210Y-118073583D01*
X158330202Y-118076257D01*
X158282535Y-118084085D01*
X158237268Y-118098595D01*
X158195035Y-118121210D01*
X158127808Y-117984007D01*
X158179109Y-117956603D01*
X158243334Y-117936441D01*
X158312260Y-117924914D01*
X158385423Y-117920992D01*
X158478130Y-117928007D01*
G37*
X163559580Y-90357142D02*
X163607200Y-90309523D01*
X163607200Y-90309523D02*
X163654819Y-90166666D01*
X163654819Y-90166666D02*
X163654819Y-90071428D01*
X163654819Y-90071428D02*
X163607200Y-89928571D01*
X163607200Y-89928571D02*
X163511961Y-89833333D01*
X163511961Y-89833333D02*
X163416723Y-89785714D01*
X163416723Y-89785714D02*
X163226247Y-89738095D01*
X163226247Y-89738095D02*
X163083390Y-89738095D01*
X163083390Y-89738095D02*
X162892914Y-89785714D01*
X162892914Y-89785714D02*
X162797676Y-89833333D01*
X162797676Y-89833333D02*
X162702438Y-89928571D01*
X162702438Y-89928571D02*
X162654819Y-90071428D01*
X162654819Y-90071428D02*
X162654819Y-90166666D01*
X162654819Y-90166666D02*
X162702438Y-90309523D01*
X162702438Y-90309523D02*
X162750057Y-90357142D01*
X163654819Y-91309523D02*
X163654819Y-90738095D01*
X163654819Y-91023809D02*
X162654819Y-91023809D01*
X162654819Y-91023809D02*
X162797676Y-90928571D01*
X162797676Y-90928571D02*
X162892914Y-90833333D01*
X162892914Y-90833333D02*
X162940533Y-90738095D01*
X162654819Y-92214285D02*
X162654819Y-91738095D01*
X162654819Y-91738095D02*
X163131009Y-91690476D01*
X163131009Y-91690476D02*
X163083390Y-91738095D01*
X163083390Y-91738095D02*
X163035771Y-91833333D01*
X163035771Y-91833333D02*
X163035771Y-92071428D01*
X163035771Y-92071428D02*
X163083390Y-92166666D01*
X163083390Y-92166666D02*
X163131009Y-92214285D01*
X163131009Y-92214285D02*
X163226247Y-92261904D01*
X163226247Y-92261904D02*
X163464342Y-92261904D01*
X163464342Y-92261904D02*
X163559580Y-92214285D01*
X163559580Y-92214285D02*
X163607200Y-92166666D01*
X163607200Y-92166666D02*
X163654819Y-92071428D01*
X163654819Y-92071428D02*
X163654819Y-91833333D01*
X163654819Y-91833333D02*
X163607200Y-91738095D01*
X163607200Y-91738095D02*
X163559580Y-91690476D01*
X149804761Y-123549942D02*
X149709523Y-123597561D01*
X149709523Y-123597561D02*
X149614285Y-123692800D01*
X149614285Y-123692800D02*
X149471428Y-123835657D01*
X149471428Y-123835657D02*
X149376190Y-123883276D01*
X149376190Y-123883276D02*
X149280952Y-123883276D01*
X149328571Y-123645180D02*
X149233333Y-123692800D01*
X149233333Y-123692800D02*
X149138095Y-123788038D01*
X149138095Y-123788038D02*
X149090476Y-123978514D01*
X149090476Y-123978514D02*
X149090476Y-124311847D01*
X149090476Y-124311847D02*
X149138095Y-124502323D01*
X149138095Y-124502323D02*
X149233333Y-124597561D01*
X149233333Y-124597561D02*
X149328571Y-124645180D01*
X149328571Y-124645180D02*
X149519047Y-124645180D01*
X149519047Y-124645180D02*
X149614285Y-124597561D01*
X149614285Y-124597561D02*
X149709523Y-124502323D01*
X149709523Y-124502323D02*
X149757142Y-124311847D01*
X149757142Y-124311847D02*
X149757142Y-123978514D01*
X149757142Y-123978514D02*
X149709523Y-123788038D01*
X149709523Y-123788038D02*
X149614285Y-123692800D01*
X149614285Y-123692800D02*
X149519047Y-123645180D01*
X149519047Y-123645180D02*
X149328571Y-123645180D01*
X150709523Y-123645180D02*
X150138095Y-123645180D01*
X150423809Y-123645180D02*
X150423809Y-124645180D01*
X150423809Y-124645180D02*
X150328571Y-124502323D01*
X150328571Y-124502323D02*
X150233333Y-124407085D01*
X150233333Y-124407085D02*
X150138095Y-124359466D01*
D11*
X144576189Y-105677052D02*
X144576189Y-104677052D01*
X143528571Y-105581813D02*
X143576190Y-105629433D01*
X143576190Y-105629433D02*
X143719047Y-105677052D01*
X143719047Y-105677052D02*
X143814285Y-105677052D01*
X143814285Y-105677052D02*
X143957142Y-105629433D01*
X143957142Y-105629433D02*
X144052380Y-105534194D01*
X144052380Y-105534194D02*
X144099999Y-105438956D01*
X144099999Y-105438956D02*
X144147618Y-105248480D01*
X144147618Y-105248480D02*
X144147618Y-105105623D01*
X144147618Y-105105623D02*
X144099999Y-104915147D01*
X144099999Y-104915147D02*
X144052380Y-104819909D01*
X144052380Y-104819909D02*
X143957142Y-104724671D01*
X143957142Y-104724671D02*
X143814285Y-104677052D01*
X143814285Y-104677052D02*
X143719047Y-104677052D01*
X143719047Y-104677052D02*
X143576190Y-104724671D01*
X143576190Y-104724671D02*
X143528571Y-104772290D01*
X142576190Y-105677052D02*
X143147618Y-105677052D01*
X142861904Y-105677052D02*
X142861904Y-104677052D01*
X142861904Y-104677052D02*
X142957142Y-104819909D01*
X142957142Y-104819909D02*
X143052380Y-104915147D01*
X143052380Y-104915147D02*
X143147618Y-104962766D01*
D10*
X142354819Y-127157142D02*
X141878628Y-126823809D01*
X142354819Y-126585714D02*
X141354819Y-126585714D01*
X141354819Y-126585714D02*
X141354819Y-126966666D01*
X141354819Y-126966666D02*
X141402438Y-127061904D01*
X141402438Y-127061904D02*
X141450057Y-127109523D01*
X141450057Y-127109523D02*
X141545295Y-127157142D01*
X141545295Y-127157142D02*
X141688152Y-127157142D01*
X141688152Y-127157142D02*
X141783390Y-127109523D01*
X141783390Y-127109523D02*
X141831009Y-127061904D01*
X141831009Y-127061904D02*
X141878628Y-126966666D01*
X141878628Y-126966666D02*
X141878628Y-126585714D01*
X141354819Y-127490476D02*
X141354819Y-128109523D01*
X141354819Y-128109523D02*
X141735771Y-127776190D01*
X141735771Y-127776190D02*
X141735771Y-127919047D01*
X141735771Y-127919047D02*
X141783390Y-128014285D01*
X141783390Y-128014285D02*
X141831009Y-128061904D01*
X141831009Y-128061904D02*
X141926247Y-128109523D01*
X141926247Y-128109523D02*
X142164342Y-128109523D01*
X142164342Y-128109523D02*
X142259580Y-128061904D01*
X142259580Y-128061904D02*
X142307200Y-128014285D01*
X142307200Y-128014285D02*
X142354819Y-127919047D01*
X142354819Y-127919047D02*
X142354819Y-127633333D01*
X142354819Y-127633333D02*
X142307200Y-127538095D01*
X142307200Y-127538095D02*
X142259580Y-127490476D01*
X142354819Y-129061904D02*
X142354819Y-128490476D01*
X142354819Y-128776190D02*
X141354819Y-128776190D01*
X141354819Y-128776190D02*
X141497676Y-128680952D01*
X141497676Y-128680952D02*
X141592914Y-128585714D01*
X141592914Y-128585714D02*
X141640533Y-128490476D01*
X148954819Y-116157142D02*
X148478628Y-115823809D01*
X148954819Y-115585714D02*
X147954819Y-115585714D01*
X147954819Y-115585714D02*
X147954819Y-115966666D01*
X147954819Y-115966666D02*
X148002438Y-116061904D01*
X148002438Y-116061904D02*
X148050057Y-116109523D01*
X148050057Y-116109523D02*
X148145295Y-116157142D01*
X148145295Y-116157142D02*
X148288152Y-116157142D01*
X148288152Y-116157142D02*
X148383390Y-116109523D01*
X148383390Y-116109523D02*
X148431009Y-116061904D01*
X148431009Y-116061904D02*
X148478628Y-115966666D01*
X148478628Y-115966666D02*
X148478628Y-115585714D01*
X148050057Y-116538095D02*
X148002438Y-116585714D01*
X148002438Y-116585714D02*
X147954819Y-116680952D01*
X147954819Y-116680952D02*
X147954819Y-116919047D01*
X147954819Y-116919047D02*
X148002438Y-117014285D01*
X148002438Y-117014285D02*
X148050057Y-117061904D01*
X148050057Y-117061904D02*
X148145295Y-117109523D01*
X148145295Y-117109523D02*
X148240533Y-117109523D01*
X148240533Y-117109523D02*
X148383390Y-117061904D01*
X148383390Y-117061904D02*
X148954819Y-116490476D01*
X148954819Y-116490476D02*
X148954819Y-117109523D01*
X147954819Y-117442857D02*
X147954819Y-118109523D01*
X147954819Y-118109523D02*
X148954819Y-117680952D01*
X152754819Y-116157142D02*
X152278628Y-115823809D01*
X152754819Y-115585714D02*
X151754819Y-115585714D01*
X151754819Y-115585714D02*
X151754819Y-115966666D01*
X151754819Y-115966666D02*
X151802438Y-116061904D01*
X151802438Y-116061904D02*
X151850057Y-116109523D01*
X151850057Y-116109523D02*
X151945295Y-116157142D01*
X151945295Y-116157142D02*
X152088152Y-116157142D01*
X152088152Y-116157142D02*
X152183390Y-116109523D01*
X152183390Y-116109523D02*
X152231009Y-116061904D01*
X152231009Y-116061904D02*
X152278628Y-115966666D01*
X152278628Y-115966666D02*
X152278628Y-115585714D01*
X151850057Y-116538095D02*
X151802438Y-116585714D01*
X151802438Y-116585714D02*
X151754819Y-116680952D01*
X151754819Y-116680952D02*
X151754819Y-116919047D01*
X151754819Y-116919047D02*
X151802438Y-117014285D01*
X151802438Y-117014285D02*
X151850057Y-117061904D01*
X151850057Y-117061904D02*
X151945295Y-117109523D01*
X151945295Y-117109523D02*
X152040533Y-117109523D01*
X152040533Y-117109523D02*
X152183390Y-117061904D01*
X152183390Y-117061904D02*
X152754819Y-116490476D01*
X152754819Y-116490476D02*
X152754819Y-117109523D01*
X151754819Y-117966666D02*
X151754819Y-117776190D01*
X151754819Y-117776190D02*
X151802438Y-117680952D01*
X151802438Y-117680952D02*
X151850057Y-117633333D01*
X151850057Y-117633333D02*
X151992914Y-117538095D01*
X151992914Y-117538095D02*
X152183390Y-117490476D01*
X152183390Y-117490476D02*
X152564342Y-117490476D01*
X152564342Y-117490476D02*
X152659580Y-117538095D01*
X152659580Y-117538095D02*
X152707200Y-117585714D01*
X152707200Y-117585714D02*
X152754819Y-117680952D01*
X152754819Y-117680952D02*
X152754819Y-117871428D01*
X152754819Y-117871428D02*
X152707200Y-117966666D01*
X152707200Y-117966666D02*
X152659580Y-118014285D01*
X152659580Y-118014285D02*
X152564342Y-118061904D01*
X152564342Y-118061904D02*
X152326247Y-118061904D01*
X152326247Y-118061904D02*
X152231009Y-118014285D01*
X152231009Y-118014285D02*
X152183390Y-117966666D01*
X152183390Y-117966666D02*
X152135771Y-117871428D01*
X152135771Y-117871428D02*
X152135771Y-117680952D01*
X152135771Y-117680952D02*
X152183390Y-117585714D01*
X152183390Y-117585714D02*
X152231009Y-117538095D01*
X152231009Y-117538095D02*
X152326247Y-117490476D01*
X156454819Y-116157142D02*
X155978628Y-115823809D01*
X156454819Y-115585714D02*
X155454819Y-115585714D01*
X155454819Y-115585714D02*
X155454819Y-115966666D01*
X155454819Y-115966666D02*
X155502438Y-116061904D01*
X155502438Y-116061904D02*
X155550057Y-116109523D01*
X155550057Y-116109523D02*
X155645295Y-116157142D01*
X155645295Y-116157142D02*
X155788152Y-116157142D01*
X155788152Y-116157142D02*
X155883390Y-116109523D01*
X155883390Y-116109523D02*
X155931009Y-116061904D01*
X155931009Y-116061904D02*
X155978628Y-115966666D01*
X155978628Y-115966666D02*
X155978628Y-115585714D01*
X155550057Y-116538095D02*
X155502438Y-116585714D01*
X155502438Y-116585714D02*
X155454819Y-116680952D01*
X155454819Y-116680952D02*
X155454819Y-116919047D01*
X155454819Y-116919047D02*
X155502438Y-117014285D01*
X155502438Y-117014285D02*
X155550057Y-117061904D01*
X155550057Y-117061904D02*
X155645295Y-117109523D01*
X155645295Y-117109523D02*
X155740533Y-117109523D01*
X155740533Y-117109523D02*
X155883390Y-117061904D01*
X155883390Y-117061904D02*
X156454819Y-116490476D01*
X156454819Y-116490476D02*
X156454819Y-117109523D01*
X155454819Y-118014285D02*
X155454819Y-117538095D01*
X155454819Y-117538095D02*
X155931009Y-117490476D01*
X155931009Y-117490476D02*
X155883390Y-117538095D01*
X155883390Y-117538095D02*
X155835771Y-117633333D01*
X155835771Y-117633333D02*
X155835771Y-117871428D01*
X155835771Y-117871428D02*
X155883390Y-117966666D01*
X155883390Y-117966666D02*
X155931009Y-118014285D01*
X155931009Y-118014285D02*
X156026247Y-118061904D01*
X156026247Y-118061904D02*
X156264342Y-118061904D01*
X156264342Y-118061904D02*
X156359580Y-118014285D01*
X156359580Y-118014285D02*
X156407200Y-117966666D01*
X156407200Y-117966666D02*
X156454819Y-117871428D01*
X156454819Y-117871428D02*
X156454819Y-117633333D01*
X156454819Y-117633333D02*
X156407200Y-117538095D01*
X156407200Y-117538095D02*
X156359580Y-117490476D01*
X150252857Y-83754819D02*
X150586190Y-83278628D01*
X150824285Y-83754819D02*
X150824285Y-82754819D01*
X150824285Y-82754819D02*
X150443333Y-82754819D01*
X150443333Y-82754819D02*
X150348095Y-82802438D01*
X150348095Y-82802438D02*
X150300476Y-82850057D01*
X150300476Y-82850057D02*
X150252857Y-82945295D01*
X150252857Y-82945295D02*
X150252857Y-83088152D01*
X150252857Y-83088152D02*
X150300476Y-83183390D01*
X150300476Y-83183390D02*
X150348095Y-83231009D01*
X150348095Y-83231009D02*
X150443333Y-83278628D01*
X150443333Y-83278628D02*
X150824285Y-83278628D01*
X149300476Y-83754819D02*
X149871904Y-83754819D01*
X149586190Y-83754819D02*
X149586190Y-82754819D01*
X149586190Y-82754819D02*
X149681428Y-82897676D01*
X149681428Y-82897676D02*
X149776666Y-82992914D01*
X149776666Y-82992914D02*
X149871904Y-83040533D01*
X148348095Y-83754819D02*
X148919523Y-83754819D01*
X148633809Y-83754819D02*
X148633809Y-82754819D01*
X148633809Y-82754819D02*
X148729047Y-82897676D01*
X148729047Y-82897676D02*
X148824285Y-82992914D01*
X148824285Y-82992914D02*
X148919523Y-83040533D01*
X153166666Y-96759580D02*
X153214285Y-96807200D01*
X153214285Y-96807200D02*
X153357142Y-96854819D01*
X153357142Y-96854819D02*
X153452380Y-96854819D01*
X153452380Y-96854819D02*
X153595237Y-96807200D01*
X153595237Y-96807200D02*
X153690475Y-96711961D01*
X153690475Y-96711961D02*
X153738094Y-96616723D01*
X153738094Y-96616723D02*
X153785713Y-96426247D01*
X153785713Y-96426247D02*
X153785713Y-96283390D01*
X153785713Y-96283390D02*
X153738094Y-96092914D01*
X153738094Y-96092914D02*
X153690475Y-95997676D01*
X153690475Y-95997676D02*
X153595237Y-95902438D01*
X153595237Y-95902438D02*
X153452380Y-95854819D01*
X153452380Y-95854819D02*
X153357142Y-95854819D01*
X153357142Y-95854819D02*
X153214285Y-95902438D01*
X153214285Y-95902438D02*
X153166666Y-95950057D01*
X152214285Y-96854819D02*
X152785713Y-96854819D01*
X152499999Y-96854819D02*
X152499999Y-95854819D01*
X152499999Y-95854819D02*
X152595237Y-95997676D01*
X152595237Y-95997676D02*
X152690475Y-96092914D01*
X152690475Y-96092914D02*
X152785713Y-96140533D01*
X143442857Y-82554819D02*
X143919047Y-82554819D01*
X143919047Y-82554819D02*
X143919047Y-81554819D01*
X143157142Y-82507200D02*
X143014285Y-82554819D01*
X143014285Y-82554819D02*
X142776190Y-82554819D01*
X142776190Y-82554819D02*
X142680952Y-82507200D01*
X142680952Y-82507200D02*
X142633333Y-82459580D01*
X142633333Y-82459580D02*
X142585714Y-82364342D01*
X142585714Y-82364342D02*
X142585714Y-82269104D01*
X142585714Y-82269104D02*
X142633333Y-82173866D01*
X142633333Y-82173866D02*
X142680952Y-82126247D01*
X142680952Y-82126247D02*
X142776190Y-82078628D01*
X142776190Y-82078628D02*
X142966666Y-82031009D01*
X142966666Y-82031009D02*
X143061904Y-81983390D01*
X143061904Y-81983390D02*
X143109523Y-81935771D01*
X143109523Y-81935771D02*
X143157142Y-81840533D01*
X143157142Y-81840533D02*
X143157142Y-81745295D01*
X143157142Y-81745295D02*
X143109523Y-81650057D01*
X143109523Y-81650057D02*
X143061904Y-81602438D01*
X143061904Y-81602438D02*
X142966666Y-81554819D01*
X142966666Y-81554819D02*
X142728571Y-81554819D01*
X142728571Y-81554819D02*
X142585714Y-81602438D01*
X141633333Y-82554819D02*
X142204761Y-82554819D01*
X141919047Y-82554819D02*
X141919047Y-81554819D01*
X141919047Y-81554819D02*
X142014285Y-81697676D01*
X142014285Y-81697676D02*
X142109523Y-81792914D01*
X142109523Y-81792914D02*
X142204761Y-81840533D01*
X150252857Y-85154819D02*
X150586190Y-84678628D01*
X150824285Y-85154819D02*
X150824285Y-84154819D01*
X150824285Y-84154819D02*
X150443333Y-84154819D01*
X150443333Y-84154819D02*
X150348095Y-84202438D01*
X150348095Y-84202438D02*
X150300476Y-84250057D01*
X150300476Y-84250057D02*
X150252857Y-84345295D01*
X150252857Y-84345295D02*
X150252857Y-84488152D01*
X150252857Y-84488152D02*
X150300476Y-84583390D01*
X150300476Y-84583390D02*
X150348095Y-84631009D01*
X150348095Y-84631009D02*
X150443333Y-84678628D01*
X150443333Y-84678628D02*
X150824285Y-84678628D01*
X149300476Y-85154819D02*
X149871904Y-85154819D01*
X149586190Y-85154819D02*
X149586190Y-84154819D01*
X149586190Y-84154819D02*
X149681428Y-84297676D01*
X149681428Y-84297676D02*
X149776666Y-84392914D01*
X149776666Y-84392914D02*
X149871904Y-84440533D01*
X148919523Y-84250057D02*
X148871904Y-84202438D01*
X148871904Y-84202438D02*
X148776666Y-84154819D01*
X148776666Y-84154819D02*
X148538571Y-84154819D01*
X148538571Y-84154819D02*
X148443333Y-84202438D01*
X148443333Y-84202438D02*
X148395714Y-84250057D01*
X148395714Y-84250057D02*
X148348095Y-84345295D01*
X148348095Y-84345295D02*
X148348095Y-84440533D01*
X148348095Y-84440533D02*
X148395714Y-84583390D01*
X148395714Y-84583390D02*
X148967142Y-85154819D01*
X148967142Y-85154819D02*
X148348095Y-85154819D01*
G36*
X159788232Y-120115000D02*
G01*
X159788232Y-119134975D01*
X159385048Y-119134975D01*
X159298968Y-119140054D01*
X159225138Y-119154394D01*
X159161749Y-119176985D01*
X159103460Y-119209696D01*
X159056063Y-119249712D01*
X159018256Y-119297397D01*
X158990714Y-119351683D01*
X158973734Y-119413208D01*
X158967820Y-119483571D01*
X158973747Y-119553967D01*
X158990739Y-119615272D01*
X159018256Y-119669134D01*
X159056036Y-119716314D01*
X159103424Y-119755869D01*
X159161749Y-119788142D01*
X159225096Y-119810328D01*
X159298929Y-119824423D01*
X159385048Y-119829419D01*
X159687420Y-119829419D01*
X159606210Y-119746803D01*
X159606210Y-120115000D01*
X159788232Y-120115000D01*
G37*
G36*
X159147033Y-120115000D02*
G01*
X159394818Y-119759382D01*
X159200217Y-119759382D01*
X158951028Y-120115000D01*
X159147033Y-120115000D01*
G37*
G36*
X159606210Y-119766404D02*
G01*
X159687420Y-119679576D01*
X159393413Y-119679576D01*
X159314631Y-119672902D01*
X159255736Y-119654989D01*
X159212124Y-119627796D01*
X159185869Y-119599877D01*
X159167056Y-119567231D01*
X159155366Y-119528916D01*
X159151246Y-119483571D01*
X159155411Y-119437480D01*
X159167165Y-119399004D01*
X159185979Y-119366655D01*
X159212124Y-119339406D01*
X159255624Y-119312967D01*
X159314513Y-119295492D01*
X159393413Y-119288970D01*
X159687420Y-119288970D01*
X159606210Y-119199394D01*
X159606210Y-119766404D01*
G37*
G36*
X158510536Y-120128982D02*
G01*
X158612973Y-120121449D01*
X158712830Y-120098879D01*
X158777021Y-120075427D01*
X158831957Y-120047580D01*
X158878732Y-120015593D01*
X158801735Y-119874176D01*
X158744087Y-119912675D01*
X158672225Y-119944213D01*
X158594546Y-119964100D01*
X158513345Y-119970774D01*
X158450054Y-119965681D01*
X158400351Y-119951740D01*
X158361426Y-119930230D01*
X158330487Y-119899767D01*
X158312356Y-119863965D01*
X158306105Y-119820992D01*
X158312032Y-119777086D01*
X158329247Y-119739781D01*
X158347135Y-119719520D01*
X158373452Y-119701712D01*
X158410458Y-119686598D01*
X158473964Y-119673577D01*
X158569338Y-119668401D01*
X158805948Y-119668401D01*
X158755512Y-119134975D01*
X158180137Y-119134975D01*
X158180137Y-119287627D01*
X158688345Y-119287627D01*
X158593151Y-119200799D01*
X158630948Y-119599769D01*
X158726142Y-119514406D01*
X158528732Y-119514406D01*
X158431780Y-119519340D01*
X158354793Y-119532752D01*
X158294259Y-119552936D01*
X158238483Y-119583050D01*
X158195751Y-119618470D01*
X158164078Y-119659303D01*
X158141329Y-119706086D01*
X158127492Y-119757300D01*
X158122740Y-119813970D01*
X158127478Y-119869771D01*
X158141456Y-119921777D01*
X158164749Y-119970835D01*
X158196778Y-120014380D01*
X158238970Y-120052570D01*
X158292855Y-120085629D01*
X158351843Y-120108709D01*
X158423549Y-120123612D01*
X158510536Y-120128982D01*
G37*
X159633333Y-75154819D02*
X159633333Y-75869104D01*
X159633333Y-75869104D02*
X159680952Y-76011961D01*
X159680952Y-76011961D02*
X159776190Y-76107200D01*
X159776190Y-76107200D02*
X159919047Y-76154819D01*
X159919047Y-76154819D02*
X160014285Y-76154819D01*
X158680952Y-75154819D02*
X159157142Y-75154819D01*
X159157142Y-75154819D02*
X159204761Y-75631009D01*
X159204761Y-75631009D02*
X159157142Y-75583390D01*
X159157142Y-75583390D02*
X159061904Y-75535771D01*
X159061904Y-75535771D02*
X158823809Y-75535771D01*
X158823809Y-75535771D02*
X158728571Y-75583390D01*
X158728571Y-75583390D02*
X158680952Y-75631009D01*
X158680952Y-75631009D02*
X158633333Y-75726247D01*
X158633333Y-75726247D02*
X158633333Y-75964342D01*
X158633333Y-75964342D02*
X158680952Y-76059580D01*
X158680952Y-76059580D02*
X158728571Y-76107200D01*
X158728571Y-76107200D02*
X158823809Y-76154819D01*
X158823809Y-76154819D02*
X159061904Y-76154819D01*
X159061904Y-76154819D02*
X159157142Y-76107200D01*
X159157142Y-76107200D02*
X159204761Y-76059580D01*
X147842857Y-128854819D02*
X148176190Y-128378628D01*
X148414285Y-128854819D02*
X148414285Y-127854819D01*
X148414285Y-127854819D02*
X148033333Y-127854819D01*
X148033333Y-127854819D02*
X147938095Y-127902438D01*
X147938095Y-127902438D02*
X147890476Y-127950057D01*
X147890476Y-127950057D02*
X147842857Y-128045295D01*
X147842857Y-128045295D02*
X147842857Y-128188152D01*
X147842857Y-128188152D02*
X147890476Y-128283390D01*
X147890476Y-128283390D02*
X147938095Y-128331009D01*
X147938095Y-128331009D02*
X148033333Y-128378628D01*
X148033333Y-128378628D02*
X148414285Y-128378628D01*
X147509523Y-127854819D02*
X146890476Y-127854819D01*
X146890476Y-127854819D02*
X147223809Y-128235771D01*
X147223809Y-128235771D02*
X147080952Y-128235771D01*
X147080952Y-128235771D02*
X146985714Y-128283390D01*
X146985714Y-128283390D02*
X146938095Y-128331009D01*
X146938095Y-128331009D02*
X146890476Y-128426247D01*
X146890476Y-128426247D02*
X146890476Y-128664342D01*
X146890476Y-128664342D02*
X146938095Y-128759580D01*
X146938095Y-128759580D02*
X146985714Y-128807200D01*
X146985714Y-128807200D02*
X147080952Y-128854819D01*
X147080952Y-128854819D02*
X147366666Y-128854819D01*
X147366666Y-128854819D02*
X147461904Y-128807200D01*
X147461904Y-128807200D02*
X147509523Y-128759580D01*
X146271428Y-127854819D02*
X146176190Y-127854819D01*
X146176190Y-127854819D02*
X146080952Y-127902438D01*
X146080952Y-127902438D02*
X146033333Y-127950057D01*
X146033333Y-127950057D02*
X145985714Y-128045295D01*
X145985714Y-128045295D02*
X145938095Y-128235771D01*
X145938095Y-128235771D02*
X145938095Y-128473866D01*
X145938095Y-128473866D02*
X145985714Y-128664342D01*
X145985714Y-128664342D02*
X146033333Y-128759580D01*
X146033333Y-128759580D02*
X146080952Y-128807200D01*
X146080952Y-128807200D02*
X146176190Y-128854819D01*
X146176190Y-128854819D02*
X146271428Y-128854819D01*
X146271428Y-128854819D02*
X146366666Y-128807200D01*
X146366666Y-128807200D02*
X146414285Y-128759580D01*
X146414285Y-128759580D02*
X146461904Y-128664342D01*
X146461904Y-128664342D02*
X146509523Y-128473866D01*
X146509523Y-128473866D02*
X146509523Y-128235771D01*
X146509523Y-128235771D02*
X146461904Y-128045295D01*
X146461904Y-128045295D02*
X146414285Y-127950057D01*
X146414285Y-127950057D02*
X146366666Y-127902438D01*
X146366666Y-127902438D02*
X146271428Y-127854819D01*
X141959580Y-100033333D02*
X142007200Y-99985714D01*
X142007200Y-99985714D02*
X142054819Y-99842857D01*
X142054819Y-99842857D02*
X142054819Y-99747619D01*
X142054819Y-99747619D02*
X142007200Y-99604762D01*
X142007200Y-99604762D02*
X141911961Y-99509524D01*
X141911961Y-99509524D02*
X141816723Y-99461905D01*
X141816723Y-99461905D02*
X141626247Y-99414286D01*
X141626247Y-99414286D02*
X141483390Y-99414286D01*
X141483390Y-99414286D02*
X141292914Y-99461905D01*
X141292914Y-99461905D02*
X141197676Y-99509524D01*
X141197676Y-99509524D02*
X141102438Y-99604762D01*
X141102438Y-99604762D02*
X141054819Y-99747619D01*
X141054819Y-99747619D02*
X141054819Y-99842857D01*
X141054819Y-99842857D02*
X141102438Y-99985714D01*
X141102438Y-99985714D02*
X141150057Y-100033333D01*
X141054819Y-100366667D02*
X141054819Y-101033333D01*
X141054819Y-101033333D02*
X142054819Y-100604762D01*
X142904761Y-120149942D02*
X142809523Y-120197561D01*
X142809523Y-120197561D02*
X142714285Y-120292800D01*
X142714285Y-120292800D02*
X142571428Y-120435657D01*
X142571428Y-120435657D02*
X142476190Y-120483276D01*
X142476190Y-120483276D02*
X142380952Y-120483276D01*
X142428571Y-120245180D02*
X142333333Y-120292800D01*
X142333333Y-120292800D02*
X142238095Y-120388038D01*
X142238095Y-120388038D02*
X142190476Y-120578514D01*
X142190476Y-120578514D02*
X142190476Y-120911847D01*
X142190476Y-120911847D02*
X142238095Y-121102323D01*
X142238095Y-121102323D02*
X142333333Y-121197561D01*
X142333333Y-121197561D02*
X142428571Y-121245180D01*
X142428571Y-121245180D02*
X142619047Y-121245180D01*
X142619047Y-121245180D02*
X142714285Y-121197561D01*
X142714285Y-121197561D02*
X142809523Y-121102323D01*
X142809523Y-121102323D02*
X142857142Y-120911847D01*
X142857142Y-120911847D02*
X142857142Y-120578514D01*
X142857142Y-120578514D02*
X142809523Y-120388038D01*
X142809523Y-120388038D02*
X142714285Y-120292800D01*
X142714285Y-120292800D02*
X142619047Y-120245180D01*
X142619047Y-120245180D02*
X142428571Y-120245180D01*
X143190476Y-121245180D02*
X143809523Y-121245180D01*
X143809523Y-121245180D02*
X143476190Y-120864228D01*
X143476190Y-120864228D02*
X143619047Y-120864228D01*
X143619047Y-120864228D02*
X143714285Y-120816609D01*
X143714285Y-120816609D02*
X143761904Y-120768990D01*
X143761904Y-120768990D02*
X143809523Y-120673752D01*
X143809523Y-120673752D02*
X143809523Y-120435657D01*
X143809523Y-120435657D02*
X143761904Y-120340419D01*
X143761904Y-120340419D02*
X143714285Y-120292800D01*
X143714285Y-120292800D02*
X143619047Y-120245180D01*
X143619047Y-120245180D02*
X143333333Y-120245180D01*
X143333333Y-120245180D02*
X143238095Y-120292800D01*
X143238095Y-120292800D02*
X143190476Y-120340419D01*
G36*
X158315000Y-111914768D02*
G01*
X157334975Y-111914768D01*
X157334975Y-112317952D01*
X157340054Y-112404032D01*
X157354394Y-112477862D01*
X157376985Y-112541251D01*
X157409696Y-112599540D01*
X157449712Y-112646937D01*
X157497397Y-112684744D01*
X157551683Y-112712286D01*
X157613208Y-112729266D01*
X157683571Y-112735180D01*
X157753967Y-112729253D01*
X157815272Y-112712261D01*
X157869134Y-112684744D01*
X157916314Y-112646964D01*
X157955869Y-112599576D01*
X157988142Y-112541251D01*
X158010328Y-112477904D01*
X158024423Y-112404071D01*
X158029419Y-112317952D01*
X158029419Y-112015580D01*
X157946803Y-112096790D01*
X158315000Y-112096790D01*
X158315000Y-111914768D01*
G37*
G36*
X158315000Y-112555967D02*
G01*
X157959382Y-112308183D01*
X157959382Y-112502783D01*
X158315000Y-112751972D01*
X158315000Y-112555967D01*
G37*
G36*
X157966404Y-112096790D02*
G01*
X157879576Y-112015580D01*
X157879576Y-112309587D01*
X157872902Y-112388369D01*
X157854989Y-112447264D01*
X157827796Y-112490876D01*
X157799877Y-112517131D01*
X157767231Y-112535944D01*
X157728916Y-112547634D01*
X157683571Y-112551754D01*
X157637480Y-112547589D01*
X157599004Y-112535835D01*
X157566655Y-112517021D01*
X157539406Y-112490876D01*
X157512967Y-112447376D01*
X157495492Y-112388487D01*
X157488970Y-112309587D01*
X157488970Y-112015580D01*
X157399394Y-112096790D01*
X157966404Y-112096790D01*
G37*
G36*
X158315000Y-113024486D02*
G01*
X157405012Y-113024486D01*
X157487627Y-113104292D01*
X157487627Y-112817246D01*
X157334975Y-112817246D01*
X157334975Y-113206447D01*
X158315000Y-113206447D01*
X158315000Y-113024486D01*
G37*
G36*
X157946426Y-113407288D02*
G01*
X158034225Y-113424561D01*
X158107821Y-113451483D01*
X158174907Y-113490738D01*
X158229251Y-113539084D01*
X158272318Y-113597113D01*
X158303090Y-113662771D01*
X158322260Y-113738166D01*
X158328982Y-113825297D01*
X158324448Y-113891593D01*
X158311270Y-113951942D01*
X158289781Y-114007258D01*
X158259715Y-114058167D01*
X158222985Y-114100832D01*
X158179200Y-114136096D01*
X158129692Y-114162204D01*
X158074166Y-114178186D01*
X158011222Y-114183723D01*
X157951887Y-114178523D01*
X157899333Y-114163492D01*
X157852281Y-114138905D01*
X157810559Y-114105719D01*
X157775712Y-114065825D01*
X157747318Y-114018493D01*
X157727037Y-113966905D01*
X157714524Y-113909835D01*
X157710193Y-113846302D01*
X157712721Y-113811314D01*
X157853014Y-113811314D01*
X157858486Y-113869469D01*
X157873716Y-113916262D01*
X157897833Y-113954074D01*
X157930862Y-113983403D01*
X157970737Y-114001104D01*
X158019588Y-114007319D01*
X158067484Y-114001008D01*
X158107821Y-113982773D01*
X158141026Y-113953818D01*
X158165950Y-113914873D01*
X158180954Y-113869331D01*
X158186222Y-113815527D01*
X158180274Y-113754170D01*
X158163813Y-113705618D01*
X158137080Y-113665000D01*
X158103607Y-113636314D01*
X158064072Y-113618459D01*
X158020992Y-113612500D01*
X157974454Y-113619081D01*
X157934225Y-113638390D01*
X157900715Y-113668528D01*
X157874752Y-113708366D01*
X157858694Y-113755029D01*
X157853014Y-113811314D01*
X157712721Y-113811314D01*
X157715225Y-113776646D01*
X157729794Y-113713983D01*
X157754438Y-113656726D01*
X157787923Y-113608959D01*
X157814659Y-113584555D01*
X157811004Y-113584473D01*
X157727118Y-113590368D01*
X157658964Y-113606677D01*
X157603683Y-113631960D01*
X157559007Y-113665684D01*
X157522311Y-113708873D01*
X157495852Y-113758925D01*
X157479379Y-113817186D01*
X157473583Y-113885503D01*
X157476257Y-113936510D01*
X157484085Y-113984177D01*
X157498595Y-114029445D01*
X157521210Y-114071677D01*
X157384007Y-114138905D01*
X157356603Y-114087603D01*
X157336441Y-114023378D01*
X157324914Y-113954452D01*
X157320992Y-113881290D01*
X157328007Y-113788582D01*
X157348269Y-113705827D01*
X157381198Y-113631368D01*
X157414605Y-113580370D01*
X157454786Y-113535393D01*
X157502205Y-113495994D01*
X157557602Y-113461986D01*
X157616144Y-113436349D01*
X157682278Y-113417303D01*
X157757084Y-113405311D01*
X157841779Y-113401108D01*
X157946426Y-113407288D01*
G37*
X147066666Y-97559580D02*
X147114285Y-97607200D01*
X147114285Y-97607200D02*
X147257142Y-97654819D01*
X147257142Y-97654819D02*
X147352380Y-97654819D01*
X147352380Y-97654819D02*
X147495237Y-97607200D01*
X147495237Y-97607200D02*
X147590475Y-97511961D01*
X147590475Y-97511961D02*
X147638094Y-97416723D01*
X147638094Y-97416723D02*
X147685713Y-97226247D01*
X147685713Y-97226247D02*
X147685713Y-97083390D01*
X147685713Y-97083390D02*
X147638094Y-96892914D01*
X147638094Y-96892914D02*
X147590475Y-96797676D01*
X147590475Y-96797676D02*
X147495237Y-96702438D01*
X147495237Y-96702438D02*
X147352380Y-96654819D01*
X147352380Y-96654819D02*
X147257142Y-96654819D01*
X147257142Y-96654819D02*
X147114285Y-96702438D01*
X147114285Y-96702438D02*
X147066666Y-96750057D01*
X146209523Y-96654819D02*
X146399999Y-96654819D01*
X146399999Y-96654819D02*
X146495237Y-96702438D01*
X146495237Y-96702438D02*
X146542856Y-96750057D01*
X146542856Y-96750057D02*
X146638094Y-96892914D01*
X146638094Y-96892914D02*
X146685713Y-97083390D01*
X146685713Y-97083390D02*
X146685713Y-97464342D01*
X146685713Y-97464342D02*
X146638094Y-97559580D01*
X146638094Y-97559580D02*
X146590475Y-97607200D01*
X146590475Y-97607200D02*
X146495237Y-97654819D01*
X146495237Y-97654819D02*
X146304761Y-97654819D01*
X146304761Y-97654819D02*
X146209523Y-97607200D01*
X146209523Y-97607200D02*
X146161904Y-97559580D01*
X146161904Y-97559580D02*
X146114285Y-97464342D01*
X146114285Y-97464342D02*
X146114285Y-97226247D01*
X146114285Y-97226247D02*
X146161904Y-97131009D01*
X146161904Y-97131009D02*
X146209523Y-97083390D01*
X146209523Y-97083390D02*
X146304761Y-97035771D01*
X146304761Y-97035771D02*
X146495237Y-97035771D01*
X146495237Y-97035771D02*
X146590475Y-97083390D01*
X146590475Y-97083390D02*
X146638094Y-97131009D01*
X146638094Y-97131009D02*
X146685713Y-97226247D01*
G36*
X158415000Y-122515117D02*
G01*
X157434975Y-122515117D01*
X157434975Y-122918301D01*
X157440054Y-123004381D01*
X157454394Y-123078211D01*
X157476985Y-123141600D01*
X157509696Y-123199889D01*
X157549712Y-123247286D01*
X157597397Y-123285093D01*
X157651683Y-123312635D01*
X157713208Y-123329615D01*
X157783571Y-123335529D01*
X157853967Y-123329602D01*
X157915272Y-123312610D01*
X157969134Y-123285093D01*
X158016314Y-123247313D01*
X158055869Y-123199925D01*
X158088142Y-123141600D01*
X158110328Y-123078253D01*
X158124423Y-123004420D01*
X158129419Y-122918301D01*
X158129419Y-122615929D01*
X158046803Y-122697139D01*
X158415000Y-122697139D01*
X158415000Y-122515117D01*
G37*
G36*
X158415000Y-123156316D02*
G01*
X158059382Y-122908532D01*
X158059382Y-123103132D01*
X158415000Y-123352321D01*
X158415000Y-123156316D01*
G37*
G36*
X158066404Y-122697139D02*
G01*
X157979576Y-122615929D01*
X157979576Y-122909936D01*
X157972902Y-122988718D01*
X157954989Y-123047613D01*
X157927796Y-123091225D01*
X157899877Y-123117480D01*
X157867231Y-123136293D01*
X157828916Y-123147983D01*
X157783571Y-123152103D01*
X157737480Y-123147938D01*
X157699004Y-123136184D01*
X157666655Y-123117370D01*
X157639406Y-123091225D01*
X157612967Y-123047725D01*
X157595492Y-122988836D01*
X157588970Y-122909936D01*
X157588970Y-122615929D01*
X157499394Y-122697139D01*
X158066404Y-122697139D01*
G37*
G36*
X158428982Y-123769182D02*
G01*
X158421450Y-123666737D01*
X158398879Y-123566827D01*
X158375425Y-123502638D01*
X158347577Y-123447724D01*
X158315593Y-123400986D01*
X158174176Y-123479388D01*
X158212714Y-123536933D01*
X158244213Y-123608165D01*
X158264085Y-123685222D01*
X158270774Y-123766373D01*
X158265715Y-123830684D01*
X158251959Y-123880530D01*
X158230901Y-123918964D01*
X158200935Y-123949430D01*
X158165394Y-123967351D01*
X158122397Y-123973552D01*
X158080077Y-123967765D01*
X158045234Y-123951139D01*
X158016029Y-123923177D01*
X157995961Y-123887212D01*
X157982142Y-123834906D01*
X157976828Y-123760756D01*
X157976828Y-123671180D01*
X157852203Y-123671180D01*
X157518995Y-123951204D01*
X157587627Y-123974957D01*
X157587627Y-123448552D01*
X157434975Y-123448552D01*
X157434975Y-124116373D01*
X157556791Y-124116373D01*
X157890000Y-123836410D01*
X157834007Y-123741155D01*
X157834007Y-123795805D01*
X157839963Y-123887331D01*
X157856332Y-123960913D01*
X157881455Y-124019809D01*
X157914546Y-124066670D01*
X157957782Y-124106294D01*
X158005850Y-124134162D01*
X158059757Y-124151117D01*
X158120992Y-124156979D01*
X158174908Y-124152269D01*
X158225518Y-124138322D01*
X158273644Y-124114969D01*
X158316272Y-124082981D01*
X158353763Y-124040804D01*
X158386301Y-123986864D01*
X158409011Y-123927919D01*
X158423690Y-123856211D01*
X158428982Y-123769182D01*
G37*
G36*
X158428982Y-124586113D02*
G01*
X158421449Y-124483676D01*
X158398879Y-124383819D01*
X158375427Y-124319629D01*
X158347580Y-124264693D01*
X158315593Y-124217917D01*
X158174176Y-124294915D01*
X158212675Y-124352563D01*
X158244213Y-124424425D01*
X158264100Y-124502104D01*
X158270774Y-124583305D01*
X158265681Y-124646596D01*
X158251740Y-124696299D01*
X158230230Y-124735224D01*
X158199767Y-124766163D01*
X158163965Y-124784294D01*
X158120992Y-124790545D01*
X158077086Y-124784618D01*
X158039781Y-124767403D01*
X158019520Y-124749515D01*
X158001712Y-124723197D01*
X157986598Y-124686192D01*
X157973577Y-124622686D01*
X157968401Y-124527312D01*
X157968401Y-124290702D01*
X157434975Y-124341138D01*
X157434975Y-124916513D01*
X157587627Y-124916513D01*
X157587627Y-124408305D01*
X157500799Y-124503498D01*
X157899769Y-124465702D01*
X157814406Y-124370508D01*
X157814406Y-124567917D01*
X157819340Y-124664870D01*
X157832752Y-124741856D01*
X157852936Y-124802391D01*
X157883050Y-124858167D01*
X157918470Y-124900898D01*
X157959303Y-124932572D01*
X158006086Y-124955321D01*
X158057300Y-124969158D01*
X158113970Y-124973910D01*
X158169771Y-124969172D01*
X158221777Y-124955194D01*
X158270835Y-124931900D01*
X158314380Y-124899872D01*
X158352570Y-124857680D01*
X158385629Y-124803795D01*
X158408709Y-124744807D01*
X158423612Y-124673101D01*
X158428982Y-124586113D01*
G37*
G36*
X142137621Y-93528982D02*
G01*
X142219120Y-93523894D01*
X142290028Y-93509417D01*
X142351894Y-93486391D01*
X142406012Y-93455168D01*
X142453366Y-93415593D01*
X142492708Y-93368698D01*
X142524035Y-93313884D01*
X142547367Y-93249931D01*
X142562178Y-93175262D01*
X142567427Y-93088002D01*
X142567427Y-92534975D01*
X142385466Y-92534975D01*
X142385466Y-93080980D01*
X142380515Y-93158122D01*
X142367083Y-93218387D01*
X142346773Y-93265059D01*
X142320375Y-93300799D01*
X142285779Y-93329913D01*
X142244532Y-93351180D01*
X142195298Y-93364596D01*
X142136277Y-93369370D01*
X142077208Y-93364584D01*
X142028096Y-93351151D01*
X141987099Y-93329886D01*
X141952851Y-93300799D01*
X141926753Y-93265107D01*
X141906648Y-93218457D01*
X141893340Y-93158177D01*
X141888432Y-93080980D01*
X141888432Y-92534975D01*
X141709219Y-92534975D01*
X141709219Y-93088002D01*
X141714470Y-93175258D01*
X141729288Y-93249926D01*
X141752632Y-93313878D01*
X141783975Y-93368694D01*
X141823341Y-93415593D01*
X141870720Y-93455223D01*
X141924730Y-93486456D01*
X141986332Y-93509461D01*
X142056790Y-93523909D01*
X142137621Y-93528982D01*
G37*
G36*
X141260024Y-92525493D02*
G01*
X141320198Y-92538641D01*
X141376010Y-92560193D01*
X141427398Y-92590256D01*
X141470268Y-92626777D01*
X141505520Y-92670102D01*
X141531518Y-92719204D01*
X141547516Y-92774935D01*
X141553086Y-92838813D01*
X141547888Y-92898108D01*
X141532857Y-92950642D01*
X141508268Y-92997693D01*
X141475052Y-93039376D01*
X141434947Y-93074250D01*
X141387184Y-93102718D01*
X141335142Y-93123027D01*
X141278263Y-93135490D01*
X141215665Y-93139781D01*
X141144873Y-93134710D01*
X141082675Y-93120181D01*
X141025881Y-93095614D01*
X140977711Y-93062112D01*
X140953960Y-93036191D01*
X140953898Y-93038970D01*
X140959791Y-93122855D01*
X140976099Y-93191020D01*
X141001382Y-93246323D01*
X141035108Y-93291029D01*
X141078264Y-93327694D01*
X141128293Y-93354134D01*
X141186544Y-93370598D01*
X141254866Y-93376392D01*
X141304744Y-93373746D01*
X141352868Y-93365889D01*
X141398758Y-93351358D01*
X141441040Y-93328825D01*
X141508268Y-93466029D01*
X141455915Y-93493523D01*
X141392069Y-93513595D01*
X141323730Y-93525067D01*
X141250653Y-93528982D01*
X141157049Y-93521933D01*
X141074127Y-93501639D01*
X141000121Y-93468777D01*
X140949431Y-93435399D01*
X140904660Y-93395233D01*
X140865378Y-93347807D01*
X140831410Y-93292372D01*
X140805746Y-93233828D01*
X140786681Y-93167692D01*
X140774678Y-93092888D01*
X140770471Y-93008196D01*
X140776659Y-92903552D01*
X140791352Y-92828982D01*
X140981863Y-92828982D01*
X140988221Y-92874516D01*
X141007082Y-92915139D01*
X141036855Y-92949127D01*
X141077118Y-92975345D01*
X141124304Y-92991373D01*
X141180677Y-92997021D01*
X141238833Y-92991551D01*
X141285648Y-92976322D01*
X141323498Y-92952203D01*
X141352793Y-92919141D01*
X141370474Y-92879244D01*
X141376682Y-92830387D01*
X141370322Y-92781431D01*
X141352197Y-92741543D01*
X141323254Y-92708891D01*
X141284297Y-92684146D01*
X141238699Y-92669095D01*
X141184890Y-92663813D01*
X141122396Y-92669816D01*
X141074309Y-92686222D01*
X141034200Y-92712737D01*
X141005677Y-92745696D01*
X140987884Y-92784844D01*
X140981863Y-92828982D01*
X140791352Y-92828982D01*
X140793954Y-92815775D01*
X140820907Y-92742215D01*
X140860092Y-92675045D01*
X140908204Y-92620710D01*
X140965805Y-92577718D01*
X141031017Y-92546982D01*
X141106587Y-92527759D01*
X141194660Y-92520992D01*
X141260024Y-92525493D01*
G37*
X161524819Y-107733333D02*
X161048628Y-107400000D01*
X161524819Y-107161905D02*
X160524819Y-107161905D01*
X160524819Y-107161905D02*
X160524819Y-107542857D01*
X160524819Y-107542857D02*
X160572438Y-107638095D01*
X160572438Y-107638095D02*
X160620057Y-107685714D01*
X160620057Y-107685714D02*
X160715295Y-107733333D01*
X160715295Y-107733333D02*
X160858152Y-107733333D01*
X160858152Y-107733333D02*
X160953390Y-107685714D01*
X160953390Y-107685714D02*
X161001009Y-107638095D01*
X161001009Y-107638095D02*
X161048628Y-107542857D01*
X161048628Y-107542857D02*
X161048628Y-107161905D01*
X160620057Y-108114286D02*
X160572438Y-108161905D01*
X160572438Y-108161905D02*
X160524819Y-108257143D01*
X160524819Y-108257143D02*
X160524819Y-108495238D01*
X160524819Y-108495238D02*
X160572438Y-108590476D01*
X160572438Y-108590476D02*
X160620057Y-108638095D01*
X160620057Y-108638095D02*
X160715295Y-108685714D01*
X160715295Y-108685714D02*
X160810533Y-108685714D01*
X160810533Y-108685714D02*
X160953390Y-108638095D01*
X160953390Y-108638095D02*
X161524819Y-108066667D01*
X161524819Y-108066667D02*
X161524819Y-108685714D01*
X153604761Y-123349942D02*
X153509523Y-123397561D01*
X153509523Y-123397561D02*
X153414285Y-123492800D01*
X153414285Y-123492800D02*
X153271428Y-123635657D01*
X153271428Y-123635657D02*
X153176190Y-123683276D01*
X153176190Y-123683276D02*
X153080952Y-123683276D01*
X153128571Y-123445180D02*
X153033333Y-123492800D01*
X153033333Y-123492800D02*
X152938095Y-123588038D01*
X152938095Y-123588038D02*
X152890476Y-123778514D01*
X152890476Y-123778514D02*
X152890476Y-124111847D01*
X152890476Y-124111847D02*
X152938095Y-124302323D01*
X152938095Y-124302323D02*
X153033333Y-124397561D01*
X153033333Y-124397561D02*
X153128571Y-124445180D01*
X153128571Y-124445180D02*
X153319047Y-124445180D01*
X153319047Y-124445180D02*
X153414285Y-124397561D01*
X153414285Y-124397561D02*
X153509523Y-124302323D01*
X153509523Y-124302323D02*
X153557142Y-124111847D01*
X153557142Y-124111847D02*
X153557142Y-123778514D01*
X153557142Y-123778514D02*
X153509523Y-123588038D01*
X153509523Y-123588038D02*
X153414285Y-123492800D01*
X153414285Y-123492800D02*
X153319047Y-123445180D01*
X153319047Y-123445180D02*
X153128571Y-123445180D01*
X153938095Y-124349942D02*
X153985714Y-124397561D01*
X153985714Y-124397561D02*
X154080952Y-124445180D01*
X154080952Y-124445180D02*
X154319047Y-124445180D01*
X154319047Y-124445180D02*
X154414285Y-124397561D01*
X154414285Y-124397561D02*
X154461904Y-124349942D01*
X154461904Y-124349942D02*
X154509523Y-124254704D01*
X154509523Y-124254704D02*
X154509523Y-124159466D01*
X154509523Y-124159466D02*
X154461904Y-124016609D01*
X154461904Y-124016609D02*
X153890476Y-123445180D01*
X153890476Y-123445180D02*
X154509523Y-123445180D01*
X144859580Y-101933333D02*
X144907200Y-101885714D01*
X144907200Y-101885714D02*
X144954819Y-101742857D01*
X144954819Y-101742857D02*
X144954819Y-101647619D01*
X144954819Y-101647619D02*
X144907200Y-101504762D01*
X144907200Y-101504762D02*
X144811961Y-101409524D01*
X144811961Y-101409524D02*
X144716723Y-101361905D01*
X144716723Y-101361905D02*
X144526247Y-101314286D01*
X144526247Y-101314286D02*
X144383390Y-101314286D01*
X144383390Y-101314286D02*
X144192914Y-101361905D01*
X144192914Y-101361905D02*
X144097676Y-101409524D01*
X144097676Y-101409524D02*
X144002438Y-101504762D01*
X144002438Y-101504762D02*
X143954819Y-101647619D01*
X143954819Y-101647619D02*
X143954819Y-101742857D01*
X143954819Y-101742857D02*
X144002438Y-101885714D01*
X144002438Y-101885714D02*
X144050057Y-101933333D01*
X144383390Y-102504762D02*
X144335771Y-102409524D01*
X144335771Y-102409524D02*
X144288152Y-102361905D01*
X144288152Y-102361905D02*
X144192914Y-102314286D01*
X144192914Y-102314286D02*
X144145295Y-102314286D01*
X144145295Y-102314286D02*
X144050057Y-102361905D01*
X144050057Y-102361905D02*
X144002438Y-102409524D01*
X144002438Y-102409524D02*
X143954819Y-102504762D01*
X143954819Y-102504762D02*
X143954819Y-102695238D01*
X143954819Y-102695238D02*
X144002438Y-102790476D01*
X144002438Y-102790476D02*
X144050057Y-102838095D01*
X144050057Y-102838095D02*
X144145295Y-102885714D01*
X144145295Y-102885714D02*
X144192914Y-102885714D01*
X144192914Y-102885714D02*
X144288152Y-102838095D01*
X144288152Y-102838095D02*
X144335771Y-102790476D01*
X144335771Y-102790476D02*
X144383390Y-102695238D01*
X144383390Y-102695238D02*
X144383390Y-102504762D01*
X144383390Y-102504762D02*
X144431009Y-102409524D01*
X144431009Y-102409524D02*
X144478628Y-102361905D01*
X144478628Y-102361905D02*
X144573866Y-102314286D01*
X144573866Y-102314286D02*
X144764342Y-102314286D01*
X144764342Y-102314286D02*
X144859580Y-102361905D01*
X144859580Y-102361905D02*
X144907200Y-102409524D01*
X144907200Y-102409524D02*
X144954819Y-102504762D01*
X144954819Y-102504762D02*
X144954819Y-102695238D01*
X144954819Y-102695238D02*
X144907200Y-102790476D01*
X144907200Y-102790476D02*
X144859580Y-102838095D01*
X144859580Y-102838095D02*
X144764342Y-102885714D01*
X144764342Y-102885714D02*
X144573866Y-102885714D01*
X144573866Y-102885714D02*
X144478628Y-102838095D01*
X144478628Y-102838095D02*
X144431009Y-102790476D01*
X144431009Y-102790476D02*
X144383390Y-102695238D01*
X139759580Y-109357142D02*
X139807200Y-109309523D01*
X139807200Y-109309523D02*
X139854819Y-109166666D01*
X139854819Y-109166666D02*
X139854819Y-109071428D01*
X139854819Y-109071428D02*
X139807200Y-108928571D01*
X139807200Y-108928571D02*
X139711961Y-108833333D01*
X139711961Y-108833333D02*
X139616723Y-108785714D01*
X139616723Y-108785714D02*
X139426247Y-108738095D01*
X139426247Y-108738095D02*
X139283390Y-108738095D01*
X139283390Y-108738095D02*
X139092914Y-108785714D01*
X139092914Y-108785714D02*
X138997676Y-108833333D01*
X138997676Y-108833333D02*
X138902438Y-108928571D01*
X138902438Y-108928571D02*
X138854819Y-109071428D01*
X138854819Y-109071428D02*
X138854819Y-109166666D01*
X138854819Y-109166666D02*
X138902438Y-109309523D01*
X138902438Y-109309523D02*
X138950057Y-109357142D01*
X139854819Y-110309523D02*
X139854819Y-109738095D01*
X139854819Y-110023809D02*
X138854819Y-110023809D01*
X138854819Y-110023809D02*
X138997676Y-109928571D01*
X138997676Y-109928571D02*
X139092914Y-109833333D01*
X139092914Y-109833333D02*
X139140533Y-109738095D01*
X139188152Y-111166666D02*
X139854819Y-111166666D01*
X138807200Y-110928571D02*
X139521485Y-110690476D01*
X139521485Y-110690476D02*
X139521485Y-111309523D01*
X148966666Y-100559580D02*
X149014285Y-100607200D01*
X149014285Y-100607200D02*
X149157142Y-100654819D01*
X149157142Y-100654819D02*
X149252380Y-100654819D01*
X149252380Y-100654819D02*
X149395237Y-100607200D01*
X149395237Y-100607200D02*
X149490475Y-100511961D01*
X149490475Y-100511961D02*
X149538094Y-100416723D01*
X149538094Y-100416723D02*
X149585713Y-100226247D01*
X149585713Y-100226247D02*
X149585713Y-100083390D01*
X149585713Y-100083390D02*
X149538094Y-99892914D01*
X149538094Y-99892914D02*
X149490475Y-99797676D01*
X149490475Y-99797676D02*
X149395237Y-99702438D01*
X149395237Y-99702438D02*
X149252380Y-99654819D01*
X149252380Y-99654819D02*
X149157142Y-99654819D01*
X149157142Y-99654819D02*
X149014285Y-99702438D01*
X149014285Y-99702438D02*
X148966666Y-99750057D01*
X148633332Y-99654819D02*
X148014285Y-99654819D01*
X148014285Y-99654819D02*
X148347618Y-100035771D01*
X148347618Y-100035771D02*
X148204761Y-100035771D01*
X148204761Y-100035771D02*
X148109523Y-100083390D01*
X148109523Y-100083390D02*
X148061904Y-100131009D01*
X148061904Y-100131009D02*
X148014285Y-100226247D01*
X148014285Y-100226247D02*
X148014285Y-100464342D01*
X148014285Y-100464342D02*
X148061904Y-100559580D01*
X148061904Y-100559580D02*
X148109523Y-100607200D01*
X148109523Y-100607200D02*
X148204761Y-100654819D01*
X148204761Y-100654819D02*
X148490475Y-100654819D01*
X148490475Y-100654819D02*
X148585713Y-100607200D01*
X148585713Y-100607200D02*
X148633332Y-100559580D01*
G36*
X145465945Y-90628982D02*
G01*
X145539890Y-90624739D01*
X145608974Y-90612301D01*
X145673856Y-90591919D01*
X145735502Y-90563462D01*
X145790828Y-90528499D01*
X145840430Y-90486894D01*
X145883974Y-90439025D01*
X145920530Y-90385774D01*
X145950339Y-90326610D01*
X145971902Y-90263954D01*
X145985050Y-90196995D01*
X145989540Y-90124987D01*
X145985051Y-90053021D01*
X145971903Y-89986081D01*
X145950339Y-89923426D01*
X145920477Y-89864265D01*
X145883705Y-89810994D01*
X145839758Y-89763080D01*
X145789764Y-89721413D01*
X145734421Y-89686480D01*
X145673185Y-89658117D01*
X145608724Y-89637752D01*
X145539420Y-89625269D01*
X145464540Y-89620992D01*
X145385105Y-89625770D01*
X145312148Y-89639679D01*
X145244783Y-89662330D01*
X145181692Y-89694432D01*
X145125920Y-89735113D01*
X145076744Y-89784818D01*
X145194347Y-89895399D01*
X145251317Y-89844725D01*
X145313354Y-89809303D01*
X145381363Y-89787902D01*
X145456175Y-89780605D01*
X145530857Y-89787092D01*
X145596859Y-89805823D01*
X145656610Y-89836416D01*
X145707440Y-89877203D01*
X145748946Y-89927396D01*
X145780285Y-89986441D01*
X145799535Y-90051663D01*
X145806175Y-90124987D01*
X145799536Y-90198320D01*
X145780285Y-90263595D01*
X145748946Y-90322640D01*
X145707440Y-90372833D01*
X145656617Y-90413585D01*
X145596859Y-90444213D01*
X145530860Y-90462897D01*
X145456175Y-90469370D01*
X145381363Y-90462072D01*
X145313354Y-90440671D01*
X145271475Y-90418570D01*
X145231891Y-90389607D01*
X145194347Y-90353171D01*
X145076744Y-90465218D01*
X145125804Y-90514126D01*
X145181577Y-90554610D01*
X145244783Y-90587034D01*
X145312189Y-90609991D01*
X145385593Y-90624119D01*
X145465945Y-90628982D01*
G37*
G36*
X144991991Y-90615000D02*
G01*
X144991991Y-90493183D01*
X144602790Y-90123583D01*
X144557894Y-90077764D01*
X144530006Y-90042433D01*
X144509589Y-90007300D01*
X144498499Y-89977281D01*
X144490744Y-89920617D01*
X144496191Y-89878014D01*
X144511589Y-89843927D01*
X144536967Y-89816325D01*
X144569872Y-89796841D01*
X144614037Y-89783985D01*
X144672766Y-89779200D01*
X144741784Y-89785692D01*
X144802276Y-89804419D01*
X144856005Y-89835997D01*
X144902354Y-89881416D01*
X145029788Y-89783414D01*
X144987761Y-89736516D01*
X144936603Y-89696691D01*
X144875121Y-89663735D01*
X144808994Y-89640350D01*
X144736747Y-89625953D01*
X144657379Y-89620992D01*
X144587058Y-89625094D01*
X144525640Y-89636766D01*
X144471876Y-89655308D01*
X144422110Y-89682072D01*
X144381913Y-89714456D01*
X144350060Y-89752639D01*
X144326708Y-89796370D01*
X144312365Y-89845853D01*
X144307379Y-89902421D01*
X144310508Y-89949703D01*
X144319957Y-89996882D01*
X144337378Y-90043394D01*
X144367585Y-90095617D01*
X144407966Y-90147525D01*
X144469739Y-90211816D01*
X144804352Y-90529576D01*
X144842148Y-90461004D01*
X144269582Y-90461004D01*
X144269582Y-90615000D01*
X144991991Y-90615000D01*
G37*
G36*
X143899522Y-89625493D02*
G01*
X143959696Y-89638641D01*
X144015508Y-89660193D01*
X144066896Y-89690256D01*
X144109767Y-89726777D01*
X144145018Y-89770102D01*
X144171016Y-89819204D01*
X144187014Y-89874935D01*
X144192585Y-89938813D01*
X144187386Y-89998108D01*
X144172355Y-90050642D01*
X144147766Y-90097693D01*
X144114550Y-90139376D01*
X144074445Y-90174250D01*
X144026683Y-90202718D01*
X143974641Y-90223027D01*
X143917761Y-90235490D01*
X143855163Y-90239781D01*
X143784371Y-90234710D01*
X143722173Y-90220181D01*
X143665379Y-90195614D01*
X143617209Y-90162112D01*
X143593458Y-90136191D01*
X143593396Y-90138970D01*
X143599289Y-90222855D01*
X143615597Y-90291020D01*
X143640880Y-90346323D01*
X143674607Y-90391029D01*
X143717762Y-90427694D01*
X143767792Y-90454134D01*
X143826042Y-90470598D01*
X143894364Y-90476392D01*
X143944242Y-90473746D01*
X143992366Y-90465889D01*
X144038256Y-90451358D01*
X144080538Y-90428825D01*
X144147766Y-90566029D01*
X144095413Y-90593523D01*
X144031567Y-90613595D01*
X143963228Y-90625067D01*
X143890151Y-90628982D01*
X143796548Y-90621933D01*
X143713625Y-90601639D01*
X143639619Y-90568777D01*
X143588929Y-90535399D01*
X143544158Y-90495233D01*
X143504876Y-90447807D01*
X143470908Y-90392372D01*
X143445244Y-90333828D01*
X143426179Y-90267692D01*
X143414176Y-90192888D01*
X143409969Y-90108196D01*
X143416157Y-90003552D01*
X143430850Y-89928982D01*
X143621362Y-89928982D01*
X143627719Y-89974516D01*
X143646580Y-90015139D01*
X143676353Y-90049127D01*
X143716616Y-90075345D01*
X143763802Y-90091373D01*
X143820175Y-90097021D01*
X143878331Y-90091551D01*
X143925146Y-90076322D01*
X143962996Y-90052203D01*
X143992291Y-90019141D01*
X144009972Y-89979244D01*
X144016180Y-89930387D01*
X144009820Y-89881431D01*
X143991695Y-89841543D01*
X143962752Y-89808891D01*
X143923795Y-89784146D01*
X143878197Y-89769095D01*
X143824388Y-89763813D01*
X143761894Y-89769816D01*
X143713808Y-89786222D01*
X143673698Y-89812737D01*
X143645175Y-89845696D01*
X143627383Y-89884844D01*
X143621362Y-89928982D01*
X143430850Y-89928982D01*
X143433452Y-89915775D01*
X143460406Y-89842215D01*
X143499590Y-89775045D01*
X143547703Y-89720710D01*
X143605303Y-89677718D01*
X143670515Y-89646982D01*
X143746085Y-89627759D01*
X143834158Y-89620992D01*
X143899522Y-89625493D01*
G37*
X149666666Y-75454819D02*
X149999999Y-74978628D01*
X150238094Y-75454819D02*
X150238094Y-74454819D01*
X150238094Y-74454819D02*
X149857142Y-74454819D01*
X149857142Y-74454819D02*
X149761904Y-74502438D01*
X149761904Y-74502438D02*
X149714285Y-74550057D01*
X149714285Y-74550057D02*
X149666666Y-74645295D01*
X149666666Y-74645295D02*
X149666666Y-74788152D01*
X149666666Y-74788152D02*
X149714285Y-74883390D01*
X149714285Y-74883390D02*
X149761904Y-74931009D01*
X149761904Y-74931009D02*
X149857142Y-74978628D01*
X149857142Y-74978628D02*
X150238094Y-74978628D01*
X149095237Y-74883390D02*
X149190475Y-74835771D01*
X149190475Y-74835771D02*
X149238094Y-74788152D01*
X149238094Y-74788152D02*
X149285713Y-74692914D01*
X149285713Y-74692914D02*
X149285713Y-74645295D01*
X149285713Y-74645295D02*
X149238094Y-74550057D01*
X149238094Y-74550057D02*
X149190475Y-74502438D01*
X149190475Y-74502438D02*
X149095237Y-74454819D01*
X149095237Y-74454819D02*
X148904761Y-74454819D01*
X148904761Y-74454819D02*
X148809523Y-74502438D01*
X148809523Y-74502438D02*
X148761904Y-74550057D01*
X148761904Y-74550057D02*
X148714285Y-74645295D01*
X148714285Y-74645295D02*
X148714285Y-74692914D01*
X148714285Y-74692914D02*
X148761904Y-74788152D01*
X148761904Y-74788152D02*
X148809523Y-74835771D01*
X148809523Y-74835771D02*
X148904761Y-74883390D01*
X148904761Y-74883390D02*
X149095237Y-74883390D01*
X149095237Y-74883390D02*
X149190475Y-74931009D01*
X149190475Y-74931009D02*
X149238094Y-74978628D01*
X149238094Y-74978628D02*
X149285713Y-75073866D01*
X149285713Y-75073866D02*
X149285713Y-75264342D01*
X149285713Y-75264342D02*
X149238094Y-75359580D01*
X149238094Y-75359580D02*
X149190475Y-75407200D01*
X149190475Y-75407200D02*
X149095237Y-75454819D01*
X149095237Y-75454819D02*
X148904761Y-75454819D01*
X148904761Y-75454819D02*
X148809523Y-75407200D01*
X148809523Y-75407200D02*
X148761904Y-75359580D01*
X148761904Y-75359580D02*
X148714285Y-75264342D01*
X148714285Y-75264342D02*
X148714285Y-75073866D01*
X148714285Y-75073866D02*
X148761904Y-74978628D01*
X148761904Y-74978628D02*
X148809523Y-74931009D01*
X148809523Y-74931009D02*
X148904761Y-74883390D01*
X162654819Y-103438095D02*
X163464342Y-103438095D01*
X163464342Y-103438095D02*
X163559580Y-103485714D01*
X163559580Y-103485714D02*
X163607200Y-103533333D01*
X163607200Y-103533333D02*
X163654819Y-103628571D01*
X163654819Y-103628571D02*
X163654819Y-103819047D01*
X163654819Y-103819047D02*
X163607200Y-103914285D01*
X163607200Y-103914285D02*
X163559580Y-103961904D01*
X163559580Y-103961904D02*
X163464342Y-104009523D01*
X163464342Y-104009523D02*
X162654819Y-104009523D01*
X163654819Y-105009523D02*
X163654819Y-104438095D01*
X163654819Y-104723809D02*
X162654819Y-104723809D01*
X162654819Y-104723809D02*
X162797676Y-104628571D01*
X162797676Y-104628571D02*
X162892914Y-104533333D01*
X162892914Y-104533333D02*
X162940533Y-104438095D01*
X141842857Y-124954819D02*
X142176190Y-124478628D01*
X142414285Y-124954819D02*
X142414285Y-123954819D01*
X142414285Y-123954819D02*
X142033333Y-123954819D01*
X142033333Y-123954819D02*
X141938095Y-124002438D01*
X141938095Y-124002438D02*
X141890476Y-124050057D01*
X141890476Y-124050057D02*
X141842857Y-124145295D01*
X141842857Y-124145295D02*
X141842857Y-124288152D01*
X141842857Y-124288152D02*
X141890476Y-124383390D01*
X141890476Y-124383390D02*
X141938095Y-124431009D01*
X141938095Y-124431009D02*
X142033333Y-124478628D01*
X142033333Y-124478628D02*
X142414285Y-124478628D01*
X141461904Y-124050057D02*
X141414285Y-124002438D01*
X141414285Y-124002438D02*
X141319047Y-123954819D01*
X141319047Y-123954819D02*
X141080952Y-123954819D01*
X141080952Y-123954819D02*
X140985714Y-124002438D01*
X140985714Y-124002438D02*
X140938095Y-124050057D01*
X140938095Y-124050057D02*
X140890476Y-124145295D01*
X140890476Y-124145295D02*
X140890476Y-124240533D01*
X140890476Y-124240533D02*
X140938095Y-124383390D01*
X140938095Y-124383390D02*
X141509523Y-124954819D01*
X141509523Y-124954819D02*
X140890476Y-124954819D01*
X140414285Y-124954819D02*
X140223809Y-124954819D01*
X140223809Y-124954819D02*
X140128571Y-124907200D01*
X140128571Y-124907200D02*
X140080952Y-124859580D01*
X140080952Y-124859580D02*
X139985714Y-124716723D01*
X139985714Y-124716723D02*
X139938095Y-124526247D01*
X139938095Y-124526247D02*
X139938095Y-124145295D01*
X139938095Y-124145295D02*
X139985714Y-124050057D01*
X139985714Y-124050057D02*
X140033333Y-124002438D01*
X140033333Y-124002438D02*
X140128571Y-123954819D01*
X140128571Y-123954819D02*
X140319047Y-123954819D01*
X140319047Y-123954819D02*
X140414285Y-124002438D01*
X140414285Y-124002438D02*
X140461904Y-124050057D01*
X140461904Y-124050057D02*
X140509523Y-124145295D01*
X140509523Y-124145295D02*
X140509523Y-124383390D01*
X140509523Y-124383390D02*
X140461904Y-124478628D01*
X140461904Y-124478628D02*
X140414285Y-124526247D01*
X140414285Y-124526247D02*
X140319047Y-124573866D01*
X140319047Y-124573866D02*
X140128571Y-124573866D01*
X140128571Y-124573866D02*
X140033333Y-124526247D01*
X140033333Y-124526247D02*
X139985714Y-124478628D01*
X139985714Y-124478628D02*
X139938095Y-124383390D01*
X147066666Y-76954819D02*
X147399999Y-76478628D01*
X147638094Y-76954819D02*
X147638094Y-75954819D01*
X147638094Y-75954819D02*
X147257142Y-75954819D01*
X147257142Y-75954819D02*
X147161904Y-76002438D01*
X147161904Y-76002438D02*
X147114285Y-76050057D01*
X147114285Y-76050057D02*
X147066666Y-76145295D01*
X147066666Y-76145295D02*
X147066666Y-76288152D01*
X147066666Y-76288152D02*
X147114285Y-76383390D01*
X147114285Y-76383390D02*
X147161904Y-76431009D01*
X147161904Y-76431009D02*
X147257142Y-76478628D01*
X147257142Y-76478628D02*
X147638094Y-76478628D01*
X146590475Y-76954819D02*
X146399999Y-76954819D01*
X146399999Y-76954819D02*
X146304761Y-76907200D01*
X146304761Y-76907200D02*
X146257142Y-76859580D01*
X146257142Y-76859580D02*
X146161904Y-76716723D01*
X146161904Y-76716723D02*
X146114285Y-76526247D01*
X146114285Y-76526247D02*
X146114285Y-76145295D01*
X146114285Y-76145295D02*
X146161904Y-76050057D01*
X146161904Y-76050057D02*
X146209523Y-76002438D01*
X146209523Y-76002438D02*
X146304761Y-75954819D01*
X146304761Y-75954819D02*
X146495237Y-75954819D01*
X146495237Y-75954819D02*
X146590475Y-76002438D01*
X146590475Y-76002438D02*
X146638094Y-76050057D01*
X146638094Y-76050057D02*
X146685713Y-76145295D01*
X146685713Y-76145295D02*
X146685713Y-76383390D01*
X146685713Y-76383390D02*
X146638094Y-76478628D01*
X146638094Y-76478628D02*
X146590475Y-76526247D01*
X146590475Y-76526247D02*
X146495237Y-76573866D01*
X146495237Y-76573866D02*
X146304761Y-76573866D01*
X146304761Y-76573866D02*
X146209523Y-76526247D01*
X146209523Y-76526247D02*
X146161904Y-76478628D01*
X146161904Y-76478628D02*
X146114285Y-76383390D01*
X153166666Y-101289580D02*
X153214285Y-101337200D01*
X153214285Y-101337200D02*
X153357142Y-101384819D01*
X153357142Y-101384819D02*
X153452380Y-101384819D01*
X153452380Y-101384819D02*
X153595237Y-101337200D01*
X153595237Y-101337200D02*
X153690475Y-101241961D01*
X153690475Y-101241961D02*
X153738094Y-101146723D01*
X153738094Y-101146723D02*
X153785713Y-100956247D01*
X153785713Y-100956247D02*
X153785713Y-100813390D01*
X153785713Y-100813390D02*
X153738094Y-100622914D01*
X153738094Y-100622914D02*
X153690475Y-100527676D01*
X153690475Y-100527676D02*
X153595237Y-100432438D01*
X153595237Y-100432438D02*
X153452380Y-100384819D01*
X153452380Y-100384819D02*
X153357142Y-100384819D01*
X153357142Y-100384819D02*
X153214285Y-100432438D01*
X153214285Y-100432438D02*
X153166666Y-100480057D01*
X152785713Y-100480057D02*
X152738094Y-100432438D01*
X152738094Y-100432438D02*
X152642856Y-100384819D01*
X152642856Y-100384819D02*
X152404761Y-100384819D01*
X152404761Y-100384819D02*
X152309523Y-100432438D01*
X152309523Y-100432438D02*
X152261904Y-100480057D01*
X152261904Y-100480057D02*
X152214285Y-100575295D01*
X152214285Y-100575295D02*
X152214285Y-100670533D01*
X152214285Y-100670533D02*
X152261904Y-100813390D01*
X152261904Y-100813390D02*
X152833332Y-101384819D01*
X152833332Y-101384819D02*
X152214285Y-101384819D01*
X150142857Y-80154819D02*
X150476190Y-79678628D01*
X150714285Y-80154819D02*
X150714285Y-79154819D01*
X150714285Y-79154819D02*
X150333333Y-79154819D01*
X150333333Y-79154819D02*
X150238095Y-79202438D01*
X150238095Y-79202438D02*
X150190476Y-79250057D01*
X150190476Y-79250057D02*
X150142857Y-79345295D01*
X150142857Y-79345295D02*
X150142857Y-79488152D01*
X150142857Y-79488152D02*
X150190476Y-79583390D01*
X150190476Y-79583390D02*
X150238095Y-79631009D01*
X150238095Y-79631009D02*
X150333333Y-79678628D01*
X150333333Y-79678628D02*
X150714285Y-79678628D01*
X149190476Y-80154819D02*
X149761904Y-80154819D01*
X149476190Y-80154819D02*
X149476190Y-79154819D01*
X149476190Y-79154819D02*
X149571428Y-79297676D01*
X149571428Y-79297676D02*
X149666666Y-79392914D01*
X149666666Y-79392914D02*
X149761904Y-79440533D01*
X148571428Y-79154819D02*
X148476190Y-79154819D01*
X148476190Y-79154819D02*
X148380952Y-79202438D01*
X148380952Y-79202438D02*
X148333333Y-79250057D01*
X148333333Y-79250057D02*
X148285714Y-79345295D01*
X148285714Y-79345295D02*
X148238095Y-79535771D01*
X148238095Y-79535771D02*
X148238095Y-79773866D01*
X148238095Y-79773866D02*
X148285714Y-79964342D01*
X148285714Y-79964342D02*
X148333333Y-80059580D01*
X148333333Y-80059580D02*
X148380952Y-80107200D01*
X148380952Y-80107200D02*
X148476190Y-80154819D01*
X148476190Y-80154819D02*
X148571428Y-80154819D01*
X148571428Y-80154819D02*
X148666666Y-80107200D01*
X148666666Y-80107200D02*
X148714285Y-80059580D01*
X148714285Y-80059580D02*
X148761904Y-79964342D01*
X148761904Y-79964342D02*
X148809523Y-79773866D01*
X148809523Y-79773866D02*
X148809523Y-79535771D01*
X148809523Y-79535771D02*
X148761904Y-79345295D01*
X148761904Y-79345295D02*
X148714285Y-79250057D01*
X148714285Y-79250057D02*
X148666666Y-79202438D01*
X148666666Y-79202438D02*
X148571428Y-79154819D01*
X141842857Y-123654819D02*
X142176190Y-123178628D01*
X142414285Y-123654819D02*
X142414285Y-122654819D01*
X142414285Y-122654819D02*
X142033333Y-122654819D01*
X142033333Y-122654819D02*
X141938095Y-122702438D01*
X141938095Y-122702438D02*
X141890476Y-122750057D01*
X141890476Y-122750057D02*
X141842857Y-122845295D01*
X141842857Y-122845295D02*
X141842857Y-122988152D01*
X141842857Y-122988152D02*
X141890476Y-123083390D01*
X141890476Y-123083390D02*
X141938095Y-123131009D01*
X141938095Y-123131009D02*
X142033333Y-123178628D01*
X142033333Y-123178628D02*
X142414285Y-123178628D01*
X141509523Y-122654819D02*
X140890476Y-122654819D01*
X140890476Y-122654819D02*
X141223809Y-123035771D01*
X141223809Y-123035771D02*
X141080952Y-123035771D01*
X141080952Y-123035771D02*
X140985714Y-123083390D01*
X140985714Y-123083390D02*
X140938095Y-123131009D01*
X140938095Y-123131009D02*
X140890476Y-123226247D01*
X140890476Y-123226247D02*
X140890476Y-123464342D01*
X140890476Y-123464342D02*
X140938095Y-123559580D01*
X140938095Y-123559580D02*
X140985714Y-123607200D01*
X140985714Y-123607200D02*
X141080952Y-123654819D01*
X141080952Y-123654819D02*
X141366666Y-123654819D01*
X141366666Y-123654819D02*
X141461904Y-123607200D01*
X141461904Y-123607200D02*
X141509523Y-123559580D01*
X140557142Y-122654819D02*
X139938095Y-122654819D01*
X139938095Y-122654819D02*
X140271428Y-123035771D01*
X140271428Y-123035771D02*
X140128571Y-123035771D01*
X140128571Y-123035771D02*
X140033333Y-123083390D01*
X140033333Y-123083390D02*
X139985714Y-123131009D01*
X139985714Y-123131009D02*
X139938095Y-123226247D01*
X139938095Y-123226247D02*
X139938095Y-123464342D01*
X139938095Y-123464342D02*
X139985714Y-123559580D01*
X139985714Y-123559580D02*
X140033333Y-123607200D01*
X140033333Y-123607200D02*
X140128571Y-123654819D01*
X140128571Y-123654819D02*
X140414285Y-123654819D01*
X140414285Y-123654819D02*
X140509523Y-123607200D01*
X140509523Y-123607200D02*
X140557142Y-123559580D01*
X145066666Y-93699580D02*
X145114285Y-93747200D01*
X145114285Y-93747200D02*
X145257142Y-93794819D01*
X145257142Y-93794819D02*
X145352380Y-93794819D01*
X145352380Y-93794819D02*
X145495237Y-93747200D01*
X145495237Y-93747200D02*
X145590475Y-93651961D01*
X145590475Y-93651961D02*
X145638094Y-93556723D01*
X145638094Y-93556723D02*
X145685713Y-93366247D01*
X145685713Y-93366247D02*
X145685713Y-93223390D01*
X145685713Y-93223390D02*
X145638094Y-93032914D01*
X145638094Y-93032914D02*
X145590475Y-92937676D01*
X145590475Y-92937676D02*
X145495237Y-92842438D01*
X145495237Y-92842438D02*
X145352380Y-92794819D01*
X145352380Y-92794819D02*
X145257142Y-92794819D01*
X145257142Y-92794819D02*
X145114285Y-92842438D01*
X145114285Y-92842438D02*
X145066666Y-92890057D01*
X144209523Y-93128152D02*
X144209523Y-93794819D01*
X144447618Y-92747200D02*
X144685713Y-93461485D01*
X144685713Y-93461485D02*
X144066666Y-93461485D01*
X155254819Y-95638095D02*
X156064342Y-95638095D01*
X156064342Y-95638095D02*
X156159580Y-95685714D01*
X156159580Y-95685714D02*
X156207200Y-95733333D01*
X156207200Y-95733333D02*
X156254819Y-95828571D01*
X156254819Y-95828571D02*
X156254819Y-96019047D01*
X156254819Y-96019047D02*
X156207200Y-96114285D01*
X156207200Y-96114285D02*
X156159580Y-96161904D01*
X156159580Y-96161904D02*
X156064342Y-96209523D01*
X156064342Y-96209523D02*
X155254819Y-96209523D01*
X155254819Y-96590476D02*
X155254819Y-97209523D01*
X155254819Y-97209523D02*
X155635771Y-96876190D01*
X155635771Y-96876190D02*
X155635771Y-97019047D01*
X155635771Y-97019047D02*
X155683390Y-97114285D01*
X155683390Y-97114285D02*
X155731009Y-97161904D01*
X155731009Y-97161904D02*
X155826247Y-97209523D01*
X155826247Y-97209523D02*
X156064342Y-97209523D01*
X156064342Y-97209523D02*
X156159580Y-97161904D01*
X156159580Y-97161904D02*
X156207200Y-97114285D01*
X156207200Y-97114285D02*
X156254819Y-97019047D01*
X156254819Y-97019047D02*
X156254819Y-96733333D01*
X156254819Y-96733333D02*
X156207200Y-96638095D01*
X156207200Y-96638095D02*
X156159580Y-96590476D01*
X147842857Y-126954819D02*
X148176190Y-126478628D01*
X148414285Y-126954819D02*
X148414285Y-125954819D01*
X148414285Y-125954819D02*
X148033333Y-125954819D01*
X148033333Y-125954819D02*
X147938095Y-126002438D01*
X147938095Y-126002438D02*
X147890476Y-126050057D01*
X147890476Y-126050057D02*
X147842857Y-126145295D01*
X147842857Y-126145295D02*
X147842857Y-126288152D01*
X147842857Y-126288152D02*
X147890476Y-126383390D01*
X147890476Y-126383390D02*
X147938095Y-126431009D01*
X147938095Y-126431009D02*
X148033333Y-126478628D01*
X148033333Y-126478628D02*
X148414285Y-126478628D01*
X147461904Y-126050057D02*
X147414285Y-126002438D01*
X147414285Y-126002438D02*
X147319047Y-125954819D01*
X147319047Y-125954819D02*
X147080952Y-125954819D01*
X147080952Y-125954819D02*
X146985714Y-126002438D01*
X146985714Y-126002438D02*
X146938095Y-126050057D01*
X146938095Y-126050057D02*
X146890476Y-126145295D01*
X146890476Y-126145295D02*
X146890476Y-126240533D01*
X146890476Y-126240533D02*
X146938095Y-126383390D01*
X146938095Y-126383390D02*
X147509523Y-126954819D01*
X147509523Y-126954819D02*
X146890476Y-126954819D01*
X146319047Y-126383390D02*
X146414285Y-126335771D01*
X146414285Y-126335771D02*
X146461904Y-126288152D01*
X146461904Y-126288152D02*
X146509523Y-126192914D01*
X146509523Y-126192914D02*
X146509523Y-126145295D01*
X146509523Y-126145295D02*
X146461904Y-126050057D01*
X146461904Y-126050057D02*
X146414285Y-126002438D01*
X146414285Y-126002438D02*
X146319047Y-125954819D01*
X146319047Y-125954819D02*
X146128571Y-125954819D01*
X146128571Y-125954819D02*
X146033333Y-126002438D01*
X146033333Y-126002438D02*
X145985714Y-126050057D01*
X145985714Y-126050057D02*
X145938095Y-126145295D01*
X145938095Y-126145295D02*
X145938095Y-126192914D01*
X145938095Y-126192914D02*
X145985714Y-126288152D01*
X145985714Y-126288152D02*
X146033333Y-126335771D01*
X146033333Y-126335771D02*
X146128571Y-126383390D01*
X146128571Y-126383390D02*
X146319047Y-126383390D01*
X146319047Y-126383390D02*
X146414285Y-126431009D01*
X146414285Y-126431009D02*
X146461904Y-126478628D01*
X146461904Y-126478628D02*
X146509523Y-126573866D01*
X146509523Y-126573866D02*
X146509523Y-126764342D01*
X146509523Y-126764342D02*
X146461904Y-126859580D01*
X146461904Y-126859580D02*
X146414285Y-126907200D01*
X146414285Y-126907200D02*
X146319047Y-126954819D01*
X146319047Y-126954819D02*
X146128571Y-126954819D01*
X146128571Y-126954819D02*
X146033333Y-126907200D01*
X146033333Y-126907200D02*
X145985714Y-126859580D01*
X145985714Y-126859580D02*
X145938095Y-126764342D01*
X145938095Y-126764342D02*
X145938095Y-126573866D01*
X145938095Y-126573866D02*
X145985714Y-126478628D01*
X145985714Y-126478628D02*
X146033333Y-126431009D01*
X146033333Y-126431009D02*
X146128571Y-126383390D01*
G36*
X142301604Y-88068982D02*
G01*
X142375549Y-88064739D01*
X142444633Y-88052301D01*
X142509515Y-88031919D01*
X142571161Y-88003462D01*
X142626487Y-87968499D01*
X142676089Y-87926894D01*
X142719633Y-87879025D01*
X142756189Y-87825774D01*
X142785998Y-87766610D01*
X142807561Y-87703954D01*
X142820709Y-87636995D01*
X142825199Y-87564987D01*
X142820710Y-87493021D01*
X142807562Y-87426081D01*
X142785998Y-87363426D01*
X142756136Y-87304265D01*
X142719364Y-87250994D01*
X142675417Y-87203080D01*
X142625423Y-87161413D01*
X142570080Y-87126480D01*
X142508844Y-87098117D01*
X142444383Y-87077752D01*
X142375079Y-87065269D01*
X142300199Y-87060992D01*
X142220764Y-87065770D01*
X142147807Y-87079679D01*
X142080442Y-87102330D01*
X142017351Y-87134432D01*
X141961579Y-87175113D01*
X141912403Y-87224818D01*
X142030006Y-87335399D01*
X142086976Y-87284725D01*
X142149013Y-87249303D01*
X142217022Y-87227902D01*
X142291834Y-87220605D01*
X142366516Y-87227092D01*
X142432518Y-87245823D01*
X142492269Y-87276416D01*
X142543099Y-87317203D01*
X142584605Y-87367396D01*
X142615944Y-87426441D01*
X142635194Y-87491663D01*
X142641834Y-87564987D01*
X142635195Y-87638320D01*
X142615944Y-87703595D01*
X142584605Y-87762640D01*
X142543099Y-87812833D01*
X142492276Y-87853585D01*
X142432518Y-87884213D01*
X142366519Y-87902897D01*
X142291834Y-87909370D01*
X142217022Y-87902072D01*
X142149013Y-87880671D01*
X142107134Y-87858570D01*
X142067550Y-87829607D01*
X142030006Y-87793171D01*
X141912403Y-87905218D01*
X141961463Y-87954126D01*
X142017236Y-87994610D01*
X142080442Y-88027034D01*
X142147848Y-88049991D01*
X142221252Y-88064119D01*
X142301604Y-88068982D01*
G37*
G36*
X141500182Y-88068982D02*
G01*
X141602627Y-88061450D01*
X141702537Y-88038879D01*
X141766726Y-88015425D01*
X141821640Y-87987577D01*
X141868378Y-87955593D01*
X141789976Y-87814176D01*
X141732431Y-87852714D01*
X141661199Y-87884213D01*
X141584142Y-87904085D01*
X141502991Y-87910774D01*
X141438680Y-87905715D01*
X141388834Y-87891959D01*
X141350400Y-87870901D01*
X141319934Y-87840935D01*
X141302013Y-87805394D01*
X141295812Y-87762397D01*
X141301599Y-87720077D01*
X141318226Y-87685234D01*
X141346187Y-87656029D01*
X141382152Y-87635961D01*
X141434458Y-87622142D01*
X141508608Y-87616828D01*
X141598184Y-87616828D01*
X141598184Y-87492203D01*
X141318160Y-87158995D01*
X141294407Y-87227627D01*
X141820812Y-87227627D01*
X141820812Y-87074975D01*
X141152991Y-87074975D01*
X141152991Y-87196791D01*
X141432954Y-87530000D01*
X141528209Y-87474007D01*
X141473559Y-87474007D01*
X141382033Y-87479963D01*
X141308451Y-87496332D01*
X141249555Y-87521455D01*
X141202694Y-87554546D01*
X141163070Y-87597782D01*
X141135202Y-87645850D01*
X141118247Y-87699757D01*
X141112385Y-87760992D01*
X141117095Y-87814908D01*
X141131042Y-87865518D01*
X141154395Y-87913644D01*
X141186383Y-87956272D01*
X141228560Y-87993763D01*
X141282500Y-88026301D01*
X141341445Y-88049011D01*
X141413153Y-88063690D01*
X141500182Y-88068982D01*
G37*
G36*
X140660326Y-87067680D02*
G01*
X140729651Y-87087283D01*
X140793893Y-87119794D01*
X140850594Y-87164084D01*
X140899255Y-87220674D01*
X140940194Y-87291313D01*
X140968742Y-87368210D01*
X140986917Y-87458618D01*
X140993378Y-87564987D01*
X140986918Y-87671356D01*
X140968743Y-87761787D01*
X140940194Y-87838722D01*
X140899258Y-87909322D01*
X140850598Y-87965893D01*
X140793893Y-88010181D01*
X140729651Y-88042692D01*
X140660326Y-88062295D01*
X140584576Y-88068982D01*
X140507905Y-88062255D01*
X140438385Y-88042616D01*
X140374589Y-88010181D01*
X140318283Y-87965967D01*
X140269610Y-87909402D01*
X140228287Y-87838722D01*
X140199332Y-87761743D01*
X140180914Y-87671315D01*
X140174371Y-87564987D01*
X140357797Y-87564987D01*
X140361409Y-87643317D01*
X140371350Y-87707447D01*
X140386495Y-87759588D01*
X140409239Y-87808588D01*
X140435670Y-87845974D01*
X140465630Y-87873710D01*
X140500795Y-87894108D01*
X140540089Y-87906497D01*
X140584576Y-87910774D01*
X140627252Y-87906569D01*
X140665926Y-87894246D01*
X140701508Y-87873710D01*
X140731875Y-87845921D01*
X140758524Y-87808526D01*
X140781314Y-87759588D01*
X140796459Y-87707447D01*
X140806401Y-87643317D01*
X140810013Y-87564987D01*
X140806375Y-87485672D01*
X140796411Y-87421386D01*
X140781314Y-87369715D01*
X140758556Y-87321226D01*
X140731911Y-87284055D01*
X140701508Y-87256325D01*
X140665922Y-87235754D01*
X140627248Y-87223412D01*
X140584576Y-87219200D01*
X140540092Y-87223484D01*
X140500799Y-87235892D01*
X140465630Y-87256325D01*
X140435634Y-87284002D01*
X140409208Y-87321165D01*
X140386495Y-87369715D01*
X140371399Y-87421386D01*
X140361434Y-87485672D01*
X140357797Y-87564987D01*
X140174371Y-87564987D01*
X140180915Y-87458659D01*
X140199334Y-87368253D01*
X140228287Y-87291313D01*
X140269613Y-87220594D01*
X140318287Y-87164011D01*
X140374589Y-87119794D01*
X140438385Y-87087358D01*
X140507905Y-87067719D01*
X140584576Y-87060992D01*
X140660326Y-87067680D01*
G37*
G36*
X156915000Y-122440867D02*
G01*
X155934975Y-122440867D01*
X155934975Y-122844051D01*
X155940054Y-122930131D01*
X155954394Y-123003961D01*
X155976985Y-123067350D01*
X156009696Y-123125639D01*
X156049712Y-123173036D01*
X156097397Y-123210843D01*
X156151683Y-123238385D01*
X156213208Y-123255365D01*
X156283571Y-123261279D01*
X156353967Y-123255352D01*
X156415272Y-123238360D01*
X156469134Y-123210843D01*
X156516314Y-123173063D01*
X156555869Y-123125675D01*
X156588142Y-123067350D01*
X156610328Y-123004003D01*
X156624423Y-122930170D01*
X156629419Y-122844051D01*
X156629419Y-122541679D01*
X156546803Y-122622889D01*
X156915000Y-122622889D01*
X156915000Y-122440867D01*
G37*
G36*
X156915000Y-123082066D02*
G01*
X156559382Y-122834282D01*
X156559382Y-123028882D01*
X156915000Y-123278071D01*
X156915000Y-123082066D01*
G37*
G36*
X156566404Y-122622889D02*
G01*
X156479576Y-122541679D01*
X156479576Y-122835686D01*
X156472902Y-122914468D01*
X156454989Y-122973363D01*
X156427796Y-123016975D01*
X156399877Y-123043230D01*
X156367231Y-123062043D01*
X156328916Y-123073733D01*
X156283571Y-123077853D01*
X156237480Y-123073688D01*
X156199004Y-123061934D01*
X156166655Y-123043120D01*
X156139406Y-123016975D01*
X156112967Y-122973475D01*
X156095492Y-122914586D01*
X156088970Y-122835686D01*
X156088970Y-122541679D01*
X155999394Y-122622889D01*
X156566404Y-122622889D01*
G37*
G36*
X156928982Y-123694932D02*
G01*
X156921450Y-123592487D01*
X156898879Y-123492577D01*
X156875425Y-123428388D01*
X156847577Y-123373474D01*
X156815593Y-123326736D01*
X156674176Y-123405138D01*
X156712714Y-123462683D01*
X156744213Y-123533915D01*
X156764085Y-123610972D01*
X156770774Y-123692123D01*
X156765715Y-123756434D01*
X156751959Y-123806280D01*
X156730901Y-123844714D01*
X156700935Y-123875180D01*
X156665394Y-123893101D01*
X156622397Y-123899302D01*
X156580077Y-123893515D01*
X156545234Y-123876889D01*
X156516029Y-123848927D01*
X156495961Y-123812962D01*
X156482142Y-123760656D01*
X156476828Y-123686506D01*
X156476828Y-123596930D01*
X156352203Y-123596930D01*
X156018995Y-123876954D01*
X156087627Y-123900707D01*
X156087627Y-123374302D01*
X155934975Y-123374302D01*
X155934975Y-124042123D01*
X156056791Y-124042123D01*
X156390000Y-123762160D01*
X156334007Y-123666905D01*
X156334007Y-123721555D01*
X156339963Y-123813081D01*
X156356332Y-123886663D01*
X156381455Y-123945559D01*
X156414546Y-123992420D01*
X156457782Y-124032044D01*
X156505850Y-124059912D01*
X156559757Y-124076867D01*
X156620992Y-124082729D01*
X156674908Y-124078019D01*
X156725518Y-124064072D01*
X156773644Y-124040719D01*
X156816272Y-124008731D01*
X156853763Y-123966554D01*
X156886301Y-123912614D01*
X156909011Y-123853669D01*
X156923690Y-123781961D01*
X156928982Y-123694932D01*
G37*
G36*
X156692372Y-124187753D02*
G01*
X156566404Y-124187753D01*
X155934975Y-124670743D01*
X155934975Y-124865344D01*
X156566404Y-124389315D01*
X156538377Y-124298334D01*
X156538377Y-125075332D01*
X156692372Y-125075332D01*
X156692372Y-124187753D01*
G37*
G36*
X156915000Y-124725332D02*
G01*
X156692372Y-124725332D01*
X156538377Y-124730949D01*
X156341029Y-124730949D01*
X156341029Y-124901736D01*
X156915000Y-124901736D01*
X156915000Y-124725332D01*
G37*
G36*
X159915000Y-122505347D02*
G01*
X158934975Y-122505347D01*
X158934975Y-122908531D01*
X158940054Y-122994611D01*
X158954394Y-123068441D01*
X158976985Y-123131830D01*
X159009696Y-123190119D01*
X159049712Y-123237516D01*
X159097397Y-123275323D01*
X159151683Y-123302865D01*
X159213208Y-123319845D01*
X159283571Y-123325759D01*
X159353967Y-123319832D01*
X159415272Y-123302840D01*
X159469134Y-123275323D01*
X159516314Y-123237543D01*
X159555869Y-123190155D01*
X159588142Y-123131830D01*
X159610328Y-123068483D01*
X159624423Y-122994650D01*
X159629419Y-122908531D01*
X159629419Y-122606159D01*
X159546803Y-122687369D01*
X159915000Y-122687369D01*
X159915000Y-122505347D01*
G37*
G36*
X159915000Y-123146546D02*
G01*
X159559382Y-122898762D01*
X159559382Y-123093362D01*
X159915000Y-123342551D01*
X159915000Y-123146546D01*
G37*
G36*
X159566404Y-122687369D02*
G01*
X159479576Y-122606159D01*
X159479576Y-122900166D01*
X159472902Y-122978948D01*
X159454989Y-123037843D01*
X159427796Y-123081455D01*
X159399877Y-123107710D01*
X159367231Y-123126523D01*
X159328916Y-123138213D01*
X159283571Y-123142333D01*
X159237480Y-123138168D01*
X159199004Y-123126414D01*
X159166655Y-123107600D01*
X159139406Y-123081455D01*
X159112967Y-123037955D01*
X159095492Y-122979066D01*
X159088970Y-122900166D01*
X159088970Y-122606159D01*
X158999394Y-122687369D01*
X159566404Y-122687369D01*
G37*
G36*
X159915000Y-123445621D02*
G01*
X159793183Y-123445621D01*
X159423583Y-123834822D01*
X159377764Y-123879718D01*
X159342433Y-123907607D01*
X159307300Y-123928023D01*
X159277281Y-123939114D01*
X159220617Y-123946869D01*
X159178014Y-123941421D01*
X159143927Y-123926023D01*
X159116325Y-123900646D01*
X159096841Y-123867741D01*
X159083985Y-123823576D01*
X159079200Y-123764847D01*
X159085692Y-123695829D01*
X159104419Y-123635337D01*
X159135997Y-123581608D01*
X159181416Y-123535258D01*
X159083414Y-123407825D01*
X159036516Y-123449852D01*
X158996691Y-123501009D01*
X158963735Y-123562491D01*
X158940350Y-123628619D01*
X158925953Y-123700865D01*
X158920992Y-123780234D01*
X158925094Y-123850554D01*
X158936766Y-123911973D01*
X158955308Y-123965736D01*
X158982072Y-124015502D01*
X159014456Y-124055700D01*
X159052639Y-124087552D01*
X159096370Y-124110905D01*
X159145853Y-124125247D01*
X159202421Y-124130234D01*
X159249703Y-124127105D01*
X159296882Y-124117655D01*
X159343394Y-124100235D01*
X159395617Y-124070028D01*
X159447525Y-124029646D01*
X159511816Y-123967874D01*
X159829576Y-123633261D01*
X159761004Y-123595464D01*
X159761004Y-124168031D01*
X159915000Y-124168031D01*
X159915000Y-123445621D01*
G37*
G36*
X159928982Y-124581045D02*
G01*
X159921450Y-124478600D01*
X159898879Y-124378690D01*
X159875425Y-124314501D01*
X159847577Y-124259587D01*
X159815593Y-124212849D01*
X159674176Y-124291251D01*
X159712714Y-124348796D01*
X159744213Y-124420028D01*
X159764085Y-124497085D01*
X159770774Y-124578236D01*
X159765715Y-124642547D01*
X159751959Y-124692393D01*
X159730901Y-124730827D01*
X159700935Y-124761293D01*
X159665394Y-124779214D01*
X159622397Y-124785415D01*
X159580077Y-124779628D01*
X159545234Y-124763001D01*
X159516029Y-124735040D01*
X159495961Y-124699075D01*
X159482142Y-124646769D01*
X159476828Y-124572619D01*
X159476828Y-124483043D01*
X159352203Y-124483043D01*
X159018995Y-124763067D01*
X159087627Y-124786820D01*
X159087627Y-124260415D01*
X158934975Y-124260415D01*
X158934975Y-124928236D01*
X159056791Y-124928236D01*
X159390000Y-124648273D01*
X159334007Y-124553018D01*
X159334007Y-124607668D01*
X159339963Y-124699194D01*
X159356332Y-124772776D01*
X159381455Y-124831672D01*
X159414546Y-124878533D01*
X159457782Y-124918157D01*
X159505850Y-124946025D01*
X159559757Y-124962980D01*
X159620992Y-124968842D01*
X159674908Y-124964132D01*
X159725518Y-124950185D01*
X159773644Y-124926832D01*
X159816272Y-124894844D01*
X159853763Y-124852667D01*
X159886301Y-124798727D01*
X159909011Y-124739782D01*
X159923690Y-124668074D01*
X159928982Y-124581045D01*
G37*
%TO.C,J6*%
D12*
X162425000Y-116200000D02*
G75*
G02*
X162175000Y-116200000I-125000J0D01*
G01*
X162175000Y-116200000D02*
G75*
G02*
X162425000Y-116200000I125000J0D01*
G01*
%TO.C,C13*%
D13*
X163640000Y-97892164D02*
X163640000Y-98107836D01*
X164360000Y-97892164D02*
X164360000Y-98107836D01*
%TO.C,R1*%
X159220000Y-100046359D02*
X159220000Y-100353641D01*
X159980000Y-100046359D02*
X159980000Y-100353641D01*
%TO.C,C5*%
X144040000Y-96707836D02*
X144040000Y-96492164D01*
X144760000Y-96707836D02*
X144760000Y-96492164D01*
%TO.C,R32*%
X144120000Y-124553641D02*
X144120000Y-124246359D01*
X144880000Y-124553641D02*
X144880000Y-124246359D01*
%TO.C,R13*%
X157046359Y-89720000D02*
X157353641Y-89720000D01*
X157046359Y-90480000D02*
X157353641Y-90480000D01*
%TO.C,R6*%
X159153641Y-115820000D02*
X158846359Y-115820000D01*
X159153641Y-116580000D02*
X158846359Y-116580000D01*
%TO.C,C15*%
X161092164Y-89840000D02*
X161307836Y-89840000D01*
X161092164Y-90560000D02*
X161307836Y-90560000D01*
%TO.C,Q1*%
D14*
X148223600Y-119123600D02*
X148439861Y-119123600D01*
X148223600Y-122476400D02*
X148223600Y-119123600D01*
X148439861Y-122476400D02*
X148223600Y-122476400D01*
X151360139Y-119123600D02*
X151576400Y-119123600D01*
X151576400Y-119123600D02*
X151576400Y-122476400D01*
X151576400Y-122476400D02*
X151360139Y-122476400D01*
D15*
X148100000Y-118800000D02*
X148300000Y-118600000D01*
X148300000Y-118800000D01*
X148100000Y-118800000D01*
G36*
X148300000Y-118800000D02*
G01*
X148100000Y-118800000D01*
X148300000Y-118600000D01*
X148300000Y-118800000D01*
G37*
%TO.C,IC1*%
D16*
X141387500Y-106500000D02*
X141387500Y-106250000D01*
X141387500Y-110750000D02*
X141387500Y-110500000D01*
X145387500Y-106250000D02*
X141387500Y-106250000D01*
X145387500Y-106500000D02*
X145387500Y-106250000D01*
X145387500Y-110750000D02*
X141387500Y-110750000D01*
X145387500Y-110750000D02*
X145387500Y-110500000D01*
D12*
X146362500Y-107075000D02*
G75*
G02*
X146112500Y-107075000I-125000J0D01*
G01*
X146112500Y-107075000D02*
G75*
G02*
X146362500Y-107075000I125000J0D01*
G01*
%TO.C,R31*%
D13*
X143020000Y-128543641D02*
X143020000Y-128236359D01*
X143780000Y-128543641D02*
X143780000Y-128236359D01*
%TO.C,R27*%
X146720000Y-116953641D02*
X146720000Y-116646359D01*
X147480000Y-116953641D02*
X147480000Y-116646359D01*
%TO.C,R26*%
X150420000Y-116953641D02*
X150420000Y-116646359D01*
X151180000Y-116953641D02*
X151180000Y-116646359D01*
%TO.C,R25*%
X154220000Y-116953641D02*
X154220000Y-116646359D01*
X154980000Y-116953641D02*
X154980000Y-116646359D01*
%TO.C,R11*%
X149456359Y-80720000D02*
X149763641Y-80720000D01*
X149456359Y-81480000D02*
X149763641Y-81480000D01*
%TO.C,C1*%
X152859420Y-97490000D02*
X153140580Y-97490000D01*
X152859420Y-98510000D02*
X153140580Y-98510000D01*
%TO.C,LS1*%
D14*
X138075600Y-77375600D02*
X147524400Y-77375600D01*
X138075600Y-80192460D02*
X138075600Y-77375600D01*
X138075600Y-86824400D02*
X138075600Y-84007540D01*
X147524400Y-77375600D02*
X147524400Y-80192460D01*
X147524400Y-84007540D02*
X147524400Y-86824400D01*
X147524400Y-86824400D02*
X138075600Y-86824400D01*
%TO.C,R12*%
D13*
X149456359Y-81720000D02*
X149763641Y-81720000D01*
X149456359Y-82480000D02*
X149763641Y-82480000D01*
%TO.C,R5*%
X158846359Y-116820000D02*
X159153641Y-116820000D01*
X158846359Y-117580000D02*
X159153641Y-117580000D01*
%TO.C,J5*%
X151680000Y-76590000D02*
X161500000Y-76590000D01*
X151680000Y-77820000D02*
X151680000Y-76590000D01*
X151680000Y-83790000D02*
X151680000Y-80120000D01*
X151680000Y-88770000D02*
X151680000Y-86090000D01*
X152400000Y-88770000D02*
X151680000Y-88770000D01*
X156100000Y-88770000D02*
X153800000Y-88770000D01*
X161950000Y-88770000D02*
X157500000Y-88770000D01*
X163320000Y-87290000D02*
X163320000Y-86430000D01*
%TO.C,R30*%
X144120000Y-128553641D02*
X144120000Y-128246359D01*
X144880000Y-128553641D02*
X144880000Y-128246359D01*
%TO.C,C7*%
X142640000Y-100307836D02*
X142640000Y-100092164D01*
X143360000Y-100307836D02*
X143360000Y-100092164D01*
%TO.C,Q3*%
D14*
X144523600Y-119023600D02*
X144739861Y-119023600D01*
X144523600Y-122376400D02*
X144523600Y-119023600D01*
X144739861Y-122376400D02*
X144523600Y-122376400D01*
X147660139Y-119023600D02*
X147876400Y-119023600D01*
X147876400Y-119023600D02*
X147876400Y-122376400D01*
X147876400Y-122376400D02*
X147660139Y-122376400D01*
D15*
X144400000Y-118700000D02*
X144600000Y-118500000D01*
X144600000Y-118700000D01*
X144400000Y-118700000D01*
G36*
X144600000Y-118700000D02*
G01*
X144400000Y-118700000D01*
X144600000Y-118500000D01*
X144600000Y-118700000D01*
G37*
%TO.C,R16*%
D13*
X158820000Y-114063641D02*
X158820000Y-113756359D01*
X159580000Y-114063641D02*
X159580000Y-113756359D01*
%TO.C,C6*%
X147007836Y-98240000D02*
X146792164Y-98240000D01*
X147007836Y-98960000D02*
X146792164Y-98960000D01*
%TO.C,R35*%
X156220000Y-126046359D02*
X156220000Y-126353641D01*
X156980000Y-126046359D02*
X156980000Y-126353641D01*
%TO.C,U9*%
D14*
X140544300Y-89544300D02*
X140831220Y-89544300D01*
X140544300Y-90081220D02*
X140544300Y-89544300D01*
X140544300Y-91855700D02*
X140544300Y-91318780D01*
X140831220Y-91855700D02*
X140544300Y-91855700D01*
X142855700Y-91318780D02*
X142855700Y-91855700D01*
X142855700Y-91855700D02*
X142568780Y-91855700D01*
D15*
X142700000Y-89500000D02*
X142900000Y-89700000D01*
X142700000Y-89700000D01*
X142700000Y-89500000D01*
G36*
X142900000Y-89700000D02*
G01*
X142700000Y-89700000D01*
X142700000Y-89500000D01*
X142900000Y-89700000D01*
G37*
%TO.C,R2*%
D13*
X159520000Y-108053641D02*
X159520000Y-107746359D01*
X160280000Y-108053641D02*
X160280000Y-107746359D01*
%TO.C,Q2*%
D14*
X152023600Y-119123600D02*
X152239861Y-119123600D01*
X152023600Y-122476400D02*
X152023600Y-119123600D01*
X152239861Y-122476400D02*
X152023600Y-122476400D01*
X155160139Y-119123600D02*
X155376400Y-119123600D01*
X155376400Y-119123600D02*
X155376400Y-122476400D01*
X155376400Y-122476400D02*
X155160139Y-122476400D01*
D15*
X151900000Y-118800000D02*
X152100000Y-118600000D01*
X152100000Y-118800000D01*
X151900000Y-118800000D01*
G36*
X152100000Y-118800000D02*
G01*
X151900000Y-118800000D01*
X152100000Y-118600000D01*
X152100000Y-118800000D01*
G37*
%TO.C,C8*%
D13*
X142640000Y-102207836D02*
X142640000Y-101992164D01*
X143360000Y-102207836D02*
X143360000Y-101992164D01*
%TO.C,C14*%
X139427500Y-107392164D02*
X139427500Y-107607836D01*
X140147500Y-107392164D02*
X140147500Y-107607836D01*
%TO.C,C3*%
X148692164Y-98240000D02*
X148907836Y-98240000D01*
X148692164Y-98960000D02*
X148907836Y-98960000D01*
%TO.C,C29*%
X144092164Y-88340000D02*
X144307836Y-88340000D01*
X144092164Y-89060000D02*
X144307836Y-89060000D01*
%TO.C,R8*%
X149346359Y-75920000D02*
X149653641Y-75920000D01*
X149346359Y-76680000D02*
X149653641Y-76680000D01*
%TO.C,U1*%
X159240000Y-103290000D02*
X159240000Y-105110000D01*
X159240000Y-105110000D02*
X159290000Y-105110000D01*
X159290000Y-103290000D02*
X159240000Y-103290000D01*
X162310000Y-105110000D02*
X162360000Y-105110000D01*
X162360000Y-103290000D02*
X162310000Y-103290000D01*
X162360000Y-105110000D02*
X162360000Y-103290000D01*
X162310000Y-105650000D02*
X162640000Y-105890000D01*
X162640000Y-105410000D01*
X162310000Y-105650000D01*
G36*
X162640000Y-105890000D02*
G01*
X162310000Y-105650000D01*
X162640000Y-105410000D01*
X162640000Y-105890000D01*
G37*
%TO.C,R29*%
X143020000Y-126553641D02*
X143020000Y-126246359D01*
X143780000Y-126553641D02*
X143780000Y-126246359D01*
%TO.C,R9*%
X149346359Y-76920000D02*
X149653641Y-76920000D01*
X149346359Y-77680000D02*
X149653641Y-77680000D01*
%TO.C,C2*%
X152859420Y-98990000D02*
X153140580Y-98990000D01*
X152859420Y-100010000D02*
X153140580Y-100010000D01*
%TO.C,R10*%
X149346359Y-77920000D02*
X149653641Y-77920000D01*
X149346359Y-78680000D02*
X149653641Y-78680000D01*
%TO.C,R33*%
X143020000Y-124553641D02*
X143020000Y-124246359D01*
X143780000Y-124553641D02*
X143780000Y-124246359D01*
%TO.C,C4*%
X145007836Y-94140000D02*
X144792164Y-94140000D01*
X145007836Y-94860000D02*
X144792164Y-94860000D01*
%TO.C,U3*%
X156890000Y-93755000D02*
X156890000Y-93950000D01*
X156890000Y-98780000D02*
X156890000Y-98975000D01*
X156890000Y-98975000D02*
X163110000Y-98975000D01*
X163110000Y-93755000D02*
X156890000Y-93755000D01*
X163110000Y-93950000D02*
X163110000Y-93755000D01*
X163110000Y-98975000D02*
X163110000Y-98780000D01*
X156660000Y-98275000D02*
X156330000Y-98035000D01*
X156330000Y-98515000D01*
X156660000Y-98275000D01*
G36*
X156660000Y-98275000D02*
G01*
X156330000Y-98515000D01*
X156330000Y-98035000D01*
X156660000Y-98275000D01*
G37*
%TO.C,R28*%
X144120000Y-126553641D02*
X144120000Y-126246359D01*
X144880000Y-126553641D02*
X144880000Y-126246359D01*
%TO.C,C30*%
X141607836Y-88440000D02*
X141392164Y-88440000D01*
X141607836Y-89160000D02*
X141392164Y-89160000D01*
%TO.C,R34*%
X154920000Y-126046359D02*
X154920000Y-126353641D01*
X155680000Y-126046359D02*
X155680000Y-126353641D01*
%TO.C,R23*%
X157520000Y-126046359D02*
X157520000Y-126353641D01*
X158280000Y-126046359D02*
X158280000Y-126353641D01*
%TD*%
M02*
