M48
; DRILL file KiCad 10.0.4 date 2026-08-24T19:58:15
; FORMAT={-:-/ absolute / metric / decimal}
; #@! TF.CreationDate,2026-08-24T19:58:15-05:00
; #@! TF.GenerationSoftware,Kicad,Pcbnew,10.0.4
; #@! TF.FileFunction,Plated,1,6,PTH
FMAT,2
METRIC
; #@! TA.AperFunction,Plated,PTH,ComponentDrill
T1C0.200
; #@! TA.AperFunction,Plated,PTH,ViaDrill
T2C0.203
; #@! TA.AperFunction,Plated,PTH,ViaDrill
T3C0.300
; #@! TA.AperFunction,Plated,PTH,ComponentDrill
T4C0.400
; #@! TA.AperFunction,Plated,PTH,ComponentDrill
T5C0.600
; #@! TA.AperFunction,Plated,PTH,ComponentDrill
T6C0.700
; #@! TA.AperFunction,Plated,PTH,ComponentDrill
T7C1.016
; #@! TA.AperFunction,Plated,PTH,ComponentDrill
T8C2.200
%
G90
G05
T1
X150.147Y-113.76
X150.147Y-114.94
X151.327Y-113.76
X151.327Y-114.94
T2
X136.4Y-86.2
X136.8Y-91.6
X136.9Y-81.9
X136.9Y-92.6
X138.0Y-99.4
X138.4Y-95.6
X138.7Y-90.7
X138.8Y-93.0
X139.0Y-79.7
X139.4Y-109.6
X139.5Y-94.1
X139.7Y-83.7
X140.0Y-92.5
X140.1Y-89.1
X140.4Y-78.4
X140.6Y-88.0
X140.6Y-92.854
X141.1Y-80.3
X141.4Y-71.5
X141.4Y-72.2
X141.4Y-72.9
X141.4Y-73.6
X141.4Y-74.3
X141.6Y-75.1
X141.8Y-90.6
X142.2Y-101.8
X142.2Y-123.5
X142.2Y-125.4
X142.2Y-127.5
X142.3Y-75.1
X142.4Y-85.4
X142.8Y-88.2
X142.8Y-97.5
X143.0Y-75.1
X143.0Y-98.4
X143.1Y-99.0
X143.2Y-75.8
X143.7Y-75.1
X143.7Y-93.7
X143.8Y-90.6
X143.9Y-99.1
X144.1Y-71.5
X144.1Y-72.2
X144.1Y-72.9
X144.1Y-73.6
X144.1Y-74.3
X144.1Y-85.4
X144.1Y-99.8
X144.1Y-100.6
X144.1Y-101.4
X144.2Y-88.0
X144.2Y-102.9
X144.4Y-75.1
X144.4Y-105.6
X144.6Y-93.6
X145.4Y-91.4
X145.4Y-93.8
X145.4Y-95.4
X145.4Y-96.2
X145.4Y-97.0
X145.537Y-104.862
X145.6Y-83.4
X145.7Y-89.5
X146.1Y-93.6
X146.2Y-96.2
X146.2Y-97.0
X146.2Y-97.8
X146.2Y-99.4
X146.2Y-100.2
X146.2Y-101.0
X146.2Y-104.9
X146.3Y-75.1
X146.3Y-106.7
X146.4Y-110.1
X146.5Y-94.2
X146.7Y-71.5
X146.7Y-72.2
X146.7Y-72.9
X146.7Y-73.6
X146.7Y-74.3
X146.9Y-106.3
X147.0Y-75.1
X147.0Y-96.2
X147.0Y-97.0
X147.0Y-97.8
X147.0Y-99.4
X147.0Y-100.2
X147.0Y-101.0
X147.1Y-104.1
X147.2Y-128.5
X147.4Y-104.8
X147.7Y-75.1
X147.7Y-92.2
X147.8Y-96.2
X147.8Y-97.0
X147.8Y-97.8
X147.8Y-99.4
X147.8Y-100.2
X147.8Y-101.0
X147.8Y-104.2
X148.0Y-103.1
X148.028Y-104.772
X148.4Y-75.1
X148.6Y-97.8
X148.6Y-99.4
X148.95Y-106.25
X149.0Y-107.1
X149.1Y-75.1
X149.1Y-108.0
X149.3Y-71.6
X149.3Y-72.3
X149.3Y-73.0
X149.3Y-73.7
X149.3Y-74.4
X149.4Y-96.2
X149.4Y-97.0
X149.4Y-97.8
X149.4Y-99.4
X149.4Y-100.2
X149.4Y-101.0
X149.5Y-104.7
X149.8Y-84.4
X150.2Y-96.2
X150.2Y-97.0
X150.2Y-97.8
X150.2Y-99.4
X150.2Y-100.2
X150.2Y-101.0
X150.6Y-71.4
X150.6Y-72.1
X150.6Y-72.8
X150.6Y-73.5
X150.6Y-74.2
X150.8Y-74.9
X150.8Y-89.5
X150.9Y-106.5
X151.0Y-78.2
X151.0Y-92.4
X151.0Y-96.2
X151.0Y-97.0
X151.0Y-97.8
X151.0Y-99.4
X151.0Y-100.2
X151.0Y-101.0
X151.3Y-104.8
X151.5Y-74.9
X151.5Y-128.5
X151.8Y-88.3
X152.1Y-108.7
X152.2Y-74.9
X152.7Y-117.1
X152.9Y-74.9
X153.3Y-71.3
X153.3Y-72.0
X153.3Y-72.7
X153.3Y-73.4
X153.3Y-74.1
X153.3Y-102.6
X153.5Y-84.3
X153.5Y-107.5
X153.6Y-74.9
X154.0Y-100.6
X154.1Y-103.5
X154.1Y-107.5
X154.3Y-102.4
X154.4Y-90.7
X154.6Y-75.6
X154.7Y-93.3
X154.7Y-97.1
X154.7Y-107.5
X154.8Y-94.4
X155.4Y-115.0
X155.5Y-74.9
X155.5Y-108.8
X155.6Y-97.1
X155.9Y-71.3
X155.9Y-72.0
X155.9Y-72.7
X155.9Y-73.4
X155.9Y-74.1
X156.0Y-84.3
X156.0Y-95.3
X156.2Y-74.9
X156.3Y-96.6
X156.6Y-92.4
X156.7Y-83.9
X156.9Y-74.9
X156.9Y-82.9
X157.1Y-91.6
X157.2Y-75.8
X157.6Y-74.9
X157.8Y-128.5
X157.9Y-97.7
X157.97Y-96.6
X158.2Y-87.1
X158.3Y-74.9
X158.5Y-71.4
X158.5Y-72.1
X158.5Y-72.8
X158.5Y-73.5
X158.5Y-74.2
X158.5Y-85.8
X158.5Y-111.1
X158.7Y-90.9
X158.8Y-83.7
X158.8Y-84.7
X159.7Y-80.7
X160.7Y-80.8
X160.7Y-93.4
X161.3Y-93.7
X161.8Y-80.5
X162.0Y-91.5
X162.1Y-95.1
X162.1Y-96.4
X163.2Y-100.9
X163.5Y-95.2
X163.9Y-89.2
X164.2Y-87.8
X164.2Y-102.6
T3
X136.9Y-88.9
X138.1Y-103.7
X141.5Y-112.9
X141.5Y-113.9
X141.5Y-114.9
X141.5Y-115.9
X142.5Y-112.9
X142.5Y-113.9
X142.5Y-114.9
X142.5Y-115.9
X142.9Y-89.0
X144.9Y-117.9
X145.9Y-117.9
X147.1Y-85.7
X147.3Y-108.4
X147.3Y-124.45
X147.3Y-125.45
X147.3Y-126.45
X148.1Y-118.5
X148.1Y-120.0
X148.1Y-121.0
X149.0Y-87.9
X149.75Y-124.469
X149.75Y-125.469
X149.75Y-126.469
X151.0Y-111.9
X151.8Y-120.0
X151.8Y-121.0
X152.2Y-111.8
X152.25Y-124.5
X152.25Y-125.5
X152.25Y-126.5
X152.4Y-105.3
X153.8Y-113.2
X155.5Y-102.1
X155.5Y-106.9
X158.6Y-105.2
X158.6Y-106.4
X158.9Y-90.0
X159.2Y-101.7
X159.2Y-110.5
X159.2Y-111.5
X160.2Y-101.7
X161.2Y-101.8
X161.5Y-82.6
X162.3Y-101.7
X162.8Y-106.4
T4
X136.25Y-73.0
X136.35Y-127.0
X136.733Y-71.833
X136.733Y-74.167
X136.833Y-125.833
X136.833Y-128.167
X137.9Y-71.35
X137.9Y-74.65
X138.0Y-125.35
X138.0Y-128.65
X139.067Y-71.833
X139.067Y-74.167
X139.167Y-125.833
X139.167Y-128.167
X139.55Y-73.0
X139.65Y-127.0
X160.35Y-73.0
X160.35Y-127.0
X160.833Y-71.833
X160.833Y-74.167
X160.833Y-125.833
X160.833Y-128.167
X162.0Y-71.35
X162.0Y-74.65
X162.0Y-125.35
X162.0Y-128.65
X163.167Y-71.833
X163.167Y-74.167
X163.167Y-125.833
X163.167Y-128.167
X163.65Y-73.0
X163.65Y-127.0
T6
X137.0Y-104.99
X137.0Y-107.53
X137.0Y-110.07
X137.0Y-112.61
X140.3Y-103.1
X140.3Y-104.37
X153.2Y-90.8
X153.2Y-92.07
T7
X162.3Y-111.6
X162.3Y-114.6
T8
X137.9Y-73.0
X138.0Y-127.0
X162.0Y-73.0
X162.0Y-127.0
T5
G00X157.145Y-100.18
M15
G01X158.245Y-100.18
M16
G05
G00X157.145Y-108.82
M15
G01X158.245Y-108.82
M16
G05
G00X161.575Y-100.18
M15
G01X162.175Y-100.18
M16
G05
G00X161.575Y-108.82
M15
G01X162.175Y-108.82
M16
G05
M30
