%TF.GenerationSoftware,KiCad,Pcbnew,10.0.4*%
%TF.CreationDate,2026-08-24T19:58:11-05:00*%
%TF.ProjectId,LSR_FLCM0001_A03,4c53525f-464c-4434-9d30-3030315f4130,rev?*%
%TF.SameCoordinates,Original*%
%TF.FileFunction,Copper,L5,Inr*%
%TF.FilePolarity,Positive*%
%FSLAX46Y46*%
G04 Gerber Fmt 4.6, Leading zero omitted, Abs format (unit mm)*
G04 Created by KiCad (PCBNEW 10.0.4) date 2026-08-24 19:58:11*
%MOMM*%
%LPD*%
G01*
G04 APERTURE LIST*
%TA.AperFunction,ComponentPad*%
%ADD10C,1.524000*%
%TD*%
%TA.AperFunction,ComponentPad*%
%ADD11C,0.700000*%
%TD*%
%TA.AperFunction,ComponentPad*%
%ADD12C,4.400000*%
%TD*%
%TA.AperFunction,HeatsinkPad*%
%ADD13C,0.500000*%
%TD*%
%TA.AperFunction,ComponentPad*%
%ADD14O,2.100000X1.000000*%
%TD*%
%TA.AperFunction,ComponentPad*%
%ADD15O,1.600000X1.000000*%
%TD*%
%TA.AperFunction,ComponentPad*%
%ADD16R,1.400000X1.400000*%
%TD*%
%TA.AperFunction,ComponentPad*%
%ADD17C,1.400000*%
%TD*%
%TA.AperFunction,ComponentPad*%
%ADD18R,1.000000X1.000000*%
%TD*%
%TA.AperFunction,ComponentPad*%
%ADD19C,1.000000*%
%TD*%
%TA.AperFunction,ViaPad*%
%ADD20C,0.406400*%
%TD*%
%TA.AperFunction,ViaPad*%
%ADD21C,0.600000*%
%TD*%
G04 APERTURE END LIST*
D10*
%TO.N,VBATT*%
%TO.C,J6*%
X162300000Y-114600000D03*
%TO.N,GND*%
X162300000Y-111600001D03*
%TD*%
D11*
%TO.N,GND*%
%TO.C,H1*%
X136250000Y-73000000D03*
X136733274Y-71833274D03*
X136733274Y-74166726D03*
X137900000Y-71350000D03*
D12*
X137900000Y-73000000D03*
D11*
X137900000Y-74650000D03*
X139066726Y-71833274D03*
X139066726Y-74166726D03*
X139550000Y-73000000D03*
%TD*%
D13*
%TO.N,GND*%
%TO.C,U4*%
X150147500Y-113760000D03*
X150147500Y-114940000D03*
X151327500Y-113760000D03*
X151327500Y-114940000D03*
%TD*%
D14*
%TO.N,GND*%
%TO.C,J1*%
X157695000Y-108820000D03*
D15*
X161875000Y-108820000D03*
D14*
X157695000Y-100180000D03*
D15*
X161875000Y-100180000D03*
%TD*%
D11*
%TO.N,GND*%
%TO.C,H4*%
X160350000Y-127000000D03*
X160833274Y-125833274D03*
X160833274Y-128166726D03*
X162000000Y-125350000D03*
D12*
X162000000Y-127000000D03*
D11*
X162000000Y-128650000D03*
X163166726Y-125833274D03*
X163166726Y-128166726D03*
X163650000Y-127000000D03*
%TD*%
%TO.N,GND*%
%TO.C,H3*%
X136350000Y-127000000D03*
X136833274Y-125833274D03*
X136833274Y-128166726D03*
X138000000Y-125350000D03*
D12*
X138000000Y-127000000D03*
D11*
X138000000Y-128650000D03*
X139166726Y-125833274D03*
X139166726Y-128166726D03*
X139650000Y-127000000D03*
%TD*%
D16*
%TO.N,/TIM2_CH1*%
%TO.C,J8*%
X137000000Y-104990000D03*
D17*
%TO.N,/TIM2_CH2*%
X137000000Y-107530000D03*
%TO.N,/TIM2_CH3*%
X137000000Y-110070000D03*
%TO.N,/TIM2_CH4*%
X137000000Y-112610010D03*
%TD*%
D18*
%TO.N,+3V3*%
%TO.C,J3*%
X153200000Y-90800000D03*
D19*
%TO.N,/MCU/BOOT0*%
X153200000Y-92070000D03*
%TD*%
D11*
%TO.N,GND*%
%TO.C,H2*%
X160350000Y-73000000D03*
X160833274Y-71833274D03*
X160833274Y-74166726D03*
X162000000Y-71350000D03*
D12*
X162000000Y-73000000D03*
D11*
X162000000Y-74650000D03*
X163166726Y-71833274D03*
X163166726Y-74166726D03*
X163650000Y-73000000D03*
%TD*%
D18*
%TO.N,/MCU/NRST*%
%TO.C,J2*%
X140300000Y-103100000D03*
D19*
%TO.N,GND*%
X140300000Y-104370000D03*
%TD*%
D20*
%TO.N,GND*%
X150600000Y-72800000D03*
X139400000Y-109600000D03*
X153300000Y-71300000D03*
X156200000Y-74900000D03*
X163900000Y-89200000D03*
X146300000Y-75100000D03*
X149300000Y-73000000D03*
X149400000Y-97800000D03*
X144100000Y-74300000D03*
X150800000Y-89500000D03*
X156900000Y-74900000D03*
X141400000Y-74300000D03*
X146700000Y-72900000D03*
X142300000Y-75100000D03*
D21*
X151800000Y-121000000D03*
D20*
X155900000Y-73400000D03*
X138400000Y-95600000D03*
X164200000Y-102600000D03*
X150600000Y-73500000D03*
D21*
X148100000Y-121000000D03*
D20*
X138000000Y-99400000D03*
D21*
X144900000Y-117900000D03*
D20*
X155400000Y-115000000D03*
X146400000Y-110100000D03*
X155900000Y-72000000D03*
X155900000Y-71300000D03*
X152700000Y-117100000D03*
X153300000Y-72700000D03*
X144100000Y-101400000D03*
X148400000Y-75100000D03*
X149100000Y-75100000D03*
X149300000Y-72300000D03*
X150600000Y-74200000D03*
X154600000Y-75600000D03*
X155900000Y-74100000D03*
X144100000Y-72200000D03*
X157100000Y-91600000D03*
D21*
X153800000Y-113200000D03*
X145900000Y-117900000D03*
D20*
X141800000Y-90600000D03*
X146700000Y-74300000D03*
X144100000Y-99800000D03*
X152900000Y-74900000D03*
X162100000Y-96400000D03*
X158500000Y-72100000D03*
X146300000Y-106700000D03*
X153500000Y-84300000D03*
X143700000Y-93700000D03*
X144400000Y-75100000D03*
X138700000Y-90700000D03*
X158500000Y-74200000D03*
X161800000Y-80500000D03*
X144100000Y-73600000D03*
X147000000Y-97800000D03*
X143200000Y-75800000D03*
X146700000Y-73600000D03*
X149300000Y-71600000D03*
X153600000Y-74900000D03*
X144200000Y-88000000D03*
X157600000Y-74900000D03*
X141400000Y-73600000D03*
X150800000Y-74900000D03*
X141400000Y-72200000D03*
X150600000Y-72100000D03*
X141600000Y-75100000D03*
D21*
X151800000Y-120000000D03*
X152200000Y-111800000D03*
D20*
X147000000Y-75100000D03*
X153300000Y-74100000D03*
X136800000Y-91600000D03*
X145400000Y-96200000D03*
X146700000Y-72200000D03*
X158500000Y-111100000D03*
X148600000Y-97800000D03*
X141400000Y-71500000D03*
X152200000Y-74900000D03*
X155900000Y-72700000D03*
X153300000Y-73400000D03*
X146700000Y-71500000D03*
X144100000Y-72900000D03*
X158300000Y-74900000D03*
X149300000Y-74400000D03*
X143700000Y-75100000D03*
X150600000Y-71400000D03*
X150900000Y-106500000D03*
X141400000Y-72900000D03*
X147800000Y-97800000D03*
X147700000Y-75100000D03*
X158500000Y-71400000D03*
X151500000Y-74900000D03*
X158500000Y-72800000D03*
X143000000Y-75100000D03*
X151000000Y-78200000D03*
X142200000Y-101800000D03*
X149300000Y-73700000D03*
X155500000Y-74900000D03*
D21*
X148100000Y-120000000D03*
D20*
X144100000Y-71500000D03*
X153300000Y-72000000D03*
X157200000Y-75800000D03*
X158500000Y-73500000D03*
X136900000Y-81900000D03*
X140600000Y-88000000D03*
D21*
%TO.N,/Connectors/D-*%
X158600000Y-105200000D03*
D20*
%TO.N,/SPI2_SCK*%
X150200000Y-96200000D03*
X136900000Y-92600000D03*
X145700000Y-89500000D03*
%TO.N,/LIS2MDL.CS*%
X139500000Y-94100000D03*
X146200000Y-100200000D03*
%TO.N,/SPI2_MOSI*%
X140600000Y-92854100D03*
X143100000Y-99000000D03*
X136400000Y-86200000D03*
%TO.N,/SPI2_MISO*%
X145400000Y-91400000D03*
X140000000Y-92500000D03*
X142800000Y-97500000D03*
%TO.N,+3V3*%
X147800000Y-99400000D03*
D21*
X142500000Y-115900000D03*
D20*
X162000000Y-91500000D03*
D21*
X136900000Y-88900000D03*
X142500000Y-114900000D03*
X158900000Y-90000000D03*
D20*
X145400000Y-95400000D03*
D21*
X151000000Y-111900000D03*
D20*
X150200000Y-99400000D03*
D21*
X141500000Y-115900000D03*
D20*
X149400000Y-99400000D03*
D21*
X141500000Y-114900000D03*
X141500000Y-113900000D03*
X142900000Y-89000000D03*
X149000000Y-87900000D03*
X142500000Y-113900000D03*
X147300000Y-108400000D03*
X138100000Y-103700000D03*
X147100000Y-85700000D03*
D20*
X148600000Y-99400000D03*
D21*
X141500000Y-112900000D03*
X148100000Y-118500000D03*
D20*
X144100000Y-100600000D03*
D21*
X152400000Y-105300000D03*
X161500000Y-82600000D03*
D20*
X145400000Y-97000000D03*
D21*
X142500000Y-112900000D03*
D20*
X144200000Y-102900000D03*
X147000000Y-99400000D03*
%TO.N,/BMP_{1}.INT*%
X149400000Y-97000000D03*
X147700000Y-92200000D03*
D21*
%TO.N,VUSB*%
X155500000Y-102100000D03*
X161200000Y-101800000D03*
X159200000Y-110500000D03*
X155500000Y-106900000D03*
%TO.N,/Power/BATT_LED*%
X159200000Y-111500000D03*
D20*
%TO.N,/Power/Power_LED_VIN*%
X157800000Y-128500000D03*
%TO.N,/MCU/BOOT0*%
X147800000Y-97000000D03*
%TO.N,/Sensors/RF/GPS.TIMEPULSE*%
X158200000Y-87100000D03*
X164200000Y-87800000D03*
%TO.N,/MCU/NRST*%
X158700000Y-90900000D03*
X143000000Y-98400000D03*
%TO.N,/USART2_RX*%
X149400000Y-96200000D03*
X151800000Y-88300000D03*
D21*
%TO.N,/Connectors/CC1*%
X158600000Y-106400000D03*
%TO.N,/Connectors/D+*%
X162800000Y-106400000D03*
%TO.N,/Connectors/CC2*%
X159200000Y-101700000D03*
%TO.N,/Pyro/Pyro_{1}_Charge*%
X147300000Y-125450000D03*
X147300000Y-126450000D03*
X147300000Y-124450000D03*
%TO.N,/Pyro/Pyro_{2}_Charge*%
X149750000Y-125468599D03*
X149750000Y-124468599D03*
X149750000Y-126468599D03*
%TO.N,/Pyro/Pyro_{3}_Charge*%
X152250000Y-126500000D03*
X152250000Y-124500000D03*
X152250000Y-125500000D03*
D20*
%TO.N,/Pyro/Pyro_{2}_LED*%
X147200000Y-128500000D03*
%TO.N,/MCU/SWO*%
X156600000Y-92400000D03*
X151000000Y-92400000D03*
%TO.N,/Pyro/Pyro_{3}_LED*%
X151500000Y-128500000D03*
%TO.N,/EBYTE.NRST*%
X142400000Y-85400000D03*
X146200000Y-97000000D03*
%TO.N,/EBYTE.TXEN*%
X141100000Y-80300000D03*
X147000000Y-97000000D03*
%TO.N,/EBYTE.RXEN*%
X140400000Y-78400000D03*
X147000000Y-96200000D03*
%TO.N,/EBYTE.BUSY*%
X146100000Y-93600000D03*
X139000000Y-79700000D03*
%TO.N,/EBYTE.CS*%
X144600000Y-93600000D03*
X139700000Y-83700000D03*
%TO.N,/EBYTE.DIO3*%
X146200000Y-96200000D03*
X142800000Y-88200000D03*
%TO.N,/EBYTE.DIO2*%
X145400000Y-93800000D03*
X144100000Y-85400000D03*
%TO.N,/EBYTE.DIO1*%
X147800000Y-96200000D03*
X145600000Y-83400000D03*
%TO.N,/SPI1_MISO*%
X149100000Y-108000000D03*
X145537500Y-104862500D03*
%TO.N,/LSM6DSV320XTR.INT1*%
X146200000Y-99400000D03*
X144400000Y-105600000D03*
%TO.N,/LSM6DSV320XTR.INT2*%
X148028388Y-104771612D03*
X149400000Y-101000000D03*
%TO.N,/LSM6DSV320XTR.CS*%
X146900000Y-106300000D03*
X149400000Y-100200000D03*
%TO.N,/SPI1_SCK*%
X147400000Y-104800000D03*
X146200000Y-101000000D03*
X148950000Y-106250000D03*
%TO.N,/SPI1_MOSI*%
X149000000Y-107100000D03*
X146200000Y-104900000D03*
%TO.N,/LSM6DSM.INT1*%
X149500000Y-104700000D03*
X152100000Y-108700000D03*
%TO.N,/QUADSPI_BK1_IO2*%
X156000000Y-95300000D03*
X146500000Y-94200000D03*
%TO.N,/~{BMP_{2}.CS}*%
X138800000Y-93000000D03*
%TO.N,/MCU/Buzzer_PWM*%
X149800000Y-84400000D03*
%TO.N,/SDMMC1_CMD*%
X158800000Y-83700000D03*
X154400000Y-90700000D03*
X156900000Y-82900000D03*
%TO.N,/SDMMC1_D3*%
X156700000Y-83900000D03*
X158800000Y-84700000D03*
X154700000Y-93300000D03*
%TO.N,/SDMMC1_D2*%
X154800000Y-94400000D03*
X156000000Y-84300000D03*
X158500000Y-85800000D03*
D21*
%TO.N,/USB_OTG_FS_DP*%
X162300000Y-101700000D03*
D20*
%TO.N,/SDMMC1_CK*%
X151000000Y-96200000D03*
D21*
%TO.N,/USB_OTG_FS_DM*%
X160200000Y-101700000D03*
D20*
%TO.N,/BMP_{2}.INT*%
X140100000Y-89100000D03*
X150200000Y-97000000D03*
X143800000Y-90600000D03*
%TO.N,/MCU/PD0*%
X151000000Y-97000000D03*
%TO.N,/SD_DET*%
X154700000Y-97100000D03*
%TO.N,/MCU/PE6*%
X146200000Y-97800000D03*
%TO.N,/MCU/VCAP1*%
X150200000Y-97800000D03*
%TO.N,/MCU/PD1*%
X151000000Y-97800000D03*
%TO.N,/SDMMC1_D1*%
X159700000Y-80700000D03*
X155600000Y-97100000D03*
%TO.N,/~{FRAM.CS}*%
X143900000Y-99100000D03*
%TO.N,/MCU/VCAP2*%
X151000000Y-99400000D03*
%TO.N,/SDMMC1_D0*%
X156300000Y-96600000D03*
X160700000Y-80800000D03*
%TO.N,/ADC1_INP4*%
X147000000Y-100200000D03*
X142200000Y-123500000D03*
%TO.N,/QUADSPI_CLK*%
X154100000Y-103500000D03*
X163500000Y-95200000D03*
X163200000Y-100900000D03*
X147800000Y-100200000D03*
X148000000Y-103100000D03*
%TO.N,/MCU/PE14*%
X150200000Y-100200000D03*
%TO.N,/MCU/PD15*%
X151000000Y-100200000D03*
%TO.N,/QUADSPI_BK1_IO0*%
X157900000Y-97700000D03*
X162100000Y-95100000D03*
%TO.N,/USB_OTG_HS_DP*%
X157969798Y-96600000D03*
X160700000Y-93400000D03*
%TO.N,/ADC1_INP8*%
X142200000Y-125400000D03*
X147000000Y-101000000D03*
%TO.N,/MCU/PE7*%
X147800000Y-101000000D03*
%TO.N,/MCU/PE15*%
X150200000Y-101000000D03*
%TO.N,/MCU/PD14*%
X151000000Y-101000000D03*
%TO.N,/Pyro_{3}_Gate*%
X154700000Y-107500000D03*
%TO.N,/USB_OTG_HS_DM*%
X154000000Y-100600000D03*
X161300000Y-93700000D03*
%TO.N,/ADC1_INP9*%
X142200000Y-127500000D03*
X147100000Y-104100000D03*
%TO.N,/QUADSPI_BK1_NCS*%
X151300000Y-104800000D03*
%TO.N,/Pyro_{2}_Gate*%
X154100000Y-107500000D03*
%TO.N,/QUADSPI_BK1_IO3*%
X154300000Y-102400000D03*
%TO.N,/MCU/ADC_BATT*%
X147800000Y-104200000D03*
X155500000Y-108800000D03*
%TO.N,/Pyro_{1}_Gate*%
X153500000Y-107500000D03*
%TO.N,/QUADSPI_BK1_IO1*%
X153300000Y-102600000D03*
%TD*%
%TA.AperFunction,Conductor*%
%TO.N,GND*%
G36*
X162003471Y-70400695D02*
G01*
X162037749Y-70402619D01*
X162284107Y-70416455D01*
X162297906Y-70418009D01*
X162533861Y-70458100D01*
X162571574Y-70464508D01*
X162585131Y-70467602D01*
X162851871Y-70544449D01*
X162864995Y-70549042D01*
X163121445Y-70655266D01*
X163133967Y-70661295D01*
X163320623Y-70764457D01*
X163376921Y-70795572D01*
X163388695Y-70802970D01*
X163615080Y-70963598D01*
X163625952Y-70972268D01*
X163832931Y-71157235D01*
X163842764Y-71167068D01*
X164027731Y-71374047D01*
X164036401Y-71384919D01*
X164197029Y-71611304D01*
X164204427Y-71623078D01*
X164338700Y-71866025D01*
X164344733Y-71878554D01*
X164450957Y-72135004D01*
X164455550Y-72148128D01*
X164532397Y-72414868D01*
X164535491Y-72428425D01*
X164581988Y-72702082D01*
X164583545Y-72715900D01*
X164599305Y-72996527D01*
X164599500Y-73003480D01*
X164599500Y-87120820D01*
X164579815Y-87187859D01*
X164527011Y-87233614D01*
X164457853Y-87243558D01*
X164441029Y-87238945D01*
X164440869Y-87239545D01*
X164433020Y-87237442D01*
X164433019Y-87237441D01*
X164279479Y-87196300D01*
X164120521Y-87196300D01*
X163966981Y-87237441D01*
X163966979Y-87237441D01*
X163966979Y-87237442D01*
X163829320Y-87316920D01*
X163829317Y-87316922D01*
X163716922Y-87429317D01*
X163716920Y-87429320D01*
X163693040Y-87470682D01*
X163637441Y-87566981D01*
X163596300Y-87720521D01*
X163596300Y-87879479D01*
X163637441Y-88033019D01*
X163716920Y-88170680D01*
X163829320Y-88283080D01*
X163966981Y-88362559D01*
X164120521Y-88403700D01*
X164120523Y-88403700D01*
X164279476Y-88403700D01*
X164279479Y-88403700D01*
X164433019Y-88362559D01*
X164433020Y-88362557D01*
X164440869Y-88360455D01*
X164441594Y-88363162D01*
X164497511Y-88357148D01*
X164559992Y-88388420D01*
X164595647Y-88448507D01*
X164599500Y-88479179D01*
X164599500Y-126996519D01*
X164599305Y-127003472D01*
X164583545Y-127284099D01*
X164581988Y-127297917D01*
X164535491Y-127571574D01*
X164532397Y-127585131D01*
X164455550Y-127851871D01*
X164450957Y-127864995D01*
X164344733Y-128121445D01*
X164338700Y-128133974D01*
X164204427Y-128376921D01*
X164197029Y-128388695D01*
X164036401Y-128615080D01*
X164027731Y-128625952D01*
X163842764Y-128832931D01*
X163832931Y-128842764D01*
X163625952Y-129027731D01*
X163615080Y-129036401D01*
X163388695Y-129197029D01*
X163376921Y-129204427D01*
X163133974Y-129338700D01*
X163121445Y-129344733D01*
X162864995Y-129450957D01*
X162851871Y-129455550D01*
X162585131Y-129532397D01*
X162571574Y-129535491D01*
X162297917Y-129581988D01*
X162284099Y-129583545D01*
X162003472Y-129599305D01*
X161996519Y-129599500D01*
X138003481Y-129599500D01*
X137996528Y-129599305D01*
X137715900Y-129583545D01*
X137702082Y-129581988D01*
X137428425Y-129535491D01*
X137414868Y-129532397D01*
X137148128Y-129455550D01*
X137135004Y-129450957D01*
X136878554Y-129344733D01*
X136866025Y-129338700D01*
X136623078Y-129204427D01*
X136611304Y-129197029D01*
X136384919Y-129036401D01*
X136374047Y-129027731D01*
X136270557Y-128935247D01*
X136167066Y-128842762D01*
X136157235Y-128832931D01*
X136067949Y-128733020D01*
X135972268Y-128625952D01*
X135963598Y-128615080D01*
X135870698Y-128484149D01*
X135825552Y-128420521D01*
X146596300Y-128420521D01*
X146596300Y-128579479D01*
X146637441Y-128733019D01*
X146716920Y-128870680D01*
X146829320Y-128983080D01*
X146966981Y-129062559D01*
X147120521Y-129103700D01*
X147120523Y-129103700D01*
X147279476Y-129103700D01*
X147279479Y-129103700D01*
X147433019Y-129062559D01*
X147570680Y-128983080D01*
X147683080Y-128870680D01*
X147762559Y-128733019D01*
X147803700Y-128579479D01*
X147803700Y-128420521D01*
X150896300Y-128420521D01*
X150896300Y-128579479D01*
X150937441Y-128733019D01*
X151016920Y-128870680D01*
X151129320Y-128983080D01*
X151266981Y-129062559D01*
X151420521Y-129103700D01*
X151420523Y-129103700D01*
X151579476Y-129103700D01*
X151579479Y-129103700D01*
X151733019Y-129062559D01*
X151870680Y-128983080D01*
X151983080Y-128870680D01*
X152062559Y-128733019D01*
X152103700Y-128579479D01*
X152103700Y-128420521D01*
X157196300Y-128420521D01*
X157196300Y-128579479D01*
X157237441Y-128733019D01*
X157316920Y-128870680D01*
X157429320Y-128983080D01*
X157566981Y-129062559D01*
X157720521Y-129103700D01*
X157720523Y-129103700D01*
X157879476Y-129103700D01*
X157879479Y-129103700D01*
X158033019Y-129062559D01*
X158170680Y-128983080D01*
X158283080Y-128870680D01*
X158362559Y-128733019D01*
X158403700Y-128579479D01*
X158403700Y-128420521D01*
X158362559Y-128266981D01*
X158283080Y-128129320D01*
X158170680Y-128016920D01*
X158033019Y-127937441D01*
X157879479Y-127896300D01*
X157720521Y-127896300D01*
X157566981Y-127937441D01*
X157566979Y-127937441D01*
X157566979Y-127937442D01*
X157429320Y-128016920D01*
X157429317Y-128016922D01*
X157316922Y-128129317D01*
X157316920Y-128129320D01*
X157237441Y-128266981D01*
X157196300Y-128420521D01*
X152103700Y-128420521D01*
X152062559Y-128266981D01*
X151983080Y-128129320D01*
X151870680Y-128016920D01*
X151733019Y-127937441D01*
X151579479Y-127896300D01*
X151420521Y-127896300D01*
X151266981Y-127937441D01*
X151266979Y-127937441D01*
X151266979Y-127937442D01*
X151129320Y-128016920D01*
X151129317Y-128016922D01*
X151016922Y-128129317D01*
X151016920Y-128129320D01*
X150937441Y-128266981D01*
X150896300Y-128420521D01*
X147803700Y-128420521D01*
X147762559Y-128266981D01*
X147683080Y-128129320D01*
X147570680Y-128016920D01*
X147433019Y-127937441D01*
X147279479Y-127896300D01*
X147120521Y-127896300D01*
X146966981Y-127937441D01*
X146966979Y-127937441D01*
X146966979Y-127937442D01*
X146829320Y-128016920D01*
X146829317Y-128016922D01*
X146716922Y-128129317D01*
X146716920Y-128129320D01*
X146637441Y-128266981D01*
X146596300Y-128420521D01*
X135825552Y-128420521D01*
X135802970Y-128388695D01*
X135795572Y-128376921D01*
X135661299Y-128133974D01*
X135655266Y-128121445D01*
X135549042Y-127864995D01*
X135544449Y-127851871D01*
X135467602Y-127585131D01*
X135464508Y-127571574D01*
X135440991Y-127433165D01*
X135438843Y-127420521D01*
X141596300Y-127420521D01*
X141596300Y-127579479D01*
X141637441Y-127733019D01*
X141716920Y-127870680D01*
X141829320Y-127983080D01*
X141966981Y-128062559D01*
X142120521Y-128103700D01*
X142120523Y-128103700D01*
X142279476Y-128103700D01*
X142279479Y-128103700D01*
X142433019Y-128062559D01*
X142570680Y-127983080D01*
X142683080Y-127870680D01*
X142762559Y-127733019D01*
X142803700Y-127579479D01*
X142803700Y-127420521D01*
X142762559Y-127266981D01*
X142683080Y-127129320D01*
X142570680Y-127016920D01*
X142433019Y-126937441D01*
X142279479Y-126896300D01*
X142120521Y-126896300D01*
X141966981Y-126937441D01*
X141966979Y-126937441D01*
X141966979Y-126937442D01*
X141829320Y-127016920D01*
X141829317Y-127016922D01*
X141716922Y-127129317D01*
X141716920Y-127129320D01*
X141691368Y-127173578D01*
X141637441Y-127266981D01*
X141596300Y-127420521D01*
X135438843Y-127420521D01*
X135418009Y-127297906D01*
X135416455Y-127284107D01*
X135400695Y-127003471D01*
X135400500Y-126996519D01*
X135400500Y-125320521D01*
X141596300Y-125320521D01*
X141596300Y-125479479D01*
X141637441Y-125633019D01*
X141716920Y-125770680D01*
X141829320Y-125883080D01*
X141966981Y-125962559D01*
X142120521Y-126003700D01*
X142120523Y-126003700D01*
X142279476Y-126003700D01*
X142279479Y-126003700D01*
X142433019Y-125962559D01*
X142570680Y-125883080D01*
X142683080Y-125770680D01*
X142762559Y-125633019D01*
X142803700Y-125479479D01*
X142803700Y-125320521D01*
X142762559Y-125166981D01*
X142683080Y-125029320D01*
X142570680Y-124916920D01*
X142433019Y-124837441D01*
X142279479Y-124796300D01*
X142120521Y-124796300D01*
X141966981Y-124837441D01*
X141966979Y-124837441D01*
X141966979Y-124837442D01*
X141829320Y-124916920D01*
X141829317Y-124916922D01*
X141716922Y-125029317D01*
X141716920Y-125029320D01*
X141654870Y-125136794D01*
X141637441Y-125166981D01*
X141596300Y-125320521D01*
X135400500Y-125320521D01*
X135400500Y-124518995D01*
X146599499Y-124518995D01*
X146626418Y-124654322D01*
X146626421Y-124654332D01*
X146679221Y-124781804D01*
X146679228Y-124781817D01*
X146745573Y-124881109D01*
X146766451Y-124947787D01*
X146747966Y-125015167D01*
X146745573Y-125018891D01*
X146679228Y-125118182D01*
X146679221Y-125118195D01*
X146626421Y-125245667D01*
X146626418Y-125245677D01*
X146599500Y-125381004D01*
X146599500Y-125381007D01*
X146599500Y-125518993D01*
X146599500Y-125518995D01*
X146599499Y-125518995D01*
X146626418Y-125654322D01*
X146626421Y-125654332D01*
X146679221Y-125781804D01*
X146679228Y-125781817D01*
X146745573Y-125881109D01*
X146766451Y-125947787D01*
X146747966Y-126015167D01*
X146745573Y-126018891D01*
X146679228Y-126118182D01*
X146679221Y-126118195D01*
X146626421Y-126245667D01*
X146626418Y-126245677D01*
X146599500Y-126381004D01*
X146599500Y-126381007D01*
X146599500Y-126518993D01*
X146599500Y-126518995D01*
X146599499Y-126518995D01*
X146626418Y-126654322D01*
X146626421Y-126654332D01*
X146679221Y-126781804D01*
X146679228Y-126781817D01*
X146755885Y-126896541D01*
X146755888Y-126896545D01*
X146853454Y-126994111D01*
X146853458Y-126994114D01*
X146968182Y-127070771D01*
X146968195Y-127070778D01*
X147088890Y-127120771D01*
X147095672Y-127123580D01*
X147095676Y-127123580D01*
X147095677Y-127123581D01*
X147231004Y-127150500D01*
X147231007Y-127150500D01*
X147368995Y-127150500D01*
X147475486Y-127129317D01*
X147504328Y-127123580D01*
X147631811Y-127070775D01*
X147746542Y-126994114D01*
X147844114Y-126896542D01*
X147920775Y-126781811D01*
X147973580Y-126654328D01*
X147996800Y-126537594D01*
X148000500Y-126518995D01*
X148000500Y-126381004D01*
X147973581Y-126245677D01*
X147973580Y-126245676D01*
X147973580Y-126245672D01*
X147941483Y-126168182D01*
X147920778Y-126118195D01*
X147920776Y-126118191D01*
X147920775Y-126118189D01*
X147854425Y-126018890D01*
X147833548Y-125952214D01*
X147852032Y-125884834D01*
X147854426Y-125881109D01*
X147887362Y-125831817D01*
X147920775Y-125781811D01*
X147973580Y-125654328D01*
X147996800Y-125537594D01*
X148000500Y-125518995D01*
X148000500Y-125381004D01*
X147973581Y-125245677D01*
X147973580Y-125245676D01*
X147973580Y-125245672D01*
X147941483Y-125168182D01*
X147920778Y-125118195D01*
X147920776Y-125118191D01*
X147920775Y-125118189D01*
X147854425Y-125018890D01*
X147833548Y-124952214D01*
X147852032Y-124884834D01*
X147854426Y-124881109D01*
X147887362Y-124831817D01*
X147920775Y-124781811D01*
X147973580Y-124654328D01*
X147996800Y-124537594D01*
X149049499Y-124537594D01*
X149076418Y-124672921D01*
X149076421Y-124672931D01*
X149129221Y-124800403D01*
X149129228Y-124800416D01*
X149195573Y-124899708D01*
X149216451Y-124966386D01*
X149197966Y-125033766D01*
X149195573Y-125037490D01*
X149129228Y-125136781D01*
X149129221Y-125136794D01*
X149076421Y-125264266D01*
X149076418Y-125264276D01*
X149049500Y-125399603D01*
X149049500Y-125399606D01*
X149049500Y-125537592D01*
X149049500Y-125537594D01*
X149049499Y-125537594D01*
X149076418Y-125672921D01*
X149076421Y-125672931D01*
X149129221Y-125800403D01*
X149129228Y-125800416D01*
X149195573Y-125899708D01*
X149216451Y-125966386D01*
X149197966Y-126033766D01*
X149195573Y-126037490D01*
X149129228Y-126136781D01*
X149129221Y-126136794D01*
X149076421Y-126264266D01*
X149076418Y-126264276D01*
X149049500Y-126399603D01*
X149049500Y-126399606D01*
X149049500Y-126537592D01*
X149049500Y-126537594D01*
X149049499Y-126537594D01*
X149076418Y-126672921D01*
X149076421Y-126672931D01*
X149129221Y-126800403D01*
X149129228Y-126800416D01*
X149205885Y-126915140D01*
X149205888Y-126915144D01*
X149303454Y-127012710D01*
X149303458Y-127012713D01*
X149418182Y-127089370D01*
X149418195Y-127089377D01*
X149545667Y-127142177D01*
X149545672Y-127142179D01*
X149545676Y-127142179D01*
X149545677Y-127142180D01*
X149681004Y-127169099D01*
X149681007Y-127169099D01*
X149818995Y-127169099D01*
X149912496Y-127150500D01*
X149954328Y-127142179D01*
X150081811Y-127089374D01*
X150196542Y-127012713D01*
X150294114Y-126915141D01*
X150370775Y-126800410D01*
X150423580Y-126672927D01*
X150450500Y-126537592D01*
X150450500Y-126399606D01*
X150450500Y-126399603D01*
X150423581Y-126264276D01*
X150423580Y-126264275D01*
X150423580Y-126264271D01*
X150415874Y-126245667D01*
X150370778Y-126136794D01*
X150370776Y-126136790D01*
X150370775Y-126136788D01*
X150304425Y-126037489D01*
X150283548Y-125970813D01*
X150302032Y-125903433D01*
X150304426Y-125899708D01*
X150306541Y-125896542D01*
X150370775Y-125800410D01*
X150423580Y-125672927D01*
X150450500Y-125537592D01*
X150450500Y-125399606D01*
X150450500Y-125399603D01*
X150423581Y-125264276D01*
X150423580Y-125264275D01*
X150423580Y-125264271D01*
X150415874Y-125245667D01*
X150370778Y-125136794D01*
X150370776Y-125136790D01*
X150370775Y-125136788D01*
X150304425Y-125037489D01*
X150283548Y-124970813D01*
X150302032Y-124903433D01*
X150304426Y-124899708D01*
X150306541Y-124896542D01*
X150370775Y-124800410D01*
X150423580Y-124672927D01*
X150444254Y-124568995D01*
X151549499Y-124568995D01*
X151576418Y-124704322D01*
X151576421Y-124704332D01*
X151629221Y-124831804D01*
X151629228Y-124831817D01*
X151695573Y-124931109D01*
X151716451Y-124997787D01*
X151697966Y-125065167D01*
X151695573Y-125068891D01*
X151629228Y-125168182D01*
X151629221Y-125168195D01*
X151576421Y-125295667D01*
X151576418Y-125295677D01*
X151549500Y-125431004D01*
X151549500Y-125431007D01*
X151549500Y-125568993D01*
X151549500Y-125568995D01*
X151549499Y-125568995D01*
X151576418Y-125704322D01*
X151576421Y-125704332D01*
X151629221Y-125831804D01*
X151629228Y-125831817D01*
X151695573Y-125931109D01*
X151716451Y-125997787D01*
X151697966Y-126065167D01*
X151695573Y-126068891D01*
X151629228Y-126168182D01*
X151629221Y-126168195D01*
X151576421Y-126295667D01*
X151576418Y-126295677D01*
X151549500Y-126431004D01*
X151549500Y-126431007D01*
X151549500Y-126568993D01*
X151549500Y-126568995D01*
X151549499Y-126568995D01*
X151576418Y-126704322D01*
X151576421Y-126704332D01*
X151629221Y-126831804D01*
X151629228Y-126831817D01*
X151705885Y-126946541D01*
X151705888Y-126946545D01*
X151803454Y-127044111D01*
X151803458Y-127044114D01*
X151918182Y-127120771D01*
X151918195Y-127120778D01*
X152034854Y-127169099D01*
X152045672Y-127173580D01*
X152045676Y-127173580D01*
X152045677Y-127173581D01*
X152181004Y-127200500D01*
X152181007Y-127200500D01*
X152318995Y-127200500D01*
X152410041Y-127182389D01*
X152454328Y-127173580D01*
X152552924Y-127132740D01*
X152581804Y-127120778D01*
X152581804Y-127120777D01*
X152581811Y-127120775D01*
X152696542Y-127044114D01*
X152794114Y-126946542D01*
X152870775Y-126831811D01*
X152923580Y-126704328D01*
X152950500Y-126568993D01*
X152950500Y-126431007D01*
X152950500Y-126431004D01*
X152923581Y-126295677D01*
X152923580Y-126295676D01*
X152923580Y-126295672D01*
X152923578Y-126295667D01*
X152870778Y-126168195D01*
X152870776Y-126168191D01*
X152870775Y-126168189D01*
X152804425Y-126068890D01*
X152783548Y-126002214D01*
X152802032Y-125934834D01*
X152804426Y-125931109D01*
X152870775Y-125831811D01*
X152923580Y-125704328D01*
X152950500Y-125568993D01*
X152950500Y-125431007D01*
X152950500Y-125431004D01*
X152923581Y-125295677D01*
X152923580Y-125295676D01*
X152923580Y-125295672D01*
X152923578Y-125295667D01*
X152870778Y-125168195D01*
X152870776Y-125168191D01*
X152870775Y-125168189D01*
X152804425Y-125068890D01*
X152783548Y-125002214D01*
X152802032Y-124934834D01*
X152804426Y-124931109D01*
X152870775Y-124831811D01*
X152923580Y-124704328D01*
X152950500Y-124568993D01*
X152950500Y-124431007D01*
X152950500Y-124431004D01*
X152923581Y-124295677D01*
X152923580Y-124295676D01*
X152923580Y-124295672D01*
X152923578Y-124295667D01*
X152870778Y-124168195D01*
X152870771Y-124168182D01*
X152794114Y-124053458D01*
X152794111Y-124053454D01*
X152696545Y-123955888D01*
X152696541Y-123955885D01*
X152581817Y-123879228D01*
X152581804Y-123879221D01*
X152454332Y-123826421D01*
X152454322Y-123826418D01*
X152318995Y-123799500D01*
X152318993Y-123799500D01*
X152181007Y-123799500D01*
X152181005Y-123799500D01*
X152045677Y-123826418D01*
X152045667Y-123826421D01*
X151918195Y-123879221D01*
X151918182Y-123879228D01*
X151803458Y-123955885D01*
X151803454Y-123955888D01*
X151705888Y-124053454D01*
X151705885Y-124053458D01*
X151629228Y-124168182D01*
X151629221Y-124168195D01*
X151576421Y-124295667D01*
X151576418Y-124295677D01*
X151549500Y-124431004D01*
X151549500Y-124431007D01*
X151549500Y-124568993D01*
X151549500Y-124568995D01*
X151549499Y-124568995D01*
X150444254Y-124568995D01*
X150450500Y-124537592D01*
X150450500Y-124399606D01*
X150450500Y-124399603D01*
X150423581Y-124264276D01*
X150423580Y-124264275D01*
X150423580Y-124264271D01*
X150415874Y-124245667D01*
X150370778Y-124136794D01*
X150370771Y-124136781D01*
X150294114Y-124022057D01*
X150294111Y-124022053D01*
X150196545Y-123924487D01*
X150196541Y-123924484D01*
X150081817Y-123847827D01*
X150081804Y-123847820D01*
X149954332Y-123795020D01*
X149954322Y-123795017D01*
X149818995Y-123768099D01*
X149818993Y-123768099D01*
X149681007Y-123768099D01*
X149681005Y-123768099D01*
X149545677Y-123795017D01*
X149545667Y-123795020D01*
X149418195Y-123847820D01*
X149418182Y-123847827D01*
X149303458Y-123924484D01*
X149303454Y-123924487D01*
X149205888Y-124022053D01*
X149205885Y-124022057D01*
X149129228Y-124136781D01*
X149129221Y-124136794D01*
X149076421Y-124264266D01*
X149076418Y-124264276D01*
X149049500Y-124399603D01*
X149049500Y-124399606D01*
X149049500Y-124537592D01*
X149049500Y-124537594D01*
X149049499Y-124537594D01*
X147996800Y-124537594D01*
X148000500Y-124518995D01*
X148000500Y-124381004D01*
X147973581Y-124245677D01*
X147973580Y-124245676D01*
X147973580Y-124245672D01*
X147941483Y-124168182D01*
X147920778Y-124118195D01*
X147920771Y-124118182D01*
X147844114Y-124003458D01*
X147844111Y-124003454D01*
X147746545Y-123905888D01*
X147746541Y-123905885D01*
X147631817Y-123829228D01*
X147631804Y-123829221D01*
X147504332Y-123776421D01*
X147504322Y-123776418D01*
X147368995Y-123749500D01*
X147368993Y-123749500D01*
X147231007Y-123749500D01*
X147231005Y-123749500D01*
X147095677Y-123776418D01*
X147095667Y-123776421D01*
X146968195Y-123829221D01*
X146968182Y-123829228D01*
X146853458Y-123905885D01*
X146853454Y-123905888D01*
X146755888Y-124003454D01*
X146755885Y-124003458D01*
X146679228Y-124118182D01*
X146679221Y-124118195D01*
X146626421Y-124245667D01*
X146626418Y-124245677D01*
X146599500Y-124381004D01*
X146599500Y-124381007D01*
X146599500Y-124518993D01*
X146599500Y-124518995D01*
X146599499Y-124518995D01*
X135400500Y-124518995D01*
X135400500Y-123420521D01*
X141596300Y-123420521D01*
X141596300Y-123579479D01*
X141637441Y-123733019D01*
X141716920Y-123870680D01*
X141829320Y-123983080D01*
X141966981Y-124062559D01*
X142120521Y-124103700D01*
X142120523Y-124103700D01*
X142279476Y-124103700D01*
X142279479Y-124103700D01*
X142433019Y-124062559D01*
X142570680Y-123983080D01*
X142683080Y-123870680D01*
X142762559Y-123733019D01*
X142803700Y-123579479D01*
X142803700Y-123420521D01*
X142762559Y-123266981D01*
X142683080Y-123129320D01*
X142570680Y-123016920D01*
X142433019Y-122937441D01*
X142279479Y-122896300D01*
X142120521Y-122896300D01*
X141966981Y-122937441D01*
X141966979Y-122937441D01*
X141966979Y-122937442D01*
X141829320Y-123016920D01*
X141829317Y-123016922D01*
X141716922Y-123129317D01*
X141716920Y-123129320D01*
X141637441Y-123266981D01*
X141596300Y-123420521D01*
X135400500Y-123420521D01*
X135400500Y-118568995D01*
X147399499Y-118568995D01*
X147426418Y-118704322D01*
X147426421Y-118704332D01*
X147479221Y-118831804D01*
X147479228Y-118831817D01*
X147555885Y-118946541D01*
X147555888Y-118946545D01*
X147653454Y-119044111D01*
X147653458Y-119044114D01*
X147768182Y-119120771D01*
X147768195Y-119120778D01*
X147895667Y-119173578D01*
X147895672Y-119173580D01*
X147895676Y-119173580D01*
X147895677Y-119173581D01*
X148031004Y-119200500D01*
X148031007Y-119200500D01*
X148168995Y-119200500D01*
X148260041Y-119182389D01*
X148304328Y-119173580D01*
X148431811Y-119120775D01*
X148546542Y-119044114D01*
X148644114Y-118946542D01*
X148720775Y-118831811D01*
X148746370Y-118770020D01*
X160648500Y-118770020D01*
X160648500Y-119029983D01*
X160689164Y-119286729D01*
X160769496Y-119533962D01*
X160887510Y-119765577D01*
X161040306Y-119975882D01*
X161224120Y-120159696D01*
X161434425Y-120312492D01*
X161543857Y-120368250D01*
X161666039Y-120430505D01*
X161666041Y-120430505D01*
X161666044Y-120430507D01*
X161798564Y-120473565D01*
X161913272Y-120510837D01*
X162170019Y-120551502D01*
X162170024Y-120551502D01*
X162429981Y-120551502D01*
X162686727Y-120510837D01*
X162933956Y-120430507D01*
X163165575Y-120312492D01*
X163375880Y-120159696D01*
X163559694Y-119975882D01*
X163712490Y-119765577D01*
X163830505Y-119533958D01*
X163910835Y-119286729D01*
X163928756Y-119173580D01*
X163951500Y-119029983D01*
X163951500Y-118770020D01*
X163910835Y-118513274D01*
X163873563Y-118398566D01*
X163830505Y-118266046D01*
X163830503Y-118266043D01*
X163830503Y-118266041D01*
X163768248Y-118143859D01*
X163712490Y-118034427D01*
X163559694Y-117824122D01*
X163375880Y-117640308D01*
X163165575Y-117487512D01*
X162933960Y-117369498D01*
X162686727Y-117289166D01*
X162429981Y-117248502D01*
X162429976Y-117248502D01*
X162170024Y-117248502D01*
X162170019Y-117248502D01*
X161913272Y-117289166D01*
X161666039Y-117369498D01*
X161434424Y-117487512D01*
X161314438Y-117574687D01*
X161224120Y-117640308D01*
X161224118Y-117640310D01*
X161224117Y-117640310D01*
X161040308Y-117824119D01*
X161040308Y-117824120D01*
X161040306Y-117824122D01*
X161038636Y-117826421D01*
X160887510Y-118034426D01*
X160769496Y-118266041D01*
X160689164Y-118513274D01*
X160648500Y-118770020D01*
X148746370Y-118770020D01*
X148773580Y-118704328D01*
X148800500Y-118568993D01*
X148800500Y-118431007D01*
X148800500Y-118431004D01*
X148773581Y-118295677D01*
X148773580Y-118295676D01*
X148773580Y-118295672D01*
X148761309Y-118266046D01*
X148720778Y-118168195D01*
X148720771Y-118168182D01*
X148644114Y-118053458D01*
X148644111Y-118053454D01*
X148546545Y-117955888D01*
X148546541Y-117955885D01*
X148431817Y-117879228D01*
X148431804Y-117879221D01*
X148304332Y-117826421D01*
X148304322Y-117826418D01*
X148168995Y-117799500D01*
X148168993Y-117799500D01*
X148031007Y-117799500D01*
X148031005Y-117799500D01*
X147895677Y-117826418D01*
X147895667Y-117826421D01*
X147768195Y-117879221D01*
X147768182Y-117879228D01*
X147653458Y-117955885D01*
X147653454Y-117955888D01*
X147555888Y-118053454D01*
X147555885Y-118053458D01*
X147479228Y-118168182D01*
X147479221Y-118168195D01*
X147426421Y-118295667D01*
X147426418Y-118295677D01*
X147399500Y-118431004D01*
X147399500Y-118431007D01*
X147399500Y-118568993D01*
X147399500Y-118568995D01*
X147399499Y-118568995D01*
X135400500Y-118568995D01*
X135400500Y-112523399D01*
X135899500Y-112523399D01*
X135899500Y-112696620D01*
X135925693Y-112862001D01*
X135926598Y-112867711D01*
X135980127Y-113032455D01*
X136058768Y-113186798D01*
X136160586Y-113326938D01*
X136283072Y-113449424D01*
X136423212Y-113551242D01*
X136577555Y-113629883D01*
X136742299Y-113683412D01*
X136913389Y-113710510D01*
X136913390Y-113710510D01*
X137086610Y-113710510D01*
X137086611Y-113710510D01*
X137257701Y-113683412D01*
X137422445Y-113629883D01*
X137576788Y-113551242D01*
X137716928Y-113449424D01*
X137839414Y-113326938D01*
X137941232Y-113186798D01*
X138019873Y-113032455D01*
X138040493Y-112968995D01*
X140799499Y-112968995D01*
X140826418Y-113104322D01*
X140826421Y-113104332D01*
X140879221Y-113231804D01*
X140879228Y-113231817D01*
X140945573Y-113331109D01*
X140966451Y-113397787D01*
X140947966Y-113465167D01*
X140945573Y-113468891D01*
X140879228Y-113568182D01*
X140879221Y-113568195D01*
X140826421Y-113695667D01*
X140826418Y-113695677D01*
X140799500Y-113831004D01*
X140799500Y-113831007D01*
X140799500Y-113968993D01*
X140799500Y-113968995D01*
X140799499Y-113968995D01*
X140826418Y-114104322D01*
X140826421Y-114104332D01*
X140879221Y-114231804D01*
X140879228Y-114231817D01*
X140945573Y-114331109D01*
X140966451Y-114397787D01*
X140947966Y-114465167D01*
X140945573Y-114468891D01*
X140879228Y-114568182D01*
X140879221Y-114568195D01*
X140826421Y-114695667D01*
X140826418Y-114695677D01*
X140799500Y-114831004D01*
X140799500Y-114831007D01*
X140799500Y-114968993D01*
X140799500Y-114968995D01*
X140799499Y-114968995D01*
X140826418Y-115104322D01*
X140826421Y-115104332D01*
X140879221Y-115231804D01*
X140879228Y-115231817D01*
X140945573Y-115331109D01*
X140966451Y-115397787D01*
X140947966Y-115465167D01*
X140945573Y-115468891D01*
X140879228Y-115568182D01*
X140879221Y-115568195D01*
X140826421Y-115695667D01*
X140826418Y-115695677D01*
X140799500Y-115831004D01*
X140799500Y-115831007D01*
X140799500Y-115968993D01*
X140799500Y-115968995D01*
X140799499Y-115968995D01*
X140826418Y-116104322D01*
X140826421Y-116104332D01*
X140879221Y-116231804D01*
X140879228Y-116231817D01*
X140955885Y-116346541D01*
X140955888Y-116346545D01*
X141053454Y-116444111D01*
X141053458Y-116444114D01*
X141168182Y-116520771D01*
X141168195Y-116520778D01*
X141295667Y-116573578D01*
X141295672Y-116573580D01*
X141295676Y-116573580D01*
X141295677Y-116573581D01*
X141431004Y-116600500D01*
X141431007Y-116600500D01*
X141568995Y-116600500D01*
X141660041Y-116582389D01*
X141704328Y-116573580D01*
X141831811Y-116520775D01*
X141931109Y-116454425D01*
X141997786Y-116433548D01*
X142065166Y-116452032D01*
X142068889Y-116454425D01*
X142168189Y-116520775D01*
X142168191Y-116520776D01*
X142168195Y-116520778D01*
X142295667Y-116573578D01*
X142295672Y-116573580D01*
X142295676Y-116573580D01*
X142295677Y-116573581D01*
X142431004Y-116600500D01*
X142431007Y-116600500D01*
X142568995Y-116600500D01*
X142660041Y-116582389D01*
X142704328Y-116573580D01*
X142831811Y-116520775D01*
X142946542Y-116444114D01*
X143044114Y-116346542D01*
X143120775Y-116231811D01*
X143173580Y-116104328D01*
X143200500Y-115968993D01*
X143200500Y-115831007D01*
X143200500Y-115831004D01*
X143173581Y-115695677D01*
X143173580Y-115695676D01*
X143173580Y-115695672D01*
X143141232Y-115617577D01*
X149823475Y-115617577D01*
X149928736Y-115661178D01*
X149928740Y-115661179D01*
X150073626Y-115689999D01*
X150073629Y-115690000D01*
X150221371Y-115690000D01*
X150221373Y-115689999D01*
X150366260Y-115661179D01*
X150366275Y-115661175D01*
X150471524Y-115617578D01*
X150471524Y-115617577D01*
X151003475Y-115617577D01*
X151108736Y-115661178D01*
X151108740Y-115661179D01*
X151253626Y-115689999D01*
X151253629Y-115690000D01*
X151401371Y-115690000D01*
X151401373Y-115689999D01*
X151546260Y-115661179D01*
X151546275Y-115661175D01*
X151651524Y-115617578D01*
X151651524Y-115617577D01*
X151327501Y-115293554D01*
X151327500Y-115293554D01*
X151003475Y-115617577D01*
X150471524Y-115617577D01*
X150147501Y-115293554D01*
X150147500Y-115293554D01*
X149823475Y-115617577D01*
X143141232Y-115617577D01*
X143120775Y-115568189D01*
X143052017Y-115465286D01*
X143049868Y-115461525D01*
X143042744Y-115431585D01*
X143033548Y-115402214D01*
X143034730Y-115397901D01*
X143033696Y-115393552D01*
X143043889Y-115364516D01*
X143052032Y-115334834D01*
X143054426Y-115331109D01*
X143120775Y-115231811D01*
X143173580Y-115104328D01*
X143200500Y-114968993D01*
X143200500Y-114866126D01*
X149397500Y-114866126D01*
X149397500Y-115013873D01*
X149426320Y-115158759D01*
X149426322Y-115158767D01*
X149469921Y-115264024D01*
X149793946Y-114940000D01*
X149793946Y-114939999D01*
X149774056Y-114920109D01*
X150047500Y-114920109D01*
X150047500Y-114959891D01*
X150062724Y-114996645D01*
X150090855Y-115024776D01*
X150127609Y-115040000D01*
X150167391Y-115040000D01*
X150204145Y-115024776D01*
X150232276Y-114996645D01*
X150247500Y-114959891D01*
X150247500Y-114940000D01*
X150501054Y-114940000D01*
X150737500Y-115176446D01*
X150973946Y-114940000D01*
X150954055Y-114920109D01*
X151227500Y-114920109D01*
X151227500Y-114959891D01*
X151242724Y-114996645D01*
X151270855Y-115024776D01*
X151307609Y-115040000D01*
X151347391Y-115040000D01*
X151384145Y-115024776D01*
X151412276Y-114996645D01*
X151427500Y-114959891D01*
X151427500Y-114939999D01*
X151681054Y-114939999D01*
X151681054Y-114940001D01*
X152005077Y-115264024D01*
X152005078Y-115264024D01*
X152048675Y-115158775D01*
X152048679Y-115158760D01*
X152077499Y-115013873D01*
X152077500Y-115013871D01*
X152077500Y-114866128D01*
X152077499Y-114866126D01*
X152048679Y-114721240D01*
X152048678Y-114721236D01*
X152005077Y-114615975D01*
X151681054Y-114939999D01*
X151427500Y-114939999D01*
X151427500Y-114920109D01*
X151412276Y-114883355D01*
X151384145Y-114855224D01*
X151347391Y-114840000D01*
X151307609Y-114840000D01*
X151270855Y-114855224D01*
X151242724Y-114883355D01*
X151227500Y-114920109D01*
X150954055Y-114920109D01*
X150737500Y-114703554D01*
X150501054Y-114940000D01*
X150247500Y-114940000D01*
X150247500Y-114920109D01*
X150232276Y-114883355D01*
X150204145Y-114855224D01*
X150167391Y-114840000D01*
X150127609Y-114840000D01*
X150090855Y-114855224D01*
X150062724Y-114883355D01*
X150047500Y-114920109D01*
X149774056Y-114920109D01*
X149469921Y-114615974D01*
X149469920Y-114615974D01*
X149426323Y-114721228D01*
X149426320Y-114721240D01*
X149397500Y-114866126D01*
X143200500Y-114866126D01*
X143200500Y-114831007D01*
X143200500Y-114831004D01*
X143173581Y-114695677D01*
X143173580Y-114695676D01*
X143173580Y-114695672D01*
X143140568Y-114615974D01*
X143120778Y-114568195D01*
X143120776Y-114568191D01*
X143120775Y-114568189D01*
X143054425Y-114468890D01*
X143048452Y-114449813D01*
X143037946Y-114432805D01*
X143038225Y-114417152D01*
X143033548Y-114402214D01*
X143038836Y-114382934D01*
X143039194Y-114362946D01*
X143045387Y-114350000D01*
X149911054Y-114350000D01*
X150147500Y-114586446D01*
X150383946Y-114350000D01*
X151091054Y-114350000D01*
X151327500Y-114586446D01*
X151405443Y-114508503D01*
X161137500Y-114508503D01*
X161137500Y-114691496D01*
X161161021Y-114840000D01*
X161166124Y-114872219D01*
X161222669Y-115046245D01*
X161279998Y-115158760D01*
X161305743Y-115209286D01*
X161413288Y-115357312D01*
X161542687Y-115486711D01*
X161681205Y-115587348D01*
X161690717Y-115594259D01*
X161853755Y-115677331D01*
X162027781Y-115733876D01*
X162095554Y-115744610D01*
X162208504Y-115762500D01*
X162208509Y-115762500D01*
X162391496Y-115762500D01*
X162491895Y-115746597D01*
X162572219Y-115733876D01*
X162746245Y-115677331D01*
X162909283Y-115594259D01*
X162992397Y-115533873D01*
X163057312Y-115486711D01*
X163057314Y-115486708D01*
X163057318Y-115486706D01*
X163186706Y-115357318D01*
X163186708Y-115357314D01*
X163186711Y-115357312D01*
X163233873Y-115292397D01*
X163294259Y-115209283D01*
X163377331Y-115046245D01*
X163433876Y-114872219D01*
X163446597Y-114791895D01*
X163462500Y-114691496D01*
X163462500Y-114508503D01*
X163436847Y-114346542D01*
X163433876Y-114327781D01*
X163377331Y-114153755D01*
X163294259Y-113990717D01*
X163278476Y-113968993D01*
X163186711Y-113842687D01*
X163057312Y-113713288D01*
X162909286Y-113605743D01*
X162909285Y-113605742D01*
X162909283Y-113605741D01*
X162746245Y-113522669D01*
X162572219Y-113466124D01*
X162572217Y-113466123D01*
X162572215Y-113466123D01*
X162391496Y-113437500D01*
X162391491Y-113437500D01*
X162208509Y-113437500D01*
X162208504Y-113437500D01*
X162027784Y-113466123D01*
X161853752Y-113522670D01*
X161690713Y-113605743D01*
X161542687Y-113713288D01*
X161413288Y-113842687D01*
X161305743Y-113990713D01*
X161222670Y-114153752D01*
X161166123Y-114327784D01*
X161137500Y-114508503D01*
X151405443Y-114508503D01*
X151563946Y-114350000D01*
X151327500Y-114113554D01*
X151091054Y-114350000D01*
X150383946Y-114350000D01*
X150147500Y-114113554D01*
X149911054Y-114350000D01*
X143045387Y-114350000D01*
X143051209Y-114337831D01*
X143052032Y-114334834D01*
X143054426Y-114331109D01*
X143120770Y-114231818D01*
X143120771Y-114231817D01*
X143120775Y-114231811D01*
X143173580Y-114104328D01*
X143196180Y-113990713D01*
X143200500Y-113968995D01*
X143200500Y-113831004D01*
X143200499Y-113831002D01*
X143175283Y-113704230D01*
X143173581Y-113695676D01*
X143173578Y-113695667D01*
X143169626Y-113686126D01*
X149397500Y-113686126D01*
X149397500Y-113833873D01*
X149426320Y-113978759D01*
X149426322Y-113978767D01*
X149469921Y-114084024D01*
X149793946Y-113760000D01*
X149793946Y-113759999D01*
X149774056Y-113740109D01*
X150047500Y-113740109D01*
X150047500Y-113779891D01*
X150062724Y-113816645D01*
X150090855Y-113844776D01*
X150127609Y-113860000D01*
X150167391Y-113860000D01*
X150204145Y-113844776D01*
X150232276Y-113816645D01*
X150247500Y-113779891D01*
X150247500Y-113760000D01*
X150501054Y-113760000D01*
X150737500Y-113996446D01*
X150973946Y-113760000D01*
X150954055Y-113740109D01*
X151227500Y-113740109D01*
X151227500Y-113779891D01*
X151242724Y-113816645D01*
X151270855Y-113844776D01*
X151307609Y-113860000D01*
X151347391Y-113860000D01*
X151384145Y-113844776D01*
X151412276Y-113816645D01*
X151427500Y-113779891D01*
X151427500Y-113759999D01*
X151681054Y-113759999D01*
X151681054Y-113760001D01*
X152005077Y-114084024D01*
X152005078Y-114084024D01*
X152048675Y-113978775D01*
X152048679Y-113978760D01*
X152077499Y-113833873D01*
X152077500Y-113833871D01*
X152077500Y-113686128D01*
X152077499Y-113686126D01*
X152048679Y-113541240D01*
X152048678Y-113541236D01*
X152005077Y-113435975D01*
X151681054Y-113759999D01*
X151427500Y-113759999D01*
X151427500Y-113740109D01*
X151412276Y-113703355D01*
X151384145Y-113675224D01*
X151347391Y-113660000D01*
X151307609Y-113660000D01*
X151270855Y-113675224D01*
X151242724Y-113703355D01*
X151227500Y-113740109D01*
X150954055Y-113740109D01*
X150737500Y-113523554D01*
X150501054Y-113760000D01*
X150247500Y-113760000D01*
X150247500Y-113740109D01*
X150232276Y-113703355D01*
X150204145Y-113675224D01*
X150167391Y-113660000D01*
X150127609Y-113660000D01*
X150090855Y-113675224D01*
X150062724Y-113703355D01*
X150047500Y-113740109D01*
X149774056Y-113740109D01*
X149469921Y-113435974D01*
X149469920Y-113435974D01*
X149426323Y-113541228D01*
X149426320Y-113541240D01*
X149397500Y-113686126D01*
X143169626Y-113686126D01*
X143120778Y-113568195D01*
X143120776Y-113568191D01*
X143120775Y-113568189D01*
X143054425Y-113468890D01*
X143033548Y-113402214D01*
X143052032Y-113334834D01*
X143054426Y-113331109D01*
X143057213Y-113326938D01*
X143120775Y-113231811D01*
X143173580Y-113104328D01*
X143177938Y-113082420D01*
X149823474Y-113082420D01*
X149823474Y-113082421D01*
X150147500Y-113406446D01*
X150147501Y-113406446D01*
X150471524Y-113082421D01*
X150471522Y-113082420D01*
X151003474Y-113082420D01*
X151003474Y-113082421D01*
X151327500Y-113406446D01*
X151327501Y-113406446D01*
X151651524Y-113082421D01*
X151546267Y-113038822D01*
X151546259Y-113038820D01*
X151401372Y-113010000D01*
X151253628Y-113010000D01*
X151108740Y-113038820D01*
X151108728Y-113038823D01*
X151003474Y-113082420D01*
X150471522Y-113082420D01*
X150366267Y-113038822D01*
X150366259Y-113038820D01*
X150221372Y-113010000D01*
X150073628Y-113010000D01*
X149928740Y-113038820D01*
X149928728Y-113038823D01*
X149823474Y-113082420D01*
X143177938Y-113082420D01*
X143186610Y-113038822D01*
X143200500Y-112968995D01*
X143200500Y-112831004D01*
X143173581Y-112695677D01*
X143173580Y-112695676D01*
X143173580Y-112695672D01*
X143166823Y-112679359D01*
X143120778Y-112568195D01*
X143120771Y-112568182D01*
X143044114Y-112453458D01*
X143044111Y-112453454D01*
X142946545Y-112355888D01*
X142946541Y-112355885D01*
X142831817Y-112279228D01*
X142831804Y-112279221D01*
X142704332Y-112226421D01*
X142704322Y-112226418D01*
X142568995Y-112199500D01*
X142568993Y-112199500D01*
X142431007Y-112199500D01*
X142431005Y-112199500D01*
X142295677Y-112226418D01*
X142295667Y-112226421D01*
X142168195Y-112279221D01*
X142168182Y-112279228D01*
X142068891Y-112345573D01*
X142002213Y-112366451D01*
X141934833Y-112347966D01*
X141931109Y-112345573D01*
X141831817Y-112279228D01*
X141831804Y-112279221D01*
X141704332Y-112226421D01*
X141704322Y-112226418D01*
X141568995Y-112199500D01*
X141568993Y-112199500D01*
X141431007Y-112199500D01*
X141431005Y-112199500D01*
X141295677Y-112226418D01*
X141295667Y-112226421D01*
X141168195Y-112279221D01*
X141168182Y-112279228D01*
X141053458Y-112355885D01*
X141053454Y-112355888D01*
X140955888Y-112453454D01*
X140955885Y-112453458D01*
X140879228Y-112568182D01*
X140879221Y-112568195D01*
X140826421Y-112695667D01*
X140826418Y-112695677D01*
X140799500Y-112831004D01*
X140799500Y-112831007D01*
X140799500Y-112968993D01*
X140799500Y-112968995D01*
X140799499Y-112968995D01*
X138040493Y-112968995D01*
X138073402Y-112867711D01*
X138100500Y-112696621D01*
X138100500Y-112523399D01*
X138073402Y-112352309D01*
X138019873Y-112187565D01*
X137941232Y-112033222D01*
X137894568Y-111968995D01*
X150299499Y-111968995D01*
X150326418Y-112104322D01*
X150326421Y-112104332D01*
X150379221Y-112231804D01*
X150379228Y-112231817D01*
X150455885Y-112346541D01*
X150455888Y-112346545D01*
X150553454Y-112444111D01*
X150553458Y-112444114D01*
X150668182Y-112520771D01*
X150668195Y-112520778D01*
X150782640Y-112568182D01*
X150795672Y-112573580D01*
X150795676Y-112573580D01*
X150795677Y-112573581D01*
X150931004Y-112600500D01*
X150931007Y-112600500D01*
X151068995Y-112600500D01*
X151160041Y-112582389D01*
X151204328Y-112573580D01*
X151331811Y-112520775D01*
X151349243Y-112509126D01*
X151360048Y-112501908D01*
X151392869Y-112479976D01*
X151446542Y-112444114D01*
X151544114Y-112346542D01*
X151620775Y-112231811D01*
X151673580Y-112104328D01*
X151700500Y-111968993D01*
X151700500Y-111831007D01*
X151700500Y-111831004D01*
X151673581Y-111695677D01*
X151673580Y-111695676D01*
X151673580Y-111695672D01*
X151662440Y-111668778D01*
X151620778Y-111568195D01*
X151620771Y-111568182D01*
X151544114Y-111453458D01*
X151544111Y-111453454D01*
X151446545Y-111355888D01*
X151446541Y-111355885D01*
X151331817Y-111279228D01*
X151331804Y-111279221D01*
X151204332Y-111226421D01*
X151204322Y-111226418D01*
X151068995Y-111199500D01*
X151068993Y-111199500D01*
X150931007Y-111199500D01*
X150931005Y-111199500D01*
X150795677Y-111226418D01*
X150795667Y-111226421D01*
X150668195Y-111279221D01*
X150668182Y-111279228D01*
X150553458Y-111355885D01*
X150553454Y-111355888D01*
X150455888Y-111453454D01*
X150455885Y-111453458D01*
X150379228Y-111568182D01*
X150379221Y-111568195D01*
X150326421Y-111695667D01*
X150326418Y-111695677D01*
X150299500Y-111831004D01*
X150299500Y-111831007D01*
X150299500Y-111968993D01*
X150299500Y-111968995D01*
X150299499Y-111968995D01*
X137894568Y-111968995D01*
X137842841Y-111897799D01*
X137842841Y-111897798D01*
X137839418Y-111893088D01*
X137839414Y-111893082D01*
X137716928Y-111770596D01*
X137576788Y-111668778D01*
X137422445Y-111590137D01*
X137257701Y-111536608D01*
X137257699Y-111536607D01*
X137257698Y-111536607D01*
X137126271Y-111515791D01*
X137086611Y-111509510D01*
X136913389Y-111509510D01*
X136873728Y-111515791D01*
X136742302Y-111536607D01*
X136577552Y-111590138D01*
X136423211Y-111668778D01*
X136374276Y-111704332D01*
X136283072Y-111770596D01*
X136283070Y-111770598D01*
X136283069Y-111770598D01*
X136160588Y-111893079D01*
X136160588Y-111893080D01*
X136160586Y-111893082D01*
X136146899Y-111911921D01*
X136058768Y-112033221D01*
X135980128Y-112187562D01*
X135926597Y-112352312D01*
X135899500Y-112523399D01*
X135400500Y-112523399D01*
X135400500Y-109983389D01*
X135899500Y-109983389D01*
X135899500Y-110156611D01*
X135926598Y-110327701D01*
X135980127Y-110492445D01*
X136058768Y-110646788D01*
X136160586Y-110786928D01*
X136283072Y-110909414D01*
X136423212Y-111011232D01*
X136577555Y-111089873D01*
X136742299Y-111143402D01*
X136913389Y-111170500D01*
X136913390Y-111170500D01*
X137086610Y-111170500D01*
X137086611Y-111170500D01*
X137257701Y-111143402D01*
X137422445Y-111089873D01*
X137576788Y-111011232D01*
X137716928Y-110909414D01*
X137839414Y-110786928D01*
X137941232Y-110646788D01*
X138019873Y-110492445D01*
X138073402Y-110327701D01*
X138100500Y-110156611D01*
X138100500Y-109983389D01*
X138073402Y-109812299D01*
X138019873Y-109647555D01*
X137941232Y-109493212D01*
X137839414Y-109353072D01*
X137716928Y-109230586D01*
X137576788Y-109128768D01*
X137422445Y-109050127D01*
X137257701Y-108996598D01*
X137257699Y-108996597D01*
X137257698Y-108996597D01*
X137126271Y-108975781D01*
X137086611Y-108969500D01*
X136913389Y-108969500D01*
X136873728Y-108975781D01*
X136742302Y-108996597D01*
X136577552Y-109050128D01*
X136423211Y-109128768D01*
X136348458Y-109183080D01*
X136283072Y-109230586D01*
X136283070Y-109230588D01*
X136283069Y-109230588D01*
X136160588Y-109353069D01*
X136160588Y-109353070D01*
X136160586Y-109353072D01*
X136116859Y-109413256D01*
X136058768Y-109493211D01*
X135980128Y-109647552D01*
X135926597Y-109812302D01*
X135915998Y-109879225D01*
X135899500Y-109983389D01*
X135400500Y-109983389D01*
X135400500Y-107443389D01*
X135899500Y-107443389D01*
X135899500Y-107616611D01*
X135901513Y-107629320D01*
X135925255Y-107779225D01*
X135926598Y-107787701D01*
X135980127Y-107952445D01*
X136058768Y-108106788D01*
X136160586Y-108246928D01*
X136283072Y-108369414D01*
X136423212Y-108471232D01*
X136577555Y-108549873D01*
X136742299Y-108603402D01*
X136913389Y-108630500D01*
X136913390Y-108630500D01*
X137086610Y-108630500D01*
X137086611Y-108630500D01*
X137257701Y-108603402D01*
X137422445Y-108549873D01*
X137576788Y-108471232D01*
X137579867Y-108468995D01*
X146599499Y-108468995D01*
X146626418Y-108604322D01*
X146626421Y-108604332D01*
X146679221Y-108731804D01*
X146679228Y-108731817D01*
X146755885Y-108846541D01*
X146755888Y-108846545D01*
X146853454Y-108944111D01*
X146853458Y-108944114D01*
X146968182Y-109020771D01*
X146968195Y-109020778D01*
X147095667Y-109073578D01*
X147095672Y-109073580D01*
X147095676Y-109073580D01*
X147095677Y-109073581D01*
X147231004Y-109100500D01*
X147231007Y-109100500D01*
X147368995Y-109100500D01*
X147460041Y-109082389D01*
X147504328Y-109073580D01*
X147631811Y-109020775D01*
X147746542Y-108944114D01*
X147844114Y-108846542D01*
X147920775Y-108731811D01*
X147925452Y-108720521D01*
X147966872Y-108620523D01*
X147966873Y-108620521D01*
X151496300Y-108620521D01*
X151496300Y-108779479D01*
X151537441Y-108933019D01*
X151616920Y-109070680D01*
X151729320Y-109183080D01*
X151866981Y-109262559D01*
X152020521Y-109303700D01*
X152020523Y-109303700D01*
X152179476Y-109303700D01*
X152179479Y-109303700D01*
X152333019Y-109262559D01*
X152470680Y-109183080D01*
X152583080Y-109070680D01*
X152662559Y-108933019D01*
X152703700Y-108779479D01*
X152703700Y-108720521D01*
X154896300Y-108720521D01*
X154896300Y-108879479D01*
X154937441Y-109033019D01*
X155016920Y-109170680D01*
X155129320Y-109283080D01*
X155266981Y-109362559D01*
X155420521Y-109403700D01*
X155420523Y-109403700D01*
X155579476Y-109403700D01*
X155579479Y-109403700D01*
X155733019Y-109362559D01*
X155870680Y-109283080D01*
X155983080Y-109170680D01*
X155988238Y-109161745D01*
X156038802Y-109113529D01*
X156107409Y-109100304D01*
X156172274Y-109126270D01*
X156210187Y-109176290D01*
X156258809Y-109293674D01*
X156258814Y-109293684D01*
X156368248Y-109457462D01*
X156368251Y-109457466D01*
X156507533Y-109596748D01*
X156507537Y-109596751D01*
X156671315Y-109706185D01*
X156671328Y-109706192D01*
X156853306Y-109781569D01*
X156853318Y-109781572D01*
X157046504Y-109819999D01*
X157046508Y-109820000D01*
X157445000Y-109820000D01*
X157445000Y-109120000D01*
X157945000Y-109120000D01*
X157945000Y-109820000D01*
X158343492Y-109820000D01*
X158343495Y-109819999D01*
X158536681Y-109781572D01*
X158536689Y-109781570D01*
X158630905Y-109742545D01*
X158700374Y-109735076D01*
X158762854Y-109766351D01*
X158798506Y-109826440D01*
X158796013Y-109896265D01*
X158757028Y-109952955D01*
X158753457Y-109955885D01*
X158655888Y-110053454D01*
X158655885Y-110053458D01*
X158579228Y-110168182D01*
X158579221Y-110168195D01*
X158526421Y-110295667D01*
X158526418Y-110295677D01*
X158499500Y-110431004D01*
X158499500Y-110431007D01*
X158499500Y-110568993D01*
X158499500Y-110568995D01*
X158499499Y-110568995D01*
X158526418Y-110704322D01*
X158526421Y-110704332D01*
X158579221Y-110831804D01*
X158579228Y-110831817D01*
X158645573Y-110931109D01*
X158666451Y-110997787D01*
X158647966Y-111065167D01*
X158645573Y-111068891D01*
X158579228Y-111168182D01*
X158579221Y-111168195D01*
X158526421Y-111295667D01*
X158526418Y-111295677D01*
X158499500Y-111431004D01*
X158499500Y-111431007D01*
X158499500Y-111568993D01*
X158499500Y-111568995D01*
X158499499Y-111568995D01*
X158526418Y-111704322D01*
X158526421Y-111704332D01*
X158579221Y-111831804D01*
X158579228Y-111831817D01*
X158655885Y-111946541D01*
X158655888Y-111946545D01*
X158753454Y-112044111D01*
X158753458Y-112044114D01*
X158868182Y-112120771D01*
X158868195Y-112120778D01*
X158995667Y-112173578D01*
X158995672Y-112173580D01*
X158995676Y-112173580D01*
X158995677Y-112173581D01*
X159131004Y-112200500D01*
X159131007Y-112200500D01*
X159268995Y-112200500D01*
X159360041Y-112182389D01*
X159404328Y-112173580D01*
X159531811Y-112120775D01*
X159646542Y-112044114D01*
X159744114Y-111946542D01*
X159820775Y-111831811D01*
X159873580Y-111704328D01*
X159894332Y-111600001D01*
X159900500Y-111568995D01*
X159900500Y-111500679D01*
X161038000Y-111500679D01*
X161038000Y-111699322D01*
X161069075Y-111895521D01*
X161069075Y-111895524D01*
X161130457Y-112084438D01*
X161220641Y-112261433D01*
X161247730Y-112298716D01*
X161247731Y-112298717D01*
X161810504Y-111735943D01*
X161826619Y-111796082D01*
X161893498Y-111911921D01*
X161988080Y-112006503D01*
X162103919Y-112073382D01*
X162164057Y-112089495D01*
X161601283Y-112652269D01*
X161601283Y-112652270D01*
X161638567Y-112679359D01*
X161815562Y-112769543D01*
X162004477Y-112830925D01*
X162200679Y-112862001D01*
X162399321Y-112862001D01*
X162595520Y-112830925D01*
X162595523Y-112830925D01*
X162784437Y-112769543D01*
X162961425Y-112679363D01*
X162998716Y-112652269D01*
X162435942Y-112089495D01*
X162496081Y-112073382D01*
X162611920Y-112006503D01*
X162706502Y-111911921D01*
X162773381Y-111796082D01*
X162789495Y-111735943D01*
X163352268Y-112298716D01*
X163379362Y-112261426D01*
X163469542Y-112084438D01*
X163530924Y-111895524D01*
X163530924Y-111895521D01*
X163562000Y-111699322D01*
X163562000Y-111500679D01*
X163530924Y-111304480D01*
X163530924Y-111304477D01*
X163469542Y-111115563D01*
X163379358Y-110938568D01*
X163352268Y-110901284D01*
X162789494Y-111464058D01*
X162773381Y-111403920D01*
X162706502Y-111288081D01*
X162611920Y-111193499D01*
X162496081Y-111126620D01*
X162435942Y-111110505D01*
X162998716Y-110547732D01*
X162998715Y-110547731D01*
X162961432Y-110520642D01*
X162784437Y-110430458D01*
X162595522Y-110369076D01*
X162399321Y-110338001D01*
X162200679Y-110338001D01*
X162004479Y-110369076D01*
X162004476Y-110369076D01*
X161815562Y-110430458D01*
X161638564Y-110520644D01*
X161601283Y-110547730D01*
X161601282Y-110547731D01*
X162164058Y-111110505D01*
X162103919Y-111126620D01*
X161988080Y-111193499D01*
X161893498Y-111288081D01*
X161826619Y-111403920D01*
X161810504Y-111464058D01*
X161247730Y-110901283D01*
X161247729Y-110901284D01*
X161220643Y-110938565D01*
X161130457Y-111115563D01*
X161069075Y-111304477D01*
X161069075Y-111304480D01*
X161038000Y-111500679D01*
X159900500Y-111500679D01*
X159900500Y-111431004D01*
X159873581Y-111295677D01*
X159873580Y-111295676D01*
X159873580Y-111295672D01*
X159866769Y-111279228D01*
X159820778Y-111168195D01*
X159820776Y-111168191D01*
X159820775Y-111168189D01*
X159754425Y-111068890D01*
X159733548Y-111002214D01*
X159752032Y-110934834D01*
X159754426Y-110931109D01*
X159768924Y-110909411D01*
X159820775Y-110831811D01*
X159873580Y-110704328D01*
X159900500Y-110568993D01*
X159900500Y-110431007D01*
X159900500Y-110431004D01*
X159873581Y-110295677D01*
X159873580Y-110295676D01*
X159873580Y-110295672D01*
X159873578Y-110295667D01*
X159820778Y-110168195D01*
X159820771Y-110168182D01*
X159744114Y-110053458D01*
X159744111Y-110053454D01*
X159646545Y-109955888D01*
X159646541Y-109955885D01*
X159531817Y-109879228D01*
X159531804Y-109879221D01*
X159404332Y-109826421D01*
X159404322Y-109826418D01*
X159268995Y-109799500D01*
X159268993Y-109799500D01*
X159131007Y-109799500D01*
X159131005Y-109799500D01*
X158995677Y-109826418D01*
X158995671Y-109826420D01*
X158956645Y-109842585D01*
X158887175Y-109850052D01*
X158824697Y-109818777D01*
X158789045Y-109758687D01*
X158791540Y-109688862D01*
X158831389Y-109631470D01*
X158840304Y-109624920D01*
X158882465Y-109596749D01*
X159021748Y-109457466D01*
X159021751Y-109457462D01*
X159131185Y-109293684D01*
X159131192Y-109293671D01*
X159206569Y-109111692D01*
X159206569Y-109111690D01*
X159214862Y-109070000D01*
X158411988Y-109070000D01*
X158429205Y-109060060D01*
X158485060Y-109004205D01*
X158524556Y-108935796D01*
X158545000Y-108859496D01*
X158545000Y-108780504D01*
X158524556Y-108704204D01*
X158485060Y-108635795D01*
X158429205Y-108579940D01*
X158411988Y-108570000D01*
X159214862Y-108570000D01*
X160605138Y-108570000D01*
X161408012Y-108570000D01*
X161390795Y-108579940D01*
X161334940Y-108635795D01*
X161295444Y-108704204D01*
X161275000Y-108780504D01*
X161275000Y-108859496D01*
X161295444Y-108935796D01*
X161334940Y-109004205D01*
X161390795Y-109060060D01*
X161408012Y-109070000D01*
X160605138Y-109070000D01*
X160613430Y-109111690D01*
X160613430Y-109111692D01*
X160688807Y-109293671D01*
X160688814Y-109293684D01*
X160798248Y-109457462D01*
X160798251Y-109457466D01*
X160937533Y-109596748D01*
X160937537Y-109596751D01*
X161101315Y-109706185D01*
X161101328Y-109706192D01*
X161283306Y-109781569D01*
X161283318Y-109781572D01*
X161476504Y-109819999D01*
X161476508Y-109820000D01*
X161625000Y-109820000D01*
X161625000Y-109120000D01*
X162125000Y-109120000D01*
X162125000Y-109820000D01*
X162273492Y-109820000D01*
X162273495Y-109819999D01*
X162466681Y-109781572D01*
X162466693Y-109781569D01*
X162648671Y-109706192D01*
X162648684Y-109706185D01*
X162812462Y-109596751D01*
X162812466Y-109596748D01*
X162951748Y-109457466D01*
X162951751Y-109457462D01*
X163061185Y-109293684D01*
X163061192Y-109293671D01*
X163136569Y-109111692D01*
X163136569Y-109111690D01*
X163144862Y-109070000D01*
X162341988Y-109070000D01*
X162359205Y-109060060D01*
X162415060Y-109004205D01*
X162454556Y-108935796D01*
X162475000Y-108859496D01*
X162475000Y-108780504D01*
X162454556Y-108704204D01*
X162415060Y-108635795D01*
X162359205Y-108579940D01*
X162341988Y-108570000D01*
X163144862Y-108570000D01*
X163136569Y-108528309D01*
X163136569Y-108528307D01*
X163061192Y-108346328D01*
X163061185Y-108346315D01*
X162951751Y-108182537D01*
X162951748Y-108182533D01*
X162812466Y-108043251D01*
X162812462Y-108043248D01*
X162648684Y-107933814D01*
X162648671Y-107933807D01*
X162466693Y-107858430D01*
X162466681Y-107858427D01*
X162273495Y-107820000D01*
X162125000Y-107820000D01*
X162125000Y-108520000D01*
X161625000Y-108520000D01*
X161625000Y-107820000D01*
X161476504Y-107820000D01*
X161283318Y-107858427D01*
X161283306Y-107858430D01*
X161101328Y-107933807D01*
X161101315Y-107933814D01*
X160937537Y-108043248D01*
X160937533Y-108043251D01*
X160798251Y-108182533D01*
X160798248Y-108182537D01*
X160688814Y-108346315D01*
X160688807Y-108346328D01*
X160613430Y-108528307D01*
X160613430Y-108528309D01*
X160605138Y-108570000D01*
X159214862Y-108570000D01*
X159206569Y-108528309D01*
X159206569Y-108528307D01*
X159131192Y-108346328D01*
X159131185Y-108346315D01*
X159021751Y-108182537D01*
X159021748Y-108182533D01*
X158882466Y-108043251D01*
X158882462Y-108043248D01*
X158718684Y-107933814D01*
X158718675Y-107933809D01*
X158587801Y-107879600D01*
X158533398Y-107835759D01*
X158511333Y-107769465D01*
X158528612Y-107701766D01*
X158547572Y-107677359D01*
X158557090Y-107667842D01*
X158616663Y-107564659D01*
X158647500Y-107449573D01*
X158647500Y-107330427D01*
X158624361Y-107244070D01*
X158626024Y-107174226D01*
X158665186Y-107116364D01*
X158719945Y-107090365D01*
X158727276Y-107088906D01*
X158804328Y-107073580D01*
X158931811Y-107020775D01*
X159046542Y-106944114D01*
X159144114Y-106846542D01*
X159220775Y-106731811D01*
X159273580Y-106604328D01*
X159297709Y-106483024D01*
X159300500Y-106468995D01*
X162099499Y-106468995D01*
X162126418Y-106604322D01*
X162126421Y-106604332D01*
X162179221Y-106731804D01*
X162179228Y-106731817D01*
X162255885Y-106846541D01*
X162255888Y-106846545D01*
X162353454Y-106944111D01*
X162353458Y-106944114D01*
X162468182Y-107020771D01*
X162468195Y-107020778D01*
X162595667Y-107073578D01*
X162595672Y-107073580D01*
X162595676Y-107073580D01*
X162595677Y-107073581D01*
X162731004Y-107100500D01*
X162731007Y-107100500D01*
X162868995Y-107100500D01*
X162960041Y-107082389D01*
X163004328Y-107073580D01*
X163131811Y-107020775D01*
X163246542Y-106944114D01*
X163344114Y-106846542D01*
X163420775Y-106731811D01*
X163473580Y-106604328D01*
X163497709Y-106483024D01*
X163500500Y-106468995D01*
X163500500Y-106331004D01*
X163473581Y-106195677D01*
X163473580Y-106195676D01*
X163473580Y-106195672D01*
X163459864Y-106162559D01*
X163420778Y-106068195D01*
X163420771Y-106068182D01*
X163344114Y-105953458D01*
X163344111Y-105953454D01*
X163246545Y-105855888D01*
X163246541Y-105855885D01*
X163131817Y-105779228D01*
X163131804Y-105779221D01*
X163004332Y-105726421D01*
X163004322Y-105726418D01*
X162868995Y-105699500D01*
X162868993Y-105699500D01*
X162731007Y-105699500D01*
X162731005Y-105699500D01*
X162595677Y-105726418D01*
X162595667Y-105726421D01*
X162468195Y-105779221D01*
X162468182Y-105779228D01*
X162353458Y-105855885D01*
X162353454Y-105855888D01*
X162255888Y-105953454D01*
X162255885Y-105953458D01*
X162179228Y-106068182D01*
X162179221Y-106068195D01*
X162126421Y-106195667D01*
X162126418Y-106195677D01*
X162099500Y-106331004D01*
X162099500Y-106331007D01*
X162099500Y-106468993D01*
X162099500Y-106468995D01*
X162099499Y-106468995D01*
X159300500Y-106468995D01*
X159300500Y-106331004D01*
X159273581Y-106195677D01*
X159273580Y-106195676D01*
X159273580Y-106195672D01*
X159259864Y-106162559D01*
X159220778Y-106068195D01*
X159220771Y-106068182D01*
X159144114Y-105953458D01*
X159144111Y-105953454D01*
X159078338Y-105887681D01*
X159044853Y-105826358D01*
X159049837Y-105756666D01*
X159078338Y-105712319D01*
X159144111Y-105646545D01*
X159144114Y-105646542D01*
X159220775Y-105531811D01*
X159225452Y-105520521D01*
X159265097Y-105424807D01*
X159273580Y-105404328D01*
X159286914Y-105337295D01*
X159300500Y-105268995D01*
X159300500Y-105131004D01*
X159273581Y-104995677D01*
X159273580Y-104995676D01*
X159273580Y-104995672D01*
X159251340Y-104941979D01*
X159220778Y-104868195D01*
X159220771Y-104868182D01*
X159144114Y-104753458D01*
X159144111Y-104753454D01*
X159046545Y-104655888D01*
X159046541Y-104655885D01*
X158931817Y-104579228D01*
X158931804Y-104579221D01*
X158804332Y-104526421D01*
X158804322Y-104526418D01*
X158668995Y-104499500D01*
X158668993Y-104499500D01*
X158531007Y-104499500D01*
X158531005Y-104499500D01*
X158395677Y-104526418D01*
X158395667Y-104526421D01*
X158268195Y-104579221D01*
X158268182Y-104579228D01*
X158153458Y-104655885D01*
X158153454Y-104655888D01*
X158055888Y-104753454D01*
X158055885Y-104753458D01*
X157979228Y-104868182D01*
X157979221Y-104868195D01*
X157926421Y-104995667D01*
X157926418Y-104995677D01*
X157899500Y-105131004D01*
X157899500Y-105131007D01*
X157899500Y-105268993D01*
X157899500Y-105268995D01*
X157899499Y-105268995D01*
X157926418Y-105404322D01*
X157926421Y-105404332D01*
X157979221Y-105531804D01*
X157979228Y-105531817D01*
X158055885Y-105646541D01*
X158055888Y-105646545D01*
X158121662Y-105712319D01*
X158155147Y-105773642D01*
X158150163Y-105843334D01*
X158121662Y-105887681D01*
X158055888Y-105953454D01*
X158055885Y-105953458D01*
X157979228Y-106068182D01*
X157979221Y-106068195D01*
X157926421Y-106195667D01*
X157926418Y-106195677D01*
X157899500Y-106331004D01*
X157899500Y-106331007D01*
X157899500Y-106468993D01*
X157899500Y-106468995D01*
X157899499Y-106468995D01*
X157926418Y-106604322D01*
X157926421Y-106604332D01*
X157979221Y-106731804D01*
X157979228Y-106731817D01*
X158031162Y-106809541D01*
X158052040Y-106876219D01*
X158033555Y-106943599D01*
X157990061Y-106985819D01*
X157917158Y-107027910D01*
X157917155Y-107027912D01*
X157832912Y-107112155D01*
X157832910Y-107112158D01*
X157773337Y-107215339D01*
X157742500Y-107330427D01*
X157742500Y-107449572D01*
X157773337Y-107564660D01*
X157794030Y-107600500D01*
X157832910Y-107667842D01*
X157832911Y-107667843D01*
X157832912Y-107667844D01*
X157908681Y-107743613D01*
X157942166Y-107804936D01*
X157945000Y-107831294D01*
X157945000Y-108520000D01*
X157445000Y-108520000D01*
X157445000Y-107820000D01*
X157046504Y-107820000D01*
X156853318Y-107858427D01*
X156853306Y-107858430D01*
X156671328Y-107933807D01*
X156671315Y-107933814D01*
X156507537Y-108043248D01*
X156507533Y-108043251D01*
X156368251Y-108182533D01*
X156368248Y-108182537D01*
X156258814Y-108346315D01*
X156258811Y-108346321D01*
X156219834Y-108440419D01*
X156175992Y-108494822D01*
X156109698Y-108516886D01*
X156041999Y-108499606D01*
X155997886Y-108454965D01*
X155989488Y-108440419D01*
X155983080Y-108429320D01*
X155870680Y-108316920D01*
X155733019Y-108237441D01*
X155579479Y-108196300D01*
X155420521Y-108196300D01*
X155266981Y-108237441D01*
X155266979Y-108237441D01*
X155266979Y-108237442D01*
X155129320Y-108316920D01*
X155129317Y-108316922D01*
X155016922Y-108429317D01*
X155016920Y-108429320D01*
X154947320Y-108549871D01*
X154937441Y-108566981D01*
X154896300Y-108720521D01*
X152703700Y-108720521D01*
X152703700Y-108620521D01*
X152662559Y-108466981D01*
X152583080Y-108329320D01*
X152470680Y-108216920D01*
X152333019Y-108137441D01*
X152179479Y-108096300D01*
X152020521Y-108096300D01*
X151866981Y-108137441D01*
X151866979Y-108137441D01*
X151866979Y-108137442D01*
X151729320Y-108216920D01*
X151729317Y-108216922D01*
X151616922Y-108329317D01*
X151616920Y-108329320D01*
X151593040Y-108370682D01*
X151537441Y-108466981D01*
X151496300Y-108620521D01*
X147966873Y-108620521D01*
X147973580Y-108604328D01*
X147990354Y-108520000D01*
X148000500Y-108468995D01*
X148000500Y-108331004D01*
X147973581Y-108195677D01*
X147973580Y-108195676D01*
X147973580Y-108195672D01*
X147968138Y-108182533D01*
X147920778Y-108068195D01*
X147920771Y-108068182D01*
X147844114Y-107953458D01*
X147844111Y-107953454D01*
X147746545Y-107855888D01*
X147746541Y-107855885D01*
X147631817Y-107779228D01*
X147631804Y-107779221D01*
X147504332Y-107726421D01*
X147504322Y-107726418D01*
X147368995Y-107699500D01*
X147368993Y-107699500D01*
X147231007Y-107699500D01*
X147231005Y-107699500D01*
X147095677Y-107726418D01*
X147095667Y-107726421D01*
X146968195Y-107779221D01*
X146968182Y-107779228D01*
X146853458Y-107855885D01*
X146853454Y-107855888D01*
X146755888Y-107953454D01*
X146755885Y-107953458D01*
X146679228Y-108068182D01*
X146679221Y-108068195D01*
X146626421Y-108195667D01*
X146626418Y-108195677D01*
X146599500Y-108331004D01*
X146599500Y-108331007D01*
X146599500Y-108468993D01*
X146599500Y-108468995D01*
X146599499Y-108468995D01*
X137579867Y-108468995D01*
X137716928Y-108369414D01*
X137839414Y-108246928D01*
X137941232Y-108106788D01*
X138019873Y-107952445D01*
X138073402Y-107787701D01*
X138100500Y-107616611D01*
X138100500Y-107443389D01*
X138073402Y-107272299D01*
X138019873Y-107107555D01*
X137941232Y-106953212D01*
X137839414Y-106813072D01*
X137716928Y-106690586D01*
X137576788Y-106588768D01*
X137422445Y-106510127D01*
X137257701Y-106456598D01*
X137257699Y-106456597D01*
X137257698Y-106456597D01*
X137126271Y-106435781D01*
X137086611Y-106429500D01*
X136913389Y-106429500D01*
X136873728Y-106435781D01*
X136742302Y-106456597D01*
X136577552Y-106510128D01*
X136423211Y-106588768D01*
X136343256Y-106646859D01*
X136283072Y-106690586D01*
X136283070Y-106690588D01*
X136283069Y-106690588D01*
X136160588Y-106813069D01*
X136160588Y-106813070D01*
X136160586Y-106813072D01*
X136121422Y-106866977D01*
X136058768Y-106953211D01*
X135980128Y-107107552D01*
X135926597Y-107272302D01*
X135914229Y-107350391D01*
X135899500Y-107443389D01*
X135400500Y-107443389D01*
X135400500Y-106220521D01*
X146296300Y-106220521D01*
X146296300Y-106379479D01*
X146337441Y-106533019D01*
X146416920Y-106670680D01*
X146529320Y-106783080D01*
X146666981Y-106862559D01*
X146820521Y-106903700D01*
X146820523Y-106903700D01*
X146979476Y-106903700D01*
X146979479Y-106903700D01*
X147133019Y-106862559D01*
X147270680Y-106783080D01*
X147383080Y-106670680D01*
X147462559Y-106533019D01*
X147503700Y-106379479D01*
X147503700Y-106220521D01*
X147490303Y-106170521D01*
X148346300Y-106170521D01*
X148346300Y-106329479D01*
X148387441Y-106483019D01*
X148466920Y-106620680D01*
X148466922Y-106620682D01*
X148471103Y-106624863D01*
X148504588Y-106686186D01*
X148499604Y-106755878D01*
X148490809Y-106774544D01*
X148437442Y-106866977D01*
X148437441Y-106866981D01*
X148396300Y-107020521D01*
X148396300Y-107179479D01*
X148437441Y-107333019D01*
X148516920Y-107470680D01*
X148516922Y-107470682D01*
X148571103Y-107524863D01*
X148604588Y-107586186D01*
X148599604Y-107655878D01*
X148590809Y-107674544D01*
X148537442Y-107766977D01*
X148537441Y-107766981D01*
X148496300Y-107920521D01*
X148496300Y-108079479D01*
X148537441Y-108233019D01*
X148616920Y-108370680D01*
X148729320Y-108483080D01*
X148866981Y-108562559D01*
X149020521Y-108603700D01*
X149020523Y-108603700D01*
X149179476Y-108603700D01*
X149179479Y-108603700D01*
X149333019Y-108562559D01*
X149470680Y-108483080D01*
X149583080Y-108370680D01*
X149662559Y-108233019D01*
X149703700Y-108079479D01*
X149703700Y-107920521D01*
X149662559Y-107766981D01*
X149583080Y-107629320D01*
X149528896Y-107575136D01*
X149515551Y-107550697D01*
X149499396Y-107528010D01*
X149499036Y-107520451D01*
X149495411Y-107513813D01*
X149497397Y-107486035D01*
X149496073Y-107458219D01*
X149500107Y-107448141D01*
X149500395Y-107444121D01*
X149509186Y-107425461D01*
X149512038Y-107420521D01*
X152896300Y-107420521D01*
X152896300Y-107579479D01*
X152937441Y-107733019D01*
X153016920Y-107870680D01*
X153129320Y-107983080D01*
X153266981Y-108062559D01*
X153420521Y-108103700D01*
X153420523Y-108103700D01*
X153579476Y-108103700D01*
X153579479Y-108103700D01*
X153733019Y-108062559D01*
X153737995Y-108059685D01*
X153805894Y-108043210D01*
X153862003Y-108059685D01*
X153866981Y-108062559D01*
X154020521Y-108103700D01*
X154020523Y-108103700D01*
X154179476Y-108103700D01*
X154179479Y-108103700D01*
X154333019Y-108062559D01*
X154337995Y-108059685D01*
X154405894Y-108043210D01*
X154462003Y-108059685D01*
X154466981Y-108062559D01*
X154620521Y-108103700D01*
X154620523Y-108103700D01*
X154779476Y-108103700D01*
X154779479Y-108103700D01*
X154933019Y-108062559D01*
X155070680Y-107983080D01*
X155183080Y-107870680D01*
X155262559Y-107733019D01*
X155274735Y-107687575D01*
X155311097Y-107627917D01*
X155373944Y-107597386D01*
X155418700Y-107598051D01*
X155431007Y-107600500D01*
X155431010Y-107600500D01*
X155568995Y-107600500D01*
X155696304Y-107575176D01*
X155704328Y-107573580D01*
X155831811Y-107520775D01*
X155946542Y-107444114D01*
X156044114Y-107346542D01*
X156097275Y-107266981D01*
X156106344Y-107253409D01*
X156106344Y-107253408D01*
X156120775Y-107231811D01*
X156173580Y-107104328D01*
X156190250Y-107020523D01*
X156200500Y-106968995D01*
X156200500Y-106831004D01*
X156173581Y-106695677D01*
X156173580Y-106695676D01*
X156173580Y-106695672D01*
X156144250Y-106624863D01*
X156120778Y-106568195D01*
X156120771Y-106568182D01*
X156044114Y-106453458D01*
X156044111Y-106453454D01*
X155946545Y-106355888D01*
X155946541Y-106355885D01*
X155831817Y-106279228D01*
X155831804Y-106279221D01*
X155704332Y-106226421D01*
X155704322Y-106226418D01*
X155568995Y-106199500D01*
X155568993Y-106199500D01*
X155431007Y-106199500D01*
X155431005Y-106199500D01*
X155295677Y-106226418D01*
X155295667Y-106226421D01*
X155168195Y-106279221D01*
X155168182Y-106279228D01*
X155053458Y-106355885D01*
X155053454Y-106355888D01*
X154955888Y-106453454D01*
X154955885Y-106453458D01*
X154879228Y-106568182D01*
X154879221Y-106568195D01*
X154826421Y-106695667D01*
X154826418Y-106695677D01*
X154806365Y-106796492D01*
X154773980Y-106858403D01*
X154713264Y-106892977D01*
X154684748Y-106896300D01*
X154620521Y-106896300D01*
X154466981Y-106937441D01*
X154466979Y-106937441D01*
X154466979Y-106937442D01*
X154466976Y-106937443D01*
X154461995Y-106940319D01*
X154394094Y-106956788D01*
X154338005Y-106940319D01*
X154333023Y-106937443D01*
X154333021Y-106937442D01*
X154333019Y-106937441D01*
X154179479Y-106896300D01*
X154020521Y-106896300D01*
X153866981Y-106937441D01*
X153866979Y-106937441D01*
X153866979Y-106937442D01*
X153866976Y-106937443D01*
X153861995Y-106940319D01*
X153794094Y-106956788D01*
X153738005Y-106940319D01*
X153733023Y-106937443D01*
X153733021Y-106937442D01*
X153733019Y-106937441D01*
X153579479Y-106896300D01*
X153420521Y-106896300D01*
X153266981Y-106937441D01*
X153266979Y-106937441D01*
X153266979Y-106937442D01*
X153129320Y-107016920D01*
X153129317Y-107016922D01*
X153016922Y-107129317D01*
X153016920Y-107129320D01*
X152957747Y-107231811D01*
X152937441Y-107266981D01*
X152896300Y-107420521D01*
X149512038Y-107420521D01*
X149562559Y-107333019D01*
X149603700Y-107179479D01*
X149603700Y-107020521D01*
X149562559Y-106866981D01*
X149483080Y-106729320D01*
X149478896Y-106725136D01*
X149445411Y-106663813D01*
X149450395Y-106594121D01*
X149459191Y-106575454D01*
X149463386Y-106568189D01*
X149512559Y-106483019D01*
X149553700Y-106329479D01*
X149553700Y-106170521D01*
X149512559Y-106016981D01*
X149433080Y-105879320D01*
X149320680Y-105766920D01*
X149183019Y-105687441D01*
X149029479Y-105646300D01*
X148870521Y-105646300D01*
X148716981Y-105687441D01*
X148716979Y-105687441D01*
X148716979Y-105687442D01*
X148579320Y-105766920D01*
X148579317Y-105766922D01*
X148466922Y-105879317D01*
X148466920Y-105879320D01*
X148414174Y-105970679D01*
X148387441Y-106016981D01*
X148346300Y-106170521D01*
X147490303Y-106170521D01*
X147462559Y-106066981D01*
X147383080Y-105929320D01*
X147270680Y-105816920D01*
X147133019Y-105737441D01*
X146979479Y-105696300D01*
X146820521Y-105696300D01*
X146666981Y-105737441D01*
X146666979Y-105737441D01*
X146666979Y-105737442D01*
X146529320Y-105816920D01*
X146529317Y-105816922D01*
X146416922Y-105929317D01*
X146416920Y-105929320D01*
X146391368Y-105973578D01*
X146337441Y-106066981D01*
X146296300Y-106220521D01*
X135400500Y-106220521D01*
X135400500Y-104258475D01*
X135899500Y-104258475D01*
X135899500Y-105721517D01*
X135910292Y-105789657D01*
X135914354Y-105815304D01*
X135971950Y-105928342D01*
X135971952Y-105928344D01*
X135971954Y-105928347D01*
X136061652Y-106018045D01*
X136061654Y-106018046D01*
X136061658Y-106018050D01*
X136160061Y-106068189D01*
X136174698Y-106075647D01*
X136268475Y-106090499D01*
X136268481Y-106090500D01*
X137731518Y-106090499D01*
X137825304Y-106075646D01*
X137938342Y-106018050D01*
X138028050Y-105928342D01*
X138085646Y-105815304D01*
X138085646Y-105815302D01*
X138085647Y-105815301D01*
X138100500Y-105721524D01*
X138100500Y-105520521D01*
X143796300Y-105520521D01*
X143796300Y-105679479D01*
X143837441Y-105833019D01*
X143916920Y-105970680D01*
X144029320Y-106083080D01*
X144166981Y-106162559D01*
X144320521Y-106203700D01*
X144320523Y-106203700D01*
X144479476Y-106203700D01*
X144479479Y-106203700D01*
X144633019Y-106162559D01*
X144770680Y-106083080D01*
X144883080Y-105970680D01*
X144962559Y-105833019D01*
X145003700Y-105679479D01*
X145003700Y-105520521D01*
X144995873Y-105491310D01*
X144997534Y-105421464D01*
X145036695Y-105363601D01*
X145100923Y-105336095D01*
X145169826Y-105347680D01*
X145177635Y-105351824D01*
X145304481Y-105425059D01*
X145458021Y-105466200D01*
X145458023Y-105466200D01*
X145616976Y-105466200D01*
X145616979Y-105466200D01*
X145770519Y-105425059D01*
X145774269Y-105422894D01*
X145777836Y-105422028D01*
X145778033Y-105421947D01*
X145778045Y-105421977D01*
X145842168Y-105406418D01*
X145898273Y-105422890D01*
X145966981Y-105462559D01*
X146120521Y-105503700D01*
X146120523Y-105503700D01*
X146279476Y-105503700D01*
X146279479Y-105503700D01*
X146433019Y-105462559D01*
X146570680Y-105383080D01*
X146683080Y-105270680D01*
X146724475Y-105198981D01*
X146775041Y-105150768D01*
X146843648Y-105137544D01*
X146908512Y-105163512D01*
X146919542Y-105173302D01*
X147029320Y-105283080D01*
X147166981Y-105362559D01*
X147320521Y-105403700D01*
X147320523Y-105403700D01*
X147479476Y-105403700D01*
X147479479Y-105403700D01*
X147633019Y-105362559D01*
X147676777Y-105337294D01*
X147744676Y-105320821D01*
X147786951Y-105333239D01*
X147787855Y-105331059D01*
X147795364Y-105334169D01*
X147795366Y-105334169D01*
X147795369Y-105334171D01*
X147948909Y-105375312D01*
X147948911Y-105375312D01*
X148107864Y-105375312D01*
X148107867Y-105375312D01*
X148261407Y-105334171D01*
X148399068Y-105254692D01*
X148511468Y-105142292D01*
X148590947Y-105004631D01*
X148632088Y-104851091D01*
X148632088Y-104692133D01*
X148612900Y-104620521D01*
X148896300Y-104620521D01*
X148896300Y-104779479D01*
X148937441Y-104933019D01*
X149016920Y-105070680D01*
X149129320Y-105183080D01*
X149266981Y-105262559D01*
X149420521Y-105303700D01*
X149420523Y-105303700D01*
X149579476Y-105303700D01*
X149579479Y-105303700D01*
X149733019Y-105262559D01*
X149870680Y-105183080D01*
X149983080Y-105070680D01*
X150062559Y-104933019D01*
X150103700Y-104779479D01*
X150103700Y-104720521D01*
X150696300Y-104720521D01*
X150696300Y-104879479D01*
X150737441Y-105033019D01*
X150816920Y-105170680D01*
X150929320Y-105283080D01*
X151066981Y-105362559D01*
X151220521Y-105403700D01*
X151220523Y-105403700D01*
X151379476Y-105403700D01*
X151379479Y-105403700D01*
X151533019Y-105362559D01*
X151533021Y-105362557D01*
X151533023Y-105362557D01*
X151540533Y-105359447D01*
X151541230Y-105361131D01*
X151599222Y-105347052D01*
X151665252Y-105369893D01*
X151708453Y-105424807D01*
X151714960Y-105446720D01*
X151726418Y-105504323D01*
X151726421Y-105504332D01*
X151779221Y-105631804D01*
X151779228Y-105631817D01*
X151855885Y-105746541D01*
X151855888Y-105746545D01*
X151953454Y-105844111D01*
X151953458Y-105844114D01*
X152068182Y-105920771D01*
X152068195Y-105920778D01*
X152195667Y-105973578D01*
X152195672Y-105973580D01*
X152195676Y-105973580D01*
X152195677Y-105973581D01*
X152331004Y-106000500D01*
X152331007Y-106000500D01*
X152468995Y-106000500D01*
X152560041Y-105982389D01*
X152604328Y-105973580D01*
X152702924Y-105932740D01*
X152731804Y-105920778D01*
X152731804Y-105920777D01*
X152731811Y-105920775D01*
X152846542Y-105844114D01*
X152944114Y-105746542D01*
X153020775Y-105631811D01*
X153073580Y-105504328D01*
X153089398Y-105424807D01*
X153100500Y-105368995D01*
X153100500Y-105231004D01*
X153073581Y-105095677D01*
X153073580Y-105095676D01*
X153073580Y-105095672D01*
X153050950Y-105041037D01*
X153020778Y-104968195D01*
X153020771Y-104968182D01*
X152944114Y-104853458D01*
X152944111Y-104853454D01*
X152846545Y-104755888D01*
X152846541Y-104755885D01*
X152731817Y-104679228D01*
X152731804Y-104679221D01*
X152604332Y-104626421D01*
X152604322Y-104626418D01*
X152468995Y-104599500D01*
X152468993Y-104599500D01*
X152331007Y-104599500D01*
X152331005Y-104599500D01*
X152195677Y-104626418D01*
X152195667Y-104626421D01*
X152068195Y-104679221D01*
X152068177Y-104679231D01*
X152063162Y-104682582D01*
X151996483Y-104703454D01*
X151929104Y-104684964D01*
X151882418Y-104632981D01*
X151874507Y-104611574D01*
X151862559Y-104566981D01*
X151783080Y-104429320D01*
X151670680Y-104316920D01*
X151533019Y-104237441D01*
X151379479Y-104196300D01*
X151220521Y-104196300D01*
X151066981Y-104237441D01*
X151066979Y-104237441D01*
X151066979Y-104237442D01*
X150929320Y-104316920D01*
X150929317Y-104316922D01*
X150816922Y-104429317D01*
X150816920Y-104429320D01*
X150803314Y-104452887D01*
X150737441Y-104566981D01*
X150696300Y-104720521D01*
X150103700Y-104720521D01*
X150103700Y-104620521D01*
X150062559Y-104466981D01*
X149983080Y-104329320D01*
X149870680Y-104216920D01*
X149733019Y-104137441D01*
X149579479Y-104096300D01*
X149420521Y-104096300D01*
X149266981Y-104137441D01*
X149266979Y-104137441D01*
X149266979Y-104137442D01*
X149129320Y-104216920D01*
X149129317Y-104216922D01*
X149016922Y-104329317D01*
X149016920Y-104329320D01*
X148947910Y-104448849D01*
X148937441Y-104466981D01*
X148896300Y-104620521D01*
X148612900Y-104620521D01*
X148590947Y-104538593D01*
X148511468Y-104400932D01*
X148440019Y-104329483D01*
X148406534Y-104268160D01*
X148403700Y-104241802D01*
X148403700Y-104120523D01*
X148403700Y-104120521D01*
X148362559Y-103966981D01*
X148283080Y-103829320D01*
X148273302Y-103819542D01*
X148239817Y-103758219D01*
X148244801Y-103688527D01*
X148286673Y-103632594D01*
X148298977Y-103624477D01*
X148370680Y-103583080D01*
X148483080Y-103470680D01*
X148562559Y-103333019D01*
X148603700Y-103179479D01*
X148603700Y-103020521D01*
X148562559Y-102866981D01*
X148483080Y-102729320D01*
X148370680Y-102616920D01*
X148233019Y-102537441D01*
X148169873Y-102520521D01*
X152696300Y-102520521D01*
X152696300Y-102679479D01*
X152737441Y-102833019D01*
X152816920Y-102970680D01*
X152929320Y-103083080D01*
X153066981Y-103162559D01*
X153220521Y-103203700D01*
X153220523Y-103203700D01*
X153387606Y-103203700D01*
X153387606Y-103205739D01*
X153445825Y-103214812D01*
X153498086Y-103261187D01*
X153516978Y-103328453D01*
X153512761Y-103359084D01*
X153496300Y-103420521D01*
X153496300Y-103579479D01*
X153537441Y-103733019D01*
X153616920Y-103870680D01*
X153729320Y-103983080D01*
X153866981Y-104062559D01*
X154020521Y-104103700D01*
X154020523Y-104103700D01*
X154179476Y-104103700D01*
X154179479Y-104103700D01*
X154333019Y-104062559D01*
X154470680Y-103983080D01*
X154583080Y-103870680D01*
X154662559Y-103733019D01*
X154703700Y-103579479D01*
X154703700Y-103420521D01*
X154662559Y-103266981D01*
X154583080Y-103129320D01*
X154573302Y-103119542D01*
X154539817Y-103058219D01*
X154544801Y-102988527D01*
X154586673Y-102932594D01*
X154598977Y-102924477D01*
X154670680Y-102883080D01*
X154783080Y-102770680D01*
X154847573Y-102658974D01*
X154898137Y-102610762D01*
X154966744Y-102597538D01*
X155031609Y-102623506D01*
X155042639Y-102633296D01*
X155053454Y-102644111D01*
X155053458Y-102644114D01*
X155168182Y-102720771D01*
X155168195Y-102720778D01*
X155295667Y-102773578D01*
X155295672Y-102773580D01*
X155295676Y-102773580D01*
X155295677Y-102773581D01*
X155431004Y-102800500D01*
X155431007Y-102800500D01*
X155568995Y-102800500D01*
X155660041Y-102782389D01*
X155704328Y-102773580D01*
X155802924Y-102732740D01*
X155831804Y-102720778D01*
X155831804Y-102720777D01*
X155831811Y-102720775D01*
X155946542Y-102644114D01*
X156044114Y-102546542D01*
X156120775Y-102431811D01*
X156173580Y-102304328D01*
X156185074Y-102246542D01*
X156200500Y-102168995D01*
X156200500Y-102031004D01*
X156173581Y-101895677D01*
X156173580Y-101895676D01*
X156173580Y-101895672D01*
X156156630Y-101854750D01*
X156120778Y-101768195D01*
X156120771Y-101768182D01*
X156044114Y-101653458D01*
X156044111Y-101653454D01*
X155946545Y-101555888D01*
X155946541Y-101555885D01*
X155831817Y-101479228D01*
X155831804Y-101479221D01*
X155704332Y-101426421D01*
X155704322Y-101426418D01*
X155568995Y-101399500D01*
X155568993Y-101399500D01*
X155431007Y-101399500D01*
X155431005Y-101399500D01*
X155295677Y-101426418D01*
X155295667Y-101426421D01*
X155168195Y-101479221D01*
X155168182Y-101479228D01*
X155053458Y-101555885D01*
X155053454Y-101555888D01*
X154955888Y-101653454D01*
X154955885Y-101653458D01*
X154879228Y-101768182D01*
X154879221Y-101768195D01*
X154843370Y-101854750D01*
X154799529Y-101909154D01*
X154733235Y-101931219D01*
X154666809Y-101914685D01*
X154533019Y-101837441D01*
X154379479Y-101796300D01*
X154220521Y-101796300D01*
X154066981Y-101837441D01*
X154066979Y-101837441D01*
X154066979Y-101837442D01*
X153929320Y-101916920D01*
X153929317Y-101916922D01*
X153816922Y-102029317D01*
X153816917Y-102029323D01*
X153804425Y-102050960D01*
X153753856Y-102099174D01*
X153685248Y-102112394D01*
X153635040Y-102096343D01*
X153533019Y-102037441D01*
X153379479Y-101996300D01*
X153220521Y-101996300D01*
X153066981Y-102037441D01*
X153066979Y-102037441D01*
X153066979Y-102037442D01*
X152929320Y-102116920D01*
X152929317Y-102116922D01*
X152816922Y-102229317D01*
X152816920Y-102229320D01*
X152777336Y-102297882D01*
X152737441Y-102366981D01*
X152696300Y-102520521D01*
X148169873Y-102520521D01*
X148079479Y-102496300D01*
X147920521Y-102496300D01*
X147766981Y-102537441D01*
X147766979Y-102537441D01*
X147766979Y-102537442D01*
X147629320Y-102616920D01*
X147629317Y-102616922D01*
X147516922Y-102729317D01*
X147516920Y-102729320D01*
X147491368Y-102773578D01*
X147437441Y-102866981D01*
X147396300Y-103020521D01*
X147396300Y-103179479D01*
X147420738Y-103270682D01*
X147437442Y-103333022D01*
X147446492Y-103348697D01*
X147462965Y-103416598D01*
X147440112Y-103482624D01*
X147385191Y-103525815D01*
X147315637Y-103532456D01*
X147307012Y-103530472D01*
X147207096Y-103503700D01*
X147179479Y-103496300D01*
X147020521Y-103496300D01*
X146866981Y-103537441D01*
X146866979Y-103537441D01*
X146866979Y-103537442D01*
X146729320Y-103616920D01*
X146729317Y-103616922D01*
X146616922Y-103729317D01*
X146616920Y-103729320D01*
X146594014Y-103768995D01*
X146537441Y-103866981D01*
X146496300Y-104020521D01*
X146496300Y-104020523D01*
X146496300Y-104187606D01*
X146494264Y-104187606D01*
X146485177Y-104245846D01*
X146438793Y-104298098D01*
X146371523Y-104316978D01*
X146340916Y-104312762D01*
X146279479Y-104296300D01*
X146120521Y-104296300D01*
X145966981Y-104337441D01*
X145966978Y-104337442D01*
X145966975Y-104337444D01*
X145963222Y-104339611D01*
X145959656Y-104340475D01*
X145959475Y-104340551D01*
X145959463Y-104340522D01*
X145895322Y-104356081D01*
X145839226Y-104339609D01*
X145770521Y-104299942D01*
X145770520Y-104299941D01*
X145770519Y-104299941D01*
X145616979Y-104258800D01*
X145458021Y-104258800D01*
X145304481Y-104299941D01*
X145304479Y-104299941D01*
X145304479Y-104299942D01*
X145166820Y-104379420D01*
X145166817Y-104379422D01*
X145054422Y-104491817D01*
X145054420Y-104491820D01*
X145011026Y-104566981D01*
X144974941Y-104629481D01*
X144933800Y-104783021D01*
X144933800Y-104941979D01*
X144941626Y-104971189D01*
X144939964Y-105041037D01*
X144900802Y-105098900D01*
X144836573Y-105126404D01*
X144767671Y-105114818D01*
X144759852Y-105110668D01*
X144633022Y-105037442D01*
X144633023Y-105037442D01*
X144614881Y-105032581D01*
X144479479Y-104996300D01*
X144320521Y-104996300D01*
X144166981Y-105037441D01*
X144166979Y-105037441D01*
X144166979Y-105037442D01*
X144029320Y-105116920D01*
X144029317Y-105116922D01*
X143916922Y-105229317D01*
X143916920Y-105229320D01*
X143840819Y-105361131D01*
X143837441Y-105366981D01*
X143796300Y-105520521D01*
X138100500Y-105520521D01*
X138100500Y-105232572D01*
X139790979Y-105232572D01*
X139826328Y-105256192D01*
X140008306Y-105331569D01*
X140008318Y-105331572D01*
X140201504Y-105369999D01*
X140201508Y-105370000D01*
X140398492Y-105370000D01*
X140398495Y-105369999D01*
X140591681Y-105331572D01*
X140591693Y-105331569D01*
X140773676Y-105256190D01*
X140773680Y-105256187D01*
X140809019Y-105232573D01*
X140809020Y-105232572D01*
X140300001Y-104723553D01*
X140300000Y-104723553D01*
X139790979Y-105232572D01*
X138100500Y-105232572D01*
X138100500Y-105186361D01*
X138100499Y-104515888D01*
X138120183Y-104448849D01*
X138172987Y-104403094D01*
X138200308Y-104394271D01*
X138304328Y-104373580D01*
X138410788Y-104329483D01*
X138431804Y-104320778D01*
X138431804Y-104320777D01*
X138431811Y-104320775D01*
X138505550Y-104271504D01*
X139300000Y-104271504D01*
X139300000Y-104468495D01*
X139338427Y-104661681D01*
X139338430Y-104661693D01*
X139413808Y-104843673D01*
X139413809Y-104843675D01*
X139437426Y-104879019D01*
X139950000Y-104366445D01*
X139950000Y-104416078D01*
X139973852Y-104505095D01*
X140019930Y-104584905D01*
X140085095Y-104650070D01*
X140164905Y-104696148D01*
X140253922Y-104720000D01*
X140346078Y-104720000D01*
X140435095Y-104696148D01*
X140514905Y-104650070D01*
X140580070Y-104584905D01*
X140626148Y-104505095D01*
X140650000Y-104416078D01*
X140650000Y-104366447D01*
X141162572Y-104879020D01*
X141162573Y-104879019D01*
X141186187Y-104843680D01*
X141186190Y-104843676D01*
X141261569Y-104661693D01*
X141261572Y-104661681D01*
X141299999Y-104468495D01*
X141300000Y-104468492D01*
X141300000Y-104271508D01*
X141299999Y-104271504D01*
X141261572Y-104078318D01*
X141261569Y-104078306D01*
X141186191Y-103896327D01*
X141176818Y-103882298D01*
X141155942Y-103815620D01*
X141169438Y-103757113D01*
X141181715Y-103733019D01*
X141185646Y-103725304D01*
X141185646Y-103725302D01*
X141185647Y-103725301D01*
X141200499Y-103631524D01*
X141200500Y-103631519D01*
X141200499Y-102820521D01*
X143596300Y-102820521D01*
X143596300Y-102979479D01*
X143637441Y-103133019D01*
X143716920Y-103270680D01*
X143829320Y-103383080D01*
X143966981Y-103462559D01*
X144120521Y-103503700D01*
X144120523Y-103503700D01*
X144279476Y-103503700D01*
X144279479Y-103503700D01*
X144433019Y-103462559D01*
X144570680Y-103383080D01*
X144683080Y-103270680D01*
X144762559Y-103133019D01*
X144803700Y-102979479D01*
X144803700Y-102820521D01*
X144762559Y-102666981D01*
X144683080Y-102529320D01*
X144570680Y-102416920D01*
X144433019Y-102337441D01*
X144279479Y-102296300D01*
X144120521Y-102296300D01*
X143966981Y-102337441D01*
X143966979Y-102337441D01*
X143966979Y-102337442D01*
X143829320Y-102416920D01*
X143829317Y-102416922D01*
X143716922Y-102529317D01*
X143716920Y-102529320D01*
X143637441Y-102666981D01*
X143596300Y-102820521D01*
X141200499Y-102820521D01*
X141200499Y-102568482D01*
X141185646Y-102474696D01*
X141128050Y-102361658D01*
X141128046Y-102361654D01*
X141128045Y-102361652D01*
X141038347Y-102271954D01*
X141038344Y-102271952D01*
X141038342Y-102271950D01*
X140954676Y-102229320D01*
X140925301Y-102214352D01*
X140831524Y-102199500D01*
X139768482Y-102199500D01*
X139687519Y-102212323D01*
X139674696Y-102214354D01*
X139561658Y-102271950D01*
X139561657Y-102271951D01*
X139561652Y-102271954D01*
X139471954Y-102361652D01*
X139471951Y-102361657D01*
X139471950Y-102361658D01*
X139465875Y-102373581D01*
X139414352Y-102474698D01*
X139399500Y-102568475D01*
X139399500Y-103631517D01*
X139414354Y-103725306D01*
X139414355Y-103725309D01*
X139430562Y-103757116D01*
X139443458Y-103825785D01*
X139423181Y-103882299D01*
X139413812Y-103896320D01*
X139413809Y-103896325D01*
X139338429Y-104078310D01*
X139338427Y-104078318D01*
X139300000Y-104271504D01*
X138505550Y-104271504D01*
X138546542Y-104244114D01*
X138573736Y-104216920D01*
X138612921Y-104177736D01*
X138644111Y-104146545D01*
X138644114Y-104146542D01*
X138720775Y-104031811D01*
X138725452Y-104020521D01*
X138747629Y-103966979D01*
X138773580Y-103904328D01*
X138800500Y-103768993D01*
X138800500Y-103631007D01*
X138800500Y-103631004D01*
X138773581Y-103495677D01*
X138773580Y-103495676D01*
X138773580Y-103495672D01*
X138759864Y-103462559D01*
X138720778Y-103368195D01*
X138720771Y-103368182D01*
X138644114Y-103253458D01*
X138644111Y-103253454D01*
X138546545Y-103155888D01*
X138546541Y-103155885D01*
X138431817Y-103079228D01*
X138431804Y-103079221D01*
X138304332Y-103026421D01*
X138304322Y-103026418D01*
X138168995Y-102999500D01*
X138168993Y-102999500D01*
X138031007Y-102999500D01*
X138031005Y-102999500D01*
X137895677Y-103026418D01*
X137895667Y-103026421D01*
X137768195Y-103079221D01*
X137768182Y-103079228D01*
X137653458Y-103155885D01*
X137653454Y-103155888D01*
X137555888Y-103253454D01*
X137555885Y-103253458D01*
X137479228Y-103368182D01*
X137479221Y-103368195D01*
X137426421Y-103495667D01*
X137426418Y-103495677D01*
X137399500Y-103631004D01*
X137399500Y-103765500D01*
X137379815Y-103832539D01*
X137327011Y-103878294D01*
X137275500Y-103889500D01*
X136268482Y-103889500D01*
X136187519Y-103902323D01*
X136174696Y-103904354D01*
X136061658Y-103961950D01*
X136061657Y-103961951D01*
X136061652Y-103961954D01*
X135971954Y-104051652D01*
X135971951Y-104051657D01*
X135914352Y-104164698D01*
X135899500Y-104258475D01*
X135400500Y-104258475D01*
X135400500Y-100520521D01*
X143496300Y-100520521D01*
X143496300Y-100679479D01*
X143537441Y-100833019D01*
X143616920Y-100970680D01*
X143729320Y-101083080D01*
X143866981Y-101162559D01*
X144020521Y-101203700D01*
X144020523Y-101203700D01*
X144179476Y-101203700D01*
X144179479Y-101203700D01*
X144333019Y-101162559D01*
X144470680Y-101083080D01*
X144583080Y-100970680D01*
X144662559Y-100833019D01*
X144703700Y-100679479D01*
X144703700Y-100520521D01*
X144662559Y-100366981D01*
X144583080Y-100229320D01*
X144470680Y-100116920D01*
X144333019Y-100037441D01*
X144179479Y-99996300D01*
X144020521Y-99996300D01*
X143866981Y-100037441D01*
X143866979Y-100037441D01*
X143866979Y-100037442D01*
X143729320Y-100116920D01*
X143729317Y-100116922D01*
X143616922Y-100229317D01*
X143616920Y-100229320D01*
X143587961Y-100279479D01*
X143537441Y-100366981D01*
X143496300Y-100520521D01*
X135400500Y-100520521D01*
X135400500Y-97420521D01*
X142196300Y-97420521D01*
X142196300Y-97579479D01*
X142237441Y-97733019D01*
X142316920Y-97870680D01*
X142316922Y-97870682D01*
X142434500Y-97988260D01*
X142467985Y-98049583D01*
X142463001Y-98119275D01*
X142454208Y-98137938D01*
X142437442Y-98166978D01*
X142437442Y-98166979D01*
X142437441Y-98166981D01*
X142396300Y-98320521D01*
X142396300Y-98479479D01*
X142433128Y-98616922D01*
X142437442Y-98633022D01*
X142504577Y-98749302D01*
X142521050Y-98817202D01*
X142516965Y-98843394D01*
X142496300Y-98920519D01*
X142496300Y-98920521D01*
X142496300Y-99079479D01*
X142537441Y-99233019D01*
X142616920Y-99370680D01*
X142729320Y-99483080D01*
X142866981Y-99562559D01*
X143020521Y-99603700D01*
X143020523Y-99603700D01*
X143179476Y-99603700D01*
X143179479Y-99603700D01*
X143333019Y-99562559D01*
X143362057Y-99545793D01*
X143429953Y-99529319D01*
X143495981Y-99552169D01*
X143511738Y-99565498D01*
X143529320Y-99583080D01*
X143666981Y-99662559D01*
X143820521Y-99703700D01*
X143820523Y-99703700D01*
X143979476Y-99703700D01*
X143979479Y-99703700D01*
X144133019Y-99662559D01*
X144270680Y-99583080D01*
X144383080Y-99470680D01*
X144462559Y-99333019D01*
X144465908Y-99320521D01*
X145596300Y-99320521D01*
X145596300Y-99479479D01*
X145619349Y-99565498D01*
X145637442Y-99633022D01*
X145698051Y-99738000D01*
X145714524Y-99805900D01*
X145698051Y-99862000D01*
X145637442Y-99966977D01*
X145637441Y-99966981D01*
X145596300Y-100120521D01*
X145596300Y-100279479D01*
X145636632Y-100430000D01*
X145637442Y-100433022D01*
X145698051Y-100538000D01*
X145714524Y-100605900D01*
X145698051Y-100662000D01*
X145637442Y-100766977D01*
X145637441Y-100766981D01*
X145596300Y-100920521D01*
X145596300Y-101079479D01*
X145637441Y-101233019D01*
X145716920Y-101370680D01*
X145829320Y-101483080D01*
X145966981Y-101562559D01*
X146120521Y-101603700D01*
X146120523Y-101603700D01*
X146279476Y-101603700D01*
X146279479Y-101603700D01*
X146433019Y-101562559D01*
X146538000Y-101501947D01*
X146605899Y-101485475D01*
X146661999Y-101501947D01*
X146766981Y-101562559D01*
X146920521Y-101603700D01*
X146920523Y-101603700D01*
X147079476Y-101603700D01*
X147079479Y-101603700D01*
X147233019Y-101562559D01*
X147338000Y-101501947D01*
X147405899Y-101485475D01*
X147461999Y-101501947D01*
X147566981Y-101562559D01*
X147720521Y-101603700D01*
X147720523Y-101603700D01*
X147879476Y-101603700D01*
X147879479Y-101603700D01*
X148033019Y-101562559D01*
X148170680Y-101483080D01*
X148283080Y-101370680D01*
X148362559Y-101233019D01*
X148403700Y-101079479D01*
X148403700Y-100920521D01*
X148362559Y-100766981D01*
X148301947Y-100661999D01*
X148285475Y-100594101D01*
X148301948Y-100537999D01*
X148312039Y-100520521D01*
X148362559Y-100433019D01*
X148403700Y-100279479D01*
X148403700Y-100127700D01*
X148406250Y-100119014D01*
X148404962Y-100110053D01*
X148415940Y-100086012D01*
X148423385Y-100060661D01*
X148430225Y-100054733D01*
X148433987Y-100046497D01*
X148456221Y-100032207D01*
X148476189Y-100014906D01*
X148486703Y-100012618D01*
X148492765Y-100008723D01*
X148527700Y-100003700D01*
X148672300Y-100003700D01*
X148739339Y-100023385D01*
X148785094Y-100076189D01*
X148796300Y-100127700D01*
X148796300Y-100279479D01*
X148836632Y-100430000D01*
X148837442Y-100433022D01*
X148898051Y-100538000D01*
X148914524Y-100605900D01*
X148898051Y-100662000D01*
X148837442Y-100766977D01*
X148837441Y-100766981D01*
X148796300Y-100920521D01*
X148796300Y-101079479D01*
X148837441Y-101233019D01*
X148916920Y-101370680D01*
X149029320Y-101483080D01*
X149166981Y-101562559D01*
X149320521Y-101603700D01*
X149320523Y-101603700D01*
X149479476Y-101603700D01*
X149479479Y-101603700D01*
X149633019Y-101562559D01*
X149738000Y-101501947D01*
X149805899Y-101485475D01*
X149861999Y-101501947D01*
X149966981Y-101562559D01*
X150120521Y-101603700D01*
X150120523Y-101603700D01*
X150279476Y-101603700D01*
X150279479Y-101603700D01*
X150433019Y-101562559D01*
X150538000Y-101501947D01*
X150605899Y-101485475D01*
X150661999Y-101501947D01*
X150766981Y-101562559D01*
X150920521Y-101603700D01*
X150920523Y-101603700D01*
X151079476Y-101603700D01*
X151079479Y-101603700D01*
X151233019Y-101562559D01*
X151370680Y-101483080D01*
X151483080Y-101370680D01*
X151562559Y-101233019D01*
X151603700Y-101079479D01*
X151603700Y-100920521D01*
X151562559Y-100766981D01*
X151501947Y-100661999D01*
X151499117Y-100650333D01*
X151492155Y-100640556D01*
X151491033Y-100617013D01*
X151485475Y-100594101D01*
X151489318Y-100581009D01*
X151488831Y-100570765D01*
X151501948Y-100537999D01*
X151512039Y-100520521D01*
X153396300Y-100520521D01*
X153396300Y-100679479D01*
X153437441Y-100833019D01*
X153516920Y-100970680D01*
X153629320Y-101083080D01*
X153766981Y-101162559D01*
X153920521Y-101203700D01*
X153920523Y-101203700D01*
X154079476Y-101203700D01*
X154079479Y-101203700D01*
X154233019Y-101162559D01*
X154370680Y-101083080D01*
X154483080Y-100970680D01*
X154562559Y-100833019D01*
X154603700Y-100679479D01*
X154603700Y-100520521D01*
X154562559Y-100366981D01*
X154483080Y-100229320D01*
X154370680Y-100116920D01*
X154290655Y-100070717D01*
X154290654Y-100070716D01*
X154233022Y-100037442D01*
X154233023Y-100037442D01*
X154180561Y-100023385D01*
X154079479Y-99996300D01*
X153920521Y-99996300D01*
X153766981Y-100037441D01*
X153766979Y-100037441D01*
X153766979Y-100037442D01*
X153629320Y-100116920D01*
X153629317Y-100116922D01*
X153516922Y-100229317D01*
X153516920Y-100229320D01*
X153487961Y-100279479D01*
X153437441Y-100366981D01*
X153396300Y-100520521D01*
X151512039Y-100520521D01*
X151552528Y-100450393D01*
X151552529Y-100450391D01*
X151562557Y-100433022D01*
X151562558Y-100433020D01*
X151562559Y-100433019D01*
X151603700Y-100279479D01*
X151603700Y-100120521D01*
X151562559Y-99966981D01*
X151541208Y-99930000D01*
X156175138Y-99930000D01*
X156978012Y-99930000D01*
X156960795Y-99939940D01*
X156904940Y-99995795D01*
X156865444Y-100064204D01*
X156845000Y-100140504D01*
X156845000Y-100219496D01*
X156865444Y-100295796D01*
X156904940Y-100364205D01*
X156960795Y-100420060D01*
X156978012Y-100430000D01*
X156175138Y-100430000D01*
X156183430Y-100471690D01*
X156183430Y-100471692D01*
X156258807Y-100653671D01*
X156258814Y-100653684D01*
X156368248Y-100817462D01*
X156368251Y-100817466D01*
X156507533Y-100956748D01*
X156507537Y-100956751D01*
X156671315Y-101066185D01*
X156671328Y-101066192D01*
X156853306Y-101141569D01*
X156853318Y-101141572D01*
X157046504Y-101179999D01*
X157046508Y-101180000D01*
X157445000Y-101180000D01*
X157445000Y-100480000D01*
X157945000Y-100480000D01*
X157945000Y-101168706D01*
X157925315Y-101235745D01*
X157908681Y-101256387D01*
X157832912Y-101332155D01*
X157832910Y-101332158D01*
X157773337Y-101435339D01*
X157742500Y-101550427D01*
X157742500Y-101669572D01*
X157773337Y-101784660D01*
X157780058Y-101796300D01*
X157832910Y-101887842D01*
X157917158Y-101972090D01*
X158006514Y-102023680D01*
X158019199Y-102031004D01*
X158020341Y-102031663D01*
X158135427Y-102062500D01*
X158135429Y-102062500D01*
X158254571Y-102062500D01*
X158254573Y-102062500D01*
X158369659Y-102031663D01*
X158370801Y-102031004D01*
X158381022Y-102025102D01*
X158420233Y-102002463D01*
X158488132Y-101985990D01*
X158554160Y-102008842D01*
X158585336Y-102040958D01*
X158655888Y-102146545D01*
X158753454Y-102244111D01*
X158753458Y-102244114D01*
X158868182Y-102320771D01*
X158868195Y-102320778D01*
X158995667Y-102373578D01*
X158995672Y-102373580D01*
X158995676Y-102373580D01*
X158995677Y-102373581D01*
X159131004Y-102400500D01*
X159131007Y-102400500D01*
X159268995Y-102400500D01*
X159360041Y-102382389D01*
X159404328Y-102373580D01*
X159531811Y-102320775D01*
X159631109Y-102254425D01*
X159697786Y-102233548D01*
X159765166Y-102252032D01*
X159768889Y-102254425D01*
X159868189Y-102320775D01*
X159868191Y-102320776D01*
X159868195Y-102320778D01*
X159995667Y-102373578D01*
X159995672Y-102373580D01*
X159995676Y-102373580D01*
X159995677Y-102373581D01*
X160131004Y-102400500D01*
X160131007Y-102400500D01*
X160268995Y-102400500D01*
X160360041Y-102382389D01*
X160404328Y-102373580D01*
X160531811Y-102320775D01*
X160566073Y-102297882D01*
X160632750Y-102277003D01*
X160700130Y-102295487D01*
X160722647Y-102313303D01*
X160753454Y-102344111D01*
X160753458Y-102344114D01*
X160868182Y-102420771D01*
X160868195Y-102420778D01*
X160983263Y-102468440D01*
X160995672Y-102473580D01*
X160995676Y-102473580D01*
X160995677Y-102473581D01*
X161131004Y-102500500D01*
X161131007Y-102500500D01*
X161268995Y-102500500D01*
X161398707Y-102474698D01*
X161404328Y-102473580D01*
X161531811Y-102420775D01*
X161646542Y-102344114D01*
X161717409Y-102273246D01*
X161778730Y-102239763D01*
X161848422Y-102244747D01*
X161873980Y-102257827D01*
X161968182Y-102320771D01*
X161968195Y-102320778D01*
X162095667Y-102373578D01*
X162095672Y-102373580D01*
X162095676Y-102373580D01*
X162095677Y-102373581D01*
X162231004Y-102400500D01*
X162231007Y-102400500D01*
X162368995Y-102400500D01*
X162460041Y-102382389D01*
X162504328Y-102373580D01*
X162631811Y-102320775D01*
X162746542Y-102244114D01*
X162844114Y-102146542D01*
X162920775Y-102031811D01*
X162973580Y-101904328D01*
X162986885Y-101837441D01*
X163000500Y-101768995D01*
X163000500Y-101627700D01*
X163020185Y-101560661D01*
X163072989Y-101514906D01*
X163124500Y-101503700D01*
X163279476Y-101503700D01*
X163279479Y-101503700D01*
X163433019Y-101462559D01*
X163570680Y-101383080D01*
X163683080Y-101270680D01*
X163762559Y-101133019D01*
X163803700Y-100979479D01*
X163803700Y-100820521D01*
X163762559Y-100666981D01*
X163683080Y-100529320D01*
X163570680Y-100416920D01*
X163433019Y-100337441D01*
X163279479Y-100296300D01*
X163120521Y-100296300D01*
X162985118Y-100332581D01*
X162966977Y-100337442D01*
X162835439Y-100413387D01*
X162773439Y-100430000D01*
X162341988Y-100430000D01*
X162359205Y-100420060D01*
X162415060Y-100364205D01*
X162454556Y-100295796D01*
X162475000Y-100219496D01*
X162475000Y-100140504D01*
X162454556Y-100064204D01*
X162415060Y-99995795D01*
X162359205Y-99939940D01*
X162341988Y-99930000D01*
X163144862Y-99930000D01*
X163136569Y-99888309D01*
X163136569Y-99888307D01*
X163061192Y-99706328D01*
X163061185Y-99706315D01*
X162951751Y-99542537D01*
X162951748Y-99542533D01*
X162812466Y-99403251D01*
X162812462Y-99403248D01*
X162648684Y-99293814D01*
X162648671Y-99293807D01*
X162466693Y-99218430D01*
X162466681Y-99218427D01*
X162273495Y-99180000D01*
X162125000Y-99180000D01*
X162125000Y-99880000D01*
X161625000Y-99880000D01*
X161625000Y-99180000D01*
X161476504Y-99180000D01*
X161283318Y-99218427D01*
X161283306Y-99218430D01*
X161101328Y-99293807D01*
X161101315Y-99293814D01*
X160937537Y-99403248D01*
X160937533Y-99403251D01*
X160798251Y-99542533D01*
X160798248Y-99542537D01*
X160688814Y-99706315D01*
X160688807Y-99706328D01*
X160613430Y-99888307D01*
X160613430Y-99888309D01*
X160605138Y-99930000D01*
X161408012Y-99930000D01*
X161390795Y-99939940D01*
X161334940Y-99995795D01*
X161295444Y-100064204D01*
X161275000Y-100140504D01*
X161275000Y-100219496D01*
X161295444Y-100295796D01*
X161334940Y-100364205D01*
X161390795Y-100420060D01*
X161408012Y-100430000D01*
X160605138Y-100430000D01*
X160613430Y-100471690D01*
X160613430Y-100471692D01*
X160688807Y-100653671D01*
X160688814Y-100653684D01*
X160798248Y-100817462D01*
X160798251Y-100817466D01*
X160941844Y-100961059D01*
X160940237Y-100962665D01*
X160952893Y-100981254D01*
X160972280Y-101007472D01*
X160972443Y-101009969D01*
X160973853Y-101012039D01*
X160974719Y-101044650D01*
X160976854Y-101077192D01*
X160975641Y-101079381D01*
X160975708Y-101081884D01*
X160958813Y-101109773D01*
X160943009Y-101138317D01*
X160940523Y-101139967D01*
X160939507Y-101141645D01*
X160914630Y-101159301D01*
X160909094Y-101162281D01*
X160868189Y-101179225D01*
X160829030Y-101205390D01*
X160823819Y-101208196D01*
X160795178Y-101214250D01*
X160767246Y-101222996D01*
X160761396Y-101221391D01*
X160755460Y-101222646D01*
X160728089Y-101212253D01*
X160699866Y-101204510D01*
X160692640Y-101198793D01*
X160690141Y-101197844D01*
X160688307Y-101195364D01*
X160677352Y-101186696D01*
X160646545Y-101155888D01*
X160646541Y-101155885D01*
X160531817Y-101079228D01*
X160531804Y-101079221D01*
X160404332Y-101026421D01*
X160404322Y-101026418D01*
X160268995Y-100999500D01*
X160268993Y-100999500D01*
X160131007Y-100999500D01*
X160131005Y-100999500D01*
X159995677Y-101026418D01*
X159995667Y-101026421D01*
X159868195Y-101079221D01*
X159868182Y-101079228D01*
X159768891Y-101145573D01*
X159702213Y-101166451D01*
X159634833Y-101147966D01*
X159631109Y-101145573D01*
X159531817Y-101079228D01*
X159531804Y-101079221D01*
X159404332Y-101026421D01*
X159404322Y-101026418D01*
X159268995Y-100999500D01*
X159268993Y-100999500D01*
X159132106Y-100999500D01*
X159065067Y-100979815D01*
X159019312Y-100927011D01*
X159009368Y-100857853D01*
X159029004Y-100806609D01*
X159131185Y-100653684D01*
X159131192Y-100653671D01*
X159206569Y-100471692D01*
X159206569Y-100471690D01*
X159214862Y-100430000D01*
X158411988Y-100430000D01*
X158429205Y-100420060D01*
X158485060Y-100364205D01*
X158524556Y-100295796D01*
X158545000Y-100219496D01*
X158545000Y-100140504D01*
X158524556Y-100064204D01*
X158485060Y-99995795D01*
X158429205Y-99939940D01*
X158411988Y-99930000D01*
X159214862Y-99930000D01*
X159206569Y-99888309D01*
X159206569Y-99888307D01*
X159131192Y-99706328D01*
X159131185Y-99706315D01*
X159021751Y-99542537D01*
X159021748Y-99542533D01*
X158882466Y-99403251D01*
X158882462Y-99403248D01*
X158718684Y-99293814D01*
X158718671Y-99293807D01*
X158536693Y-99218430D01*
X158536681Y-99218427D01*
X158343495Y-99180000D01*
X157945000Y-99180000D01*
X157945000Y-99880000D01*
X157445000Y-99880000D01*
X157445000Y-99180000D01*
X157046504Y-99180000D01*
X156853318Y-99218427D01*
X156853306Y-99218430D01*
X156671328Y-99293807D01*
X156671315Y-99293814D01*
X156507537Y-99403248D01*
X156507533Y-99403251D01*
X156368251Y-99542533D01*
X156368248Y-99542537D01*
X156258814Y-99706315D01*
X156258807Y-99706328D01*
X156183430Y-99888307D01*
X156183430Y-99888309D01*
X156175138Y-99930000D01*
X151541208Y-99930000D01*
X151501947Y-99861999D01*
X151485475Y-99794101D01*
X151501948Y-99737999D01*
X151562559Y-99633019D01*
X151603700Y-99479479D01*
X151603700Y-99320521D01*
X151562559Y-99166981D01*
X151483080Y-99029320D01*
X151370680Y-98916920D01*
X151233019Y-98837441D01*
X151079479Y-98796300D01*
X150920521Y-98796300D01*
X150785118Y-98832581D01*
X150766977Y-98837442D01*
X150662000Y-98898051D01*
X150594100Y-98914524D01*
X150538000Y-98898051D01*
X150433022Y-98837442D01*
X150433023Y-98837442D01*
X150414881Y-98832581D01*
X150279479Y-98796300D01*
X150120521Y-98796300D01*
X149985118Y-98832581D01*
X149966977Y-98837442D01*
X149862000Y-98898051D01*
X149794100Y-98914524D01*
X149738000Y-98898051D01*
X149633022Y-98837442D01*
X149633023Y-98837442D01*
X149614881Y-98832581D01*
X149479479Y-98796300D01*
X149320521Y-98796300D01*
X149185118Y-98832581D01*
X149166977Y-98837442D01*
X149062000Y-98898051D01*
X148994100Y-98914524D01*
X148938000Y-98898051D01*
X148833022Y-98837442D01*
X148833023Y-98837442D01*
X148814881Y-98832581D01*
X148679479Y-98796300D01*
X148520521Y-98796300D01*
X148385118Y-98832581D01*
X148366977Y-98837442D01*
X148262000Y-98898051D01*
X148194100Y-98914524D01*
X148138000Y-98898051D01*
X148033022Y-98837442D01*
X148033023Y-98837442D01*
X148014881Y-98832581D01*
X147879479Y-98796300D01*
X147720521Y-98796300D01*
X147585118Y-98832581D01*
X147566977Y-98837442D01*
X147462000Y-98898051D01*
X147394100Y-98914524D01*
X147338000Y-98898051D01*
X147233022Y-98837442D01*
X147233023Y-98837442D01*
X147214881Y-98832581D01*
X147079479Y-98796300D01*
X146920521Y-98796300D01*
X146785118Y-98832581D01*
X146766977Y-98837442D01*
X146662000Y-98898051D01*
X146594100Y-98914524D01*
X146538000Y-98898051D01*
X146433022Y-98837442D01*
X146433023Y-98837442D01*
X146414881Y-98832581D01*
X146279479Y-98796300D01*
X146120521Y-98796300D01*
X145966981Y-98837441D01*
X145966979Y-98837441D01*
X145966979Y-98837442D01*
X145829320Y-98916920D01*
X145829317Y-98916922D01*
X145716922Y-99029317D01*
X145716920Y-99029320D01*
X145687961Y-99079479D01*
X145637441Y-99166981D01*
X145596300Y-99320521D01*
X144465908Y-99320521D01*
X144503700Y-99179479D01*
X144503700Y-99020521D01*
X144462559Y-98866981D01*
X144383080Y-98729320D01*
X144270680Y-98616920D01*
X144133019Y-98537441D01*
X143979479Y-98496300D01*
X143820521Y-98496300D01*
X143759793Y-98512572D01*
X143689943Y-98510909D01*
X143632081Y-98471746D01*
X143604577Y-98407517D01*
X143603700Y-98392797D01*
X143603700Y-98320523D01*
X143603700Y-98320521D01*
X143562559Y-98166981D01*
X143483080Y-98029320D01*
X143370680Y-97916920D01*
X143365499Y-97911739D01*
X143332014Y-97850416D01*
X143336998Y-97780724D01*
X143345794Y-97762056D01*
X143362559Y-97733019D01*
X143403700Y-97579479D01*
X143403700Y-97420521D01*
X143362559Y-97266981D01*
X143283080Y-97129320D01*
X143170680Y-97016920D01*
X143033019Y-96937441D01*
X142879479Y-96896300D01*
X142720521Y-96896300D01*
X142566981Y-96937441D01*
X142566979Y-96937441D01*
X142566979Y-96937442D01*
X142429320Y-97016920D01*
X142429317Y-97016922D01*
X142316922Y-97129317D01*
X142316920Y-97129320D01*
X142287961Y-97179479D01*
X142237441Y-97266981D01*
X142196300Y-97420521D01*
X135400500Y-97420521D01*
X135400500Y-95320521D01*
X144796300Y-95320521D01*
X144796300Y-95479479D01*
X144837441Y-95633019D01*
X144916920Y-95770680D01*
X145029320Y-95883080D01*
X145166981Y-95962559D01*
X145320521Y-96003700D01*
X145320523Y-96003700D01*
X145472300Y-96003700D01*
X145480985Y-96006250D01*
X145489947Y-96004962D01*
X145513987Y-96015940D01*
X145539339Y-96023385D01*
X145545266Y-96030225D01*
X145553503Y-96033987D01*
X145567792Y-96056221D01*
X145585094Y-96076189D01*
X145587381Y-96086703D01*
X145591277Y-96092765D01*
X145596300Y-96127700D01*
X145596300Y-96272300D01*
X145576615Y-96339339D01*
X145523811Y-96385094D01*
X145472300Y-96396300D01*
X145320521Y-96396300D01*
X145166981Y-96437441D01*
X145166979Y-96437441D01*
X145166979Y-96437442D01*
X145029320Y-96516920D01*
X145029317Y-96516922D01*
X144916922Y-96629317D01*
X144916920Y-96629320D01*
X144878284Y-96696240D01*
X144837441Y-96766981D01*
X144796300Y-96920521D01*
X144796300Y-97079479D01*
X144837441Y-97233019D01*
X144916920Y-97370680D01*
X145029320Y-97483080D01*
X145166981Y-97562559D01*
X145320521Y-97603700D01*
X145320523Y-97603700D01*
X145472300Y-97603700D01*
X145539339Y-97623385D01*
X145585094Y-97676189D01*
X145596300Y-97727700D01*
X145596300Y-97879479D01*
X145637441Y-98033019D01*
X145716920Y-98170680D01*
X145829320Y-98283080D01*
X145966981Y-98362559D01*
X146120521Y-98403700D01*
X146120523Y-98403700D01*
X146279476Y-98403700D01*
X146279479Y-98403700D01*
X146433019Y-98362559D01*
X146570680Y-98283080D01*
X146683080Y-98170680D01*
X146762559Y-98033019D01*
X146803700Y-97879479D01*
X146803700Y-97727700D01*
X146823385Y-97660661D01*
X146876189Y-97614906D01*
X146927700Y-97603700D01*
X147079476Y-97603700D01*
X147079479Y-97603700D01*
X147233019Y-97562559D01*
X147338000Y-97501947D01*
X147405899Y-97485475D01*
X147461999Y-97501947D01*
X147566981Y-97562559D01*
X147720521Y-97603700D01*
X147720523Y-97603700D01*
X147879476Y-97603700D01*
X147879479Y-97603700D01*
X148033019Y-97562559D01*
X148170680Y-97483080D01*
X148283080Y-97370680D01*
X148362559Y-97233019D01*
X148403700Y-97079479D01*
X148403700Y-96920521D01*
X148362559Y-96766981D01*
X148301947Y-96661999D01*
X148285475Y-96594101D01*
X148301948Y-96537999D01*
X148302270Y-96537442D01*
X148362559Y-96433019D01*
X148403700Y-96279479D01*
X148403700Y-96120521D01*
X148796300Y-96120521D01*
X148796300Y-96279479D01*
X148837441Y-96433019D01*
X148837442Y-96433022D01*
X148898051Y-96538000D01*
X148914524Y-96605900D01*
X148898051Y-96662000D01*
X148837442Y-96766977D01*
X148837441Y-96766981D01*
X148796300Y-96920521D01*
X148796300Y-97079479D01*
X148837441Y-97233019D01*
X148916920Y-97370680D01*
X149029320Y-97483080D01*
X149166981Y-97562559D01*
X149320521Y-97603700D01*
X149320523Y-97603700D01*
X149472300Y-97603700D01*
X149539339Y-97623385D01*
X149585094Y-97676189D01*
X149596300Y-97727700D01*
X149596300Y-97879479D01*
X149637441Y-98033019D01*
X149716920Y-98170680D01*
X149829320Y-98283080D01*
X149966981Y-98362559D01*
X150120521Y-98403700D01*
X150120523Y-98403700D01*
X150279476Y-98403700D01*
X150279479Y-98403700D01*
X150433019Y-98362559D01*
X150538000Y-98301947D01*
X150605899Y-98285475D01*
X150661999Y-98301947D01*
X150766981Y-98362559D01*
X150920521Y-98403700D01*
X150920523Y-98403700D01*
X151079476Y-98403700D01*
X151079479Y-98403700D01*
X151233019Y-98362559D01*
X151370680Y-98283080D01*
X151483080Y-98170680D01*
X151562559Y-98033019D01*
X151603700Y-97879479D01*
X151603700Y-97720521D01*
X151562559Y-97566981D01*
X151501947Y-97461999D01*
X151485475Y-97394101D01*
X151501948Y-97337999D01*
X151504823Y-97333020D01*
X151562559Y-97233019D01*
X151603700Y-97079479D01*
X151603700Y-97020521D01*
X154096300Y-97020521D01*
X154096300Y-97179479D01*
X154137441Y-97333019D01*
X154216920Y-97470680D01*
X154329320Y-97583080D01*
X154466981Y-97662559D01*
X154620521Y-97703700D01*
X154620523Y-97703700D01*
X154779476Y-97703700D01*
X154779479Y-97703700D01*
X154933019Y-97662559D01*
X155070680Y-97583080D01*
X155070689Y-97583070D01*
X155074507Y-97580142D01*
X155139674Y-97554944D01*
X155208120Y-97568977D01*
X155225493Y-97580142D01*
X155229313Y-97583073D01*
X155229320Y-97583080D01*
X155366981Y-97662559D01*
X155520521Y-97703700D01*
X155520523Y-97703700D01*
X155679476Y-97703700D01*
X155679479Y-97703700D01*
X155833019Y-97662559D01*
X155905831Y-97620521D01*
X157296300Y-97620521D01*
X157296300Y-97779479D01*
X157337441Y-97933019D01*
X157416920Y-98070680D01*
X157529320Y-98183080D01*
X157666981Y-98262559D01*
X157820521Y-98303700D01*
X157820523Y-98303700D01*
X157979476Y-98303700D01*
X157979479Y-98303700D01*
X158133019Y-98262559D01*
X158270680Y-98183080D01*
X158383080Y-98070680D01*
X158462559Y-97933019D01*
X158503700Y-97779479D01*
X158503700Y-97620521D01*
X158462559Y-97466981D01*
X158383080Y-97329320D01*
X158325235Y-97271475D01*
X158291750Y-97210152D01*
X158296734Y-97140460D01*
X158334834Y-97088930D01*
X158334731Y-97088827D01*
X158335418Y-97088139D01*
X158337433Y-97085415D01*
X158340466Y-97083086D01*
X158340478Y-97083080D01*
X158452878Y-96970680D01*
X158532357Y-96833019D01*
X158573498Y-96679479D01*
X158573498Y-96520521D01*
X158532357Y-96366981D01*
X158452878Y-96229320D01*
X158340478Y-96116920D01*
X158202817Y-96037441D01*
X158049277Y-95996300D01*
X157890319Y-95996300D01*
X157736779Y-96037441D01*
X157736777Y-96037441D01*
X157736777Y-96037442D01*
X157599118Y-96116920D01*
X157599115Y-96116922D01*
X157486720Y-96229317D01*
X157486718Y-96229320D01*
X157457759Y-96279479D01*
X157407239Y-96366981D01*
X157366098Y-96520521D01*
X157366098Y-96679479D01*
X157407239Y-96833019D01*
X157486718Y-96970680D01*
X157486720Y-96970682D01*
X157544562Y-97028524D01*
X157578047Y-97089847D01*
X157573063Y-97159539D01*
X157534965Y-97211071D01*
X157535067Y-97211173D01*
X157534388Y-97211851D01*
X157532375Y-97214575D01*
X157529321Y-97216918D01*
X157416922Y-97329317D01*
X157416920Y-97329320D01*
X157393040Y-97370682D01*
X157337441Y-97466981D01*
X157296300Y-97620521D01*
X155905831Y-97620521D01*
X155970680Y-97583080D01*
X156083080Y-97470680D01*
X156162559Y-97333019D01*
X156172583Y-97295605D01*
X156208948Y-97235946D01*
X156271795Y-97205417D01*
X156292358Y-97203700D01*
X156379476Y-97203700D01*
X156379479Y-97203700D01*
X156533019Y-97162559D01*
X156670680Y-97083080D01*
X156783080Y-96970680D01*
X156862559Y-96833019D01*
X156903700Y-96679479D01*
X156903700Y-96520521D01*
X156862559Y-96366981D01*
X156783080Y-96229320D01*
X156670680Y-96116920D01*
X156533019Y-96037441D01*
X156409879Y-96004445D01*
X156350220Y-95968080D01*
X156319691Y-95905233D01*
X156327986Y-95835858D01*
X156366495Y-95786289D01*
X156370666Y-95783087D01*
X156370680Y-95783080D01*
X156483080Y-95670680D01*
X156562559Y-95533019D01*
X156603700Y-95379479D01*
X156603700Y-95220521D01*
X156562559Y-95066981D01*
X156535735Y-95020521D01*
X161496300Y-95020521D01*
X161496300Y-95179479D01*
X161537441Y-95333019D01*
X161616920Y-95470680D01*
X161729320Y-95583080D01*
X161866981Y-95662559D01*
X162020521Y-95703700D01*
X162020523Y-95703700D01*
X162179476Y-95703700D01*
X162179479Y-95703700D01*
X162333019Y-95662559D01*
X162470680Y-95583080D01*
X162583080Y-95470680D01*
X162662559Y-95333019D01*
X162666828Y-95317084D01*
X162703190Y-95257428D01*
X162766036Y-95226897D01*
X162835412Y-95235191D01*
X162889291Y-95279674D01*
X162906376Y-95317084D01*
X162937441Y-95433019D01*
X163016920Y-95570680D01*
X163129320Y-95683080D01*
X163266981Y-95762559D01*
X163420521Y-95803700D01*
X163420523Y-95803700D01*
X163579476Y-95803700D01*
X163579479Y-95803700D01*
X163733019Y-95762559D01*
X163870680Y-95683080D01*
X163983080Y-95570680D01*
X164062559Y-95433019D01*
X164103700Y-95279479D01*
X164103700Y-95120521D01*
X164062559Y-94966981D01*
X163983080Y-94829320D01*
X163870680Y-94716920D01*
X163733019Y-94637441D01*
X163579479Y-94596300D01*
X163420521Y-94596300D01*
X163266981Y-94637441D01*
X163266979Y-94637441D01*
X163266979Y-94637442D01*
X163129320Y-94716920D01*
X163129317Y-94716922D01*
X163016922Y-94829317D01*
X163016920Y-94829320D01*
X162937441Y-94966980D01*
X162933171Y-94982916D01*
X162896805Y-95042575D01*
X162833957Y-95073103D01*
X162764582Y-95064806D01*
X162710705Y-95020319D01*
X162693623Y-94982915D01*
X162662559Y-94866981D01*
X162583080Y-94729320D01*
X162470680Y-94616920D01*
X162333019Y-94537441D01*
X162179479Y-94496300D01*
X162020521Y-94496300D01*
X161866981Y-94537441D01*
X161866979Y-94537441D01*
X161866979Y-94537442D01*
X161729320Y-94616920D01*
X161729317Y-94616922D01*
X161616922Y-94729317D01*
X161616920Y-94729320D01*
X161593040Y-94770682D01*
X161537441Y-94866981D01*
X161496300Y-95020521D01*
X156535735Y-95020521D01*
X156483080Y-94929320D01*
X156370680Y-94816920D01*
X156233019Y-94737441D01*
X156079479Y-94696300D01*
X155920521Y-94696300D01*
X155766981Y-94737441D01*
X155766979Y-94737441D01*
X155766979Y-94737442D01*
X155629320Y-94816920D01*
X155629317Y-94816922D01*
X155516922Y-94929317D01*
X155516920Y-94929320D01*
X155497731Y-94962557D01*
X155437441Y-95066981D01*
X155396300Y-95220521D01*
X155396300Y-95379479D01*
X155437441Y-95533019D01*
X155516920Y-95670680D01*
X155629320Y-95783080D01*
X155766981Y-95862559D01*
X155890119Y-95895553D01*
X155949779Y-95931918D01*
X155980308Y-95994765D01*
X155972013Y-96064141D01*
X155933514Y-96113702D01*
X155929318Y-96116921D01*
X155816922Y-96229317D01*
X155816920Y-96229320D01*
X155737440Y-96366981D01*
X155737439Y-96366984D01*
X155727415Y-96404395D01*
X155691050Y-96464055D01*
X155628203Y-96494583D01*
X155607641Y-96496300D01*
X155520521Y-96496300D01*
X155366981Y-96537441D01*
X155366979Y-96537441D01*
X155366979Y-96537442D01*
X155229315Y-96616922D01*
X155225487Y-96619861D01*
X155160318Y-96645056D01*
X155091873Y-96631018D01*
X155074513Y-96619861D01*
X155070684Y-96616922D01*
X154990590Y-96570680D01*
X154933019Y-96537441D01*
X154779479Y-96496300D01*
X154620521Y-96496300D01*
X154466981Y-96537441D01*
X154466979Y-96537441D01*
X154466979Y-96537442D01*
X154329320Y-96616920D01*
X154329317Y-96616922D01*
X154216922Y-96729317D01*
X154216920Y-96729320D01*
X154137441Y-96866981D01*
X154096300Y-97020521D01*
X151603700Y-97020521D01*
X151603700Y-96920521D01*
X151562559Y-96766981D01*
X151501947Y-96661999D01*
X151485475Y-96594101D01*
X151501948Y-96537999D01*
X151502270Y-96537442D01*
X151562559Y-96433019D01*
X151603700Y-96279479D01*
X151603700Y-96120521D01*
X151562559Y-95966981D01*
X151483080Y-95829320D01*
X151370680Y-95716920D01*
X151233019Y-95637441D01*
X151079479Y-95596300D01*
X150920521Y-95596300D01*
X150785118Y-95632581D01*
X150766977Y-95637442D01*
X150662000Y-95698051D01*
X150594100Y-95714524D01*
X150538000Y-95698051D01*
X150433022Y-95637442D01*
X150433023Y-95637442D01*
X150414881Y-95632581D01*
X150279479Y-95596300D01*
X150120521Y-95596300D01*
X149985118Y-95632581D01*
X149966977Y-95637442D01*
X149862000Y-95698051D01*
X149794100Y-95714524D01*
X149738000Y-95698051D01*
X149633022Y-95637442D01*
X149633023Y-95637442D01*
X149614881Y-95632581D01*
X149479479Y-95596300D01*
X149320521Y-95596300D01*
X149166981Y-95637441D01*
X149166979Y-95637441D01*
X149166979Y-95637442D01*
X149029320Y-95716920D01*
X149029317Y-95716922D01*
X148916922Y-95829317D01*
X148916920Y-95829320D01*
X148837441Y-95966981D01*
X148796300Y-96120521D01*
X148403700Y-96120521D01*
X148362559Y-95966981D01*
X148283080Y-95829320D01*
X148170680Y-95716920D01*
X148033019Y-95637441D01*
X147879479Y-95596300D01*
X147720521Y-95596300D01*
X147585118Y-95632581D01*
X147566977Y-95637442D01*
X147462000Y-95698051D01*
X147394100Y-95714524D01*
X147338000Y-95698051D01*
X147233022Y-95637442D01*
X147233023Y-95637442D01*
X147214881Y-95632581D01*
X147079479Y-95596300D01*
X146920521Y-95596300D01*
X146785118Y-95632581D01*
X146766977Y-95637442D01*
X146662000Y-95698051D01*
X146594100Y-95714524D01*
X146538000Y-95698051D01*
X146433022Y-95637442D01*
X146433023Y-95637442D01*
X146414881Y-95632581D01*
X146279479Y-95596300D01*
X146127700Y-95596300D01*
X146060661Y-95576615D01*
X146014906Y-95523811D01*
X146003700Y-95472300D01*
X146003700Y-95320523D01*
X146003700Y-95320521D01*
X145962559Y-95166981D01*
X145883080Y-95029320D01*
X145770680Y-94916920D01*
X145633019Y-94837441D01*
X145479479Y-94796300D01*
X145320521Y-94796300D01*
X145166981Y-94837441D01*
X145166979Y-94837441D01*
X145166979Y-94837442D01*
X145029320Y-94916920D01*
X145029317Y-94916922D01*
X144916922Y-95029317D01*
X144916920Y-95029320D01*
X144837441Y-95166981D01*
X144796300Y-95320521D01*
X135400500Y-95320521D01*
X135400500Y-92520521D01*
X136296300Y-92520521D01*
X136296300Y-92679479D01*
X136337441Y-92833019D01*
X136416920Y-92970680D01*
X136529320Y-93083080D01*
X136666981Y-93162559D01*
X136820521Y-93203700D01*
X136820523Y-93203700D01*
X136979476Y-93203700D01*
X136979479Y-93203700D01*
X137133019Y-93162559D01*
X137270680Y-93083080D01*
X137383080Y-92970680D01*
X137412039Y-92920521D01*
X138196300Y-92920521D01*
X138196300Y-93079479D01*
X138237441Y-93233019D01*
X138316920Y-93370680D01*
X138429320Y-93483080D01*
X138566981Y-93562559D01*
X138720521Y-93603700D01*
X138720523Y-93603700D01*
X138874672Y-93603700D01*
X138941711Y-93623385D01*
X138987466Y-93676189D01*
X138997410Y-93745347D01*
X138982059Y-93789700D01*
X138937442Y-93866977D01*
X138933128Y-93883077D01*
X138896300Y-94020521D01*
X138896300Y-94179479D01*
X138937441Y-94333019D01*
X139016920Y-94470680D01*
X139129320Y-94583080D01*
X139266981Y-94662559D01*
X139420521Y-94703700D01*
X139420523Y-94703700D01*
X139579476Y-94703700D01*
X139579479Y-94703700D01*
X139733019Y-94662559D01*
X139870680Y-94583080D01*
X139983080Y-94470680D01*
X140062559Y-94333019D01*
X140103700Y-94179479D01*
X140103700Y-94020521D01*
X140062559Y-93866981D01*
X139983080Y-93729320D01*
X139870680Y-93616920D01*
X139733019Y-93537441D01*
X139669873Y-93520521D01*
X143996300Y-93520521D01*
X143996300Y-93679479D01*
X144037441Y-93833019D01*
X144116920Y-93970680D01*
X144229320Y-94083080D01*
X144366981Y-94162559D01*
X144520521Y-94203700D01*
X144520523Y-94203700D01*
X144679476Y-94203700D01*
X144679479Y-94203700D01*
X144823636Y-94165073D01*
X144893482Y-94166736D01*
X144943407Y-94197167D01*
X145029320Y-94283080D01*
X145166981Y-94362559D01*
X145320521Y-94403700D01*
X145320523Y-94403700D01*
X145479476Y-94403700D01*
X145479479Y-94403700D01*
X145633019Y-94362559D01*
X145740358Y-94300586D01*
X145808255Y-94284114D01*
X145874282Y-94306966D01*
X145917473Y-94361887D01*
X145922129Y-94375874D01*
X145937441Y-94433019D01*
X146016920Y-94570680D01*
X146129320Y-94683080D01*
X146266981Y-94762559D01*
X146420521Y-94803700D01*
X146420523Y-94803700D01*
X146579476Y-94803700D01*
X146579479Y-94803700D01*
X146733019Y-94762559D01*
X146870680Y-94683080D01*
X146983080Y-94570680D01*
X147062559Y-94433019D01*
X147103700Y-94279479D01*
X147103700Y-94120521D01*
X147062559Y-93966981D01*
X146983080Y-93829320D01*
X146870680Y-93716920D01*
X146765698Y-93656308D01*
X146717484Y-93605741D01*
X146703700Y-93548922D01*
X146703700Y-93520523D01*
X146703700Y-93520521D01*
X146662559Y-93366981D01*
X146655441Y-93354653D01*
X146609105Y-93274396D01*
X146609104Y-93274395D01*
X146607572Y-93271741D01*
X146583080Y-93229320D01*
X146574281Y-93220521D01*
X154096300Y-93220521D01*
X154096300Y-93379479D01*
X154137441Y-93533019D01*
X154216920Y-93670680D01*
X154329320Y-93783080D01*
X154337617Y-93787870D01*
X154385833Y-93838436D01*
X154399058Y-93907043D01*
X154373091Y-93971908D01*
X154363301Y-93982938D01*
X154316923Y-94029316D01*
X154316920Y-94029320D01*
X154238543Y-94165073D01*
X154237441Y-94166981D01*
X154196300Y-94320521D01*
X154196300Y-94479479D01*
X154237441Y-94633019D01*
X154316920Y-94770680D01*
X154429320Y-94883080D01*
X154566981Y-94962559D01*
X154720521Y-95003700D01*
X154720523Y-95003700D01*
X154879476Y-95003700D01*
X154879479Y-95003700D01*
X155033019Y-94962559D01*
X155170680Y-94883080D01*
X155283080Y-94770680D01*
X155362559Y-94633019D01*
X155403700Y-94479479D01*
X155403700Y-94320521D01*
X155362559Y-94166981D01*
X155283080Y-94029320D01*
X155170680Y-93916920D01*
X155162379Y-93912127D01*
X155114164Y-93861561D01*
X155100941Y-93792954D01*
X155126910Y-93728089D01*
X155136692Y-93717067D01*
X155183080Y-93670680D01*
X155262559Y-93533019D01*
X155262559Y-93533018D01*
X155263492Y-93531403D01*
X155314059Y-93483187D01*
X155382666Y-93469965D01*
X155447531Y-93495933D01*
X155488059Y-93552847D01*
X155489539Y-93557407D01*
X155491132Y-93562659D01*
X155538080Y-93676003D01*
X155538085Y-93676012D01*
X155606239Y-93778011D01*
X155606242Y-93778015D01*
X155692984Y-93864757D01*
X155692988Y-93864760D01*
X155794987Y-93932914D01*
X155794996Y-93932919D01*
X155795240Y-93933020D01*
X155908336Y-93979866D01*
X156028157Y-94003700D01*
X156028655Y-94003799D01*
X156028658Y-94003800D01*
X156028660Y-94003800D01*
X156151342Y-94003800D01*
X156151343Y-94003799D01*
X156271664Y-93979866D01*
X156385006Y-93932918D01*
X156487012Y-93864760D01*
X156573760Y-93778012D01*
X156641918Y-93676006D01*
X156688866Y-93562664D01*
X156712800Y-93442340D01*
X156712800Y-93320521D01*
X160096300Y-93320521D01*
X160096300Y-93479479D01*
X160137441Y-93633019D01*
X160216920Y-93770680D01*
X160329320Y-93883080D01*
X160466981Y-93962559D01*
X160620521Y-94003700D01*
X160706658Y-94003700D01*
X160773697Y-94023385D01*
X160814044Y-94065699D01*
X160816920Y-94070680D01*
X160929320Y-94183080D01*
X161066981Y-94262559D01*
X161220521Y-94303700D01*
X161220523Y-94303700D01*
X161379476Y-94303700D01*
X161379479Y-94303700D01*
X161533019Y-94262559D01*
X161670680Y-94183080D01*
X161783080Y-94070680D01*
X161862559Y-93933019D01*
X161903700Y-93779479D01*
X161903700Y-93620521D01*
X161862559Y-93466981D01*
X161783080Y-93329320D01*
X161670680Y-93216920D01*
X161533019Y-93137441D01*
X161513250Y-93132143D01*
X161453592Y-93095780D01*
X161423063Y-93032933D01*
X161431358Y-92963557D01*
X161475843Y-92909679D01*
X161476359Y-92909332D01*
X161567012Y-92848760D01*
X161653760Y-92762012D01*
X161721918Y-92660006D01*
X161768866Y-92546664D01*
X161792800Y-92426340D01*
X161792800Y-92303660D01*
X161792800Y-92303657D01*
X161782280Y-92250773D01*
X161788507Y-92181182D01*
X161831369Y-92126004D01*
X161897259Y-92102759D01*
X161920087Y-92103642D01*
X161920515Y-92103698D01*
X161920521Y-92103700D01*
X161920527Y-92103700D01*
X162079476Y-92103700D01*
X162079479Y-92103700D01*
X162233019Y-92062559D01*
X162370680Y-91983080D01*
X162483080Y-91870680D01*
X162562559Y-91733019D01*
X162603700Y-91579479D01*
X162603700Y-91420521D01*
X162562559Y-91266981D01*
X162483080Y-91129320D01*
X162370680Y-91016920D01*
X162233019Y-90937441D01*
X162079479Y-90896300D01*
X161920521Y-90896300D01*
X161766981Y-90937441D01*
X161766979Y-90937441D01*
X161766979Y-90937442D01*
X161629320Y-91016920D01*
X161629317Y-91016922D01*
X161516922Y-91129317D01*
X161516920Y-91129320D01*
X161497731Y-91162557D01*
X161437441Y-91266981D01*
X161396300Y-91420521D01*
X161396300Y-91420523D01*
X161396300Y-91579481D01*
X161400032Y-91593408D01*
X161398368Y-91663258D01*
X161359205Y-91721120D01*
X161294976Y-91748623D01*
X161256068Y-91747118D01*
X161231341Y-91742200D01*
X161231340Y-91742200D01*
X161108660Y-91742200D01*
X161108657Y-91742200D01*
X160988343Y-91766132D01*
X160988335Y-91766134D01*
X160874996Y-91813080D01*
X160874987Y-91813085D01*
X160772988Y-91881239D01*
X160772984Y-91881242D01*
X160686242Y-91967984D01*
X160686239Y-91967988D01*
X160618085Y-92069987D01*
X160618080Y-92069996D01*
X160571134Y-92183335D01*
X160571132Y-92183343D01*
X160547200Y-92303655D01*
X160547200Y-92426344D01*
X160565934Y-92520523D01*
X160571134Y-92546664D01*
X160584726Y-92579479D01*
X160615031Y-92652640D01*
X160622500Y-92722109D01*
X160591225Y-92784589D01*
X160532565Y-92819867D01*
X160466981Y-92837441D01*
X160466980Y-92837441D01*
X160466978Y-92837442D01*
X160329320Y-92916920D01*
X160329317Y-92916922D01*
X160216922Y-93029317D01*
X160216920Y-93029320D01*
X160138181Y-93165700D01*
X160137441Y-93166981D01*
X160096300Y-93320521D01*
X156712800Y-93320521D01*
X156712800Y-93319660D01*
X156688866Y-93199336D01*
X156665689Y-93143383D01*
X156663493Y-93134757D01*
X156664449Y-93108383D01*
X156661628Y-93082142D01*
X156665695Y-93074015D01*
X156666025Y-93064934D01*
X156681088Y-93043263D01*
X156692902Y-93019663D01*
X156700792Y-93014917D01*
X156705905Y-93007563D01*
X156728692Y-92998139D01*
X156751562Y-92984385D01*
X156833019Y-92962559D01*
X156970680Y-92883080D01*
X157083080Y-92770680D01*
X157162559Y-92633019D01*
X157203700Y-92479479D01*
X157203700Y-92320521D01*
X157162559Y-92166981D01*
X157083080Y-92029320D01*
X156970680Y-91916920D01*
X156890594Y-91870682D01*
X156833020Y-91837441D01*
X156796825Y-91827743D01*
X156725465Y-91808622D01*
X156665806Y-91772258D01*
X156635277Y-91709411D01*
X156642998Y-91641396D01*
X156688866Y-91530664D01*
X156712800Y-91410340D01*
X156712800Y-91287660D01*
X156712800Y-91287657D01*
X156712799Y-91287655D01*
X156693895Y-91192618D01*
X156688866Y-91167336D01*
X156641918Y-91053994D01*
X156641917Y-91053993D01*
X156641914Y-91053987D01*
X156573760Y-90951988D01*
X156573757Y-90951984D01*
X156487015Y-90865242D01*
X156487011Y-90865239D01*
X156420086Y-90820521D01*
X158096300Y-90820521D01*
X158096300Y-90979479D01*
X158137441Y-91133019D01*
X158216920Y-91270680D01*
X158329320Y-91383080D01*
X158466981Y-91462559D01*
X158620521Y-91503700D01*
X158620523Y-91503700D01*
X158779476Y-91503700D01*
X158779479Y-91503700D01*
X158933019Y-91462559D01*
X159070680Y-91383080D01*
X159183080Y-91270680D01*
X159262559Y-91133019D01*
X159303700Y-90979479D01*
X159303700Y-90820521D01*
X159270386Y-90696191D01*
X159272049Y-90626345D01*
X159311211Y-90568482D01*
X159321254Y-90561010D01*
X159346542Y-90544114D01*
X159444114Y-90446542D01*
X159520775Y-90331811D01*
X159573580Y-90204328D01*
X159590967Y-90116920D01*
X159600500Y-90068995D01*
X159600500Y-89931004D01*
X159573581Y-89795677D01*
X159573580Y-89795676D01*
X159573580Y-89795672D01*
X159547629Y-89733020D01*
X159520778Y-89668195D01*
X159520771Y-89668182D01*
X159444114Y-89553458D01*
X159444111Y-89553454D01*
X159346545Y-89455888D01*
X159346541Y-89455885D01*
X159231817Y-89379228D01*
X159231804Y-89379221D01*
X159104332Y-89326421D01*
X159104322Y-89326418D01*
X158968995Y-89299500D01*
X158968993Y-89299500D01*
X158831007Y-89299500D01*
X158831005Y-89299500D01*
X158695677Y-89326418D01*
X158695667Y-89326421D01*
X158568195Y-89379221D01*
X158568182Y-89379228D01*
X158453458Y-89455885D01*
X158453454Y-89455888D01*
X158355888Y-89553454D01*
X158355885Y-89553458D01*
X158279228Y-89668182D01*
X158279221Y-89668195D01*
X158226421Y-89795667D01*
X158226418Y-89795677D01*
X158199500Y-89931004D01*
X158199500Y-89931007D01*
X158199500Y-90068993D01*
X158199500Y-90068995D01*
X158199499Y-90068995D01*
X158226418Y-90204322D01*
X158226421Y-90204332D01*
X158279223Y-90331809D01*
X158282095Y-90337181D01*
X158279995Y-90338303D01*
X158297721Y-90394938D01*
X158279227Y-90462316D01*
X158261423Y-90484815D01*
X158216923Y-90529316D01*
X158216920Y-90529320D01*
X158165252Y-90618812D01*
X158137441Y-90666981D01*
X158096300Y-90820521D01*
X156420086Y-90820521D01*
X156385012Y-90797085D01*
X156385003Y-90797080D01*
X156271664Y-90750134D01*
X156271656Y-90750132D01*
X156151343Y-90726200D01*
X156151340Y-90726200D01*
X156028660Y-90726200D01*
X156028657Y-90726200D01*
X155908343Y-90750132D01*
X155908335Y-90750134D01*
X155794996Y-90797080D01*
X155794987Y-90797085D01*
X155692988Y-90865239D01*
X155692984Y-90865242D01*
X155606242Y-90951984D01*
X155606239Y-90951988D01*
X155538085Y-91053987D01*
X155538080Y-91053996D01*
X155491134Y-91167335D01*
X155491132Y-91167343D01*
X155467200Y-91287655D01*
X155467200Y-91410344D01*
X155491132Y-91530656D01*
X155491134Y-91530664D01*
X155538080Y-91644003D01*
X155538085Y-91644012D01*
X155606239Y-91746011D01*
X155606242Y-91746015D01*
X155692984Y-91832757D01*
X155692988Y-91832760D01*
X155794987Y-91900914D01*
X155794993Y-91900917D01*
X155794994Y-91900918D01*
X155908336Y-91947866D01*
X155939916Y-91954147D01*
X155967898Y-91959714D01*
X156029809Y-91992099D01*
X156064383Y-92052814D01*
X156060644Y-92122584D01*
X156051095Y-92143329D01*
X156037443Y-92166975D01*
X156037442Y-92166976D01*
X156033057Y-92183343D01*
X155996300Y-92320521D01*
X155996300Y-92479479D01*
X156034575Y-92622326D01*
X156032913Y-92692174D01*
X155993751Y-92750037D01*
X155938994Y-92776035D01*
X155908340Y-92782132D01*
X155908335Y-92782134D01*
X155794996Y-92829080D01*
X155794987Y-92829085D01*
X155692988Y-92897239D01*
X155692984Y-92897242D01*
X155606242Y-92983984D01*
X155606239Y-92983988D01*
X155538085Y-93085987D01*
X155538080Y-93085997D01*
X155513667Y-93144936D01*
X155469826Y-93199339D01*
X155403531Y-93221404D01*
X155335832Y-93204125D01*
X155288222Y-93152987D01*
X155279332Y-93129582D01*
X155262559Y-93066981D01*
X155183080Y-92929320D01*
X155070680Y-92816920D01*
X154933019Y-92737441D01*
X154779479Y-92696300D01*
X154620521Y-92696300D01*
X154466981Y-92737441D01*
X154466979Y-92737441D01*
X154466979Y-92737442D01*
X154329320Y-92816920D01*
X154329317Y-92816922D01*
X154216922Y-92929317D01*
X154216920Y-92929320D01*
X154182012Y-92989783D01*
X154137441Y-93066981D01*
X154096300Y-93220521D01*
X146574281Y-93220521D01*
X146470680Y-93116920D01*
X146333019Y-93037441D01*
X146179479Y-92996300D01*
X146020521Y-92996300D01*
X145866981Y-93037441D01*
X145866979Y-93037441D01*
X145866979Y-93037442D01*
X145729320Y-93116920D01*
X145729316Y-93116923D01*
X145664538Y-93181700D01*
X145603214Y-93215185D01*
X145544766Y-93213793D01*
X145479480Y-93196300D01*
X145479479Y-93196300D01*
X145320521Y-93196300D01*
X145176366Y-93234926D01*
X145106516Y-93233263D01*
X145056592Y-93202832D01*
X144970682Y-93116922D01*
X144970680Y-93116920D01*
X144833019Y-93037441D01*
X144679479Y-92996300D01*
X144520521Y-92996300D01*
X144366981Y-93037441D01*
X144366979Y-93037441D01*
X144366979Y-93037442D01*
X144229320Y-93116920D01*
X144229317Y-93116922D01*
X144116922Y-93229317D01*
X144116920Y-93229320D01*
X144044559Y-93354653D01*
X144037441Y-93366981D01*
X143996300Y-93520521D01*
X139669873Y-93520521D01*
X139579479Y-93496300D01*
X139425328Y-93496300D01*
X139358289Y-93476615D01*
X139312534Y-93423811D01*
X139302590Y-93354653D01*
X139317941Y-93310300D01*
X139362557Y-93233022D01*
X139362558Y-93233020D01*
X139362559Y-93233019D01*
X139403700Y-93079479D01*
X139403700Y-93056822D01*
X139423385Y-92989783D01*
X139476189Y-92944028D01*
X139545347Y-92934084D01*
X139608903Y-92963109D01*
X139615381Y-92969141D01*
X139629320Y-92983080D01*
X139766981Y-93062559D01*
X139920521Y-93103700D01*
X139975423Y-93103700D01*
X140042462Y-93123385D01*
X140082809Y-93165699D01*
X140116920Y-93224780D01*
X140229320Y-93337180D01*
X140366981Y-93416659D01*
X140520521Y-93457800D01*
X140520523Y-93457800D01*
X140679476Y-93457800D01*
X140679479Y-93457800D01*
X140833019Y-93416659D01*
X140970680Y-93337180D01*
X141083080Y-93224780D01*
X141162559Y-93087119D01*
X141203700Y-92933579D01*
X141203700Y-92774621D01*
X141162559Y-92621081D01*
X141083080Y-92483420D01*
X140970680Y-92371020D01*
X140833019Y-92291541D01*
X140679479Y-92250400D01*
X140679477Y-92250400D01*
X140624577Y-92250400D01*
X140557538Y-92230715D01*
X140517190Y-92188400D01*
X140513023Y-92181182D01*
X140483080Y-92129320D01*
X140474281Y-92120521D01*
X147096300Y-92120521D01*
X147096300Y-92279479D01*
X147137441Y-92433019D01*
X147216920Y-92570680D01*
X147329320Y-92683080D01*
X147466981Y-92762559D01*
X147620521Y-92803700D01*
X147620523Y-92803700D01*
X147779476Y-92803700D01*
X147779479Y-92803700D01*
X147933019Y-92762559D01*
X148070680Y-92683080D01*
X148183080Y-92570680D01*
X148262559Y-92433019D01*
X148292703Y-92320521D01*
X150396300Y-92320521D01*
X150396300Y-92479479D01*
X150437441Y-92633019D01*
X150516920Y-92770680D01*
X150629320Y-92883080D01*
X150766981Y-92962559D01*
X150920521Y-93003700D01*
X150920523Y-93003700D01*
X151079476Y-93003700D01*
X151079479Y-93003700D01*
X151233019Y-92962559D01*
X151370680Y-92883080D01*
X151483080Y-92770680D01*
X151562559Y-92633019D01*
X151603700Y-92479479D01*
X151603700Y-92320521D01*
X151562559Y-92166981D01*
X151483080Y-92029320D01*
X151370680Y-91916920D01*
X151233019Y-91837441D01*
X151079479Y-91796300D01*
X150920521Y-91796300D01*
X150766981Y-91837441D01*
X150766979Y-91837441D01*
X150766979Y-91837442D01*
X150629320Y-91916920D01*
X150629317Y-91916922D01*
X150516922Y-92029317D01*
X150516920Y-92029320D01*
X150451097Y-92143329D01*
X150437441Y-92166981D01*
X150396300Y-92320521D01*
X148292703Y-92320521D01*
X148303700Y-92279479D01*
X148303700Y-92120521D01*
X148262559Y-91966981D01*
X148183080Y-91829320D01*
X148070680Y-91716920D01*
X147933019Y-91637441D01*
X147779479Y-91596300D01*
X147620521Y-91596300D01*
X147466981Y-91637441D01*
X147466979Y-91637441D01*
X147466979Y-91637442D01*
X147329320Y-91716920D01*
X147329317Y-91716922D01*
X147216922Y-91829317D01*
X147216920Y-91829320D01*
X147139995Y-91962558D01*
X147137441Y-91966981D01*
X147096300Y-92120521D01*
X140474281Y-92120521D01*
X140370680Y-92016920D01*
X140233019Y-91937441D01*
X140079479Y-91896300D01*
X139920521Y-91896300D01*
X139766981Y-91937441D01*
X139766979Y-91937441D01*
X139766979Y-91937442D01*
X139629320Y-92016920D01*
X139629317Y-92016922D01*
X139516922Y-92129317D01*
X139516920Y-92129320D01*
X139437441Y-92266981D01*
X139396300Y-92420521D01*
X139396300Y-92420523D01*
X139396300Y-92443178D01*
X139376615Y-92510217D01*
X139323811Y-92555972D01*
X139254653Y-92565916D01*
X139191097Y-92536891D01*
X139184619Y-92530859D01*
X139170682Y-92516922D01*
X139170680Y-92516920D01*
X139033019Y-92437441D01*
X138879479Y-92396300D01*
X138720521Y-92396300D01*
X138566981Y-92437441D01*
X138566979Y-92437441D01*
X138566979Y-92437442D01*
X138429320Y-92516920D01*
X138429317Y-92516922D01*
X138316922Y-92629317D01*
X138316920Y-92629320D01*
X138287961Y-92679479D01*
X138237441Y-92766981D01*
X138196300Y-92920521D01*
X137412039Y-92920521D01*
X137462559Y-92833019D01*
X137503700Y-92679479D01*
X137503700Y-92520521D01*
X137462559Y-92366981D01*
X137383080Y-92229320D01*
X137270680Y-92116920D01*
X137133019Y-92037441D01*
X136979479Y-91996300D01*
X136820521Y-91996300D01*
X136666981Y-92037441D01*
X136666979Y-92037441D01*
X136666979Y-92037442D01*
X136529320Y-92116920D01*
X136529317Y-92116922D01*
X136416922Y-92229317D01*
X136416920Y-92229320D01*
X136374000Y-92303660D01*
X136337441Y-92366981D01*
X136296300Y-92520521D01*
X135400500Y-92520521D01*
X135400500Y-91320521D01*
X144796300Y-91320521D01*
X144796300Y-91479479D01*
X144837441Y-91633019D01*
X144916920Y-91770680D01*
X145029320Y-91883080D01*
X145166981Y-91962559D01*
X145320521Y-92003700D01*
X145320523Y-92003700D01*
X145479476Y-92003700D01*
X145479479Y-92003700D01*
X145633019Y-91962559D01*
X145770680Y-91883080D01*
X145883080Y-91770680D01*
X145962559Y-91633019D01*
X146003700Y-91479479D01*
X146003700Y-91320521D01*
X145962559Y-91166981D01*
X145883080Y-91029320D01*
X145770680Y-90916920D01*
X145633019Y-90837441D01*
X145479479Y-90796300D01*
X145320521Y-90796300D01*
X145166981Y-90837441D01*
X145166979Y-90837441D01*
X145166979Y-90837442D01*
X145029320Y-90916920D01*
X145029317Y-90916922D01*
X144916922Y-91029317D01*
X144916920Y-91029320D01*
X144839995Y-91162558D01*
X144837441Y-91166981D01*
X144796300Y-91320521D01*
X135400500Y-91320521D01*
X135400500Y-90520521D01*
X143196300Y-90520521D01*
X143196300Y-90679479D01*
X143237441Y-90833019D01*
X143316920Y-90970680D01*
X143429320Y-91083080D01*
X143566981Y-91162559D01*
X143720521Y-91203700D01*
X143720523Y-91203700D01*
X143879476Y-91203700D01*
X143879479Y-91203700D01*
X144033019Y-91162559D01*
X144170680Y-91083080D01*
X144283080Y-90970680D01*
X144362559Y-90833019D01*
X144403700Y-90679479D01*
X144403700Y-90520521D01*
X144362559Y-90366981D01*
X144305686Y-90268475D01*
X152299500Y-90268475D01*
X152299500Y-91331517D01*
X152307666Y-91383077D01*
X152314354Y-91425304D01*
X152371950Y-91538342D01*
X152371953Y-91538345D01*
X152377689Y-91546241D01*
X152374534Y-91548532D01*
X152398873Y-91593104D01*
X152393889Y-91662796D01*
X152392269Y-91666913D01*
X152351172Y-91766132D01*
X152338677Y-91796300D01*
X152334105Y-91807337D01*
X152334103Y-91807341D01*
X152299500Y-91981304D01*
X152299500Y-92158695D01*
X152334103Y-92332658D01*
X152334106Y-92332667D01*
X152401983Y-92496540D01*
X152401990Y-92496553D01*
X152500535Y-92644034D01*
X152500538Y-92644038D01*
X152625961Y-92769461D01*
X152625965Y-92769464D01*
X152773446Y-92868009D01*
X152773459Y-92868016D01*
X152891521Y-92916918D01*
X152937334Y-92935894D01*
X152937336Y-92935894D01*
X152937341Y-92935896D01*
X153111304Y-92970499D01*
X153111307Y-92970500D01*
X153111309Y-92970500D01*
X153288693Y-92970500D01*
X153288694Y-92970499D01*
X153346682Y-92958964D01*
X153462658Y-92935896D01*
X153462661Y-92935894D01*
X153462666Y-92935894D01*
X153626547Y-92868013D01*
X153774035Y-92769464D01*
X153899464Y-92644035D01*
X153998013Y-92496547D01*
X154065894Y-92332666D01*
X154068310Y-92320523D01*
X154100499Y-92158695D01*
X154100500Y-92158693D01*
X154100500Y-91981306D01*
X154100499Y-91981304D01*
X154065896Y-91807341D01*
X154065893Y-91807332D01*
X154007731Y-91666913D01*
X154000262Y-91597443D01*
X154008290Y-91570681D01*
X154017697Y-91548693D01*
X154028050Y-91538342D01*
X154085646Y-91425304D01*
X154094550Y-91369081D01*
X154100612Y-91354916D01*
X154113438Y-91339372D01*
X154122070Y-91321164D01*
X154135220Y-91312975D01*
X154145081Y-91301026D01*
X154164273Y-91294884D01*
X154181381Y-91284232D01*
X154197808Y-91284153D01*
X154211627Y-91279732D01*
X154227618Y-91284011D01*
X154246704Y-91283921D01*
X154320521Y-91303700D01*
X154320524Y-91303700D01*
X154479476Y-91303700D01*
X154479479Y-91303700D01*
X154633019Y-91262559D01*
X154770680Y-91183080D01*
X154883080Y-91070680D01*
X154962559Y-90933019D01*
X155003700Y-90779479D01*
X155003700Y-90620521D01*
X154962559Y-90466981D01*
X154883080Y-90329320D01*
X154770680Y-90216920D01*
X154633019Y-90137441D01*
X154479479Y-90096300D01*
X154320521Y-90096300D01*
X154175705Y-90135103D01*
X154105855Y-90133440D01*
X154047993Y-90094277D01*
X154033128Y-90071624D01*
X154028508Y-90062557D01*
X154028050Y-90061658D01*
X154028047Y-90061655D01*
X154028045Y-90061652D01*
X153938347Y-89971954D01*
X153938344Y-89971952D01*
X153938342Y-89971950D01*
X153857981Y-89931004D01*
X153825301Y-89914352D01*
X153731524Y-89899500D01*
X152668482Y-89899500D01*
X152587519Y-89912323D01*
X152574696Y-89914354D01*
X152461658Y-89971950D01*
X152461657Y-89971951D01*
X152461652Y-89971954D01*
X152371954Y-90061652D01*
X152371951Y-90061657D01*
X152371950Y-90061658D01*
X152371492Y-90062557D01*
X152314352Y-90174698D01*
X152299500Y-90268475D01*
X144305686Y-90268475D01*
X144283080Y-90229320D01*
X144170680Y-90116920D01*
X144033019Y-90037441D01*
X143879479Y-89996300D01*
X143720521Y-89996300D01*
X143566981Y-90037441D01*
X143566979Y-90037441D01*
X143566979Y-90037442D01*
X143429320Y-90116920D01*
X143429317Y-90116922D01*
X143316922Y-90229317D01*
X143316920Y-90229320D01*
X143257747Y-90331811D01*
X143237441Y-90366981D01*
X143196300Y-90520521D01*
X135400500Y-90520521D01*
X135400500Y-88968995D01*
X136199499Y-88968995D01*
X136226418Y-89104322D01*
X136226421Y-89104332D01*
X136279221Y-89231804D01*
X136279228Y-89231817D01*
X136355885Y-89346541D01*
X136355888Y-89346545D01*
X136453454Y-89444111D01*
X136453458Y-89444114D01*
X136568182Y-89520771D01*
X136568195Y-89520778D01*
X136695667Y-89573578D01*
X136695672Y-89573580D01*
X136695676Y-89573580D01*
X136695677Y-89573581D01*
X136831004Y-89600500D01*
X136831007Y-89600500D01*
X136968995Y-89600500D01*
X137074687Y-89579476D01*
X137104328Y-89573580D01*
X137231811Y-89520775D01*
X137346542Y-89444114D01*
X137444114Y-89346542D01*
X137520775Y-89231811D01*
X137573580Y-89104328D01*
X137580609Y-89068993D01*
X137590251Y-89020521D01*
X139496300Y-89020521D01*
X139496300Y-89179479D01*
X139537441Y-89333019D01*
X139616920Y-89470680D01*
X139729320Y-89583080D01*
X139866981Y-89662559D01*
X140020521Y-89703700D01*
X140020523Y-89703700D01*
X140179476Y-89703700D01*
X140179479Y-89703700D01*
X140333019Y-89662559D01*
X140470680Y-89583080D01*
X140583080Y-89470680D01*
X140662559Y-89333019D01*
X140703700Y-89179479D01*
X140703700Y-89020521D01*
X140662559Y-88866981D01*
X140583080Y-88729320D01*
X140470680Y-88616920D01*
X140333019Y-88537441D01*
X140179479Y-88496300D01*
X140020521Y-88496300D01*
X139866981Y-88537441D01*
X139866979Y-88537441D01*
X139866979Y-88537442D01*
X139729320Y-88616920D01*
X139729317Y-88616922D01*
X139616922Y-88729317D01*
X139616920Y-88729320D01*
X139537441Y-88866981D01*
X139496300Y-89020521D01*
X137590251Y-89020521D01*
X137596680Y-88988202D01*
X137600500Y-88968993D01*
X137600500Y-88831004D01*
X137573581Y-88695677D01*
X137573580Y-88695676D01*
X137573580Y-88695672D01*
X137534159Y-88600500D01*
X137520778Y-88568195D01*
X137520771Y-88568182D01*
X137444114Y-88453458D01*
X137444111Y-88453454D01*
X137346545Y-88355888D01*
X137346541Y-88355885D01*
X137231817Y-88279228D01*
X137231804Y-88279221D01*
X137105621Y-88226955D01*
X137105620Y-88226955D01*
X137104328Y-88226420D01*
X137104324Y-88226419D01*
X137104322Y-88226418D01*
X136968995Y-88199500D01*
X136968993Y-88199500D01*
X136831007Y-88199500D01*
X136831005Y-88199500D01*
X136695677Y-88226418D01*
X136695667Y-88226421D01*
X136568195Y-88279221D01*
X136568182Y-88279228D01*
X136453458Y-88355885D01*
X136453454Y-88355888D01*
X136355888Y-88453454D01*
X136355885Y-88453458D01*
X136279228Y-88568182D01*
X136279221Y-88568195D01*
X136226421Y-88695667D01*
X136226418Y-88695677D01*
X136199500Y-88831004D01*
X136199500Y-88831007D01*
X136199500Y-88968993D01*
X136199500Y-88968995D01*
X136199499Y-88968995D01*
X135400500Y-88968995D01*
X135400500Y-88120521D01*
X142196300Y-88120521D01*
X142196300Y-88279479D01*
X142223095Y-88379479D01*
X142237442Y-88433022D01*
X142291093Y-88525948D01*
X142307566Y-88593848D01*
X142286811Y-88656835D01*
X142279223Y-88668191D01*
X142226421Y-88795667D01*
X142226418Y-88795677D01*
X142199500Y-88931004D01*
X142199500Y-88931007D01*
X142199500Y-89068993D01*
X142199500Y-89068995D01*
X142199499Y-89068995D01*
X142226418Y-89204322D01*
X142226421Y-89204332D01*
X142279221Y-89331804D01*
X142279228Y-89331817D01*
X142355885Y-89446541D01*
X142355888Y-89446545D01*
X142453454Y-89544111D01*
X142453458Y-89544114D01*
X142568182Y-89620771D01*
X142568195Y-89620778D01*
X142682640Y-89668182D01*
X142695672Y-89673580D01*
X142695676Y-89673580D01*
X142695677Y-89673581D01*
X142831004Y-89700500D01*
X142831007Y-89700500D01*
X142968995Y-89700500D01*
X143060041Y-89682389D01*
X143104328Y-89673580D01*
X143231811Y-89620775D01*
X143346542Y-89544114D01*
X143444114Y-89446542D01*
X143461501Y-89420521D01*
X145096300Y-89420521D01*
X145096300Y-89579479D01*
X145137441Y-89733019D01*
X145216920Y-89870680D01*
X145329320Y-89983080D01*
X145466981Y-90062559D01*
X145620521Y-90103700D01*
X145620523Y-90103700D01*
X145779476Y-90103700D01*
X145779479Y-90103700D01*
X145933019Y-90062559D01*
X146070680Y-89983080D01*
X146183080Y-89870680D01*
X146262559Y-89733019D01*
X146303700Y-89579479D01*
X146303700Y-89420521D01*
X146262559Y-89266981D01*
X146183080Y-89129320D01*
X146070680Y-89016920D01*
X145933019Y-88937441D01*
X145779479Y-88896300D01*
X145620521Y-88896300D01*
X145466981Y-88937441D01*
X145466979Y-88937441D01*
X145466979Y-88937442D01*
X145329320Y-89016920D01*
X145329317Y-89016922D01*
X145216922Y-89129317D01*
X145216920Y-89129320D01*
X145157747Y-89231811D01*
X145137441Y-89266981D01*
X145096300Y-89420521D01*
X143461501Y-89420521D01*
X143520775Y-89331811D01*
X143573580Y-89204328D01*
X143593471Y-89104332D01*
X143600500Y-89068995D01*
X143600500Y-88931004D01*
X143573581Y-88795677D01*
X143573580Y-88795676D01*
X143573580Y-88795672D01*
X143568363Y-88783077D01*
X143520778Y-88668195D01*
X143520771Y-88668182D01*
X143444114Y-88553458D01*
X143444111Y-88553454D01*
X143404965Y-88514309D01*
X143371479Y-88452986D01*
X143372869Y-88394538D01*
X143403700Y-88279479D01*
X143403700Y-88120521D01*
X143363099Y-87968995D01*
X148299499Y-87968995D01*
X148326418Y-88104322D01*
X148326421Y-88104332D01*
X148379221Y-88231804D01*
X148379228Y-88231817D01*
X148455885Y-88346541D01*
X148455888Y-88346545D01*
X148553454Y-88444111D01*
X148553458Y-88444114D01*
X148668182Y-88520771D01*
X148668195Y-88520778D01*
X148782640Y-88568182D01*
X148795672Y-88573580D01*
X148795676Y-88573580D01*
X148795677Y-88573581D01*
X148931004Y-88600500D01*
X148931007Y-88600500D01*
X149068995Y-88600500D01*
X149160041Y-88582389D01*
X149204328Y-88573580D01*
X149331811Y-88520775D01*
X149446542Y-88444114D01*
X149544114Y-88346542D01*
X149620775Y-88231811D01*
X149620776Y-88231808D01*
X149620778Y-88231805D01*
X149625452Y-88220521D01*
X151196300Y-88220521D01*
X151196300Y-88379479D01*
X151237441Y-88533019D01*
X151316920Y-88670680D01*
X151429320Y-88783080D01*
X151566981Y-88862559D01*
X151720521Y-88903700D01*
X151720523Y-88903700D01*
X151879476Y-88903700D01*
X151879479Y-88903700D01*
X152033019Y-88862559D01*
X152170680Y-88783080D01*
X152283080Y-88670680D01*
X152362559Y-88533019D01*
X152403700Y-88379479D01*
X152403700Y-88220521D01*
X152362559Y-88066981D01*
X152283080Y-87929320D01*
X152170680Y-87816920D01*
X152033019Y-87737441D01*
X151879479Y-87696300D01*
X151720521Y-87696300D01*
X151566981Y-87737441D01*
X151566979Y-87737441D01*
X151566979Y-87737442D01*
X151429320Y-87816920D01*
X151429317Y-87816922D01*
X151316922Y-87929317D01*
X151316920Y-87929320D01*
X151294014Y-87968995D01*
X151237441Y-88066981D01*
X151196300Y-88220521D01*
X149625452Y-88220521D01*
X149648473Y-88164942D01*
X149648473Y-88164941D01*
X149673580Y-88104328D01*
X149700500Y-87968993D01*
X149700500Y-87831007D01*
X149700500Y-87831004D01*
X149673581Y-87695677D01*
X149673580Y-87695676D01*
X149673580Y-87695672D01*
X149659864Y-87662559D01*
X149620778Y-87568195D01*
X149620771Y-87568182D01*
X149544114Y-87453458D01*
X149544111Y-87453454D01*
X149446545Y-87355888D01*
X149446541Y-87355885D01*
X149331817Y-87279228D01*
X149331804Y-87279221D01*
X149204332Y-87226421D01*
X149204322Y-87226418D01*
X149068995Y-87199500D01*
X149068993Y-87199500D01*
X148931007Y-87199500D01*
X148931005Y-87199500D01*
X148795677Y-87226418D01*
X148795667Y-87226421D01*
X148668195Y-87279221D01*
X148668182Y-87279228D01*
X148553458Y-87355885D01*
X148553454Y-87355888D01*
X148455888Y-87453454D01*
X148455885Y-87453458D01*
X148379228Y-87568182D01*
X148379221Y-87568195D01*
X148326421Y-87695667D01*
X148326418Y-87695677D01*
X148299500Y-87831004D01*
X148299500Y-87831007D01*
X148299500Y-87968993D01*
X148299500Y-87968995D01*
X148299499Y-87968995D01*
X143363099Y-87968995D01*
X143362559Y-87966981D01*
X143340815Y-87929320D01*
X143316334Y-87886917D01*
X143316333Y-87886916D01*
X143312039Y-87879479D01*
X143283080Y-87829320D01*
X143170680Y-87716920D01*
X143033019Y-87637441D01*
X142879479Y-87596300D01*
X142720521Y-87596300D01*
X142566981Y-87637441D01*
X142566979Y-87637441D01*
X142566979Y-87637442D01*
X142429320Y-87716920D01*
X142429317Y-87716922D01*
X142316922Y-87829317D01*
X142316920Y-87829320D01*
X142287961Y-87879479D01*
X142237441Y-87966981D01*
X142196300Y-88120521D01*
X135400500Y-88120521D01*
X135400500Y-87020521D01*
X157596300Y-87020521D01*
X157596300Y-87179479D01*
X157637441Y-87333019D01*
X157716920Y-87470680D01*
X157829320Y-87583080D01*
X157966981Y-87662559D01*
X158120521Y-87703700D01*
X158120523Y-87703700D01*
X158279476Y-87703700D01*
X158279479Y-87703700D01*
X158433019Y-87662559D01*
X158570680Y-87583080D01*
X158683080Y-87470680D01*
X158762559Y-87333019D01*
X158803700Y-87179479D01*
X158803700Y-87020521D01*
X158762559Y-86866981D01*
X158683080Y-86729320D01*
X158570680Y-86616920D01*
X158570679Y-86616919D01*
X158566490Y-86613705D01*
X158525286Y-86557278D01*
X158521129Y-86487532D01*
X158555340Y-86426611D01*
X158609878Y-86395554D01*
X158733019Y-86362559D01*
X158870680Y-86283080D01*
X158983080Y-86170680D01*
X159062559Y-86033019D01*
X159103700Y-85879479D01*
X159103700Y-85720521D01*
X159062559Y-85566981D01*
X159021391Y-85495677D01*
X158985355Y-85433260D01*
X158968882Y-85365360D01*
X158991734Y-85299333D01*
X159030742Y-85263873D01*
X159033016Y-85262559D01*
X159033019Y-85262559D01*
X159170680Y-85183080D01*
X159283080Y-85070680D01*
X159362559Y-84933019D01*
X159403700Y-84779479D01*
X159403700Y-84620521D01*
X159362559Y-84466981D01*
X159283080Y-84329320D01*
X159241441Y-84287681D01*
X159207956Y-84226358D01*
X159212940Y-84156666D01*
X159241441Y-84112319D01*
X159283080Y-84070680D01*
X159362559Y-83933019D01*
X159403700Y-83779479D01*
X159403700Y-83620521D01*
X159362559Y-83466981D01*
X159283080Y-83329320D01*
X159170680Y-83216920D01*
X159033019Y-83137441D01*
X158879479Y-83096300D01*
X158720521Y-83096300D01*
X158566981Y-83137441D01*
X158566979Y-83137441D01*
X158566979Y-83137442D01*
X158429320Y-83216920D01*
X158429317Y-83216922D01*
X158316922Y-83329317D01*
X158316920Y-83329320D01*
X158237957Y-83466088D01*
X158237441Y-83466981D01*
X158196300Y-83620521D01*
X158196300Y-83779479D01*
X158237441Y-83933019D01*
X158316920Y-84070680D01*
X158316922Y-84070682D01*
X158358559Y-84112319D01*
X158392044Y-84173642D01*
X158387060Y-84243334D01*
X158358559Y-84287681D01*
X158316922Y-84329317D01*
X158316920Y-84329320D01*
X158287961Y-84379479D01*
X158237441Y-84466981D01*
X158196300Y-84620521D01*
X158196300Y-84779479D01*
X158233128Y-84916922D01*
X158237442Y-84933022D01*
X158314644Y-85066739D01*
X158331117Y-85134639D01*
X158308265Y-85200666D01*
X158269258Y-85236126D01*
X158129320Y-85316920D01*
X158129317Y-85316922D01*
X158016922Y-85429317D01*
X158016920Y-85429320D01*
X157987961Y-85479479D01*
X157937441Y-85566981D01*
X157896300Y-85720521D01*
X157896300Y-85879479D01*
X157937441Y-86033019D01*
X158016920Y-86170680D01*
X158129320Y-86283080D01*
X158129322Y-86283081D01*
X158133508Y-86286293D01*
X158174713Y-86342719D01*
X158178870Y-86412465D01*
X158144660Y-86473386D01*
X158090119Y-86504446D01*
X158052087Y-86514636D01*
X157966981Y-86537441D01*
X157966979Y-86537441D01*
X157966979Y-86537442D01*
X157829320Y-86616920D01*
X157829317Y-86616922D01*
X157716922Y-86729317D01*
X157716920Y-86729320D01*
X157697731Y-86762557D01*
X157637441Y-86866981D01*
X157596300Y-87020521D01*
X135400500Y-87020521D01*
X135400500Y-86120521D01*
X135796300Y-86120521D01*
X135796300Y-86279479D01*
X135837441Y-86433019D01*
X135916920Y-86570680D01*
X136029320Y-86683080D01*
X136166981Y-86762559D01*
X136320521Y-86803700D01*
X136320523Y-86803700D01*
X136479476Y-86803700D01*
X136479479Y-86803700D01*
X136633019Y-86762559D01*
X136770680Y-86683080D01*
X136883080Y-86570680D01*
X136962559Y-86433019D01*
X137003700Y-86279479D01*
X137003700Y-86120521D01*
X136962559Y-85966981D01*
X136883080Y-85829320D01*
X136770680Y-85716920D01*
X136633019Y-85637441D01*
X136479479Y-85596300D01*
X136320521Y-85596300D01*
X136166981Y-85637441D01*
X136166979Y-85637441D01*
X136166979Y-85637442D01*
X136029320Y-85716920D01*
X136029317Y-85716922D01*
X135916922Y-85829317D01*
X135916920Y-85829320D01*
X135887961Y-85879479D01*
X135837441Y-85966981D01*
X135796300Y-86120521D01*
X135400500Y-86120521D01*
X135400500Y-85320521D01*
X141796300Y-85320521D01*
X141796300Y-85479479D01*
X141837441Y-85633019D01*
X141916920Y-85770680D01*
X142029320Y-85883080D01*
X142166981Y-85962559D01*
X142320521Y-86003700D01*
X142320523Y-86003700D01*
X142479476Y-86003700D01*
X142479479Y-86003700D01*
X142633019Y-85962559D01*
X142770680Y-85883080D01*
X142883080Y-85770680D01*
X142962559Y-85633019D01*
X143003700Y-85479479D01*
X143003700Y-85320521D01*
X143496300Y-85320521D01*
X143496300Y-85479479D01*
X143537441Y-85633019D01*
X143616920Y-85770680D01*
X143729320Y-85883080D01*
X143866981Y-85962559D01*
X144020521Y-86003700D01*
X144020523Y-86003700D01*
X144179476Y-86003700D01*
X144179479Y-86003700D01*
X144333019Y-85962559D01*
X144470680Y-85883080D01*
X144583080Y-85770680D01*
X144584053Y-85768995D01*
X146399499Y-85768995D01*
X146426418Y-85904322D01*
X146426421Y-85904332D01*
X146479221Y-86031804D01*
X146479228Y-86031817D01*
X146555885Y-86146541D01*
X146555888Y-86146545D01*
X146653454Y-86244111D01*
X146653458Y-86244114D01*
X146768182Y-86320771D01*
X146768195Y-86320778D01*
X146895667Y-86373578D01*
X146895672Y-86373580D01*
X146895676Y-86373580D01*
X146895677Y-86373581D01*
X147031004Y-86400500D01*
X147031007Y-86400500D01*
X147168995Y-86400500D01*
X147260041Y-86382389D01*
X147304328Y-86373580D01*
X147431811Y-86320775D01*
X147546542Y-86244114D01*
X147644114Y-86146542D01*
X147720775Y-86031811D01*
X147773580Y-85904328D01*
X147800164Y-85770682D01*
X147800500Y-85768995D01*
X147800500Y-85631004D01*
X147773581Y-85495677D01*
X147773580Y-85495676D01*
X147773580Y-85495672D01*
X147766873Y-85479479D01*
X147720778Y-85368195D01*
X147720771Y-85368182D01*
X147644114Y-85253458D01*
X147644111Y-85253454D01*
X147546545Y-85155888D01*
X147546541Y-85155885D01*
X147431817Y-85079228D01*
X147431804Y-85079221D01*
X147304332Y-85026421D01*
X147304322Y-85026418D01*
X147168995Y-84999500D01*
X147168993Y-84999500D01*
X147031007Y-84999500D01*
X147031005Y-84999500D01*
X146895677Y-85026418D01*
X146895667Y-85026421D01*
X146768195Y-85079221D01*
X146768182Y-85079228D01*
X146653458Y-85155885D01*
X146653454Y-85155888D01*
X146555888Y-85253454D01*
X146555885Y-85253458D01*
X146479228Y-85368182D01*
X146479221Y-85368195D01*
X146426421Y-85495667D01*
X146426418Y-85495677D01*
X146399500Y-85631004D01*
X146399500Y-85631007D01*
X146399500Y-85768993D01*
X146399500Y-85768995D01*
X146399499Y-85768995D01*
X144584053Y-85768995D01*
X144662559Y-85633019D01*
X144703700Y-85479479D01*
X144703700Y-85320521D01*
X144662559Y-85166981D01*
X144583080Y-85029320D01*
X144470680Y-84916920D01*
X144333019Y-84837441D01*
X144179479Y-84796300D01*
X144020521Y-84796300D01*
X143866981Y-84837441D01*
X143866979Y-84837441D01*
X143866979Y-84837442D01*
X143729320Y-84916920D01*
X143729317Y-84916922D01*
X143616922Y-85029317D01*
X143616920Y-85029320D01*
X143543846Y-85155888D01*
X143537441Y-85166981D01*
X143496300Y-85320521D01*
X143003700Y-85320521D01*
X142962559Y-85166981D01*
X142883080Y-85029320D01*
X142770680Y-84916920D01*
X142633019Y-84837441D01*
X142479479Y-84796300D01*
X142320521Y-84796300D01*
X142166981Y-84837441D01*
X142166979Y-84837441D01*
X142166979Y-84837442D01*
X142029320Y-84916920D01*
X142029317Y-84916922D01*
X141916922Y-85029317D01*
X141916920Y-85029320D01*
X141843846Y-85155888D01*
X141837441Y-85166981D01*
X141796300Y-85320521D01*
X135400500Y-85320521D01*
X135400500Y-84320521D01*
X149196300Y-84320521D01*
X149196300Y-84479479D01*
X149237441Y-84633019D01*
X149316920Y-84770680D01*
X149429320Y-84883080D01*
X149566981Y-84962559D01*
X149720521Y-85003700D01*
X149720523Y-85003700D01*
X149879476Y-85003700D01*
X149879479Y-85003700D01*
X150033019Y-84962559D01*
X150170680Y-84883080D01*
X150283080Y-84770680D01*
X150362559Y-84633019D01*
X150403700Y-84479479D01*
X150403700Y-84320521D01*
X150376905Y-84220521D01*
X155396300Y-84220521D01*
X155396300Y-84379479D01*
X155437441Y-84533019D01*
X155516920Y-84670680D01*
X155629320Y-84783080D01*
X155766981Y-84862559D01*
X155920521Y-84903700D01*
X155920523Y-84903700D01*
X156079476Y-84903700D01*
X156079479Y-84903700D01*
X156233019Y-84862559D01*
X156370680Y-84783080D01*
X156483080Y-84670680D01*
X156543691Y-84565698D01*
X156594259Y-84517484D01*
X156651078Y-84503700D01*
X156779476Y-84503700D01*
X156779479Y-84503700D01*
X156933019Y-84462559D01*
X157070680Y-84383080D01*
X157183080Y-84270680D01*
X157262559Y-84133019D01*
X157303700Y-83979479D01*
X157303700Y-83820521D01*
X157262559Y-83666981D01*
X157235736Y-83620523D01*
X157203656Y-83564958D01*
X157187183Y-83497058D01*
X157210035Y-83431031D01*
X157249041Y-83395572D01*
X157270680Y-83383080D01*
X157383080Y-83270680D01*
X157462559Y-83133019D01*
X157503700Y-82979479D01*
X157503700Y-82820521D01*
X157463099Y-82668995D01*
X160799499Y-82668995D01*
X160826418Y-82804322D01*
X160826421Y-82804332D01*
X160879221Y-82931804D01*
X160879228Y-82931817D01*
X160955885Y-83046541D01*
X160955888Y-83046545D01*
X161053454Y-83144111D01*
X161053458Y-83144114D01*
X161168182Y-83220771D01*
X161168195Y-83220778D01*
X161295667Y-83273578D01*
X161295672Y-83273580D01*
X161295676Y-83273580D01*
X161295677Y-83273581D01*
X161431004Y-83300500D01*
X161431007Y-83300500D01*
X161568995Y-83300500D01*
X161660041Y-83282389D01*
X161704328Y-83273580D01*
X161831811Y-83220775D01*
X161946542Y-83144114D01*
X162044114Y-83046542D01*
X162120775Y-82931811D01*
X162173580Y-82804328D01*
X162200500Y-82668993D01*
X162200500Y-82531007D01*
X162200500Y-82531004D01*
X162173581Y-82395677D01*
X162173580Y-82395676D01*
X162173580Y-82395672D01*
X162173578Y-82395667D01*
X162120778Y-82268195D01*
X162120771Y-82268182D01*
X162044114Y-82153458D01*
X162044111Y-82153454D01*
X161946545Y-82055888D01*
X161946541Y-82055885D01*
X161831817Y-81979228D01*
X161831804Y-81979221D01*
X161704332Y-81926421D01*
X161704322Y-81926418D01*
X161568995Y-81899500D01*
X161568993Y-81899500D01*
X161431007Y-81899500D01*
X161431005Y-81899500D01*
X161295677Y-81926418D01*
X161295667Y-81926421D01*
X161168195Y-81979221D01*
X161168182Y-81979228D01*
X161053458Y-82055885D01*
X161053454Y-82055888D01*
X160955888Y-82153454D01*
X160955885Y-82153458D01*
X160879228Y-82268182D01*
X160879221Y-82268195D01*
X160826421Y-82395667D01*
X160826418Y-82395677D01*
X160799500Y-82531004D01*
X160799500Y-82531007D01*
X160799500Y-82668993D01*
X160799500Y-82668995D01*
X160799499Y-82668995D01*
X157463099Y-82668995D01*
X157462559Y-82666981D01*
X157383080Y-82529320D01*
X157270680Y-82416920D01*
X157133019Y-82337441D01*
X156979479Y-82296300D01*
X156820521Y-82296300D01*
X156666981Y-82337441D01*
X156666979Y-82337441D01*
X156666979Y-82337442D01*
X156529320Y-82416920D01*
X156529317Y-82416922D01*
X156416922Y-82529317D01*
X156416920Y-82529320D01*
X156337441Y-82666981D01*
X156296300Y-82820521D01*
X156296300Y-82979479D01*
X156337441Y-83133019D01*
X156388107Y-83220775D01*
X156396343Y-83235039D01*
X156412816Y-83302940D01*
X156389964Y-83368967D01*
X156350960Y-83404425D01*
X156329323Y-83416917D01*
X156329317Y-83416922D01*
X156216922Y-83529317D01*
X156216920Y-83529320D01*
X156157049Y-83633020D01*
X156156309Y-83634301D01*
X156105741Y-83682516D01*
X156048922Y-83696300D01*
X155920521Y-83696300D01*
X155766981Y-83737441D01*
X155766979Y-83737441D01*
X155766979Y-83737442D01*
X155629320Y-83816920D01*
X155629317Y-83816922D01*
X155516922Y-83929317D01*
X155516920Y-83929320D01*
X155487961Y-83979479D01*
X155437441Y-84066981D01*
X155396300Y-84220521D01*
X150376905Y-84220521D01*
X150362559Y-84166981D01*
X150283080Y-84029320D01*
X150170680Y-83916920D01*
X150033019Y-83837441D01*
X149879479Y-83796300D01*
X149720521Y-83796300D01*
X149566981Y-83837441D01*
X149566979Y-83837441D01*
X149566979Y-83837442D01*
X149429320Y-83916920D01*
X149429317Y-83916922D01*
X149316922Y-84029317D01*
X149316920Y-84029320D01*
X149293040Y-84070682D01*
X149237441Y-84166981D01*
X149196300Y-84320521D01*
X135400500Y-84320521D01*
X135400500Y-83620521D01*
X139096300Y-83620521D01*
X139096300Y-83779479D01*
X139137441Y-83933019D01*
X139216920Y-84070680D01*
X139329320Y-84183080D01*
X139466981Y-84262559D01*
X139620521Y-84303700D01*
X139620523Y-84303700D01*
X139779476Y-84303700D01*
X139779479Y-84303700D01*
X139933019Y-84262559D01*
X140070680Y-84183080D01*
X140183080Y-84070680D01*
X140262559Y-83933019D01*
X140303700Y-83779479D01*
X140303700Y-83620521D01*
X140262559Y-83466981D01*
X140262043Y-83466088D01*
X140209105Y-83374396D01*
X140209104Y-83374395D01*
X140205970Y-83368967D01*
X140183080Y-83329320D01*
X140174281Y-83320521D01*
X144996300Y-83320521D01*
X144996300Y-83479479D01*
X145037441Y-83633019D01*
X145116920Y-83770680D01*
X145229320Y-83883080D01*
X145366981Y-83962559D01*
X145520521Y-84003700D01*
X145520523Y-84003700D01*
X145679476Y-84003700D01*
X145679479Y-84003700D01*
X145833019Y-83962559D01*
X145970680Y-83883080D01*
X146083080Y-83770680D01*
X146162559Y-83633019D01*
X146203700Y-83479479D01*
X146203700Y-83320521D01*
X146162559Y-83166981D01*
X146083080Y-83029320D01*
X145970680Y-82916920D01*
X145833019Y-82837441D01*
X145679479Y-82796300D01*
X145520521Y-82796300D01*
X145366981Y-82837441D01*
X145366979Y-82837441D01*
X145366979Y-82837442D01*
X145229320Y-82916920D01*
X145229317Y-82916922D01*
X145116922Y-83029317D01*
X145116920Y-83029320D01*
X145037441Y-83166981D01*
X144996300Y-83320521D01*
X140174281Y-83320521D01*
X140070680Y-83216920D01*
X139933019Y-83137441D01*
X139779479Y-83096300D01*
X139620521Y-83096300D01*
X139466981Y-83137441D01*
X139466979Y-83137441D01*
X139466979Y-83137442D01*
X139329320Y-83216920D01*
X139329317Y-83216922D01*
X139216922Y-83329317D01*
X139216920Y-83329320D01*
X139137957Y-83466088D01*
X139137441Y-83466981D01*
X139096300Y-83620521D01*
X135400500Y-83620521D01*
X135400500Y-79620521D01*
X138396300Y-79620521D01*
X138396300Y-79779479D01*
X138437441Y-79933019D01*
X138516920Y-80070680D01*
X138629320Y-80183080D01*
X138766981Y-80262559D01*
X138920521Y-80303700D01*
X138920523Y-80303700D01*
X139079476Y-80303700D01*
X139079479Y-80303700D01*
X139233019Y-80262559D01*
X139305831Y-80220521D01*
X140496300Y-80220521D01*
X140496300Y-80379479D01*
X140537441Y-80533019D01*
X140616920Y-80670680D01*
X140729320Y-80783080D01*
X140866981Y-80862559D01*
X141020521Y-80903700D01*
X141020523Y-80903700D01*
X141179476Y-80903700D01*
X141179479Y-80903700D01*
X141333019Y-80862559D01*
X141470680Y-80783080D01*
X141583080Y-80670680D01*
X141612039Y-80620521D01*
X159096300Y-80620521D01*
X159096300Y-80779479D01*
X159137441Y-80933019D01*
X159216920Y-81070680D01*
X159329320Y-81183080D01*
X159466981Y-81262559D01*
X159620521Y-81303700D01*
X159620523Y-81303700D01*
X159779476Y-81303700D01*
X159779479Y-81303700D01*
X159933019Y-81262559D01*
X160070680Y-81183080D01*
X160070681Y-81183078D01*
X160070684Y-81183077D01*
X160074169Y-81180403D01*
X160077639Y-81179061D01*
X160077718Y-81179016D01*
X160077725Y-81179028D01*
X160139338Y-81155208D01*
X160207783Y-81169246D01*
X160237337Y-81191097D01*
X160329320Y-81283080D01*
X160466981Y-81362559D01*
X160620521Y-81403700D01*
X160620523Y-81403700D01*
X160779476Y-81403700D01*
X160779479Y-81403700D01*
X160933019Y-81362559D01*
X161070680Y-81283080D01*
X161183080Y-81170680D01*
X161262559Y-81033019D01*
X161303700Y-80879479D01*
X161303700Y-80720521D01*
X161262559Y-80566981D01*
X161183080Y-80429320D01*
X161070680Y-80316920D01*
X160933019Y-80237441D01*
X160779479Y-80196300D01*
X160620521Y-80196300D01*
X160466981Y-80237441D01*
X160466979Y-80237441D01*
X160466979Y-80237442D01*
X160329315Y-80316922D01*
X160325831Y-80319597D01*
X160322360Y-80320938D01*
X160322282Y-80320984D01*
X160322274Y-80320971D01*
X160260662Y-80344792D01*
X160192217Y-80330754D01*
X160162663Y-80308903D01*
X160070682Y-80216922D01*
X160070680Y-80216920D01*
X159933019Y-80137441D01*
X159779479Y-80096300D01*
X159620521Y-80096300D01*
X159466981Y-80137441D01*
X159466979Y-80137441D01*
X159466979Y-80137442D01*
X159329320Y-80216920D01*
X159329317Y-80216922D01*
X159216922Y-80329317D01*
X159216920Y-80329320D01*
X159187961Y-80379479D01*
X159137441Y-80466981D01*
X159096300Y-80620521D01*
X141612039Y-80620521D01*
X141662559Y-80533019D01*
X141703700Y-80379479D01*
X141703700Y-80220521D01*
X141662559Y-80066981D01*
X141583080Y-79929320D01*
X141470680Y-79816920D01*
X141333019Y-79737441D01*
X141179479Y-79696300D01*
X141020521Y-79696300D01*
X140866981Y-79737441D01*
X140866979Y-79737441D01*
X140866979Y-79737442D01*
X140729320Y-79816920D01*
X140729317Y-79816922D01*
X140616922Y-79929317D01*
X140616920Y-79929320D01*
X140537441Y-80066981D01*
X140496300Y-80220521D01*
X139305831Y-80220521D01*
X139370680Y-80183080D01*
X139483080Y-80070680D01*
X139562559Y-79933019D01*
X139603700Y-79779479D01*
X139603700Y-79620521D01*
X139562559Y-79466981D01*
X139483080Y-79329320D01*
X139370680Y-79216920D01*
X139233019Y-79137441D01*
X139079479Y-79096300D01*
X138920521Y-79096300D01*
X138766981Y-79137441D01*
X138766979Y-79137441D01*
X138766979Y-79137442D01*
X138629320Y-79216920D01*
X138629317Y-79216922D01*
X138516922Y-79329317D01*
X138516920Y-79329320D01*
X138437441Y-79466981D01*
X138396300Y-79620521D01*
X135400500Y-79620521D01*
X135400500Y-78320521D01*
X139796300Y-78320521D01*
X139796300Y-78479479D01*
X139837441Y-78633019D01*
X139916920Y-78770680D01*
X140029320Y-78883080D01*
X140166981Y-78962559D01*
X140320521Y-79003700D01*
X140320523Y-79003700D01*
X140479476Y-79003700D01*
X140479479Y-79003700D01*
X140633019Y-78962559D01*
X140770680Y-78883080D01*
X140883080Y-78770680D01*
X140962559Y-78633019D01*
X141003700Y-78479479D01*
X141003700Y-78320521D01*
X140962559Y-78166981D01*
X140883080Y-78029320D01*
X140770680Y-77916920D01*
X140633019Y-77837441D01*
X140479479Y-77796300D01*
X140320521Y-77796300D01*
X140166981Y-77837441D01*
X140166979Y-77837441D01*
X140166979Y-77837442D01*
X140029320Y-77916920D01*
X140029317Y-77916922D01*
X139916922Y-78029317D01*
X139916920Y-78029320D01*
X139837441Y-78166981D01*
X139796300Y-78320521D01*
X135400500Y-78320521D01*
X135400500Y-73003480D01*
X135400695Y-72996528D01*
X135410508Y-72821787D01*
X135416455Y-72715890D01*
X135418009Y-72702095D01*
X135464508Y-72428423D01*
X135467602Y-72414868D01*
X135544449Y-72148128D01*
X135549042Y-72135004D01*
X135569652Y-72085246D01*
X135655269Y-71878545D01*
X135661291Y-71866039D01*
X135795575Y-71623072D01*
X135802970Y-71611304D01*
X135963605Y-71384909D01*
X135972261Y-71374055D01*
X136157245Y-71167057D01*
X136167057Y-71157245D01*
X136374055Y-70972261D01*
X136384909Y-70963605D01*
X136611309Y-70802966D01*
X136623072Y-70795575D01*
X136866039Y-70661291D01*
X136878545Y-70655269D01*
X137135004Y-70549042D01*
X137148124Y-70544450D01*
X137414869Y-70467601D01*
X137428425Y-70464508D01*
X137702095Y-70418009D01*
X137715890Y-70416455D01*
X137965169Y-70402456D01*
X137996529Y-70400695D01*
X138003481Y-70400500D01*
X138057583Y-70400500D01*
X161942417Y-70400500D01*
X161996519Y-70400500D01*
X162003471Y-70400695D01*
G37*
%TD.AperFunction*%
%TD*%
M02*
